G04 #@! TF.FileFunction,Copper,L1,Top,Signal*
%FSLAX46Y46*%
G04 Gerber Fmt 4.6, Leading zero omitted, Abs format (unit mm)*
G04 Created by KiCad (PCBNEW 4.0.5+dfsg1-4) date Thu Mar  2 23:52:06 2017*
%MOMM*%
%LPD*%
G01*
G04 APERTURE LIST*
%ADD10C,0.100000*%
%ADD11R,3.200000X2.500000*%
%ADD12R,0.750000X1.200000*%
%ADD13R,1.200000X0.750000*%
%ADD14R,1.220000X0.910000*%
%ADD15R,0.910000X1.220000*%
%ADD16R,4.200000X2.400000*%
%ADD17R,2.400000X4.200000*%
%ADD18R,1.350000X0.400000*%
%ADD19O,1.250000X1.250000*%
%ADD20O,1.550000X1.800000*%
%ADD21C,1.397000*%
%ADD22R,1.397000X1.397000*%
%ADD23R,0.900000X1.200000*%
%ADD24R,1.200000X0.900000*%
%ADD25R,0.700000X0.250000*%
%ADD26R,0.250000X0.700000*%
%ADD27R,1.287500X1.287500*%
%ADD28R,2.000000X3.800000*%
%ADD29R,2.000000X1.500000*%
%ADD30C,0.600000*%
%ADD31C,0.280000*%
%ADD32C,0.250000*%
%ADD33C,0.800000*%
%ADD34C,0.249800*%
%ADD35C,0.254000*%
G04 APERTURE END LIST*
D10*
D11*
X62450000Y-86900000D03*
X66750000Y-86900000D03*
D12*
X61300000Y-70750000D03*
X61300000Y-72650000D03*
X95200000Y-69050000D03*
X95200000Y-67150000D03*
X93700000Y-69050000D03*
X93700000Y-67150000D03*
X103700000Y-69050000D03*
X103700000Y-67150000D03*
X105200000Y-69050000D03*
X105200000Y-67150000D03*
X119100000Y-69050000D03*
X119100000Y-67150000D03*
D13*
X127450000Y-67200000D03*
X129350000Y-67200000D03*
D12*
X106700000Y-69050000D03*
X106700000Y-67150000D03*
D13*
X140350000Y-67400000D03*
X138450000Y-67400000D03*
X81250000Y-70100000D03*
X79350000Y-70100000D03*
X81350000Y-78100000D03*
X79450000Y-78100000D03*
X81350000Y-79600000D03*
X79450000Y-79600000D03*
X129250000Y-88200000D03*
X127350000Y-88200000D03*
X138350000Y-88600000D03*
X140250000Y-88600000D03*
X127350000Y-91200000D03*
X129250000Y-91200000D03*
X127350000Y-89700000D03*
X129250000Y-89700000D03*
D12*
X115200000Y-91850000D03*
X115200000Y-93750000D03*
D13*
X81350000Y-86400000D03*
X79450000Y-86400000D03*
X81350000Y-89600000D03*
X79450000Y-89600000D03*
D12*
X96700000Y-91850000D03*
X96700000Y-93750000D03*
X109700000Y-91750000D03*
X109700000Y-93650000D03*
X98200000Y-91850000D03*
X98200000Y-93750000D03*
D14*
X110800000Y-69435000D03*
X110800000Y-66165000D03*
D15*
X130435000Y-78800000D03*
X127165000Y-78800000D03*
X141235000Y-75100000D03*
X137965000Y-75100000D03*
X127165000Y-83000000D03*
X130435000Y-83000000D03*
X137965000Y-79300000D03*
X141235000Y-79300000D03*
X130335000Y-95300000D03*
X127065000Y-95300000D03*
D16*
X115100000Y-68550000D03*
X115100000Y-64050000D03*
D17*
X143450000Y-93500000D03*
X138950000Y-93500000D03*
D18*
X53962540Y-80399100D03*
X53962540Y-81049100D03*
X53962540Y-81699100D03*
X53962540Y-82349100D03*
X53962540Y-82999100D03*
D19*
X53962540Y-79199100D03*
X53962540Y-84199100D03*
D20*
X51262540Y-78199100D03*
X51262540Y-85199100D03*
D21*
X69080000Y-64060960D03*
X66540000Y-63939040D03*
X64000000Y-64060960D03*
X61460000Y-63939040D03*
X58920000Y-64060960D03*
X71620000Y-63939040D03*
X56380000Y-63939040D03*
D22*
X74160000Y-64060960D03*
D21*
X53840000Y-64060960D03*
X61630000Y-94960960D03*
X64170000Y-94839040D03*
X59090000Y-94839040D03*
X66710000Y-94960960D03*
X56550000Y-94960960D03*
X69250000Y-94839040D03*
D22*
X54010000Y-94839040D03*
D21*
X71790000Y-94960960D03*
D22*
X66970000Y-73400000D03*
D21*
X64430000Y-73400000D03*
X64200000Y-70700000D03*
D23*
X100300000Y-69200000D03*
X100300000Y-67000000D03*
X98700000Y-69200000D03*
X98700000Y-67000000D03*
X90200000Y-67000000D03*
X90200000Y-69200000D03*
X121000000Y-66800000D03*
X121000000Y-69000000D03*
X88500000Y-69200000D03*
X88500000Y-67000000D03*
X86900000Y-69200000D03*
X86900000Y-67000000D03*
D24*
X138400000Y-71000000D03*
X140600000Y-71000000D03*
X79200000Y-74200000D03*
X81400000Y-74200000D03*
X81400000Y-72600000D03*
X79200000Y-72600000D03*
X129600000Y-72700000D03*
X127400000Y-72700000D03*
X140600000Y-69400000D03*
X138400000Y-69400000D03*
X129600000Y-74300000D03*
X127400000Y-74300000D03*
D23*
X72600000Y-72500000D03*
X72600000Y-74700000D03*
D24*
X127400000Y-80900000D03*
X129600000Y-80900000D03*
X140500000Y-77100000D03*
X138300000Y-77100000D03*
X81400000Y-75800000D03*
X79200000Y-75800000D03*
X140500000Y-83500000D03*
X138300000Y-83500000D03*
X81400000Y-82100000D03*
X79200000Y-82100000D03*
X81400000Y-83700000D03*
X79200000Y-83700000D03*
X138300000Y-85100000D03*
X140500000Y-85100000D03*
X81600000Y-92400000D03*
X79400000Y-92400000D03*
X81600000Y-94000000D03*
X79400000Y-94000000D03*
D23*
X112400000Y-93900000D03*
X112400000Y-91700000D03*
X91600000Y-93800000D03*
X91600000Y-91600000D03*
X93200000Y-91600000D03*
X93200000Y-93800000D03*
X106500000Y-93900000D03*
X106500000Y-91700000D03*
X103300000Y-93900000D03*
X103300000Y-91700000D03*
X101700000Y-93900000D03*
X101700000Y-91700000D03*
D24*
X129600000Y-85100000D03*
X127400000Y-85100000D03*
D23*
X85300000Y-69200000D03*
X85300000Y-67000000D03*
D24*
X81500000Y-88000000D03*
X79300000Y-88000000D03*
X129600000Y-71100000D03*
X127400000Y-71100000D03*
D23*
X104900000Y-93900000D03*
X104900000Y-91700000D03*
X90000000Y-91600000D03*
X90000000Y-93800000D03*
D25*
X96300000Y-78050000D03*
X96300000Y-78550000D03*
X96300000Y-79050000D03*
X96300000Y-79550000D03*
X96300000Y-80050000D03*
X96300000Y-80550000D03*
X96300000Y-81050000D03*
X96300000Y-81550000D03*
X96300000Y-82050000D03*
X96300000Y-82550000D03*
X96300000Y-83050000D03*
X96300000Y-83550000D03*
D26*
X96950000Y-84200000D03*
X97450000Y-84200000D03*
X97950000Y-84200000D03*
X98450000Y-84200000D03*
X98950000Y-84200000D03*
X99450000Y-84200000D03*
X99950000Y-84200000D03*
X100450000Y-84200000D03*
X100950000Y-84200000D03*
X101450000Y-84200000D03*
X101950000Y-84200000D03*
X102450000Y-84200000D03*
D25*
X103100000Y-83550000D03*
X103100000Y-83050000D03*
X103100000Y-82550000D03*
X103100000Y-82050000D03*
X103100000Y-81550000D03*
X103100000Y-81050000D03*
X103100000Y-80550000D03*
X103100000Y-80050000D03*
X103100000Y-79550000D03*
X103100000Y-79050000D03*
X103100000Y-78550000D03*
X103100000Y-78050000D03*
D26*
X102450000Y-77400000D03*
X101950000Y-77400000D03*
X101450000Y-77400000D03*
X100950000Y-77400000D03*
X100450000Y-77400000D03*
X99950000Y-77400000D03*
X99450000Y-77400000D03*
X98950000Y-77400000D03*
X98450000Y-77400000D03*
X97950000Y-77400000D03*
X97450000Y-77400000D03*
X96950000Y-77400000D03*
D27*
X101631250Y-82731250D03*
X101631250Y-81443750D03*
X101631250Y-80156250D03*
X101631250Y-78868750D03*
X100343750Y-82731250D03*
X100343750Y-81443750D03*
X100343750Y-80156250D03*
X100343750Y-78868750D03*
X99056250Y-82731250D03*
X99056250Y-81443750D03*
X99056250Y-80156250D03*
X99056250Y-78868750D03*
X97768750Y-82731250D03*
X97768750Y-81443750D03*
X97768750Y-80156250D03*
X97768750Y-78868750D03*
D28*
X67850000Y-80000000D03*
D29*
X61550000Y-80000000D03*
X61550000Y-82300000D03*
X61550000Y-77700000D03*
D30*
X67391000Y-83840300D03*
X120030300Y-66385800D03*
X134700000Y-73900000D03*
X118400000Y-87900000D03*
X93800000Y-89000000D03*
X136000000Y-82500000D03*
X123200000Y-73700000D03*
X63400000Y-97600000D03*
X93900000Y-73600000D03*
X88000000Y-83200000D03*
X83700000Y-77000000D03*
X97200000Y-70800000D03*
X77461000Y-93444800D03*
X99100400Y-75816600D03*
X104207200Y-94986800D03*
X91783000Y-69050000D03*
X99930500Y-75900000D03*
X102233000Y-76363800D03*
X103072700Y-84822700D03*
X95428000Y-82740800D03*
X112494000Y-69032300D03*
X101293600Y-76320300D03*
X109516000Y-66674100D03*
X75312800Y-92390100D03*
X77007600Y-82820300D03*
X73937000Y-74990400D03*
X77579800Y-72524600D03*
X121534900Y-79424400D03*
X125159100Y-75800200D03*
D31*
X61550000Y-82300000D02*
X61550000Y-83390300D01*
X61550000Y-82300000D02*
X61550000Y-81209700D01*
X55788400Y-81209700D02*
X61550000Y-81209700D01*
X54977800Y-80399100D02*
X55788400Y-81209700D01*
X53962500Y-80399100D02*
X54977800Y-80399100D01*
X121000000Y-66800000D02*
X120209700Y-66800000D01*
X62450000Y-83840300D02*
X62450000Y-86900000D01*
X62000000Y-83840300D02*
X62450000Y-83840300D01*
X61550000Y-83390300D02*
X62000000Y-83840300D01*
X62450000Y-83840300D02*
X67391000Y-83840300D01*
X120209700Y-66565200D02*
X120209700Y-66800000D01*
X120030300Y-66385800D02*
X120209700Y-66565200D01*
X88009450Y-83190550D02*
X88000000Y-83200000D01*
X89790550Y-83190550D02*
X88009450Y-83190550D01*
X95934700Y-93800000D02*
X95984700Y-93750000D01*
X93200000Y-93800000D02*
X95934700Y-93800000D01*
X96700000Y-93750000D02*
X95984700Y-93750000D01*
X140500000Y-87634700D02*
X140250000Y-87884700D01*
X140500000Y-85100000D02*
X140500000Y-87634700D01*
X140250000Y-88600000D02*
X140250000Y-87884700D01*
X143450000Y-93500000D02*
X141909700Y-93500000D01*
X140250000Y-88600000D02*
X140250000Y-89315300D01*
X98200000Y-93750000D02*
X96700000Y-93750000D01*
X88219400Y-94790300D02*
X79400000Y-94790300D01*
X89209700Y-93800000D02*
X88219400Y-94790300D01*
X79400000Y-94000000D02*
X79400000Y-94790300D01*
X129250000Y-89700000D02*
X129250000Y-91200000D01*
X85300000Y-67000000D02*
X84509700Y-67000000D01*
X98700000Y-67000000D02*
X99490300Y-67000000D01*
X105200000Y-67150000D02*
X103700000Y-67150000D01*
X103700000Y-67150000D02*
X102984700Y-67150000D01*
X102194300Y-67940400D02*
X101090400Y-67940400D01*
X102984700Y-67150000D02*
X102194300Y-67940400D01*
X99490300Y-67790300D02*
X99490300Y-67000000D01*
X99640400Y-67940400D02*
X99490300Y-67790300D01*
X101090400Y-67940400D02*
X99640400Y-67940400D01*
X56258000Y-64061000D02*
X56380000Y-63939000D01*
X53840000Y-64061000D02*
X56258000Y-64061000D01*
X80340400Y-91205700D02*
X79450000Y-90315300D01*
X80340400Y-93059600D02*
X80340400Y-91205700D01*
X80190300Y-93209700D02*
X80340400Y-93059600D01*
X79400000Y-93209700D02*
X80190300Y-93209700D01*
X79400000Y-94000000D02*
X79400000Y-93209700D01*
X90000000Y-93800000D02*
X89604900Y-93800000D01*
X89604900Y-93800000D02*
X89209700Y-93800000D01*
X92409700Y-93009700D02*
X92409700Y-93800000D01*
X92259600Y-92859600D02*
X92409700Y-93009700D01*
X90545300Y-92859600D02*
X92259600Y-92859600D01*
X89604900Y-93800000D02*
X90545300Y-92859600D01*
X93200000Y-93800000D02*
X92409700Y-93800000D01*
X79350000Y-70100000D02*
X79350000Y-69384700D01*
X118415700Y-96250400D02*
X115915300Y-93750000D01*
X140018900Y-96250400D02*
X118415700Y-96250400D01*
X141909700Y-94359600D02*
X140018900Y-96250400D01*
X141909700Y-93500000D02*
X141909700Y-94359600D01*
X115200000Y-93750000D02*
X115915300Y-93750000D01*
X113394300Y-94840400D02*
X114484700Y-93750000D01*
X111605700Y-94840400D02*
X113394300Y-94840400D01*
X110415300Y-93650000D02*
X111605700Y-94840400D01*
X109700000Y-93650000D02*
X110415300Y-93650000D01*
X115200000Y-93750000D02*
X114484700Y-93750000D01*
X140250000Y-89315300D02*
X140250000Y-89472300D01*
X141909700Y-91132000D02*
X141909700Y-93500000D01*
X140250000Y-89472300D02*
X141909700Y-91132000D01*
X129250000Y-89700000D02*
X130190300Y-89700000D01*
X138400000Y-69400000D02*
X138400000Y-68609700D01*
X100450000Y-76311900D02*
X100450000Y-77400000D01*
X100653300Y-76108600D02*
X100450000Y-76311900D01*
X100653300Y-76055100D02*
X100653300Y-76108600D01*
X101090400Y-75618000D02*
X100653300Y-76055100D01*
X101090400Y-67940400D02*
X101090400Y-75618000D01*
X93700000Y-67150000D02*
X92984700Y-67150000D01*
X92194300Y-67940400D02*
X92984700Y-67150000D01*
X89539200Y-67940400D02*
X92194300Y-67940400D01*
X89290300Y-67691500D02*
X89539200Y-67940400D01*
X89290300Y-67000000D02*
X89290300Y-67691500D01*
X88500000Y-67000000D02*
X89290300Y-67000000D01*
X53962500Y-84199100D02*
X54445200Y-84199100D01*
X53962500Y-82999100D02*
X54977800Y-82999100D01*
X52377800Y-84818500D02*
X52997200Y-84199100D01*
X52377800Y-85199100D02*
X52377800Y-84818500D01*
X53962500Y-84199100D02*
X52997200Y-84199100D01*
X51262500Y-85199100D02*
X52377800Y-85199100D01*
X56502000Y-64061000D02*
X56380000Y-63939000D01*
X58920000Y-64061000D02*
X56502000Y-64061000D01*
X66750000Y-86900000D02*
X66750000Y-88490300D01*
X59801600Y-88490300D02*
X66750000Y-88490300D01*
X54977800Y-83666500D02*
X59801600Y-88490300D01*
X54445200Y-84199100D02*
X54977800Y-83666500D01*
X54977800Y-83666500D02*
X54977800Y-82999100D01*
X71790000Y-93530300D02*
X66750000Y-88490300D01*
X71790000Y-94961000D02*
X71790000Y-93530300D01*
X93700000Y-67150000D02*
X95200000Y-67150000D01*
X97759700Y-67150000D02*
X97909700Y-67000000D01*
X95200000Y-67150000D02*
X97759700Y-67150000D01*
X98700000Y-67000000D02*
X97909700Y-67000000D01*
X60050900Y-79199100D02*
X61550000Y-77700000D01*
X53962500Y-79199100D02*
X60050900Y-79199100D01*
X61550000Y-77700000D02*
X61550000Y-76609700D01*
X60584700Y-65725700D02*
X58920000Y-64061000D01*
X60584700Y-72650000D02*
X60584700Y-65725700D01*
X61300000Y-72650000D02*
X60584700Y-72650000D01*
X83764500Y-67745200D02*
X83764500Y-69235700D01*
X84509700Y-67000000D02*
X83764500Y-67745200D01*
X79499000Y-69235700D02*
X79350000Y-69384700D01*
X83764500Y-69235700D02*
X79499000Y-69235700D01*
X79450000Y-89957600D02*
X79450000Y-90315300D01*
X130418000Y-89472300D02*
X130190300Y-89700000D01*
X140250000Y-89472300D02*
X130418000Y-89472300D01*
X138400000Y-69400000D02*
X138400000Y-70190300D01*
X140500000Y-85100000D02*
X140500000Y-84309700D01*
X138450000Y-68559700D02*
X138450000Y-67400000D01*
X138400000Y-68609700D02*
X138450000Y-68559700D01*
X138450000Y-67400000D02*
X138450000Y-66684700D01*
X142030400Y-75918200D02*
X141440800Y-76507800D01*
X142030400Y-67617600D02*
X142030400Y-75918200D01*
X141097500Y-66684700D02*
X142030400Y-67617600D01*
X138450000Y-66684700D02*
X141097500Y-66684700D01*
X139709700Y-84309700D02*
X140500000Y-84309700D01*
X139559600Y-84159600D02*
X139709700Y-84309700D01*
X139559600Y-82552300D02*
X139559600Y-84159600D01*
X142030400Y-80081500D02*
X139559600Y-82552300D01*
X142030400Y-77097400D02*
X142030400Y-80081500D01*
X141440800Y-76507800D02*
X142030400Y-77097400D01*
X62765300Y-75394400D02*
X61550000Y-76609700D01*
X62765300Y-73400000D02*
X62765300Y-75394400D01*
X64430000Y-73400000D02*
X62765300Y-73400000D01*
X62765300Y-73400000D02*
X62015300Y-72650000D01*
X61300000Y-72650000D02*
X62015300Y-72650000D01*
X77904500Y-93444800D02*
X78459700Y-94000000D01*
X77461000Y-93444800D02*
X77904500Y-93444800D01*
X79400000Y-94000000D02*
X78459700Y-94000000D01*
X79200000Y-83700000D02*
X79200000Y-84490300D01*
X79762500Y-85052800D02*
X79200000Y-84490300D01*
X79450000Y-85365300D02*
X79450000Y-86400000D01*
X79762500Y-85052800D02*
X79450000Y-85365300D01*
X79450000Y-86400000D02*
X79450000Y-87115300D01*
X91928800Y-77400000D02*
X83764500Y-69235700D01*
X96950000Y-77400000D02*
X91928800Y-77400000D01*
X85300000Y-67000000D02*
X86900000Y-67000000D01*
X86900000Y-67000000D02*
X88500000Y-67000000D01*
X80253100Y-89154500D02*
X80253100Y-87381900D01*
X79450000Y-89957600D02*
X80253100Y-89154500D01*
X79986500Y-87115300D02*
X79450000Y-87115300D01*
X80253100Y-87381900D02*
X79986500Y-87115300D01*
X87928300Y-85052800D02*
X79762500Y-85052800D01*
X92431100Y-80550000D02*
X89790550Y-83190550D01*
X89790550Y-83190550D02*
X87928300Y-85052800D01*
X96300000Y-80550000D02*
X92431100Y-80550000D01*
X94580800Y-81550000D02*
X96300000Y-81550000D01*
X88968300Y-87162500D02*
X94580800Y-81550000D01*
X80472500Y-87162500D02*
X88968300Y-87162500D01*
X80253100Y-87381900D02*
X80472500Y-87162500D01*
X105200000Y-67150000D02*
X106700000Y-67150000D01*
X107587700Y-67322400D02*
X107415300Y-67150000D01*
X111437600Y-67322400D02*
X107587700Y-67322400D01*
X111750400Y-67009600D02*
X111437600Y-67322400D01*
X118244300Y-67009600D02*
X111750400Y-67009600D01*
X118384700Y-67150000D02*
X118244300Y-67009600D01*
X139190300Y-70190300D02*
X138400000Y-70190300D01*
X139340400Y-70340400D02*
X139190300Y-70190300D01*
X139340400Y-71590900D02*
X139340400Y-70340400D01*
X139141000Y-71790300D02*
X139340400Y-71590900D01*
X135443400Y-71790300D02*
X139141000Y-71790300D01*
X130137700Y-66484600D02*
X135443400Y-71790300D01*
X124936500Y-66484600D02*
X130137700Y-66484600D01*
X123680700Y-67740400D02*
X124936500Y-66484600D01*
X120405700Y-67740400D02*
X123680700Y-67740400D01*
X119815300Y-67150000D02*
X120405700Y-67740400D01*
X119100000Y-67150000D02*
X119815300Y-67150000D01*
X119100000Y-67150000D02*
X118384700Y-67150000D01*
X106700000Y-67150000D02*
X107415300Y-67150000D01*
X129600000Y-80900000D02*
X129600000Y-80109700D01*
X131047100Y-79750400D02*
X129780900Y-79750400D01*
X134487900Y-76309600D02*
X131047100Y-79750400D01*
X141242600Y-76309600D02*
X134487900Y-76309600D01*
X141440800Y-76507800D02*
X141242600Y-76309600D01*
X129600000Y-79569500D02*
X129600000Y-74300000D01*
X129780900Y-79750400D02*
X129600000Y-79569500D01*
X103100000Y-80050000D02*
X103790300Y-80050000D01*
X129600000Y-80064800D02*
X129600000Y-80109700D01*
X129780900Y-79883900D02*
X129600000Y-80064800D01*
X129780900Y-79750400D02*
X129780900Y-79883900D01*
X103805100Y-80064800D02*
X103790300Y-80050000D01*
X129600000Y-80064800D02*
X103805100Y-80064800D01*
X79450000Y-89600000D02*
X79450000Y-89778800D01*
X79450000Y-89778800D02*
X79450000Y-89957600D01*
X76350300Y-81759400D02*
X78509700Y-79600000D01*
X76350300Y-86679100D02*
X76350300Y-81759400D01*
X79450000Y-89778800D02*
X76350300Y-86679100D01*
X79450000Y-79600000D02*
X78509700Y-79600000D01*
X79350000Y-70100000D02*
X79350000Y-70815300D01*
X80140400Y-71605700D02*
X79350000Y-70815300D01*
X80140400Y-74859600D02*
X80140400Y-71605700D01*
X79990300Y-75009700D02*
X80140400Y-74859600D01*
X79200000Y-75009700D02*
X79990300Y-75009700D01*
X79200000Y-75800000D02*
X79200000Y-75009700D01*
X79450000Y-79600000D02*
X79450000Y-78100000D01*
X79450000Y-76840300D02*
X79200000Y-76590300D01*
X79450000Y-78100000D02*
X79450000Y-76840300D01*
X79200000Y-75800000D02*
X79200000Y-76590300D01*
X61300000Y-70750000D02*
X62015300Y-70750000D01*
X64200000Y-70750000D02*
X62015300Y-70750000D01*
X64200000Y-70700000D02*
X64200000Y-70750000D01*
X62640300Y-78909700D02*
X61550000Y-78909700D01*
X65487300Y-76062700D02*
X62640300Y-78909700D01*
X65487300Y-72037300D02*
X65487300Y-76062700D01*
X64200000Y-70750000D02*
X65487300Y-72037300D01*
X61550000Y-80000000D02*
X61550000Y-78909700D01*
X96065300Y-69200000D02*
X95915300Y-69050000D01*
X98700000Y-69200000D02*
X96065300Y-69200000D01*
X95200000Y-69050000D02*
X95915300Y-69050000D01*
X104900000Y-94294000D02*
X104900000Y-93900000D01*
X104207200Y-94986800D02*
X104900000Y-94294000D01*
X99025200Y-75816600D02*
X99100400Y-75816600D01*
X98950000Y-75891800D02*
X99025200Y-75816600D01*
X98950000Y-77400000D02*
X98950000Y-75891800D01*
X99025200Y-70465500D02*
X98700000Y-70140300D01*
X99025200Y-75816600D02*
X99025200Y-70465500D01*
X98700000Y-69200000D02*
X98700000Y-69670100D01*
X98700000Y-69670100D02*
X98700000Y-70140300D01*
X99039600Y-69670100D02*
X99509700Y-69200000D01*
X98700000Y-69670100D02*
X99039600Y-69670100D01*
X100300000Y-69200000D02*
X99509700Y-69200000D01*
X98450000Y-73800000D02*
X94950000Y-70300000D01*
X93700000Y-69050000D02*
X93700000Y-69930000D01*
X93700000Y-69930000D02*
X94070000Y-70300000D01*
X94070000Y-70300000D02*
X94950000Y-70300000D01*
X98450000Y-77400000D02*
X98450000Y-73800000D01*
X66970000Y-69950700D02*
X66970000Y-73400000D01*
X62919500Y-65900200D02*
X66970000Y-69950700D01*
X62919500Y-63652200D02*
X62919500Y-65900200D01*
X63549800Y-63021900D02*
X62919500Y-63652200D01*
X64517200Y-63021900D02*
X63549800Y-63021900D01*
X65254000Y-63758700D02*
X64517200Y-63021900D01*
X65254000Y-65154000D02*
X65254000Y-63758700D01*
X72600000Y-72500000D02*
X65254000Y-65154000D01*
X93700000Y-69050000D02*
X91783000Y-69050000D01*
X105200000Y-69050000D02*
X103700000Y-69050000D01*
X102450000Y-77400000D02*
X102450000Y-76709700D01*
X103700000Y-69050000D02*
X102984700Y-69050000D01*
X105200000Y-69050000D02*
X106700000Y-69050000D01*
X109464700Y-69050000D02*
X109849700Y-69435000D01*
X106700000Y-69050000D02*
X109464700Y-69050000D01*
X110800000Y-69435000D02*
X109849700Y-69435000D01*
X99450000Y-77400000D02*
X99450000Y-76709700D01*
X99950000Y-77400000D02*
X99950000Y-76709700D01*
X102341500Y-69693200D02*
X102984700Y-69050000D01*
X102341500Y-76363800D02*
X102341500Y-69693200D01*
X102233000Y-76363800D02*
X102341500Y-76363800D01*
X102450000Y-76472300D02*
X102450000Y-76709700D01*
X102341500Y-76363800D02*
X102450000Y-76472300D01*
X99930500Y-76709700D02*
X99930500Y-75900000D01*
X99450000Y-76709700D02*
X99930500Y-76709700D01*
X99930500Y-76709700D02*
X99950000Y-76709700D01*
X115200000Y-91850000D02*
X114545000Y-91850000D01*
X105950000Y-87700000D02*
X104100000Y-87700000D01*
X114545000Y-91850000D02*
X112595000Y-89900000D01*
X112595000Y-89900000D02*
X108150000Y-89900000D01*
X108150000Y-89900000D02*
X105950000Y-87700000D01*
X104100000Y-87700000D02*
X103072700Y-86672700D01*
X103072700Y-86672700D02*
X103072700Y-84822700D01*
X119865300Y-69000000D02*
X119815300Y-69050000D01*
X121000000Y-69000000D02*
X119865300Y-69000000D01*
X119100000Y-69050000D02*
X119815300Y-69050000D01*
X119100000Y-69050000D02*
X118384700Y-69050000D01*
X103072700Y-84822700D02*
X102450000Y-84200000D01*
X117884700Y-68550000D02*
X115100000Y-68550000D01*
X118384700Y-69050000D02*
X117884700Y-68550000D01*
X96300000Y-82550000D02*
X95609700Y-82550000D01*
X95609700Y-82559100D02*
X95428000Y-82740800D01*
X95609700Y-82550000D02*
X95609700Y-82559100D01*
X115100000Y-68550000D02*
X112659700Y-68550000D01*
X112659700Y-68866600D02*
X112659700Y-68550000D01*
X112494000Y-69032300D02*
X112659700Y-68866600D01*
X88568800Y-89600000D02*
X81350000Y-89600000D01*
X95428000Y-82740800D02*
X88568800Y-89600000D01*
X127450000Y-67200000D02*
X127450000Y-67915300D01*
X103100000Y-78050000D02*
X103790300Y-78050000D01*
X104016800Y-77823500D02*
X103790300Y-78050000D01*
X117541800Y-77823500D02*
X104016800Y-77823500D01*
X127450000Y-67915300D02*
X117541800Y-77823500D01*
X130435000Y-78800000D02*
X131230300Y-78800000D01*
X129350000Y-67200000D02*
X129350000Y-67915300D01*
X128659600Y-68605700D02*
X129350000Y-67915300D01*
X128659600Y-73323300D02*
X128659600Y-68605700D01*
X128845900Y-73509600D02*
X128659600Y-73323300D01*
X130417500Y-73509600D02*
X128845900Y-73509600D01*
X132619100Y-75711200D02*
X130417500Y-73509600D01*
X133230300Y-75100000D02*
X132619100Y-75711200D01*
X137965000Y-75100000D02*
X133230300Y-75100000D01*
X131230300Y-77100000D02*
X131230300Y-78800000D01*
X132619100Y-75711200D02*
X131230300Y-77100000D01*
X140600000Y-71000000D02*
X140600000Y-71790300D01*
X141235000Y-75100000D02*
X141235000Y-74149700D01*
X140600000Y-69400000D02*
X140600000Y-71000000D01*
X140350000Y-68359700D02*
X140350000Y-67400000D01*
X140600000Y-68609700D02*
X140350000Y-68359700D01*
X140600000Y-69400000D02*
X140600000Y-68609700D01*
X129600000Y-71100000D02*
X129600000Y-72700000D01*
X129600000Y-72700000D02*
X130540300Y-72700000D01*
X140600000Y-72700000D02*
X130540300Y-72700000D01*
X140600000Y-73514700D02*
X140600000Y-72700000D01*
X141235000Y-74149700D02*
X140600000Y-73514700D01*
X140600000Y-72700000D02*
X140600000Y-71790300D01*
X81250000Y-70100000D02*
X81250000Y-70815300D01*
X96300000Y-78050000D02*
X95609700Y-78050000D01*
X88484700Y-78050000D02*
X81250000Y-70815300D01*
X95609700Y-78050000D02*
X88484700Y-78050000D01*
X81400000Y-75800000D02*
X81400000Y-76590300D01*
X81400000Y-75800000D02*
X81400000Y-74200000D01*
X81350000Y-76640300D02*
X81350000Y-78100000D01*
X81400000Y-76590300D02*
X81350000Y-76640300D01*
X82065300Y-78815300D02*
X81350000Y-78815300D01*
X82300000Y-79050000D02*
X82065300Y-78815300D01*
X96300000Y-79050000D02*
X82300000Y-79050000D01*
X81350000Y-78100000D02*
X81350000Y-78815300D01*
X80668400Y-78815300D02*
X81350000Y-78815300D01*
X80390400Y-79093300D02*
X80668400Y-78815300D01*
X80390400Y-82449400D02*
X80390400Y-79093300D01*
X79930200Y-82909600D02*
X80390400Y-82449400D01*
X78459100Y-82909600D02*
X79930200Y-82909600D01*
X78259400Y-83109300D02*
X78459100Y-82909600D01*
X78259400Y-86959400D02*
X78259400Y-83109300D01*
X79300000Y-88000000D02*
X78259400Y-86959400D01*
X101450000Y-83556200D02*
X101430400Y-83575800D01*
X101800000Y-88800000D02*
X104800000Y-88800000D01*
X101430400Y-83575800D02*
X101430400Y-88430400D01*
X101430400Y-88430400D02*
X101800000Y-88800000D01*
X108361800Y-91750000D02*
X109700000Y-91750000D01*
X104800000Y-88800000D02*
X105919990Y-89919990D01*
X105919990Y-89919990D02*
X106531790Y-89919990D01*
X106531790Y-89919990D02*
X108361800Y-91750000D01*
D32*
X100344000Y-81443800D02*
X101631000Y-81443800D01*
X99056200Y-81443800D02*
X99056200Y-82731200D01*
X97768800Y-82731200D02*
X99056200Y-82731200D01*
X100344000Y-78868800D02*
X100344000Y-80156200D01*
X97768800Y-78868800D02*
X99056200Y-78868800D01*
X99056200Y-81443800D02*
X97768800Y-81443800D01*
X100344000Y-81443800D02*
X100344000Y-82731200D01*
X97843800Y-82731200D02*
X98450000Y-83337500D01*
X97768800Y-82731200D02*
X97843800Y-82731200D01*
X101812000Y-82550000D02*
X101631000Y-82731200D01*
X103100000Y-82550000D02*
X101812000Y-82550000D01*
X99056200Y-78868800D02*
X99056200Y-80156200D01*
X97768800Y-80156200D02*
X99056200Y-80156200D01*
D31*
X97768800Y-80156200D02*
X97768800Y-78868800D01*
D32*
X100344000Y-80156200D02*
X101631000Y-80156200D01*
X99056200Y-80156200D02*
X99056300Y-80156200D01*
X101631000Y-82731200D02*
X100344000Y-82731200D01*
X101631000Y-82731200D02*
X100344000Y-82731200D01*
X99056300Y-82731200D02*
X99056200Y-82731200D01*
X99056200Y-82731200D02*
X98450000Y-83337500D01*
X97768800Y-82731200D02*
X97768800Y-81443800D01*
X97768800Y-81443800D02*
X97768800Y-81443700D01*
X97768800Y-81443700D02*
X97768800Y-80156200D01*
X97768800Y-81443800D02*
X99056200Y-81443800D01*
D31*
X97162500Y-79550000D02*
X97768800Y-80156200D01*
X97087500Y-79550000D02*
X97162500Y-79550000D01*
X97087500Y-79550000D02*
X97768800Y-78868800D01*
D32*
X100344000Y-82731200D02*
X100343800Y-82731200D01*
X100343800Y-82731200D02*
X99056300Y-82731200D01*
X99056300Y-80156200D02*
X100343800Y-80156200D01*
X100343800Y-80156200D02*
X100344000Y-80156200D01*
D31*
X97768800Y-78868700D02*
X97768800Y-78868800D01*
X99056300Y-78868700D02*
X99056200Y-78868800D01*
D32*
X100344000Y-81443800D02*
X100344000Y-80156200D01*
D31*
X101631100Y-78868700D02*
X101631000Y-78868800D01*
X101631300Y-78868700D02*
X101631100Y-78868700D01*
D32*
X100344000Y-78868800D02*
X101631000Y-78868800D01*
X101631000Y-78868800D02*
X101631000Y-80156200D01*
X101631000Y-81121900D02*
X101631000Y-81443800D01*
D31*
X101631300Y-81122200D02*
X101631300Y-81443700D01*
X101631000Y-81121900D02*
X101631300Y-81122200D01*
D32*
X101631000Y-81443800D02*
X101631000Y-82087500D01*
X101631000Y-81443800D02*
X101631000Y-82087500D01*
D31*
X96300000Y-79550000D02*
X96693800Y-79550000D01*
X96693800Y-79550000D02*
X97087500Y-79550000D01*
X96300000Y-79550000D02*
X96693800Y-79550000D01*
X96693800Y-79550000D02*
X97087500Y-79550000D01*
X81350000Y-79600000D02*
X82290300Y-79600000D01*
X127350000Y-89700000D02*
X127350000Y-91200000D01*
X96300000Y-79550000D02*
X95609700Y-79550000D01*
D32*
X99056200Y-78868800D02*
X100343700Y-78868800D01*
X100343700Y-78868800D02*
X100344000Y-78868800D01*
D31*
X100343700Y-78868800D02*
X100343800Y-78868700D01*
D32*
X101631000Y-82087500D02*
X101631000Y-82409300D01*
X101631000Y-82409300D02*
X101631000Y-82731200D01*
X101631000Y-82087500D02*
X101631000Y-82409300D01*
X101631000Y-82409300D02*
X101631000Y-82731200D01*
X101631000Y-80156200D02*
X101631000Y-80639000D01*
X101631000Y-80639000D02*
X101631000Y-81121900D01*
D31*
X101631300Y-80638700D02*
X101631300Y-80156200D01*
X101631000Y-80639000D02*
X101631300Y-80638700D01*
D32*
X99056200Y-81443800D02*
X100343700Y-81443800D01*
X100343700Y-81443800D02*
X100344000Y-81443800D01*
D31*
X100343700Y-81443800D02*
X100343800Y-81443700D01*
D32*
X101950000Y-83050000D02*
X101631000Y-82731200D01*
X103100000Y-83050000D02*
X101950000Y-83050000D01*
X98450000Y-83337500D02*
X98450000Y-84200000D01*
D31*
X98450000Y-90659700D02*
X98200000Y-90909700D01*
X98450000Y-84200000D02*
X98450000Y-90659700D01*
X98200000Y-91850000D02*
X98200000Y-90909700D01*
D32*
X99056200Y-80156200D02*
X99056200Y-80800000D01*
X99056200Y-80800000D02*
X99056200Y-81443800D01*
D31*
X99056300Y-80800100D02*
X99056300Y-81443700D01*
X99056200Y-80800000D02*
X99056300Y-80800100D01*
X101631300Y-82731200D02*
X101631000Y-82731200D01*
D32*
X101450000Y-84200000D02*
X101450000Y-83556200D01*
X101450000Y-82912500D02*
X101631000Y-82731200D01*
X101450000Y-83556200D02*
X101450000Y-82912500D01*
D31*
X82340300Y-79550000D02*
X82290300Y-79600000D01*
X95609700Y-79550000D02*
X82340300Y-79550000D01*
X109700000Y-91750000D02*
X110415300Y-91750000D01*
X127350000Y-91200000D02*
X127350000Y-91915300D01*
X126474900Y-93759600D02*
X126474900Y-92790400D01*
X127065000Y-94349700D02*
X126474900Y-93759600D01*
X111455700Y-92790400D02*
X126474900Y-92790400D01*
X110415300Y-91750000D02*
X111455700Y-92790400D01*
X126474900Y-92790400D02*
X127350000Y-91915300D01*
X127065000Y-95300000D02*
X127065000Y-94349700D01*
X137965000Y-79300000D02*
X137169700Y-79300000D01*
X133469700Y-83000000D02*
X130435000Y-83000000D01*
X137169700Y-79300000D02*
X133469700Y-83000000D01*
X128659600Y-86894300D02*
X129250000Y-87484700D01*
X128659600Y-83980100D02*
X128659600Y-86894300D01*
X129639700Y-83000000D02*
X128659600Y-83980100D01*
X130435000Y-83000000D02*
X129639700Y-83000000D01*
X129250000Y-88200000D02*
X129250000Y-87484700D01*
X127350000Y-88200000D02*
X127350000Y-87484700D01*
X121915300Y-82050000D02*
X127350000Y-87484700D01*
X103100000Y-82050000D02*
X121915300Y-82050000D01*
X138280600Y-84309700D02*
X138300000Y-84290300D01*
X129600000Y-84309700D02*
X138280600Y-84309700D01*
X138300000Y-83500000D02*
X138300000Y-84290300D01*
X129600000Y-85100000D02*
X129600000Y-84309700D01*
X138300000Y-84290300D02*
X138300000Y-85100000D01*
X138350000Y-85940300D02*
X138350000Y-88600000D01*
X138300000Y-85890300D02*
X138350000Y-85940300D01*
X138300000Y-85100000D02*
X138300000Y-85890300D01*
X140775600Y-77890300D02*
X141235000Y-78349700D01*
X140500000Y-77890300D02*
X140775600Y-77890300D01*
X138300000Y-81439700D02*
X138300000Y-83500000D01*
X140439700Y-79300000D02*
X138300000Y-81439700D01*
X141235000Y-79300000D02*
X140439700Y-79300000D01*
X141235000Y-79300000D02*
X141235000Y-78349700D01*
X140500000Y-77100000D02*
X140500000Y-77890300D01*
X82290300Y-86399900D02*
X82290300Y-86400000D01*
X89051600Y-86399900D02*
X82290300Y-86399900D01*
X94401500Y-81050000D02*
X89051600Y-86399900D01*
X96300000Y-81050000D02*
X94401500Y-81050000D01*
X81350000Y-86400000D02*
X82290300Y-86400000D01*
X97950000Y-84200000D02*
X97950000Y-84890300D01*
X91600000Y-91600000D02*
X93200000Y-91600000D01*
X93200000Y-91600000D02*
X93990300Y-91600000D01*
X96700000Y-91600000D02*
X93990300Y-91600000D01*
X96700000Y-91850000D02*
X96700000Y-91600000D01*
X97950000Y-90350000D02*
X97950000Y-84890300D01*
X96700000Y-91600000D02*
X97950000Y-90350000D01*
X111340000Y-65369700D02*
X112659700Y-64050000D01*
X110800000Y-65369700D02*
X111340000Y-65369700D01*
X110800000Y-66165000D02*
X110800000Y-65369700D01*
X115100000Y-64050000D02*
X112659700Y-64050000D01*
X100950000Y-76663900D02*
X101293600Y-76320300D01*
X100950000Y-77400000D02*
X100950000Y-76663900D01*
X109849700Y-66340400D02*
X109849700Y-66165000D01*
X109516000Y-66674100D02*
X109849700Y-66340400D01*
X110800000Y-66165000D02*
X109849700Y-66165000D01*
X127165000Y-78800000D02*
X126369700Y-78800000D01*
X109784500Y-79050000D02*
X103100000Y-79050000D01*
X110050400Y-78784100D02*
X109784500Y-79050000D01*
X126353800Y-78784100D02*
X110050400Y-78784100D01*
X126369700Y-78800000D02*
X126353800Y-78784100D01*
X124419700Y-81050000D02*
X126369700Y-83000000D01*
X103100000Y-81050000D02*
X124419700Y-81050000D01*
X127165000Y-83000000D02*
X126369700Y-83000000D01*
X103100000Y-83550000D02*
X103730000Y-83550000D01*
X128290400Y-89184100D02*
X128290400Y-91744700D01*
X103730000Y-83550000D02*
X104749990Y-82530010D01*
X104749990Y-82530010D02*
X119845310Y-82530010D01*
X119845310Y-82530010D02*
X126300000Y-88984700D01*
X126300000Y-88984700D02*
X128091000Y-88984700D01*
X128091000Y-88984700D02*
X128290400Y-89184100D01*
X128290400Y-91744700D02*
X130045700Y-93500000D01*
X130045700Y-93500000D02*
X131130300Y-93500000D01*
X130335000Y-95300000D02*
X131130300Y-95300000D01*
X131130300Y-93500000D02*
X131130300Y-95300000D01*
X131130300Y-93500000D02*
X138950000Y-93500000D01*
D33*
X90200000Y-65600000D02*
X90200000Y-67000000D01*
X89100000Y-64500000D02*
X90200000Y-65600000D01*
X78700000Y-64500000D02*
X89100000Y-64500000D01*
X76840500Y-66359500D02*
X78700000Y-64500000D01*
X71378500Y-66359500D02*
X76840500Y-66359500D01*
X69080000Y-64061000D02*
X71378500Y-66359500D01*
X91600000Y-95200000D02*
X91600000Y-93800000D01*
X90000000Y-96800000D02*
X91600000Y-95200000D01*
X78400000Y-96800000D02*
X90000000Y-96800000D01*
X71550000Y-89950000D02*
X78400000Y-96800000D01*
X71550000Y-72598800D02*
X71550000Y-89950000D01*
X64000000Y-65048800D02*
X71550000Y-72598800D01*
X64000000Y-64061000D02*
X64000000Y-65048800D01*
X76801000Y-74200000D02*
X79200000Y-74200000D01*
X66540000Y-63939000D02*
X76801000Y-74200000D01*
X142700000Y-83500000D02*
X140500000Y-83500000D01*
X145100000Y-81100000D02*
X142700000Y-83500000D01*
X145100000Y-66700000D02*
X145100000Y-81100000D01*
X139500000Y-61100000D02*
X145100000Y-66700000D01*
X64299000Y-61100000D02*
X139500000Y-61100000D01*
X61460000Y-63939000D02*
X64299000Y-61100000D01*
X100300000Y-64600000D02*
X100300000Y-67000000D01*
X99100000Y-63400000D02*
X100300000Y-64600000D01*
X78000000Y-63400000D02*
X99100000Y-63400000D01*
X76040500Y-65359500D02*
X78000000Y-63400000D01*
X72052600Y-65359500D02*
X76040500Y-65359500D01*
X71620000Y-64926900D02*
X72052600Y-65359500D01*
X71620000Y-63939000D02*
X71620000Y-64926900D01*
X137000000Y-71000000D02*
X138400000Y-71000000D01*
X128250000Y-62250000D02*
X137000000Y-71000000D01*
X77469500Y-62250000D02*
X128250000Y-62250000D01*
X75658500Y-64061000D02*
X77469500Y-62250000D01*
X74160000Y-64061000D02*
X75658500Y-64061000D01*
D31*
X78449800Y-92390100D02*
X75312800Y-92390100D01*
X78459700Y-92400000D02*
X78449800Y-92390100D01*
X79400000Y-92400000D02*
X78459700Y-92400000D01*
X65238200Y-93770800D02*
X64170000Y-94839000D01*
X69658000Y-93770800D02*
X65238200Y-93770800D01*
X70581100Y-94693900D02*
X69658000Y-93770800D01*
X70581100Y-95230200D02*
X70581100Y-94693900D01*
X72891400Y-97540500D02*
X70581100Y-95230200D01*
X96427400Y-97540500D02*
X72891400Y-97540500D01*
X101258300Y-92709600D02*
X96427400Y-97540500D01*
X110419300Y-92709600D02*
X101258300Y-92709600D01*
X111609700Y-93900000D02*
X110419300Y-92709600D01*
X112400000Y-93900000D02*
X111609700Y-93900000D01*
X77727900Y-82100000D02*
X77007600Y-82820300D01*
X79200000Y-82100000D02*
X77727900Y-82100000D01*
X103300000Y-93900000D02*
X103300000Y-94780000D01*
X103300000Y-94780000D02*
X102980000Y-95100000D01*
X102980000Y-95100000D02*
X100388536Y-95100000D01*
X100388536Y-95100000D02*
X96987627Y-98500909D01*
X96987627Y-98500909D02*
X96699090Y-98500910D01*
X96699090Y-98500910D02*
X96698800Y-98501200D01*
X70250200Y-98501200D02*
X66710000Y-94961000D01*
X96698800Y-98501200D02*
X70250200Y-98501200D01*
X72600000Y-74700000D02*
X73390300Y-74700000D01*
X73680700Y-74990400D02*
X73390300Y-74700000D01*
X73937000Y-74990400D02*
X73680700Y-74990400D01*
X78184300Y-72524600D02*
X78259700Y-72600000D01*
X77579800Y-72524600D02*
X78184300Y-72524600D01*
X79200000Y-72600000D02*
X78259700Y-72600000D01*
X101700000Y-93900000D02*
X100909700Y-93900000D01*
X96788800Y-98020900D02*
X100909700Y-93900000D01*
X72431900Y-98020900D02*
X96788800Y-98020900D01*
X69250000Y-94839000D02*
X72431900Y-98020900D01*
X106500000Y-93900000D02*
X106500000Y-94780000D01*
X59061500Y-98981500D02*
X55048800Y-94968800D01*
X106500000Y-94780000D02*
X106280000Y-95000000D01*
X100600000Y-95700000D02*
X97318500Y-98981500D01*
X106280000Y-95000000D02*
X105400000Y-95000000D01*
X105400000Y-95000000D02*
X104700000Y-95700000D01*
X104700000Y-95700000D02*
X100600000Y-95700000D01*
X97318500Y-98981500D02*
X59061500Y-98981500D01*
X55048800Y-94968800D02*
X55048800Y-94839000D01*
X55048800Y-94839000D02*
X54010000Y-94839000D01*
X97950000Y-77400000D02*
X97950000Y-74150000D01*
X97950000Y-74150000D02*
X94580010Y-70780010D01*
X94580010Y-70780010D02*
X92565808Y-70780010D01*
X92565808Y-70780010D02*
X91290300Y-69504502D01*
X91290300Y-69504502D02*
X91290300Y-69500000D01*
X91290300Y-69500000D02*
X90990300Y-69200000D01*
X90990300Y-69200000D02*
X90200000Y-69200000D01*
X88500000Y-69200000D02*
X89290300Y-69200000D01*
X90200000Y-69200000D02*
X89290300Y-69200000D01*
X86900000Y-69200000D02*
X86900000Y-69670100D01*
X85300000Y-69200000D02*
X86090300Y-69200000D01*
X97450000Y-77400000D02*
X97450000Y-76709700D01*
X86560400Y-69670100D02*
X86090300Y-69200000D01*
X86900000Y-69670100D02*
X86560400Y-69670100D01*
X93939600Y-76709700D02*
X86900000Y-69670100D01*
X97450000Y-76709700D02*
X93939600Y-76709700D01*
X96300000Y-78550000D02*
X88800000Y-78550000D01*
X81400000Y-72600000D02*
X82280000Y-72600000D01*
X82280000Y-72600000D02*
X88230000Y-78550000D01*
X88230000Y-78550000D02*
X88800000Y-78550000D01*
X127400000Y-74300000D02*
X127400000Y-72700000D01*
X126690100Y-75800200D02*
X127400000Y-75090300D01*
X125159100Y-75800200D02*
X126690100Y-75800200D01*
X127400000Y-74300000D02*
X127400000Y-75090300D01*
X121409300Y-79550000D02*
X121534900Y-79424400D01*
X103100000Y-79550000D02*
X121409300Y-79550000D01*
X126109700Y-80550000D02*
X126459700Y-80900000D01*
X103100000Y-80550000D02*
X126109700Y-80550000D01*
X127400000Y-80900000D02*
X126459700Y-80900000D01*
X133709700Y-81690300D02*
X127400000Y-81690300D01*
X137509700Y-77890300D02*
X133709700Y-81690300D01*
X138300000Y-77890300D02*
X137509700Y-77890300D01*
X138300000Y-77100000D02*
X138300000Y-77890300D01*
X127400000Y-80900000D02*
X127400000Y-81690300D01*
X81400000Y-83700000D02*
X81400000Y-82100000D01*
X82659700Y-80050000D02*
X81400000Y-81309700D01*
X96300000Y-80050000D02*
X82659700Y-80050000D01*
X81400000Y-82100000D02*
X81400000Y-81309700D01*
X81600000Y-94000000D02*
X81600000Y-92400000D01*
X86759700Y-92400000D02*
X81600000Y-92400000D01*
X95609700Y-83550000D02*
X86759700Y-92400000D01*
X96300000Y-83550000D02*
X95609700Y-83550000D01*
X102608800Y-88308800D02*
X101915400Y-87615400D01*
X101915400Y-87615400D02*
X101915400Y-84624200D01*
X107891200Y-90600000D02*
X105600000Y-88308800D01*
X105600000Y-88308800D02*
X102608800Y-88308800D01*
X112400000Y-91700000D02*
X111670000Y-91700000D01*
X111670000Y-91700000D02*
X110570000Y-90600000D01*
X110570000Y-90600000D02*
X107891200Y-90600000D01*
X101915400Y-84624200D02*
X101915400Y-84344600D01*
D34*
X101915400Y-84234600D02*
X101950000Y-84200000D01*
X101915400Y-84344600D02*
X101915400Y-84234600D01*
D31*
X100950000Y-84200000D02*
X100950000Y-88850000D01*
X100950000Y-88850000D02*
X101419990Y-89319990D01*
X101419990Y-89319990D02*
X104478190Y-89319990D01*
X104478190Y-89319990D02*
X105558200Y-90400000D01*
X105558200Y-90400000D02*
X106080000Y-90400000D01*
X106080000Y-90400000D02*
X106500000Y-90820000D01*
X106500000Y-90820000D02*
X106500000Y-91700000D01*
X103300000Y-91700000D02*
X103300000Y-90820000D01*
X103300000Y-90820000D02*
X102880000Y-90400000D01*
X102880000Y-90400000D02*
X100400000Y-90400000D01*
X100400000Y-90400000D02*
X99450000Y-89450000D01*
X99450000Y-87600000D02*
X99450000Y-84200000D01*
X99450000Y-89450000D02*
X99450000Y-87600000D01*
X98950000Y-89740300D02*
X100909700Y-91700000D01*
X98950000Y-84200000D02*
X98950000Y-89740300D01*
X101700000Y-91700000D02*
X100909700Y-91700000D01*
X127400000Y-85100000D02*
X127250000Y-85100000D01*
X127250000Y-85100000D02*
X123700000Y-81550000D01*
X123700000Y-81550000D02*
X122950600Y-81550000D01*
X103100000Y-81550000D02*
X122950600Y-81550000D01*
X88810200Y-88000000D02*
X81500000Y-88000000D01*
X94760200Y-82050000D02*
X88810200Y-88000000D01*
X96300000Y-82050000D02*
X94760200Y-82050000D01*
X127400000Y-71100000D02*
X127400000Y-71890300D01*
X103100000Y-78550000D02*
X103790300Y-78550000D01*
X109605200Y-78550000D02*
X103790300Y-78550000D01*
X109851400Y-78303800D02*
X109605200Y-78550000D01*
X120196200Y-78303800D02*
X109851400Y-78303800D01*
X126609700Y-71890300D02*
X120196200Y-78303800D01*
X127400000Y-71890300D02*
X126609700Y-71890300D01*
X99950000Y-85000000D02*
X99950000Y-84200000D01*
X100700000Y-89800000D02*
X99950000Y-89050000D01*
X99950000Y-89050000D02*
X99950000Y-85000000D01*
X103880000Y-89800000D02*
X100700000Y-89800000D01*
X104900000Y-91700000D02*
X104900000Y-90820000D01*
X104900000Y-90820000D02*
X103880000Y-89800000D01*
X97450000Y-84200000D02*
X97450000Y-84830000D01*
X90000000Y-89900000D02*
X90000000Y-91600000D01*
X97450000Y-84830000D02*
X97080000Y-85200000D01*
X97080000Y-85200000D02*
X94700000Y-85200000D01*
X94700000Y-85200000D02*
X90000000Y-89900000D01*
D35*
G36*
X61329862Y-62605426D02*
X61195914Y-62605309D01*
X60705620Y-62807894D01*
X60330173Y-63182687D01*
X60171405Y-63565043D01*
X60089800Y-63368031D01*
X59854188Y-63306377D01*
X59099605Y-64060960D01*
X59854188Y-64815543D01*
X60089800Y-64753889D01*
X60211256Y-64408810D01*
X60328854Y-64693420D01*
X60703647Y-65068867D01*
X61193587Y-65272308D01*
X61724086Y-65272771D01*
X62144500Y-65099060D01*
X62144500Y-65900200D01*
X62203493Y-66196780D01*
X62371492Y-66448208D01*
X66195000Y-70271716D01*
X66195000Y-71728288D01*
X66035308Y-71489292D01*
X65527154Y-70981138D01*
X65533268Y-70966413D01*
X65533731Y-70435914D01*
X65331146Y-69945620D01*
X64956353Y-69570173D01*
X64466413Y-69366732D01*
X63935914Y-69366269D01*
X63445620Y-69568854D01*
X63070173Y-69943647D01*
X63057154Y-69975000D01*
X62289511Y-69975000D01*
X62278162Y-69914683D01*
X62139090Y-69698559D01*
X61926890Y-69553569D01*
X61675000Y-69502560D01*
X60925000Y-69502560D01*
X60689683Y-69546838D01*
X60473559Y-69685910D01*
X60328569Y-69898110D01*
X60277560Y-70150000D01*
X60277560Y-71350000D01*
X60321838Y-71585317D01*
X60388329Y-71688646D01*
X60386673Y-71690302D01*
X60290000Y-71923691D01*
X60290000Y-72364250D01*
X60448750Y-72523000D01*
X61173000Y-72523000D01*
X61173000Y-72503000D01*
X61427000Y-72503000D01*
X61427000Y-72523000D01*
X62151250Y-72523000D01*
X62310000Y-72364250D01*
X62310000Y-71923691D01*
X62213327Y-71690302D01*
X62211957Y-71688932D01*
X62271431Y-71601890D01*
X62287002Y-71525000D01*
X63139351Y-71525000D01*
X63443647Y-71829827D01*
X63933587Y-72033268D01*
X64387648Y-72033664D01*
X64419108Y-72065124D01*
X64092801Y-72082852D01*
X63737071Y-72230200D01*
X63675417Y-72465812D01*
X64430000Y-73220395D01*
X64444143Y-73206253D01*
X64623748Y-73385858D01*
X64609605Y-73400000D01*
X64623748Y-73414143D01*
X64444143Y-73593748D01*
X64430000Y-73579605D01*
X63675417Y-74334188D01*
X63737071Y-74569800D01*
X64237480Y-74745927D01*
X64712300Y-74720131D01*
X64712300Y-75741684D01*
X63185000Y-77268984D01*
X63185000Y-76823690D01*
X63088327Y-76590301D01*
X62909698Y-76411673D01*
X62676309Y-76315000D01*
X61835750Y-76315000D01*
X61677000Y-76473750D01*
X61677000Y-77573000D01*
X61697000Y-77573000D01*
X61697000Y-77827000D01*
X61677000Y-77827000D01*
X61677000Y-77847000D01*
X61423000Y-77847000D01*
X61423000Y-77827000D01*
X60073750Y-77827000D01*
X59915000Y-77985750D01*
X59915000Y-78576310D01*
X60011673Y-78809699D01*
X60053634Y-78851660D01*
X59953569Y-78998110D01*
X59902560Y-79250000D01*
X59902560Y-80434700D01*
X56109415Y-80434700D01*
X55525808Y-79851092D01*
X55274380Y-79683093D01*
X55125780Y-79653535D01*
X55180822Y-79520640D01*
X55056442Y-79326100D01*
X54089540Y-79326100D01*
X54089540Y-79346100D01*
X53835540Y-79346100D01*
X53835540Y-79326100D01*
X52868638Y-79326100D01*
X52744258Y-79520640D01*
X52834197Y-79737793D01*
X52691109Y-79947210D01*
X52640100Y-80199100D01*
X52640100Y-80599100D01*
X52664484Y-80728689D01*
X52640100Y-80849100D01*
X52640100Y-81249100D01*
X52664484Y-81378689D01*
X52640100Y-81499100D01*
X52640100Y-81899100D01*
X52664484Y-82028689D01*
X52640100Y-82149100D01*
X52640100Y-82549100D01*
X52659990Y-82654805D01*
X52652540Y-82672790D01*
X52652540Y-82740350D01*
X52681544Y-82769354D01*
X52684378Y-82784417D01*
X52823450Y-83000541D01*
X52967696Y-83099100D01*
X52811290Y-83099100D01*
X52652540Y-83257850D01*
X52652540Y-83325410D01*
X52749213Y-83558799D01*
X52839066Y-83648652D01*
X52744258Y-83877560D01*
X52868638Y-84072100D01*
X53835540Y-84072100D01*
X53835540Y-84052100D01*
X54089540Y-84052100D01*
X54089540Y-84072100D01*
X55056442Y-84072100D01*
X55180822Y-83877560D01*
X55086014Y-83648652D01*
X55175867Y-83558799D01*
X55272540Y-83325410D01*
X55272540Y-83257850D01*
X55113790Y-83099100D01*
X54955473Y-83099100D01*
X55088981Y-83013190D01*
X55233971Y-82800990D01*
X55239575Y-82773315D01*
X55272540Y-82740350D01*
X55272540Y-82672790D01*
X55264072Y-82652347D01*
X55284980Y-82549100D01*
X55284980Y-82149100D01*
X55260596Y-82019511D01*
X55284980Y-81899100D01*
X55284980Y-81787501D01*
X55491820Y-81925707D01*
X55541026Y-81935495D01*
X55788400Y-81984701D01*
X55788405Y-81984700D01*
X59902560Y-81984700D01*
X59902560Y-83050000D01*
X59946838Y-83285317D01*
X60085910Y-83501441D01*
X60298110Y-83646431D01*
X60550000Y-83697440D01*
X60841049Y-83697440D01*
X61001992Y-83938308D01*
X61451992Y-84388308D01*
X61675000Y-84537317D01*
X61675000Y-85002560D01*
X60850000Y-85002560D01*
X60614683Y-85046838D01*
X60398559Y-85185910D01*
X60253569Y-85398110D01*
X60202560Y-85650000D01*
X60202560Y-88150000D01*
X60246838Y-88385317D01*
X60385910Y-88601441D01*
X60598110Y-88746431D01*
X60850000Y-88797440D01*
X64050000Y-88797440D01*
X64285317Y-88753162D01*
X64501441Y-88614090D01*
X64596990Y-88474250D01*
X64611673Y-88509699D01*
X64790302Y-88688327D01*
X65023691Y-88785000D01*
X66464250Y-88785000D01*
X66623000Y-88626250D01*
X66623000Y-87027000D01*
X66877000Y-87027000D01*
X66877000Y-88626250D01*
X67035750Y-88785000D01*
X68476309Y-88785000D01*
X68709698Y-88688327D01*
X68888327Y-88509699D01*
X68985000Y-88276310D01*
X68985000Y-87185750D01*
X68826250Y-87027000D01*
X66877000Y-87027000D01*
X66623000Y-87027000D01*
X66603000Y-87027000D01*
X66603000Y-86773000D01*
X66623000Y-86773000D01*
X66623000Y-85173750D01*
X66877000Y-85173750D01*
X66877000Y-86773000D01*
X68826250Y-86773000D01*
X68985000Y-86614250D01*
X68985000Y-85523690D01*
X68888327Y-85290301D01*
X68709698Y-85111673D01*
X68476309Y-85015000D01*
X67035750Y-85015000D01*
X66877000Y-85173750D01*
X66623000Y-85173750D01*
X66464250Y-85015000D01*
X65023691Y-85015000D01*
X64790302Y-85111673D01*
X64611673Y-85290301D01*
X64596577Y-85326747D01*
X64514090Y-85198559D01*
X64301890Y-85053569D01*
X64050000Y-85002560D01*
X63225000Y-85002560D01*
X63225000Y-84615300D01*
X66843511Y-84615300D01*
X66860673Y-84632492D01*
X67204201Y-84775138D01*
X67576167Y-84775462D01*
X67919943Y-84633417D01*
X68183192Y-84370627D01*
X68325838Y-84027099D01*
X68326162Y-83655133D01*
X68184117Y-83311357D01*
X67921327Y-83048108D01*
X67577799Y-82905462D01*
X67205833Y-82905138D01*
X66862057Y-83047183D01*
X66843908Y-83065300D01*
X63194342Y-83065300D01*
X63197440Y-83050000D01*
X63197440Y-81550000D01*
X63153162Y-81314683D01*
X63046241Y-81148523D01*
X63146431Y-81001890D01*
X63197440Y-80750000D01*
X63197440Y-79448576D01*
X64546016Y-78100000D01*
X66202560Y-78100000D01*
X66202560Y-81900000D01*
X66246838Y-82135317D01*
X66385910Y-82351441D01*
X66598110Y-82496431D01*
X66850000Y-82547440D01*
X68850000Y-82547440D01*
X69085317Y-82503162D01*
X69301441Y-82364090D01*
X69446431Y-82151890D01*
X69497440Y-81900000D01*
X69497440Y-78100000D01*
X69453162Y-77864683D01*
X69314090Y-77648559D01*
X69101890Y-77503569D01*
X68850000Y-77452560D01*
X66850000Y-77452560D01*
X66614683Y-77496838D01*
X66398559Y-77635910D01*
X66253569Y-77848110D01*
X66202560Y-78100000D01*
X64546016Y-78100000D01*
X66035308Y-76610708D01*
X66203307Y-76359280D01*
X66262300Y-76062700D01*
X66262300Y-74744077D01*
X66271500Y-74745940D01*
X67668500Y-74745940D01*
X67903817Y-74701662D01*
X68119941Y-74562590D01*
X68264931Y-74350390D01*
X68315940Y-74098500D01*
X68315940Y-72701500D01*
X68271662Y-72466183D01*
X68132590Y-72250059D01*
X67920390Y-72105069D01*
X67745000Y-72069552D01*
X67745000Y-70257511D01*
X70515000Y-73027511D01*
X70515000Y-89949995D01*
X70514999Y-89950000D01*
X70593785Y-90346077D01*
X70818144Y-90681856D01*
X76901789Y-96765500D01*
X73212415Y-96765500D01*
X72502580Y-96055664D01*
X72544583Y-95895148D01*
X71790000Y-95140565D01*
X71775858Y-95154708D01*
X71596253Y-94975103D01*
X71610395Y-94960960D01*
X71969605Y-94960960D01*
X72724188Y-95715543D01*
X72959800Y-95653889D01*
X73135927Y-95153480D01*
X73107148Y-94623761D01*
X72959800Y-94268031D01*
X72724188Y-94206377D01*
X71969605Y-94960960D01*
X71610395Y-94960960D01*
X71596253Y-94946818D01*
X71775858Y-94767213D01*
X71790000Y-94781355D01*
X72544583Y-94026772D01*
X72482929Y-93791160D01*
X71982520Y-93615033D01*
X71452801Y-93643812D01*
X71097071Y-93791160D01*
X71035418Y-94026770D01*
X70920163Y-93911515D01*
X70907447Y-93924231D01*
X70206008Y-93222792D01*
X69954580Y-93054793D01*
X69658000Y-92995800D01*
X65238200Y-92995800D01*
X64941620Y-93054793D01*
X64690192Y-93222792D01*
X64407237Y-93505747D01*
X63905914Y-93505309D01*
X63415620Y-93707894D01*
X63040173Y-94082687D01*
X62874656Y-94481296D01*
X62761146Y-94206580D01*
X62386353Y-93831133D01*
X61896413Y-93627692D01*
X61365914Y-93627229D01*
X60875620Y-93829814D01*
X60500173Y-94204607D01*
X60385157Y-94481597D01*
X60221146Y-94084660D01*
X59846353Y-93709213D01*
X59356413Y-93505772D01*
X58825914Y-93505309D01*
X58335620Y-93707894D01*
X57960173Y-94082687D01*
X57794656Y-94481296D01*
X57681146Y-94206580D01*
X57306353Y-93831133D01*
X56816413Y-93627692D01*
X56285914Y-93627229D01*
X55795620Y-93829814D01*
X55439159Y-94185654D01*
X55353682Y-94128540D01*
X55311662Y-93905223D01*
X55172590Y-93689099D01*
X54960390Y-93544109D01*
X54708500Y-93493100D01*
X53311500Y-93493100D01*
X53076183Y-93537378D01*
X52860059Y-93676450D01*
X52715069Y-93888650D01*
X52664060Y-94140540D01*
X52664060Y-95537540D01*
X52708338Y-95772857D01*
X52847410Y-95988981D01*
X53059610Y-96133971D01*
X53311500Y-96184980D01*
X54708500Y-96184980D01*
X54943817Y-96140702D01*
X55053869Y-96069885D01*
X58273984Y-99290000D01*
X50710000Y-99290000D01*
X50710000Y-86594256D01*
X50917428Y-86691213D01*
X51135540Y-86568888D01*
X51135540Y-85326100D01*
X51389540Y-85326100D01*
X51389540Y-86568888D01*
X51607652Y-86691213D01*
X52089646Y-86465917D01*
X52463641Y-86062481D01*
X52654779Y-85546634D01*
X52513700Y-85326100D01*
X51389540Y-85326100D01*
X51135540Y-85326100D01*
X51115540Y-85326100D01*
X51115540Y-85072100D01*
X51135540Y-85072100D01*
X51135540Y-83829312D01*
X51389540Y-83829312D01*
X51389540Y-85072100D01*
X52513700Y-85072100D01*
X52654779Y-84851566D01*
X52532161Y-84520640D01*
X52744258Y-84520640D01*
X52873712Y-84833199D01*
X53199253Y-85201608D01*
X53640998Y-85417394D01*
X53835540Y-85293945D01*
X53835540Y-84326100D01*
X54089540Y-84326100D01*
X54089540Y-85293945D01*
X54284082Y-85417394D01*
X54725827Y-85201608D01*
X55051368Y-84833199D01*
X55180822Y-84520640D01*
X55056442Y-84326100D01*
X54089540Y-84326100D01*
X53835540Y-84326100D01*
X52868638Y-84326100D01*
X52744258Y-84520640D01*
X52532161Y-84520640D01*
X52463641Y-84335719D01*
X52089646Y-83932283D01*
X51607652Y-83706987D01*
X51389540Y-83829312D01*
X51135540Y-83829312D01*
X50917428Y-83706987D01*
X50710000Y-83803944D01*
X50710000Y-79594256D01*
X50917428Y-79691213D01*
X51135540Y-79568888D01*
X51135540Y-78326100D01*
X51389540Y-78326100D01*
X51389540Y-79568888D01*
X51607652Y-79691213D01*
X52089646Y-79465917D01*
X52463641Y-79062481D01*
X52532160Y-78877560D01*
X52744258Y-78877560D01*
X52868638Y-79072100D01*
X53835540Y-79072100D01*
X53835540Y-78104255D01*
X54089540Y-78104255D01*
X54089540Y-79072100D01*
X55056442Y-79072100D01*
X55180822Y-78877560D01*
X55051368Y-78565001D01*
X54725827Y-78196592D01*
X54284082Y-77980806D01*
X54089540Y-78104255D01*
X53835540Y-78104255D01*
X53640998Y-77980806D01*
X53199253Y-78196592D01*
X52873712Y-78565001D01*
X52744258Y-78877560D01*
X52532160Y-78877560D01*
X52654779Y-78546634D01*
X52513700Y-78326100D01*
X51389540Y-78326100D01*
X51135540Y-78326100D01*
X51115540Y-78326100D01*
X51115540Y-78072100D01*
X51135540Y-78072100D01*
X51135540Y-76829312D01*
X51389540Y-76829312D01*
X51389540Y-78072100D01*
X52513700Y-78072100D01*
X52654779Y-77851566D01*
X52463641Y-77335719D01*
X52089646Y-76932283D01*
X51857325Y-76823690D01*
X59915000Y-76823690D01*
X59915000Y-77414250D01*
X60073750Y-77573000D01*
X61423000Y-77573000D01*
X61423000Y-76473750D01*
X61264250Y-76315000D01*
X60423691Y-76315000D01*
X60190302Y-76411673D01*
X60011673Y-76590301D01*
X59915000Y-76823690D01*
X51857325Y-76823690D01*
X51607652Y-76706987D01*
X51389540Y-76829312D01*
X51135540Y-76829312D01*
X50917428Y-76706987D01*
X50710000Y-76803944D01*
X50710000Y-72935750D01*
X60290000Y-72935750D01*
X60290000Y-73376309D01*
X60386673Y-73609698D01*
X60565301Y-73788327D01*
X60798690Y-73885000D01*
X61014250Y-73885000D01*
X61173000Y-73726250D01*
X61173000Y-72777000D01*
X61427000Y-72777000D01*
X61427000Y-73726250D01*
X61585750Y-73885000D01*
X61801310Y-73885000D01*
X62034699Y-73788327D01*
X62213327Y-73609698D01*
X62310000Y-73376309D01*
X62310000Y-73207480D01*
X63084073Y-73207480D01*
X63112852Y-73737199D01*
X63260200Y-74092929D01*
X63495812Y-74154583D01*
X64250395Y-73400000D01*
X63495812Y-72645417D01*
X63260200Y-72707071D01*
X63084073Y-73207480D01*
X62310000Y-73207480D01*
X62310000Y-72935750D01*
X62151250Y-72777000D01*
X61427000Y-72777000D01*
X61173000Y-72777000D01*
X60448750Y-72777000D01*
X60290000Y-72935750D01*
X50710000Y-72935750D01*
X50710000Y-64995148D01*
X53085417Y-64995148D01*
X53147071Y-65230760D01*
X53647480Y-65406887D01*
X54177199Y-65378108D01*
X54532929Y-65230760D01*
X54594583Y-64995148D01*
X54472663Y-64873228D01*
X55625417Y-64873228D01*
X55687071Y-65108840D01*
X56187480Y-65284967D01*
X56717199Y-65256188D01*
X57072929Y-65108840D01*
X57102679Y-64995148D01*
X58165417Y-64995148D01*
X58227071Y-65230760D01*
X58727480Y-65406887D01*
X59257199Y-65378108D01*
X59612929Y-65230760D01*
X59674583Y-64995148D01*
X58920000Y-64240565D01*
X58165417Y-64995148D01*
X57102679Y-64995148D01*
X57134583Y-64873228D01*
X56380000Y-64118645D01*
X55625417Y-64873228D01*
X54472663Y-64873228D01*
X53840000Y-64240565D01*
X53085417Y-64995148D01*
X50710000Y-64995148D01*
X50710000Y-63868440D01*
X52494073Y-63868440D01*
X52522852Y-64398159D01*
X52670200Y-64753889D01*
X52905812Y-64815543D01*
X53660395Y-64060960D01*
X54019605Y-64060960D01*
X54774188Y-64815543D01*
X55009800Y-64753889D01*
X55125058Y-64426419D01*
X55210200Y-64631969D01*
X55445812Y-64693623D01*
X56200395Y-63939040D01*
X56559605Y-63939040D01*
X57314188Y-64693623D01*
X57549800Y-64631969D01*
X57618660Y-64436324D01*
X57750200Y-64753889D01*
X57985812Y-64815543D01*
X58740395Y-64060960D01*
X57985812Y-63306377D01*
X57750200Y-63368031D01*
X57681340Y-63563676D01*
X57549800Y-63246111D01*
X57314188Y-63184457D01*
X56559605Y-63939040D01*
X56200395Y-63939040D01*
X55445812Y-63184457D01*
X55210200Y-63246111D01*
X55094942Y-63573581D01*
X55009800Y-63368031D01*
X54774188Y-63306377D01*
X54019605Y-64060960D01*
X53660395Y-64060960D01*
X52905812Y-63306377D01*
X52670200Y-63368031D01*
X52494073Y-63868440D01*
X50710000Y-63868440D01*
X50710000Y-63126772D01*
X53085417Y-63126772D01*
X53840000Y-63881355D01*
X54594583Y-63126772D01*
X54562680Y-63004852D01*
X55625417Y-63004852D01*
X56380000Y-63759435D01*
X57012663Y-63126772D01*
X58165417Y-63126772D01*
X58920000Y-63881355D01*
X59674583Y-63126772D01*
X59612929Y-62891160D01*
X59112520Y-62715033D01*
X58582801Y-62743812D01*
X58227071Y-62891160D01*
X58165417Y-63126772D01*
X57012663Y-63126772D01*
X57134583Y-63004852D01*
X57072929Y-62769240D01*
X56572520Y-62593113D01*
X56042801Y-62621892D01*
X55687071Y-62769240D01*
X55625417Y-63004852D01*
X54562680Y-63004852D01*
X54532929Y-62891160D01*
X54032520Y-62715033D01*
X53502801Y-62743812D01*
X53147071Y-62891160D01*
X53085417Y-63126772D01*
X50710000Y-63126772D01*
X50710000Y-60710000D01*
X63225289Y-60710000D01*
X61329862Y-62605426D01*
X61329862Y-62605426D01*
G37*
X61329862Y-62605426D02*
X61195914Y-62605309D01*
X60705620Y-62807894D01*
X60330173Y-63182687D01*
X60171405Y-63565043D01*
X60089800Y-63368031D01*
X59854188Y-63306377D01*
X59099605Y-64060960D01*
X59854188Y-64815543D01*
X60089800Y-64753889D01*
X60211256Y-64408810D01*
X60328854Y-64693420D01*
X60703647Y-65068867D01*
X61193587Y-65272308D01*
X61724086Y-65272771D01*
X62144500Y-65099060D01*
X62144500Y-65900200D01*
X62203493Y-66196780D01*
X62371492Y-66448208D01*
X66195000Y-70271716D01*
X66195000Y-71728288D01*
X66035308Y-71489292D01*
X65527154Y-70981138D01*
X65533268Y-70966413D01*
X65533731Y-70435914D01*
X65331146Y-69945620D01*
X64956353Y-69570173D01*
X64466413Y-69366732D01*
X63935914Y-69366269D01*
X63445620Y-69568854D01*
X63070173Y-69943647D01*
X63057154Y-69975000D01*
X62289511Y-69975000D01*
X62278162Y-69914683D01*
X62139090Y-69698559D01*
X61926890Y-69553569D01*
X61675000Y-69502560D01*
X60925000Y-69502560D01*
X60689683Y-69546838D01*
X60473559Y-69685910D01*
X60328569Y-69898110D01*
X60277560Y-70150000D01*
X60277560Y-71350000D01*
X60321838Y-71585317D01*
X60388329Y-71688646D01*
X60386673Y-71690302D01*
X60290000Y-71923691D01*
X60290000Y-72364250D01*
X60448750Y-72523000D01*
X61173000Y-72523000D01*
X61173000Y-72503000D01*
X61427000Y-72503000D01*
X61427000Y-72523000D01*
X62151250Y-72523000D01*
X62310000Y-72364250D01*
X62310000Y-71923691D01*
X62213327Y-71690302D01*
X62211957Y-71688932D01*
X62271431Y-71601890D01*
X62287002Y-71525000D01*
X63139351Y-71525000D01*
X63443647Y-71829827D01*
X63933587Y-72033268D01*
X64387648Y-72033664D01*
X64419108Y-72065124D01*
X64092801Y-72082852D01*
X63737071Y-72230200D01*
X63675417Y-72465812D01*
X64430000Y-73220395D01*
X64444143Y-73206253D01*
X64623748Y-73385858D01*
X64609605Y-73400000D01*
X64623748Y-73414143D01*
X64444143Y-73593748D01*
X64430000Y-73579605D01*
X63675417Y-74334188D01*
X63737071Y-74569800D01*
X64237480Y-74745927D01*
X64712300Y-74720131D01*
X64712300Y-75741684D01*
X63185000Y-77268984D01*
X63185000Y-76823690D01*
X63088327Y-76590301D01*
X62909698Y-76411673D01*
X62676309Y-76315000D01*
X61835750Y-76315000D01*
X61677000Y-76473750D01*
X61677000Y-77573000D01*
X61697000Y-77573000D01*
X61697000Y-77827000D01*
X61677000Y-77827000D01*
X61677000Y-77847000D01*
X61423000Y-77847000D01*
X61423000Y-77827000D01*
X60073750Y-77827000D01*
X59915000Y-77985750D01*
X59915000Y-78576310D01*
X60011673Y-78809699D01*
X60053634Y-78851660D01*
X59953569Y-78998110D01*
X59902560Y-79250000D01*
X59902560Y-80434700D01*
X56109415Y-80434700D01*
X55525808Y-79851092D01*
X55274380Y-79683093D01*
X55125780Y-79653535D01*
X55180822Y-79520640D01*
X55056442Y-79326100D01*
X54089540Y-79326100D01*
X54089540Y-79346100D01*
X53835540Y-79346100D01*
X53835540Y-79326100D01*
X52868638Y-79326100D01*
X52744258Y-79520640D01*
X52834197Y-79737793D01*
X52691109Y-79947210D01*
X52640100Y-80199100D01*
X52640100Y-80599100D01*
X52664484Y-80728689D01*
X52640100Y-80849100D01*
X52640100Y-81249100D01*
X52664484Y-81378689D01*
X52640100Y-81499100D01*
X52640100Y-81899100D01*
X52664484Y-82028689D01*
X52640100Y-82149100D01*
X52640100Y-82549100D01*
X52659990Y-82654805D01*
X52652540Y-82672790D01*
X52652540Y-82740350D01*
X52681544Y-82769354D01*
X52684378Y-82784417D01*
X52823450Y-83000541D01*
X52967696Y-83099100D01*
X52811290Y-83099100D01*
X52652540Y-83257850D01*
X52652540Y-83325410D01*
X52749213Y-83558799D01*
X52839066Y-83648652D01*
X52744258Y-83877560D01*
X52868638Y-84072100D01*
X53835540Y-84072100D01*
X53835540Y-84052100D01*
X54089540Y-84052100D01*
X54089540Y-84072100D01*
X55056442Y-84072100D01*
X55180822Y-83877560D01*
X55086014Y-83648652D01*
X55175867Y-83558799D01*
X55272540Y-83325410D01*
X55272540Y-83257850D01*
X55113790Y-83099100D01*
X54955473Y-83099100D01*
X55088981Y-83013190D01*
X55233971Y-82800990D01*
X55239575Y-82773315D01*
X55272540Y-82740350D01*
X55272540Y-82672790D01*
X55264072Y-82652347D01*
X55284980Y-82549100D01*
X55284980Y-82149100D01*
X55260596Y-82019511D01*
X55284980Y-81899100D01*
X55284980Y-81787501D01*
X55491820Y-81925707D01*
X55541026Y-81935495D01*
X55788400Y-81984701D01*
X55788405Y-81984700D01*
X59902560Y-81984700D01*
X59902560Y-83050000D01*
X59946838Y-83285317D01*
X60085910Y-83501441D01*
X60298110Y-83646431D01*
X60550000Y-83697440D01*
X60841049Y-83697440D01*
X61001992Y-83938308D01*
X61451992Y-84388308D01*
X61675000Y-84537317D01*
X61675000Y-85002560D01*
X60850000Y-85002560D01*
X60614683Y-85046838D01*
X60398559Y-85185910D01*
X60253569Y-85398110D01*
X60202560Y-85650000D01*
X60202560Y-88150000D01*
X60246838Y-88385317D01*
X60385910Y-88601441D01*
X60598110Y-88746431D01*
X60850000Y-88797440D01*
X64050000Y-88797440D01*
X64285317Y-88753162D01*
X64501441Y-88614090D01*
X64596990Y-88474250D01*
X64611673Y-88509699D01*
X64790302Y-88688327D01*
X65023691Y-88785000D01*
X66464250Y-88785000D01*
X66623000Y-88626250D01*
X66623000Y-87027000D01*
X66877000Y-87027000D01*
X66877000Y-88626250D01*
X67035750Y-88785000D01*
X68476309Y-88785000D01*
X68709698Y-88688327D01*
X68888327Y-88509699D01*
X68985000Y-88276310D01*
X68985000Y-87185750D01*
X68826250Y-87027000D01*
X66877000Y-87027000D01*
X66623000Y-87027000D01*
X66603000Y-87027000D01*
X66603000Y-86773000D01*
X66623000Y-86773000D01*
X66623000Y-85173750D01*
X66877000Y-85173750D01*
X66877000Y-86773000D01*
X68826250Y-86773000D01*
X68985000Y-86614250D01*
X68985000Y-85523690D01*
X68888327Y-85290301D01*
X68709698Y-85111673D01*
X68476309Y-85015000D01*
X67035750Y-85015000D01*
X66877000Y-85173750D01*
X66623000Y-85173750D01*
X66464250Y-85015000D01*
X65023691Y-85015000D01*
X64790302Y-85111673D01*
X64611673Y-85290301D01*
X64596577Y-85326747D01*
X64514090Y-85198559D01*
X64301890Y-85053569D01*
X64050000Y-85002560D01*
X63225000Y-85002560D01*
X63225000Y-84615300D01*
X66843511Y-84615300D01*
X66860673Y-84632492D01*
X67204201Y-84775138D01*
X67576167Y-84775462D01*
X67919943Y-84633417D01*
X68183192Y-84370627D01*
X68325838Y-84027099D01*
X68326162Y-83655133D01*
X68184117Y-83311357D01*
X67921327Y-83048108D01*
X67577799Y-82905462D01*
X67205833Y-82905138D01*
X66862057Y-83047183D01*
X66843908Y-83065300D01*
X63194342Y-83065300D01*
X63197440Y-83050000D01*
X63197440Y-81550000D01*
X63153162Y-81314683D01*
X63046241Y-81148523D01*
X63146431Y-81001890D01*
X63197440Y-80750000D01*
X63197440Y-79448576D01*
X64546016Y-78100000D01*
X66202560Y-78100000D01*
X66202560Y-81900000D01*
X66246838Y-82135317D01*
X66385910Y-82351441D01*
X66598110Y-82496431D01*
X66850000Y-82547440D01*
X68850000Y-82547440D01*
X69085317Y-82503162D01*
X69301441Y-82364090D01*
X69446431Y-82151890D01*
X69497440Y-81900000D01*
X69497440Y-78100000D01*
X69453162Y-77864683D01*
X69314090Y-77648559D01*
X69101890Y-77503569D01*
X68850000Y-77452560D01*
X66850000Y-77452560D01*
X66614683Y-77496838D01*
X66398559Y-77635910D01*
X66253569Y-77848110D01*
X66202560Y-78100000D01*
X64546016Y-78100000D01*
X66035308Y-76610708D01*
X66203307Y-76359280D01*
X66262300Y-76062700D01*
X66262300Y-74744077D01*
X66271500Y-74745940D01*
X67668500Y-74745940D01*
X67903817Y-74701662D01*
X68119941Y-74562590D01*
X68264931Y-74350390D01*
X68315940Y-74098500D01*
X68315940Y-72701500D01*
X68271662Y-72466183D01*
X68132590Y-72250059D01*
X67920390Y-72105069D01*
X67745000Y-72069552D01*
X67745000Y-70257511D01*
X70515000Y-73027511D01*
X70515000Y-89949995D01*
X70514999Y-89950000D01*
X70593785Y-90346077D01*
X70818144Y-90681856D01*
X76901789Y-96765500D01*
X73212415Y-96765500D01*
X72502580Y-96055664D01*
X72544583Y-95895148D01*
X71790000Y-95140565D01*
X71775858Y-95154708D01*
X71596253Y-94975103D01*
X71610395Y-94960960D01*
X71969605Y-94960960D01*
X72724188Y-95715543D01*
X72959800Y-95653889D01*
X73135927Y-95153480D01*
X73107148Y-94623761D01*
X72959800Y-94268031D01*
X72724188Y-94206377D01*
X71969605Y-94960960D01*
X71610395Y-94960960D01*
X71596253Y-94946818D01*
X71775858Y-94767213D01*
X71790000Y-94781355D01*
X72544583Y-94026772D01*
X72482929Y-93791160D01*
X71982520Y-93615033D01*
X71452801Y-93643812D01*
X71097071Y-93791160D01*
X71035418Y-94026770D01*
X70920163Y-93911515D01*
X70907447Y-93924231D01*
X70206008Y-93222792D01*
X69954580Y-93054793D01*
X69658000Y-92995800D01*
X65238200Y-92995800D01*
X64941620Y-93054793D01*
X64690192Y-93222792D01*
X64407237Y-93505747D01*
X63905914Y-93505309D01*
X63415620Y-93707894D01*
X63040173Y-94082687D01*
X62874656Y-94481296D01*
X62761146Y-94206580D01*
X62386353Y-93831133D01*
X61896413Y-93627692D01*
X61365914Y-93627229D01*
X60875620Y-93829814D01*
X60500173Y-94204607D01*
X60385157Y-94481597D01*
X60221146Y-94084660D01*
X59846353Y-93709213D01*
X59356413Y-93505772D01*
X58825914Y-93505309D01*
X58335620Y-93707894D01*
X57960173Y-94082687D01*
X57794656Y-94481296D01*
X57681146Y-94206580D01*
X57306353Y-93831133D01*
X56816413Y-93627692D01*
X56285914Y-93627229D01*
X55795620Y-93829814D01*
X55439159Y-94185654D01*
X55353682Y-94128540D01*
X55311662Y-93905223D01*
X55172590Y-93689099D01*
X54960390Y-93544109D01*
X54708500Y-93493100D01*
X53311500Y-93493100D01*
X53076183Y-93537378D01*
X52860059Y-93676450D01*
X52715069Y-93888650D01*
X52664060Y-94140540D01*
X52664060Y-95537540D01*
X52708338Y-95772857D01*
X52847410Y-95988981D01*
X53059610Y-96133971D01*
X53311500Y-96184980D01*
X54708500Y-96184980D01*
X54943817Y-96140702D01*
X55053869Y-96069885D01*
X58273984Y-99290000D01*
X50710000Y-99290000D01*
X50710000Y-86594256D01*
X50917428Y-86691213D01*
X51135540Y-86568888D01*
X51135540Y-85326100D01*
X51389540Y-85326100D01*
X51389540Y-86568888D01*
X51607652Y-86691213D01*
X52089646Y-86465917D01*
X52463641Y-86062481D01*
X52654779Y-85546634D01*
X52513700Y-85326100D01*
X51389540Y-85326100D01*
X51135540Y-85326100D01*
X51115540Y-85326100D01*
X51115540Y-85072100D01*
X51135540Y-85072100D01*
X51135540Y-83829312D01*
X51389540Y-83829312D01*
X51389540Y-85072100D01*
X52513700Y-85072100D01*
X52654779Y-84851566D01*
X52532161Y-84520640D01*
X52744258Y-84520640D01*
X52873712Y-84833199D01*
X53199253Y-85201608D01*
X53640998Y-85417394D01*
X53835540Y-85293945D01*
X53835540Y-84326100D01*
X54089540Y-84326100D01*
X54089540Y-85293945D01*
X54284082Y-85417394D01*
X54725827Y-85201608D01*
X55051368Y-84833199D01*
X55180822Y-84520640D01*
X55056442Y-84326100D01*
X54089540Y-84326100D01*
X53835540Y-84326100D01*
X52868638Y-84326100D01*
X52744258Y-84520640D01*
X52532161Y-84520640D01*
X52463641Y-84335719D01*
X52089646Y-83932283D01*
X51607652Y-83706987D01*
X51389540Y-83829312D01*
X51135540Y-83829312D01*
X50917428Y-83706987D01*
X50710000Y-83803944D01*
X50710000Y-79594256D01*
X50917428Y-79691213D01*
X51135540Y-79568888D01*
X51135540Y-78326100D01*
X51389540Y-78326100D01*
X51389540Y-79568888D01*
X51607652Y-79691213D01*
X52089646Y-79465917D01*
X52463641Y-79062481D01*
X52532160Y-78877560D01*
X52744258Y-78877560D01*
X52868638Y-79072100D01*
X53835540Y-79072100D01*
X53835540Y-78104255D01*
X54089540Y-78104255D01*
X54089540Y-79072100D01*
X55056442Y-79072100D01*
X55180822Y-78877560D01*
X55051368Y-78565001D01*
X54725827Y-78196592D01*
X54284082Y-77980806D01*
X54089540Y-78104255D01*
X53835540Y-78104255D01*
X53640998Y-77980806D01*
X53199253Y-78196592D01*
X52873712Y-78565001D01*
X52744258Y-78877560D01*
X52532160Y-78877560D01*
X52654779Y-78546634D01*
X52513700Y-78326100D01*
X51389540Y-78326100D01*
X51135540Y-78326100D01*
X51115540Y-78326100D01*
X51115540Y-78072100D01*
X51135540Y-78072100D01*
X51135540Y-76829312D01*
X51389540Y-76829312D01*
X51389540Y-78072100D01*
X52513700Y-78072100D01*
X52654779Y-77851566D01*
X52463641Y-77335719D01*
X52089646Y-76932283D01*
X51857325Y-76823690D01*
X59915000Y-76823690D01*
X59915000Y-77414250D01*
X60073750Y-77573000D01*
X61423000Y-77573000D01*
X61423000Y-76473750D01*
X61264250Y-76315000D01*
X60423691Y-76315000D01*
X60190302Y-76411673D01*
X60011673Y-76590301D01*
X59915000Y-76823690D01*
X51857325Y-76823690D01*
X51607652Y-76706987D01*
X51389540Y-76829312D01*
X51135540Y-76829312D01*
X50917428Y-76706987D01*
X50710000Y-76803944D01*
X50710000Y-72935750D01*
X60290000Y-72935750D01*
X60290000Y-73376309D01*
X60386673Y-73609698D01*
X60565301Y-73788327D01*
X60798690Y-73885000D01*
X61014250Y-73885000D01*
X61173000Y-73726250D01*
X61173000Y-72777000D01*
X61427000Y-72777000D01*
X61427000Y-73726250D01*
X61585750Y-73885000D01*
X61801310Y-73885000D01*
X62034699Y-73788327D01*
X62213327Y-73609698D01*
X62310000Y-73376309D01*
X62310000Y-73207480D01*
X63084073Y-73207480D01*
X63112852Y-73737199D01*
X63260200Y-74092929D01*
X63495812Y-74154583D01*
X64250395Y-73400000D01*
X63495812Y-72645417D01*
X63260200Y-72707071D01*
X63084073Y-73207480D01*
X62310000Y-73207480D01*
X62310000Y-72935750D01*
X62151250Y-72777000D01*
X61427000Y-72777000D01*
X61173000Y-72777000D01*
X60448750Y-72777000D01*
X60290000Y-72935750D01*
X50710000Y-72935750D01*
X50710000Y-64995148D01*
X53085417Y-64995148D01*
X53147071Y-65230760D01*
X53647480Y-65406887D01*
X54177199Y-65378108D01*
X54532929Y-65230760D01*
X54594583Y-64995148D01*
X54472663Y-64873228D01*
X55625417Y-64873228D01*
X55687071Y-65108840D01*
X56187480Y-65284967D01*
X56717199Y-65256188D01*
X57072929Y-65108840D01*
X57102679Y-64995148D01*
X58165417Y-64995148D01*
X58227071Y-65230760D01*
X58727480Y-65406887D01*
X59257199Y-65378108D01*
X59612929Y-65230760D01*
X59674583Y-64995148D01*
X58920000Y-64240565D01*
X58165417Y-64995148D01*
X57102679Y-64995148D01*
X57134583Y-64873228D01*
X56380000Y-64118645D01*
X55625417Y-64873228D01*
X54472663Y-64873228D01*
X53840000Y-64240565D01*
X53085417Y-64995148D01*
X50710000Y-64995148D01*
X50710000Y-63868440D01*
X52494073Y-63868440D01*
X52522852Y-64398159D01*
X52670200Y-64753889D01*
X52905812Y-64815543D01*
X53660395Y-64060960D01*
X54019605Y-64060960D01*
X54774188Y-64815543D01*
X55009800Y-64753889D01*
X55125058Y-64426419D01*
X55210200Y-64631969D01*
X55445812Y-64693623D01*
X56200395Y-63939040D01*
X56559605Y-63939040D01*
X57314188Y-64693623D01*
X57549800Y-64631969D01*
X57618660Y-64436324D01*
X57750200Y-64753889D01*
X57985812Y-64815543D01*
X58740395Y-64060960D01*
X57985812Y-63306377D01*
X57750200Y-63368031D01*
X57681340Y-63563676D01*
X57549800Y-63246111D01*
X57314188Y-63184457D01*
X56559605Y-63939040D01*
X56200395Y-63939040D01*
X55445812Y-63184457D01*
X55210200Y-63246111D01*
X55094942Y-63573581D01*
X55009800Y-63368031D01*
X54774188Y-63306377D01*
X54019605Y-64060960D01*
X53660395Y-64060960D01*
X52905812Y-63306377D01*
X52670200Y-63368031D01*
X52494073Y-63868440D01*
X50710000Y-63868440D01*
X50710000Y-63126772D01*
X53085417Y-63126772D01*
X53840000Y-63881355D01*
X54594583Y-63126772D01*
X54562680Y-63004852D01*
X55625417Y-63004852D01*
X56380000Y-63759435D01*
X57012663Y-63126772D01*
X58165417Y-63126772D01*
X58920000Y-63881355D01*
X59674583Y-63126772D01*
X59612929Y-62891160D01*
X59112520Y-62715033D01*
X58582801Y-62743812D01*
X58227071Y-62891160D01*
X58165417Y-63126772D01*
X57012663Y-63126772D01*
X57134583Y-63004852D01*
X57072929Y-62769240D01*
X56572520Y-62593113D01*
X56042801Y-62621892D01*
X55687071Y-62769240D01*
X55625417Y-63004852D01*
X54562680Y-63004852D01*
X54532929Y-62891160D01*
X54032520Y-62715033D01*
X53502801Y-62743812D01*
X53147071Y-62891160D01*
X53085417Y-63126772D01*
X50710000Y-63126772D01*
X50710000Y-60710000D01*
X63225289Y-60710000D01*
X61329862Y-62605426D01*
G36*
X149290000Y-99290000D02*
X98106016Y-99290000D01*
X100921016Y-96475000D01*
X104700000Y-96475000D01*
X104996580Y-96416007D01*
X105248008Y-96248008D01*
X105721015Y-95775000D01*
X106280000Y-95775000D01*
X106576580Y-95716007D01*
X106828008Y-95548008D01*
X107048008Y-95328008D01*
X107207997Y-95088568D01*
X107401441Y-94964090D01*
X107546431Y-94751890D01*
X107597440Y-94500000D01*
X107597440Y-93935750D01*
X108690000Y-93935750D01*
X108690000Y-94376309D01*
X108786673Y-94609698D01*
X108965301Y-94788327D01*
X109198690Y-94885000D01*
X109414250Y-94885000D01*
X109573000Y-94726250D01*
X109573000Y-93777000D01*
X108848750Y-93777000D01*
X108690000Y-93935750D01*
X107597440Y-93935750D01*
X107597440Y-93484600D01*
X108810350Y-93484600D01*
X108848750Y-93523000D01*
X109573000Y-93523000D01*
X109573000Y-93503000D01*
X109827000Y-93503000D01*
X109827000Y-93523000D01*
X109847000Y-93523000D01*
X109847000Y-93777000D01*
X109827000Y-93777000D01*
X109827000Y-94726250D01*
X109985750Y-94885000D01*
X110201310Y-94885000D01*
X110434699Y-94788327D01*
X110613327Y-94609698D01*
X110710000Y-94376309D01*
X110710000Y-94096316D01*
X111061692Y-94448008D01*
X111313120Y-94616007D01*
X111324826Y-94618336D01*
X111346838Y-94735317D01*
X111485910Y-94951441D01*
X111698110Y-95096431D01*
X111950000Y-95147440D01*
X112850000Y-95147440D01*
X113085317Y-95103162D01*
X113301441Y-94964090D01*
X113446431Y-94751890D01*
X113497440Y-94500000D01*
X113497440Y-94035750D01*
X114190000Y-94035750D01*
X114190000Y-94476309D01*
X114286673Y-94709698D01*
X114465301Y-94888327D01*
X114698690Y-94985000D01*
X114914250Y-94985000D01*
X115073000Y-94826250D01*
X115073000Y-93877000D01*
X115327000Y-93877000D01*
X115327000Y-94826250D01*
X115485750Y-94985000D01*
X115701310Y-94985000D01*
X115934699Y-94888327D01*
X116113327Y-94709698D01*
X116210000Y-94476309D01*
X116210000Y-94035750D01*
X116051250Y-93877000D01*
X115327000Y-93877000D01*
X115073000Y-93877000D01*
X114348750Y-93877000D01*
X114190000Y-94035750D01*
X113497440Y-94035750D01*
X113497440Y-93565400D01*
X114291150Y-93565400D01*
X114348750Y-93623000D01*
X115073000Y-93623000D01*
X115073000Y-93603000D01*
X115327000Y-93603000D01*
X115327000Y-93623000D01*
X116051250Y-93623000D01*
X116108850Y-93565400D01*
X125699900Y-93565400D01*
X125699900Y-93759600D01*
X125758893Y-94056180D01*
X125926892Y-94307608D01*
X126031358Y-94412074D01*
X126013569Y-94438110D01*
X125962560Y-94690000D01*
X125962560Y-95910000D01*
X126006838Y-96145317D01*
X126145910Y-96361441D01*
X126358110Y-96506431D01*
X126610000Y-96557440D01*
X127520000Y-96557440D01*
X127755317Y-96513162D01*
X127971441Y-96374090D01*
X128116431Y-96161890D01*
X128167440Y-95910000D01*
X128167440Y-94690000D01*
X128123162Y-94454683D01*
X127984090Y-94238559D01*
X127791752Y-94107140D01*
X127781007Y-94053120D01*
X127613008Y-93801692D01*
X127613005Y-93801690D01*
X127249900Y-93438584D01*
X127249900Y-93111416D01*
X127898008Y-92463308D01*
X127904010Y-92454326D01*
X129497692Y-94048008D01*
X129599407Y-94115972D01*
X129428559Y-94225910D01*
X129283569Y-94438110D01*
X129232560Y-94690000D01*
X129232560Y-95910000D01*
X129276838Y-96145317D01*
X129415910Y-96361441D01*
X129628110Y-96506431D01*
X129880000Y-96557440D01*
X130790000Y-96557440D01*
X131025317Y-96513162D01*
X131241441Y-96374090D01*
X131386431Y-96161890D01*
X131415515Y-96018268D01*
X131426880Y-96016007D01*
X131678308Y-95848008D01*
X131846307Y-95596580D01*
X131905300Y-95300000D01*
X131905300Y-94275000D01*
X137102560Y-94275000D01*
X137102560Y-95600000D01*
X137146838Y-95835317D01*
X137285910Y-96051441D01*
X137498110Y-96196431D01*
X137750000Y-96247440D01*
X140150000Y-96247440D01*
X140385317Y-96203162D01*
X140601441Y-96064090D01*
X140746431Y-95851890D01*
X140797440Y-95600000D01*
X140797440Y-93785750D01*
X141615000Y-93785750D01*
X141615000Y-95726310D01*
X141711673Y-95959699D01*
X141890302Y-96138327D01*
X142123691Y-96235000D01*
X143164250Y-96235000D01*
X143323000Y-96076250D01*
X143323000Y-93627000D01*
X143577000Y-93627000D01*
X143577000Y-96076250D01*
X143735750Y-96235000D01*
X144776309Y-96235000D01*
X145009698Y-96138327D01*
X145188327Y-95959699D01*
X145285000Y-95726310D01*
X145285000Y-93785750D01*
X145126250Y-93627000D01*
X143577000Y-93627000D01*
X143323000Y-93627000D01*
X141773750Y-93627000D01*
X141615000Y-93785750D01*
X140797440Y-93785750D01*
X140797440Y-91400000D01*
X140773674Y-91273690D01*
X141615000Y-91273690D01*
X141615000Y-93214250D01*
X141773750Y-93373000D01*
X143323000Y-93373000D01*
X143323000Y-90923750D01*
X143577000Y-90923750D01*
X143577000Y-93373000D01*
X145126250Y-93373000D01*
X145285000Y-93214250D01*
X145285000Y-91273690D01*
X145188327Y-91040301D01*
X145009698Y-90861673D01*
X144776309Y-90765000D01*
X143735750Y-90765000D01*
X143577000Y-90923750D01*
X143323000Y-90923750D01*
X143164250Y-90765000D01*
X142123691Y-90765000D01*
X141890302Y-90861673D01*
X141711673Y-91040301D01*
X141615000Y-91273690D01*
X140773674Y-91273690D01*
X140753162Y-91164683D01*
X140614090Y-90948559D01*
X140401890Y-90803569D01*
X140150000Y-90752560D01*
X137750000Y-90752560D01*
X137514683Y-90796838D01*
X137298559Y-90935910D01*
X137153569Y-91148110D01*
X137102560Y-91400000D01*
X137102560Y-92725000D01*
X130366716Y-92725000D01*
X129851716Y-92210000D01*
X129976309Y-92210000D01*
X130209698Y-92113327D01*
X130388327Y-91934699D01*
X130485000Y-91701310D01*
X130485000Y-91485750D01*
X130326250Y-91327000D01*
X129377000Y-91327000D01*
X129377000Y-91347000D01*
X129123000Y-91347000D01*
X129123000Y-91327000D01*
X129103000Y-91327000D01*
X129103000Y-91073000D01*
X129123000Y-91073000D01*
X129123000Y-89827000D01*
X129377000Y-89827000D01*
X129377000Y-91073000D01*
X130326250Y-91073000D01*
X130485000Y-90914250D01*
X130485000Y-90698690D01*
X130388327Y-90465301D01*
X130373026Y-90450000D01*
X130388327Y-90434699D01*
X130485000Y-90201310D01*
X130485000Y-89985750D01*
X130326250Y-89827000D01*
X129377000Y-89827000D01*
X129123000Y-89827000D01*
X129103000Y-89827000D01*
X129103000Y-89573000D01*
X129123000Y-89573000D01*
X129123000Y-89553000D01*
X129377000Y-89553000D01*
X129377000Y-89573000D01*
X130326250Y-89573000D01*
X130485000Y-89414250D01*
X130485000Y-89198690D01*
X130388327Y-88965301D01*
X130366662Y-88943636D01*
X130446431Y-88826890D01*
X130497440Y-88575000D01*
X130497440Y-87825000D01*
X130453162Y-87589683D01*
X130314090Y-87373559D01*
X130101890Y-87228569D01*
X129968687Y-87201595D01*
X129966007Y-87188121D01*
X129966007Y-87188120D01*
X129798008Y-86936692D01*
X129434600Y-86573284D01*
X129434600Y-86197440D01*
X130200000Y-86197440D01*
X130435317Y-86153162D01*
X130651441Y-86014090D01*
X130796431Y-85801890D01*
X130847440Y-85550000D01*
X130847440Y-85084700D01*
X137052560Y-85084700D01*
X137052560Y-85550000D01*
X137096838Y-85785317D01*
X137235910Y-86001441D01*
X137448110Y-86146431D01*
X137575000Y-86172127D01*
X137575000Y-87610489D01*
X137514683Y-87621838D01*
X137298559Y-87760910D01*
X137153569Y-87973110D01*
X137102560Y-88225000D01*
X137102560Y-88975000D01*
X137146838Y-89210317D01*
X137285910Y-89426441D01*
X137498110Y-89571431D01*
X137750000Y-89622440D01*
X138950000Y-89622440D01*
X139185317Y-89578162D01*
X139288646Y-89511671D01*
X139290302Y-89513327D01*
X139523691Y-89610000D01*
X139964250Y-89610000D01*
X140123000Y-89451250D01*
X140123000Y-88727000D01*
X140377000Y-88727000D01*
X140377000Y-89451250D01*
X140535750Y-89610000D01*
X140976309Y-89610000D01*
X141209698Y-89513327D01*
X141388327Y-89334699D01*
X141485000Y-89101310D01*
X141485000Y-88885750D01*
X141326250Y-88727000D01*
X140377000Y-88727000D01*
X140123000Y-88727000D01*
X140103000Y-88727000D01*
X140103000Y-88473000D01*
X140123000Y-88473000D01*
X140123000Y-87748750D01*
X140377000Y-87748750D01*
X140377000Y-88473000D01*
X141326250Y-88473000D01*
X141485000Y-88314250D01*
X141485000Y-88098690D01*
X141388327Y-87865301D01*
X141209698Y-87686673D01*
X140976309Y-87590000D01*
X140535750Y-87590000D01*
X140377000Y-87748750D01*
X140123000Y-87748750D01*
X139964250Y-87590000D01*
X139523691Y-87590000D01*
X139290302Y-87686673D01*
X139288932Y-87688043D01*
X139201890Y-87628569D01*
X139125000Y-87612998D01*
X139125000Y-86155103D01*
X139135317Y-86153162D01*
X139351441Y-86014090D01*
X139397969Y-85945994D01*
X139540302Y-86088327D01*
X139773691Y-86185000D01*
X140214250Y-86185000D01*
X140373000Y-86026250D01*
X140373000Y-85227000D01*
X140627000Y-85227000D01*
X140627000Y-86026250D01*
X140785750Y-86185000D01*
X141226309Y-86185000D01*
X141459698Y-86088327D01*
X141638327Y-85909699D01*
X141735000Y-85676310D01*
X141735000Y-85385750D01*
X141576250Y-85227000D01*
X140627000Y-85227000D01*
X140373000Y-85227000D01*
X140353000Y-85227000D01*
X140353000Y-84973000D01*
X140373000Y-84973000D01*
X140373000Y-84953000D01*
X140627000Y-84953000D01*
X140627000Y-84973000D01*
X141576250Y-84973000D01*
X141735000Y-84814250D01*
X141735000Y-84535000D01*
X142699995Y-84535000D01*
X142700000Y-84535001D01*
X143096077Y-84456215D01*
X143431856Y-84231856D01*
X145831853Y-81831858D01*
X145831856Y-81831856D01*
X146056215Y-81496077D01*
X146066614Y-81443800D01*
X146135001Y-81100000D01*
X146135000Y-81099995D01*
X146135000Y-66700005D01*
X146135001Y-66700000D01*
X146056215Y-66303923D01*
X145963178Y-66164683D01*
X145831856Y-65968144D01*
X145831853Y-65968142D01*
X140573712Y-60710000D01*
X149290000Y-60710000D01*
X149290000Y-99290000D01*
X149290000Y-99290000D01*
G37*
X149290000Y-99290000D02*
X98106016Y-99290000D01*
X100921016Y-96475000D01*
X104700000Y-96475000D01*
X104996580Y-96416007D01*
X105248008Y-96248008D01*
X105721015Y-95775000D01*
X106280000Y-95775000D01*
X106576580Y-95716007D01*
X106828008Y-95548008D01*
X107048008Y-95328008D01*
X107207997Y-95088568D01*
X107401441Y-94964090D01*
X107546431Y-94751890D01*
X107597440Y-94500000D01*
X107597440Y-93935750D01*
X108690000Y-93935750D01*
X108690000Y-94376309D01*
X108786673Y-94609698D01*
X108965301Y-94788327D01*
X109198690Y-94885000D01*
X109414250Y-94885000D01*
X109573000Y-94726250D01*
X109573000Y-93777000D01*
X108848750Y-93777000D01*
X108690000Y-93935750D01*
X107597440Y-93935750D01*
X107597440Y-93484600D01*
X108810350Y-93484600D01*
X108848750Y-93523000D01*
X109573000Y-93523000D01*
X109573000Y-93503000D01*
X109827000Y-93503000D01*
X109827000Y-93523000D01*
X109847000Y-93523000D01*
X109847000Y-93777000D01*
X109827000Y-93777000D01*
X109827000Y-94726250D01*
X109985750Y-94885000D01*
X110201310Y-94885000D01*
X110434699Y-94788327D01*
X110613327Y-94609698D01*
X110710000Y-94376309D01*
X110710000Y-94096316D01*
X111061692Y-94448008D01*
X111313120Y-94616007D01*
X111324826Y-94618336D01*
X111346838Y-94735317D01*
X111485910Y-94951441D01*
X111698110Y-95096431D01*
X111950000Y-95147440D01*
X112850000Y-95147440D01*
X113085317Y-95103162D01*
X113301441Y-94964090D01*
X113446431Y-94751890D01*
X113497440Y-94500000D01*
X113497440Y-94035750D01*
X114190000Y-94035750D01*
X114190000Y-94476309D01*
X114286673Y-94709698D01*
X114465301Y-94888327D01*
X114698690Y-94985000D01*
X114914250Y-94985000D01*
X115073000Y-94826250D01*
X115073000Y-93877000D01*
X115327000Y-93877000D01*
X115327000Y-94826250D01*
X115485750Y-94985000D01*
X115701310Y-94985000D01*
X115934699Y-94888327D01*
X116113327Y-94709698D01*
X116210000Y-94476309D01*
X116210000Y-94035750D01*
X116051250Y-93877000D01*
X115327000Y-93877000D01*
X115073000Y-93877000D01*
X114348750Y-93877000D01*
X114190000Y-94035750D01*
X113497440Y-94035750D01*
X113497440Y-93565400D01*
X114291150Y-93565400D01*
X114348750Y-93623000D01*
X115073000Y-93623000D01*
X115073000Y-93603000D01*
X115327000Y-93603000D01*
X115327000Y-93623000D01*
X116051250Y-93623000D01*
X116108850Y-93565400D01*
X125699900Y-93565400D01*
X125699900Y-93759600D01*
X125758893Y-94056180D01*
X125926892Y-94307608D01*
X126031358Y-94412074D01*
X126013569Y-94438110D01*
X125962560Y-94690000D01*
X125962560Y-95910000D01*
X126006838Y-96145317D01*
X126145910Y-96361441D01*
X126358110Y-96506431D01*
X126610000Y-96557440D01*
X127520000Y-96557440D01*
X127755317Y-96513162D01*
X127971441Y-96374090D01*
X128116431Y-96161890D01*
X128167440Y-95910000D01*
X128167440Y-94690000D01*
X128123162Y-94454683D01*
X127984090Y-94238559D01*
X127791752Y-94107140D01*
X127781007Y-94053120D01*
X127613008Y-93801692D01*
X127613005Y-93801690D01*
X127249900Y-93438584D01*
X127249900Y-93111416D01*
X127898008Y-92463308D01*
X127904010Y-92454326D01*
X129497692Y-94048008D01*
X129599407Y-94115972D01*
X129428559Y-94225910D01*
X129283569Y-94438110D01*
X129232560Y-94690000D01*
X129232560Y-95910000D01*
X129276838Y-96145317D01*
X129415910Y-96361441D01*
X129628110Y-96506431D01*
X129880000Y-96557440D01*
X130790000Y-96557440D01*
X131025317Y-96513162D01*
X131241441Y-96374090D01*
X131386431Y-96161890D01*
X131415515Y-96018268D01*
X131426880Y-96016007D01*
X131678308Y-95848008D01*
X131846307Y-95596580D01*
X131905300Y-95300000D01*
X131905300Y-94275000D01*
X137102560Y-94275000D01*
X137102560Y-95600000D01*
X137146838Y-95835317D01*
X137285910Y-96051441D01*
X137498110Y-96196431D01*
X137750000Y-96247440D01*
X140150000Y-96247440D01*
X140385317Y-96203162D01*
X140601441Y-96064090D01*
X140746431Y-95851890D01*
X140797440Y-95600000D01*
X140797440Y-93785750D01*
X141615000Y-93785750D01*
X141615000Y-95726310D01*
X141711673Y-95959699D01*
X141890302Y-96138327D01*
X142123691Y-96235000D01*
X143164250Y-96235000D01*
X143323000Y-96076250D01*
X143323000Y-93627000D01*
X143577000Y-93627000D01*
X143577000Y-96076250D01*
X143735750Y-96235000D01*
X144776309Y-96235000D01*
X145009698Y-96138327D01*
X145188327Y-95959699D01*
X145285000Y-95726310D01*
X145285000Y-93785750D01*
X145126250Y-93627000D01*
X143577000Y-93627000D01*
X143323000Y-93627000D01*
X141773750Y-93627000D01*
X141615000Y-93785750D01*
X140797440Y-93785750D01*
X140797440Y-91400000D01*
X140773674Y-91273690D01*
X141615000Y-91273690D01*
X141615000Y-93214250D01*
X141773750Y-93373000D01*
X143323000Y-93373000D01*
X143323000Y-90923750D01*
X143577000Y-90923750D01*
X143577000Y-93373000D01*
X145126250Y-93373000D01*
X145285000Y-93214250D01*
X145285000Y-91273690D01*
X145188327Y-91040301D01*
X145009698Y-90861673D01*
X144776309Y-90765000D01*
X143735750Y-90765000D01*
X143577000Y-90923750D01*
X143323000Y-90923750D01*
X143164250Y-90765000D01*
X142123691Y-90765000D01*
X141890302Y-90861673D01*
X141711673Y-91040301D01*
X141615000Y-91273690D01*
X140773674Y-91273690D01*
X140753162Y-91164683D01*
X140614090Y-90948559D01*
X140401890Y-90803569D01*
X140150000Y-90752560D01*
X137750000Y-90752560D01*
X137514683Y-90796838D01*
X137298559Y-90935910D01*
X137153569Y-91148110D01*
X137102560Y-91400000D01*
X137102560Y-92725000D01*
X130366716Y-92725000D01*
X129851716Y-92210000D01*
X129976309Y-92210000D01*
X130209698Y-92113327D01*
X130388327Y-91934699D01*
X130485000Y-91701310D01*
X130485000Y-91485750D01*
X130326250Y-91327000D01*
X129377000Y-91327000D01*
X129377000Y-91347000D01*
X129123000Y-91347000D01*
X129123000Y-91327000D01*
X129103000Y-91327000D01*
X129103000Y-91073000D01*
X129123000Y-91073000D01*
X129123000Y-89827000D01*
X129377000Y-89827000D01*
X129377000Y-91073000D01*
X130326250Y-91073000D01*
X130485000Y-90914250D01*
X130485000Y-90698690D01*
X130388327Y-90465301D01*
X130373026Y-90450000D01*
X130388327Y-90434699D01*
X130485000Y-90201310D01*
X130485000Y-89985750D01*
X130326250Y-89827000D01*
X129377000Y-89827000D01*
X129123000Y-89827000D01*
X129103000Y-89827000D01*
X129103000Y-89573000D01*
X129123000Y-89573000D01*
X129123000Y-89553000D01*
X129377000Y-89553000D01*
X129377000Y-89573000D01*
X130326250Y-89573000D01*
X130485000Y-89414250D01*
X130485000Y-89198690D01*
X130388327Y-88965301D01*
X130366662Y-88943636D01*
X130446431Y-88826890D01*
X130497440Y-88575000D01*
X130497440Y-87825000D01*
X130453162Y-87589683D01*
X130314090Y-87373559D01*
X130101890Y-87228569D01*
X129968687Y-87201595D01*
X129966007Y-87188121D01*
X129966007Y-87188120D01*
X129798008Y-86936692D01*
X129434600Y-86573284D01*
X129434600Y-86197440D01*
X130200000Y-86197440D01*
X130435317Y-86153162D01*
X130651441Y-86014090D01*
X130796431Y-85801890D01*
X130847440Y-85550000D01*
X130847440Y-85084700D01*
X137052560Y-85084700D01*
X137052560Y-85550000D01*
X137096838Y-85785317D01*
X137235910Y-86001441D01*
X137448110Y-86146431D01*
X137575000Y-86172127D01*
X137575000Y-87610489D01*
X137514683Y-87621838D01*
X137298559Y-87760910D01*
X137153569Y-87973110D01*
X137102560Y-88225000D01*
X137102560Y-88975000D01*
X137146838Y-89210317D01*
X137285910Y-89426441D01*
X137498110Y-89571431D01*
X137750000Y-89622440D01*
X138950000Y-89622440D01*
X139185317Y-89578162D01*
X139288646Y-89511671D01*
X139290302Y-89513327D01*
X139523691Y-89610000D01*
X139964250Y-89610000D01*
X140123000Y-89451250D01*
X140123000Y-88727000D01*
X140377000Y-88727000D01*
X140377000Y-89451250D01*
X140535750Y-89610000D01*
X140976309Y-89610000D01*
X141209698Y-89513327D01*
X141388327Y-89334699D01*
X141485000Y-89101310D01*
X141485000Y-88885750D01*
X141326250Y-88727000D01*
X140377000Y-88727000D01*
X140123000Y-88727000D01*
X140103000Y-88727000D01*
X140103000Y-88473000D01*
X140123000Y-88473000D01*
X140123000Y-87748750D01*
X140377000Y-87748750D01*
X140377000Y-88473000D01*
X141326250Y-88473000D01*
X141485000Y-88314250D01*
X141485000Y-88098690D01*
X141388327Y-87865301D01*
X141209698Y-87686673D01*
X140976309Y-87590000D01*
X140535750Y-87590000D01*
X140377000Y-87748750D01*
X140123000Y-87748750D01*
X139964250Y-87590000D01*
X139523691Y-87590000D01*
X139290302Y-87686673D01*
X139288932Y-87688043D01*
X139201890Y-87628569D01*
X139125000Y-87612998D01*
X139125000Y-86155103D01*
X139135317Y-86153162D01*
X139351441Y-86014090D01*
X139397969Y-85945994D01*
X139540302Y-86088327D01*
X139773691Y-86185000D01*
X140214250Y-86185000D01*
X140373000Y-86026250D01*
X140373000Y-85227000D01*
X140627000Y-85227000D01*
X140627000Y-86026250D01*
X140785750Y-86185000D01*
X141226309Y-86185000D01*
X141459698Y-86088327D01*
X141638327Y-85909699D01*
X141735000Y-85676310D01*
X141735000Y-85385750D01*
X141576250Y-85227000D01*
X140627000Y-85227000D01*
X140373000Y-85227000D01*
X140353000Y-85227000D01*
X140353000Y-84973000D01*
X140373000Y-84973000D01*
X140373000Y-84953000D01*
X140627000Y-84953000D01*
X140627000Y-84973000D01*
X141576250Y-84973000D01*
X141735000Y-84814250D01*
X141735000Y-84535000D01*
X142699995Y-84535000D01*
X142700000Y-84535001D01*
X143096077Y-84456215D01*
X143431856Y-84231856D01*
X145831853Y-81831858D01*
X145831856Y-81831856D01*
X146056215Y-81496077D01*
X146066614Y-81443800D01*
X146135001Y-81100000D01*
X146135000Y-81099995D01*
X146135000Y-66700005D01*
X146135001Y-66700000D01*
X146056215Y-66303923D01*
X145963178Y-66164683D01*
X145831856Y-65968144D01*
X145831853Y-65968142D01*
X140573712Y-60710000D01*
X149290000Y-60710000D01*
X149290000Y-99290000D01*
G36*
X65578854Y-95715340D02*
X65953647Y-96090787D01*
X66443587Y-96294228D01*
X66947652Y-96294668D01*
X68859484Y-98206500D01*
X59382516Y-98206500D01*
X57278723Y-96102707D01*
X57304380Y-96092106D01*
X57679827Y-95717313D01*
X57845344Y-95318704D01*
X57958854Y-95593420D01*
X58333647Y-95968867D01*
X58823587Y-96172308D01*
X59354086Y-96172771D01*
X59844380Y-95970186D01*
X60219827Y-95595393D01*
X60334843Y-95318403D01*
X60498854Y-95715340D01*
X60873647Y-96090787D01*
X61363587Y-96294228D01*
X61894086Y-96294691D01*
X62384380Y-96092106D01*
X62759827Y-95717313D01*
X62925344Y-95318704D01*
X63038854Y-95593420D01*
X63413647Y-95968867D01*
X63903587Y-96172308D01*
X64434086Y-96172771D01*
X64924380Y-95970186D01*
X65299827Y-95595393D01*
X65414843Y-95318403D01*
X65578854Y-95715340D01*
X65578854Y-95715340D01*
G37*
X65578854Y-95715340D02*
X65953647Y-96090787D01*
X66443587Y-96294228D01*
X66947652Y-96294668D01*
X68859484Y-98206500D01*
X59382516Y-98206500D01*
X57278723Y-96102707D01*
X57304380Y-96092106D01*
X57679827Y-95717313D01*
X57845344Y-95318704D01*
X57958854Y-95593420D01*
X58333647Y-95968867D01*
X58823587Y-96172308D01*
X59354086Y-96172771D01*
X59844380Y-95970186D01*
X60219827Y-95595393D01*
X60334843Y-95318403D01*
X60498854Y-95715340D01*
X60873647Y-96090787D01*
X61363587Y-96294228D01*
X61894086Y-96294691D01*
X62384380Y-96092106D01*
X62759827Y-95717313D01*
X62925344Y-95318704D01*
X63038854Y-95593420D01*
X63413647Y-95968867D01*
X63903587Y-96172308D01*
X64434086Y-96172771D01*
X64924380Y-95970186D01*
X65299827Y-95595393D01*
X65414843Y-95318403D01*
X65578854Y-95715340D01*
G36*
X95677560Y-92450000D02*
X95721838Y-92685317D01*
X95788329Y-92788646D01*
X95786673Y-92790302D01*
X95690000Y-93023691D01*
X95690000Y-93464250D01*
X95848750Y-93623000D01*
X96573000Y-93623000D01*
X96573000Y-93603000D01*
X96827000Y-93603000D01*
X96827000Y-93623000D01*
X98073000Y-93623000D01*
X98073000Y-93603000D01*
X98327000Y-93603000D01*
X98327000Y-93623000D01*
X98347000Y-93623000D01*
X98347000Y-93877000D01*
X98327000Y-93877000D01*
X98327000Y-93897000D01*
X98073000Y-93897000D01*
X98073000Y-93877000D01*
X96827000Y-93877000D01*
X96827000Y-94826250D01*
X96985750Y-94985000D01*
X97201310Y-94985000D01*
X97434699Y-94888327D01*
X97450000Y-94873026D01*
X97465301Y-94888327D01*
X97698690Y-94985000D01*
X97886884Y-94985000D01*
X96106384Y-96765500D01*
X91498212Y-96765500D01*
X92331853Y-95931858D01*
X92331856Y-95931856D01*
X92556215Y-95596077D01*
X92573534Y-95509008D01*
X92635001Y-95200000D01*
X92635000Y-95199995D01*
X92635000Y-95035000D01*
X92914250Y-95035000D01*
X93073000Y-94876250D01*
X93073000Y-93927000D01*
X93327000Y-93927000D01*
X93327000Y-94876250D01*
X93485750Y-95035000D01*
X93776310Y-95035000D01*
X94009699Y-94938327D01*
X94188327Y-94759698D01*
X94285000Y-94526309D01*
X94285000Y-94085750D01*
X94235000Y-94035750D01*
X95690000Y-94035750D01*
X95690000Y-94476309D01*
X95786673Y-94709698D01*
X95965301Y-94888327D01*
X96198690Y-94985000D01*
X96414250Y-94985000D01*
X96573000Y-94826250D01*
X96573000Y-93877000D01*
X95848750Y-93877000D01*
X95690000Y-94035750D01*
X94235000Y-94035750D01*
X94126250Y-93927000D01*
X93327000Y-93927000D01*
X93073000Y-93927000D01*
X93053000Y-93927000D01*
X93053000Y-93673000D01*
X93073000Y-93673000D01*
X93073000Y-93653000D01*
X93327000Y-93653000D01*
X93327000Y-93673000D01*
X94126250Y-93673000D01*
X94285000Y-93514250D01*
X94285000Y-93073691D01*
X94188327Y-92840302D01*
X94047090Y-92699064D01*
X94101441Y-92664090D01*
X94246431Y-92451890D01*
X94262002Y-92375000D01*
X95677560Y-92375000D01*
X95677560Y-92450000D01*
X95677560Y-92450000D01*
G37*
X95677560Y-92450000D02*
X95721838Y-92685317D01*
X95788329Y-92788646D01*
X95786673Y-92790302D01*
X95690000Y-93023691D01*
X95690000Y-93464250D01*
X95848750Y-93623000D01*
X96573000Y-93623000D01*
X96573000Y-93603000D01*
X96827000Y-93603000D01*
X96827000Y-93623000D01*
X98073000Y-93623000D01*
X98073000Y-93603000D01*
X98327000Y-93603000D01*
X98327000Y-93623000D01*
X98347000Y-93623000D01*
X98347000Y-93877000D01*
X98327000Y-93877000D01*
X98327000Y-93897000D01*
X98073000Y-93897000D01*
X98073000Y-93877000D01*
X96827000Y-93877000D01*
X96827000Y-94826250D01*
X96985750Y-94985000D01*
X97201310Y-94985000D01*
X97434699Y-94888327D01*
X97450000Y-94873026D01*
X97465301Y-94888327D01*
X97698690Y-94985000D01*
X97886884Y-94985000D01*
X96106384Y-96765500D01*
X91498212Y-96765500D01*
X92331853Y-95931858D01*
X92331856Y-95931856D01*
X92556215Y-95596077D01*
X92573534Y-95509008D01*
X92635001Y-95200000D01*
X92635000Y-95199995D01*
X92635000Y-95035000D01*
X92914250Y-95035000D01*
X93073000Y-94876250D01*
X93073000Y-93927000D01*
X93327000Y-93927000D01*
X93327000Y-94876250D01*
X93485750Y-95035000D01*
X93776310Y-95035000D01*
X94009699Y-94938327D01*
X94188327Y-94759698D01*
X94285000Y-94526309D01*
X94285000Y-94085750D01*
X94235000Y-94035750D01*
X95690000Y-94035750D01*
X95690000Y-94476309D01*
X95786673Y-94709698D01*
X95965301Y-94888327D01*
X96198690Y-94985000D01*
X96414250Y-94985000D01*
X96573000Y-94826250D01*
X96573000Y-93877000D01*
X95848750Y-93877000D01*
X95690000Y-94035750D01*
X94235000Y-94035750D01*
X94126250Y-93927000D01*
X93327000Y-93927000D01*
X93073000Y-93927000D01*
X93053000Y-93927000D01*
X93053000Y-93673000D01*
X93073000Y-93673000D01*
X93073000Y-93653000D01*
X93327000Y-93653000D01*
X93327000Y-93673000D01*
X94126250Y-93673000D01*
X94285000Y-93514250D01*
X94285000Y-93073691D01*
X94188327Y-92840302D01*
X94047090Y-92699064D01*
X94101441Y-92664090D01*
X94246431Y-92451890D01*
X94262002Y-92375000D01*
X95677560Y-92375000D01*
X95677560Y-92450000D01*
G36*
X88902560Y-92200000D02*
X88946838Y-92435317D01*
X89085910Y-92651441D01*
X89154006Y-92697969D01*
X89011673Y-92840302D01*
X88915000Y-93073691D01*
X88915000Y-93514250D01*
X89073750Y-93673000D01*
X89873000Y-93673000D01*
X89873000Y-93653000D01*
X90127000Y-93653000D01*
X90127000Y-93673000D01*
X90147000Y-93673000D01*
X90147000Y-93927000D01*
X90127000Y-93927000D01*
X90127000Y-94876250D01*
X90285750Y-95035000D01*
X90301289Y-95035000D01*
X89571288Y-95765000D01*
X78828711Y-95765000D01*
X77349461Y-94285750D01*
X78165000Y-94285750D01*
X78165000Y-94576310D01*
X78261673Y-94809699D01*
X78440302Y-94988327D01*
X78673691Y-95085000D01*
X79114250Y-95085000D01*
X79273000Y-94926250D01*
X79273000Y-94127000D01*
X78323750Y-94127000D01*
X78165000Y-94285750D01*
X77349461Y-94285750D01*
X76228811Y-93165100D01*
X78248177Y-93165100D01*
X78263328Y-93188646D01*
X78261673Y-93190301D01*
X78165000Y-93423690D01*
X78165000Y-93714250D01*
X78323750Y-93873000D01*
X79273000Y-93873000D01*
X79273000Y-93853000D01*
X79527000Y-93853000D01*
X79527000Y-93873000D01*
X79547000Y-93873000D01*
X79547000Y-94127000D01*
X79527000Y-94127000D01*
X79527000Y-94926250D01*
X79685750Y-95085000D01*
X80126309Y-95085000D01*
X80359698Y-94988327D01*
X80500936Y-94847090D01*
X80535910Y-94901441D01*
X80748110Y-95046431D01*
X81000000Y-95097440D01*
X82200000Y-95097440D01*
X82435317Y-95053162D01*
X82651441Y-94914090D01*
X82796431Y-94701890D01*
X82847440Y-94450000D01*
X82847440Y-94085750D01*
X88915000Y-94085750D01*
X88915000Y-94526309D01*
X89011673Y-94759698D01*
X89190301Y-94938327D01*
X89423690Y-95035000D01*
X89714250Y-95035000D01*
X89873000Y-94876250D01*
X89873000Y-93927000D01*
X89073750Y-93927000D01*
X88915000Y-94085750D01*
X82847440Y-94085750D01*
X82847440Y-93550000D01*
X82803162Y-93314683D01*
X82729380Y-93200022D01*
X82746477Y-93175000D01*
X86759700Y-93175000D01*
X87056280Y-93116007D01*
X87307708Y-92948008D01*
X88902560Y-91353156D01*
X88902560Y-92200000D01*
X88902560Y-92200000D01*
G37*
X88902560Y-92200000D02*
X88946838Y-92435317D01*
X89085910Y-92651441D01*
X89154006Y-92697969D01*
X89011673Y-92840302D01*
X88915000Y-93073691D01*
X88915000Y-93514250D01*
X89073750Y-93673000D01*
X89873000Y-93673000D01*
X89873000Y-93653000D01*
X90127000Y-93653000D01*
X90127000Y-93673000D01*
X90147000Y-93673000D01*
X90147000Y-93927000D01*
X90127000Y-93927000D01*
X90127000Y-94876250D01*
X90285750Y-95035000D01*
X90301289Y-95035000D01*
X89571288Y-95765000D01*
X78828711Y-95765000D01*
X77349461Y-94285750D01*
X78165000Y-94285750D01*
X78165000Y-94576310D01*
X78261673Y-94809699D01*
X78440302Y-94988327D01*
X78673691Y-95085000D01*
X79114250Y-95085000D01*
X79273000Y-94926250D01*
X79273000Y-94127000D01*
X78323750Y-94127000D01*
X78165000Y-94285750D01*
X77349461Y-94285750D01*
X76228811Y-93165100D01*
X78248177Y-93165100D01*
X78263328Y-93188646D01*
X78261673Y-93190301D01*
X78165000Y-93423690D01*
X78165000Y-93714250D01*
X78323750Y-93873000D01*
X79273000Y-93873000D01*
X79273000Y-93853000D01*
X79527000Y-93853000D01*
X79527000Y-93873000D01*
X79547000Y-93873000D01*
X79547000Y-94127000D01*
X79527000Y-94127000D01*
X79527000Y-94926250D01*
X79685750Y-95085000D01*
X80126309Y-95085000D01*
X80359698Y-94988327D01*
X80500936Y-94847090D01*
X80535910Y-94901441D01*
X80748110Y-95046431D01*
X81000000Y-95097440D01*
X82200000Y-95097440D01*
X82435317Y-95053162D01*
X82651441Y-94914090D01*
X82796431Y-94701890D01*
X82847440Y-94450000D01*
X82847440Y-94085750D01*
X88915000Y-94085750D01*
X88915000Y-94526309D01*
X89011673Y-94759698D01*
X89190301Y-94938327D01*
X89423690Y-95035000D01*
X89714250Y-95035000D01*
X89873000Y-94876250D01*
X89873000Y-93927000D01*
X89073750Y-93927000D01*
X88915000Y-94085750D01*
X82847440Y-94085750D01*
X82847440Y-93550000D01*
X82803162Y-93314683D01*
X82729380Y-93200022D01*
X82746477Y-93175000D01*
X86759700Y-93175000D01*
X87056280Y-93116007D01*
X87307708Y-92948008D01*
X88902560Y-91353156D01*
X88902560Y-92200000D01*
G36*
X125751992Y-89532708D02*
X126003420Y-89700707D01*
X126102560Y-89720427D01*
X126102560Y-90075000D01*
X126146838Y-90310317D01*
X126237190Y-90450727D01*
X126153569Y-90573110D01*
X126102560Y-90825000D01*
X126102560Y-91575000D01*
X126146838Y-91810317D01*
X126229894Y-91939390D01*
X126153884Y-92015400D01*
X116222440Y-92015400D01*
X116222440Y-91250000D01*
X116178162Y-91014683D01*
X116039090Y-90798559D01*
X115826890Y-90653569D01*
X115575000Y-90602560D01*
X114825000Y-90602560D01*
X114589683Y-90646838D01*
X114497300Y-90706285D01*
X113143008Y-89351992D01*
X112891580Y-89183993D01*
X112595000Y-89125000D01*
X108471016Y-89125000D01*
X106498008Y-87151992D01*
X106246580Y-86983993D01*
X105950000Y-86925000D01*
X104421015Y-86925000D01*
X103847700Y-86351684D01*
X103847700Y-85370189D01*
X103864892Y-85353027D01*
X104007538Y-85009499D01*
X104007862Y-84637533D01*
X103867431Y-84297663D01*
X104026580Y-84266007D01*
X104278008Y-84098008D01*
X105071006Y-83305010D01*
X119524294Y-83305010D01*
X125751992Y-89532708D01*
X125751992Y-89532708D01*
G37*
X125751992Y-89532708D02*
X126003420Y-89700707D01*
X126102560Y-89720427D01*
X126102560Y-90075000D01*
X126146838Y-90310317D01*
X126237190Y-90450727D01*
X126153569Y-90573110D01*
X126102560Y-90825000D01*
X126102560Y-91575000D01*
X126146838Y-91810317D01*
X126229894Y-91939390D01*
X126153884Y-92015400D01*
X116222440Y-92015400D01*
X116222440Y-91250000D01*
X116178162Y-91014683D01*
X116039090Y-90798559D01*
X115826890Y-90653569D01*
X115575000Y-90602560D01*
X114825000Y-90602560D01*
X114589683Y-90646838D01*
X114497300Y-90706285D01*
X113143008Y-89351992D01*
X112891580Y-89183993D01*
X112595000Y-89125000D01*
X108471016Y-89125000D01*
X106498008Y-87151992D01*
X106246580Y-86983993D01*
X105950000Y-86925000D01*
X104421015Y-86925000D01*
X103847700Y-86351684D01*
X103847700Y-85370189D01*
X103864892Y-85353027D01*
X104007538Y-85009499D01*
X104007862Y-84637533D01*
X103867431Y-84297663D01*
X104026580Y-84266007D01*
X104278008Y-84098008D01*
X105071006Y-83305010D01*
X119524294Y-83305010D01*
X125751992Y-89532708D01*
G36*
X76069142Y-74931853D02*
X76069144Y-74931856D01*
X76270429Y-75066349D01*
X76404922Y-75156215D01*
X76801000Y-75235000D01*
X77965000Y-75235000D01*
X77965000Y-75514250D01*
X78123750Y-75673000D01*
X79073000Y-75673000D01*
X79073000Y-75653000D01*
X79327000Y-75653000D01*
X79327000Y-75673000D01*
X79347000Y-75673000D01*
X79347000Y-75927000D01*
X79327000Y-75927000D01*
X79327000Y-76726250D01*
X79485750Y-76885000D01*
X79926309Y-76885000D01*
X80159698Y-76788327D01*
X80300936Y-76647090D01*
X80335910Y-76701441D01*
X80548110Y-76846431D01*
X80575000Y-76851876D01*
X80575000Y-77110489D01*
X80514683Y-77121838D01*
X80411354Y-77188329D01*
X80409698Y-77186673D01*
X80176309Y-77090000D01*
X79735750Y-77090000D01*
X79577000Y-77248750D01*
X79577000Y-77973000D01*
X79597000Y-77973000D01*
X79597000Y-78227000D01*
X79577000Y-78227000D01*
X79577000Y-79473000D01*
X79597000Y-79473000D01*
X79597000Y-79727000D01*
X79577000Y-79727000D01*
X79577000Y-80451250D01*
X79615400Y-80489650D01*
X79615400Y-81002560D01*
X78600000Y-81002560D01*
X78364683Y-81046838D01*
X78148559Y-81185910D01*
X78053523Y-81325000D01*
X77727900Y-81325000D01*
X77431320Y-81383993D01*
X77179892Y-81551992D01*
X76846725Y-81885159D01*
X76822433Y-81885138D01*
X76478657Y-82027183D01*
X76215408Y-82289973D01*
X76072762Y-82633501D01*
X76072438Y-83005467D01*
X76214483Y-83349243D01*
X76477273Y-83612492D01*
X76820801Y-83755138D01*
X77192767Y-83755462D01*
X77484400Y-83634962D01*
X77484400Y-86959400D01*
X77543393Y-87255980D01*
X77711392Y-87507408D01*
X78052560Y-87848576D01*
X78052560Y-88450000D01*
X78096838Y-88685317D01*
X78235910Y-88901441D01*
X78283293Y-88933816D01*
X78215000Y-89098690D01*
X78215000Y-89314250D01*
X78373750Y-89473000D01*
X79323000Y-89473000D01*
X79323000Y-89453000D01*
X79577000Y-89453000D01*
X79577000Y-89473000D01*
X79597000Y-89473000D01*
X79597000Y-89727000D01*
X79577000Y-89727000D01*
X79577000Y-90451250D01*
X79735750Y-90610000D01*
X80176309Y-90610000D01*
X80409698Y-90513327D01*
X80411068Y-90511957D01*
X80498110Y-90571431D01*
X80750000Y-90622440D01*
X81950000Y-90622440D01*
X82185317Y-90578162D01*
X82401441Y-90439090D01*
X82445232Y-90375000D01*
X87688684Y-90375000D01*
X86438684Y-91625000D01*
X82745453Y-91625000D01*
X82664090Y-91498559D01*
X82451890Y-91353569D01*
X82200000Y-91302560D01*
X81000000Y-91302560D01*
X80764683Y-91346838D01*
X80548559Y-91485910D01*
X80500866Y-91555711D01*
X80464090Y-91498559D01*
X80251890Y-91353569D01*
X80000000Y-91302560D01*
X78800000Y-91302560D01*
X78564683Y-91346838D01*
X78348559Y-91485910D01*
X78260287Y-91615100D01*
X75860289Y-91615100D01*
X75843127Y-91597908D01*
X75499599Y-91455262D01*
X75127633Y-91454938D01*
X74783857Y-91596983D01*
X74722222Y-91658510D01*
X72949462Y-89885750D01*
X78215000Y-89885750D01*
X78215000Y-90101310D01*
X78311673Y-90334699D01*
X78490302Y-90513327D01*
X78723691Y-90610000D01*
X79164250Y-90610000D01*
X79323000Y-90451250D01*
X79323000Y-89727000D01*
X78373750Y-89727000D01*
X78215000Y-89885750D01*
X72949462Y-89885750D01*
X72585000Y-89521288D01*
X72585000Y-79885750D01*
X78215000Y-79885750D01*
X78215000Y-80101310D01*
X78311673Y-80334699D01*
X78490302Y-80513327D01*
X78723691Y-80610000D01*
X79164250Y-80610000D01*
X79323000Y-80451250D01*
X79323000Y-79727000D01*
X78373750Y-79727000D01*
X78215000Y-79885750D01*
X72585000Y-79885750D01*
X72585000Y-78385750D01*
X78215000Y-78385750D01*
X78215000Y-78601310D01*
X78311673Y-78834699D01*
X78326974Y-78850000D01*
X78311673Y-78865301D01*
X78215000Y-79098690D01*
X78215000Y-79314250D01*
X78373750Y-79473000D01*
X79323000Y-79473000D01*
X79323000Y-78227000D01*
X78373750Y-78227000D01*
X78215000Y-78385750D01*
X72585000Y-78385750D01*
X72585000Y-77598690D01*
X78215000Y-77598690D01*
X78215000Y-77814250D01*
X78373750Y-77973000D01*
X79323000Y-77973000D01*
X79323000Y-77248750D01*
X79164250Y-77090000D01*
X78723691Y-77090000D01*
X78490302Y-77186673D01*
X78311673Y-77365301D01*
X78215000Y-77598690D01*
X72585000Y-77598690D01*
X72585000Y-76085750D01*
X77965000Y-76085750D01*
X77965000Y-76376310D01*
X78061673Y-76609699D01*
X78240302Y-76788327D01*
X78473691Y-76885000D01*
X78914250Y-76885000D01*
X79073000Y-76726250D01*
X79073000Y-75927000D01*
X78123750Y-75927000D01*
X77965000Y-76085750D01*
X72585000Y-76085750D01*
X72585000Y-75947440D01*
X73050000Y-75947440D01*
X73285317Y-75903162D01*
X73446796Y-75799253D01*
X73750201Y-75925238D01*
X74122167Y-75925562D01*
X74465943Y-75783517D01*
X74729192Y-75520727D01*
X74871838Y-75177199D01*
X74872162Y-74805233D01*
X74730117Y-74461457D01*
X74467327Y-74198208D01*
X74123799Y-74055562D01*
X73793560Y-74055274D01*
X73686880Y-73983993D01*
X73675174Y-73981664D01*
X73653162Y-73864683D01*
X73514090Y-73648559D01*
X73444289Y-73600866D01*
X73501441Y-73564090D01*
X73646431Y-73351890D01*
X73697440Y-73100000D01*
X73697440Y-72560151D01*
X76069142Y-74931853D01*
X76069142Y-74931853D01*
G37*
X76069142Y-74931853D02*
X76069144Y-74931856D01*
X76270429Y-75066349D01*
X76404922Y-75156215D01*
X76801000Y-75235000D01*
X77965000Y-75235000D01*
X77965000Y-75514250D01*
X78123750Y-75673000D01*
X79073000Y-75673000D01*
X79073000Y-75653000D01*
X79327000Y-75653000D01*
X79327000Y-75673000D01*
X79347000Y-75673000D01*
X79347000Y-75927000D01*
X79327000Y-75927000D01*
X79327000Y-76726250D01*
X79485750Y-76885000D01*
X79926309Y-76885000D01*
X80159698Y-76788327D01*
X80300936Y-76647090D01*
X80335910Y-76701441D01*
X80548110Y-76846431D01*
X80575000Y-76851876D01*
X80575000Y-77110489D01*
X80514683Y-77121838D01*
X80411354Y-77188329D01*
X80409698Y-77186673D01*
X80176309Y-77090000D01*
X79735750Y-77090000D01*
X79577000Y-77248750D01*
X79577000Y-77973000D01*
X79597000Y-77973000D01*
X79597000Y-78227000D01*
X79577000Y-78227000D01*
X79577000Y-79473000D01*
X79597000Y-79473000D01*
X79597000Y-79727000D01*
X79577000Y-79727000D01*
X79577000Y-80451250D01*
X79615400Y-80489650D01*
X79615400Y-81002560D01*
X78600000Y-81002560D01*
X78364683Y-81046838D01*
X78148559Y-81185910D01*
X78053523Y-81325000D01*
X77727900Y-81325000D01*
X77431320Y-81383993D01*
X77179892Y-81551992D01*
X76846725Y-81885159D01*
X76822433Y-81885138D01*
X76478657Y-82027183D01*
X76215408Y-82289973D01*
X76072762Y-82633501D01*
X76072438Y-83005467D01*
X76214483Y-83349243D01*
X76477273Y-83612492D01*
X76820801Y-83755138D01*
X77192767Y-83755462D01*
X77484400Y-83634962D01*
X77484400Y-86959400D01*
X77543393Y-87255980D01*
X77711392Y-87507408D01*
X78052560Y-87848576D01*
X78052560Y-88450000D01*
X78096838Y-88685317D01*
X78235910Y-88901441D01*
X78283293Y-88933816D01*
X78215000Y-89098690D01*
X78215000Y-89314250D01*
X78373750Y-89473000D01*
X79323000Y-89473000D01*
X79323000Y-89453000D01*
X79577000Y-89453000D01*
X79577000Y-89473000D01*
X79597000Y-89473000D01*
X79597000Y-89727000D01*
X79577000Y-89727000D01*
X79577000Y-90451250D01*
X79735750Y-90610000D01*
X80176309Y-90610000D01*
X80409698Y-90513327D01*
X80411068Y-90511957D01*
X80498110Y-90571431D01*
X80750000Y-90622440D01*
X81950000Y-90622440D01*
X82185317Y-90578162D01*
X82401441Y-90439090D01*
X82445232Y-90375000D01*
X87688684Y-90375000D01*
X86438684Y-91625000D01*
X82745453Y-91625000D01*
X82664090Y-91498559D01*
X82451890Y-91353569D01*
X82200000Y-91302560D01*
X81000000Y-91302560D01*
X80764683Y-91346838D01*
X80548559Y-91485910D01*
X80500866Y-91555711D01*
X80464090Y-91498559D01*
X80251890Y-91353569D01*
X80000000Y-91302560D01*
X78800000Y-91302560D01*
X78564683Y-91346838D01*
X78348559Y-91485910D01*
X78260287Y-91615100D01*
X75860289Y-91615100D01*
X75843127Y-91597908D01*
X75499599Y-91455262D01*
X75127633Y-91454938D01*
X74783857Y-91596983D01*
X74722222Y-91658510D01*
X72949462Y-89885750D01*
X78215000Y-89885750D01*
X78215000Y-90101310D01*
X78311673Y-90334699D01*
X78490302Y-90513327D01*
X78723691Y-90610000D01*
X79164250Y-90610000D01*
X79323000Y-90451250D01*
X79323000Y-89727000D01*
X78373750Y-89727000D01*
X78215000Y-89885750D01*
X72949462Y-89885750D01*
X72585000Y-89521288D01*
X72585000Y-79885750D01*
X78215000Y-79885750D01*
X78215000Y-80101310D01*
X78311673Y-80334699D01*
X78490302Y-80513327D01*
X78723691Y-80610000D01*
X79164250Y-80610000D01*
X79323000Y-80451250D01*
X79323000Y-79727000D01*
X78373750Y-79727000D01*
X78215000Y-79885750D01*
X72585000Y-79885750D01*
X72585000Y-78385750D01*
X78215000Y-78385750D01*
X78215000Y-78601310D01*
X78311673Y-78834699D01*
X78326974Y-78850000D01*
X78311673Y-78865301D01*
X78215000Y-79098690D01*
X78215000Y-79314250D01*
X78373750Y-79473000D01*
X79323000Y-79473000D01*
X79323000Y-78227000D01*
X78373750Y-78227000D01*
X78215000Y-78385750D01*
X72585000Y-78385750D01*
X72585000Y-77598690D01*
X78215000Y-77598690D01*
X78215000Y-77814250D01*
X78373750Y-77973000D01*
X79323000Y-77973000D01*
X79323000Y-77248750D01*
X79164250Y-77090000D01*
X78723691Y-77090000D01*
X78490302Y-77186673D01*
X78311673Y-77365301D01*
X78215000Y-77598690D01*
X72585000Y-77598690D01*
X72585000Y-76085750D01*
X77965000Y-76085750D01*
X77965000Y-76376310D01*
X78061673Y-76609699D01*
X78240302Y-76788327D01*
X78473691Y-76885000D01*
X78914250Y-76885000D01*
X79073000Y-76726250D01*
X79073000Y-75927000D01*
X78123750Y-75927000D01*
X77965000Y-76085750D01*
X72585000Y-76085750D01*
X72585000Y-75947440D01*
X73050000Y-75947440D01*
X73285317Y-75903162D01*
X73446796Y-75799253D01*
X73750201Y-75925238D01*
X74122167Y-75925562D01*
X74465943Y-75783517D01*
X74729192Y-75520727D01*
X74871838Y-75177199D01*
X74872162Y-74805233D01*
X74730117Y-74461457D01*
X74467327Y-74198208D01*
X74123799Y-74055562D01*
X73793560Y-74055274D01*
X73686880Y-73983993D01*
X73675174Y-73981664D01*
X73653162Y-73864683D01*
X73514090Y-73648559D01*
X73444289Y-73600866D01*
X73501441Y-73564090D01*
X73646431Y-73351890D01*
X73697440Y-73100000D01*
X73697440Y-72560151D01*
X76069142Y-74931853D01*
G36*
X97175000Y-90028984D02*
X96601424Y-90602560D01*
X96325000Y-90602560D01*
X96089683Y-90646838D01*
X95873559Y-90785910D01*
X95846850Y-90825000D01*
X94264511Y-90825000D01*
X94253162Y-90764683D01*
X94114090Y-90548559D01*
X93901890Y-90403569D01*
X93650000Y-90352560D01*
X92750000Y-90352560D01*
X92514683Y-90396838D01*
X92400022Y-90470620D01*
X92301890Y-90403569D01*
X92050000Y-90352560D01*
X91150000Y-90352560D01*
X90914683Y-90396838D01*
X90800022Y-90470620D01*
X90775000Y-90453523D01*
X90775000Y-90221016D01*
X95021016Y-85975000D01*
X97080000Y-85975000D01*
X97175000Y-85956103D01*
X97175000Y-90028984D01*
X97175000Y-90028984D01*
G37*
X97175000Y-90028984D02*
X96601424Y-90602560D01*
X96325000Y-90602560D01*
X96089683Y-90646838D01*
X95873559Y-90785910D01*
X95846850Y-90825000D01*
X94264511Y-90825000D01*
X94253162Y-90764683D01*
X94114090Y-90548559D01*
X93901890Y-90403569D01*
X93650000Y-90352560D01*
X92750000Y-90352560D01*
X92514683Y-90396838D01*
X92400022Y-90470620D01*
X92301890Y-90403569D01*
X92050000Y-90352560D01*
X91150000Y-90352560D01*
X90914683Y-90396838D01*
X90800022Y-90470620D01*
X90775000Y-90453523D01*
X90775000Y-90221016D01*
X95021016Y-85975000D01*
X97080000Y-85975000D01*
X97175000Y-85956103D01*
X97175000Y-90028984D01*
G36*
X88730584Y-85624900D02*
X82447127Y-85624900D01*
X82414090Y-85573559D01*
X82201890Y-85428569D01*
X81950000Y-85377560D01*
X80750000Y-85377560D01*
X80514683Y-85421838D01*
X80411354Y-85488329D01*
X80409698Y-85486673D01*
X80176309Y-85390000D01*
X79735750Y-85390000D01*
X79577000Y-85548750D01*
X79577000Y-86273000D01*
X79597000Y-86273000D01*
X79597000Y-86527000D01*
X79577000Y-86527000D01*
X79577000Y-86547000D01*
X79323000Y-86547000D01*
X79323000Y-86527000D01*
X79303000Y-86527000D01*
X79303000Y-86273000D01*
X79323000Y-86273000D01*
X79323000Y-85548750D01*
X79164250Y-85390000D01*
X79034400Y-85390000D01*
X79034400Y-84664850D01*
X79073000Y-84626250D01*
X79073000Y-83827000D01*
X79053000Y-83827000D01*
X79053000Y-83684600D01*
X79347000Y-83684600D01*
X79347000Y-83827000D01*
X79327000Y-83827000D01*
X79327000Y-84626250D01*
X79485750Y-84785000D01*
X79926309Y-84785000D01*
X80159698Y-84688327D01*
X80300936Y-84547090D01*
X80335910Y-84601441D01*
X80548110Y-84746431D01*
X80800000Y-84797440D01*
X82000000Y-84797440D01*
X82235317Y-84753162D01*
X82451441Y-84614090D01*
X82596431Y-84401890D01*
X82647440Y-84150000D01*
X82647440Y-83250000D01*
X82603162Y-83014683D01*
X82529380Y-82900022D01*
X82596431Y-82801890D01*
X82647440Y-82550000D01*
X82647440Y-81650000D01*
X82603162Y-81414683D01*
X82520106Y-81285610D01*
X82980716Y-80825000D01*
X93530484Y-80825000D01*
X88730584Y-85624900D01*
X88730584Y-85624900D01*
G37*
X88730584Y-85624900D02*
X82447127Y-85624900D01*
X82414090Y-85573559D01*
X82201890Y-85428569D01*
X81950000Y-85377560D01*
X80750000Y-85377560D01*
X80514683Y-85421838D01*
X80411354Y-85488329D01*
X80409698Y-85486673D01*
X80176309Y-85390000D01*
X79735750Y-85390000D01*
X79577000Y-85548750D01*
X79577000Y-86273000D01*
X79597000Y-86273000D01*
X79597000Y-86527000D01*
X79577000Y-86527000D01*
X79577000Y-86547000D01*
X79323000Y-86547000D01*
X79323000Y-86527000D01*
X79303000Y-86527000D01*
X79303000Y-86273000D01*
X79323000Y-86273000D01*
X79323000Y-85548750D01*
X79164250Y-85390000D01*
X79034400Y-85390000D01*
X79034400Y-84664850D01*
X79073000Y-84626250D01*
X79073000Y-83827000D01*
X79053000Y-83827000D01*
X79053000Y-83684600D01*
X79347000Y-83684600D01*
X79347000Y-83827000D01*
X79327000Y-83827000D01*
X79327000Y-84626250D01*
X79485750Y-84785000D01*
X79926309Y-84785000D01*
X80159698Y-84688327D01*
X80300936Y-84547090D01*
X80335910Y-84601441D01*
X80548110Y-84746431D01*
X80800000Y-84797440D01*
X82000000Y-84797440D01*
X82235317Y-84753162D01*
X82451441Y-84614090D01*
X82596431Y-84401890D01*
X82647440Y-84150000D01*
X82647440Y-83250000D01*
X82603162Y-83014683D01*
X82529380Y-82900022D01*
X82596431Y-82801890D01*
X82647440Y-82550000D01*
X82647440Y-81650000D01*
X82603162Y-81414683D01*
X82520106Y-81285610D01*
X82980716Y-80825000D01*
X93530484Y-80825000D01*
X88730584Y-85624900D01*
G36*
X137258110Y-80506431D02*
X137510000Y-80557440D01*
X138086244Y-80557440D01*
X137751992Y-80891692D01*
X137583993Y-81143120D01*
X137525000Y-81439700D01*
X137525000Y-82435489D01*
X137464683Y-82446838D01*
X137248559Y-82585910D01*
X137103569Y-82798110D01*
X137052560Y-83050000D01*
X137052560Y-83534700D01*
X134031016Y-83534700D01*
X137139992Y-80425724D01*
X137258110Y-80506431D01*
X137258110Y-80506431D01*
G37*
X137258110Y-80506431D02*
X137510000Y-80557440D01*
X138086244Y-80557440D01*
X137751992Y-80891692D01*
X137583993Y-81143120D01*
X137525000Y-81439700D01*
X137525000Y-82435489D01*
X137464683Y-82446838D01*
X137248559Y-82585910D01*
X137103569Y-82798110D01*
X137052560Y-83050000D01*
X137052560Y-83534700D01*
X134031016Y-83534700D01*
X137139992Y-80425724D01*
X137258110Y-80506431D01*
G36*
X144065000Y-67128711D02*
X144065000Y-80671289D01*
X142271288Y-82465000D01*
X141368620Y-82465000D01*
X141351890Y-82453569D01*
X141100000Y-82402560D01*
X139900000Y-82402560D01*
X139664683Y-82446838D01*
X139448559Y-82585910D01*
X139400866Y-82655711D01*
X139364090Y-82598559D01*
X139151890Y-82453569D01*
X139075000Y-82437998D01*
X139075000Y-81760716D01*
X140409992Y-80425724D01*
X140528110Y-80506431D01*
X140780000Y-80557440D01*
X141690000Y-80557440D01*
X141925317Y-80513162D01*
X142141441Y-80374090D01*
X142286431Y-80161890D01*
X142337440Y-79910000D01*
X142337440Y-78690000D01*
X142293162Y-78454683D01*
X142154090Y-78238559D01*
X141961752Y-78107140D01*
X141951007Y-78053121D01*
X141951007Y-78053120D01*
X141783008Y-77801692D01*
X141711044Y-77729728D01*
X141747440Y-77550000D01*
X141747440Y-76650000D01*
X141703162Y-76414683D01*
X141666327Y-76357440D01*
X141690000Y-76357440D01*
X141925317Y-76313162D01*
X142141441Y-76174090D01*
X142286431Y-75961890D01*
X142337440Y-75710000D01*
X142337440Y-74490000D01*
X142293162Y-74254683D01*
X142154090Y-74038559D01*
X141961752Y-73907140D01*
X141951067Y-73853421D01*
X141951007Y-73853120D01*
X141783008Y-73601692D01*
X141783005Y-73601690D01*
X141375000Y-73193684D01*
X141375000Y-72064511D01*
X141435317Y-72053162D01*
X141651441Y-71914090D01*
X141796431Y-71701890D01*
X141847440Y-71450000D01*
X141847440Y-70550000D01*
X141803162Y-70314683D01*
X141729380Y-70200022D01*
X141796431Y-70101890D01*
X141847440Y-69850000D01*
X141847440Y-68950000D01*
X141803162Y-68714683D01*
X141664090Y-68498559D01*
X141451890Y-68353569D01*
X141318687Y-68326595D01*
X141316007Y-68313120D01*
X141307103Y-68299795D01*
X141401441Y-68239090D01*
X141546431Y-68026890D01*
X141597440Y-67775000D01*
X141597440Y-67025000D01*
X141553162Y-66789683D01*
X141414090Y-66573559D01*
X141201890Y-66428569D01*
X140950000Y-66377560D01*
X139750000Y-66377560D01*
X139514683Y-66421838D01*
X139411354Y-66488329D01*
X139409698Y-66486673D01*
X139176309Y-66390000D01*
X138735750Y-66390000D01*
X138577000Y-66548750D01*
X138577000Y-67273000D01*
X138597000Y-67273000D01*
X138597000Y-67527000D01*
X138577000Y-67527000D01*
X138577000Y-68251250D01*
X138663250Y-68337500D01*
X138527000Y-68473750D01*
X138527000Y-69273000D01*
X138547000Y-69273000D01*
X138547000Y-69527000D01*
X138527000Y-69527000D01*
X138527000Y-69547000D01*
X138273000Y-69547000D01*
X138273000Y-69527000D01*
X137323750Y-69527000D01*
X137165000Y-69685750D01*
X137165000Y-69701289D01*
X136287402Y-68823690D01*
X137165000Y-68823690D01*
X137165000Y-69114250D01*
X137323750Y-69273000D01*
X138273000Y-69273000D01*
X138273000Y-68473750D01*
X138186750Y-68387500D01*
X138323000Y-68251250D01*
X138323000Y-67527000D01*
X137373750Y-67527000D01*
X137215000Y-67685750D01*
X137215000Y-67901310D01*
X137311673Y-68134699D01*
X137490302Y-68313327D01*
X137584016Y-68352145D01*
X137440302Y-68411673D01*
X137261673Y-68590301D01*
X137165000Y-68823690D01*
X136287402Y-68823690D01*
X134362402Y-66898690D01*
X137215000Y-66898690D01*
X137215000Y-67114250D01*
X137373750Y-67273000D01*
X138323000Y-67273000D01*
X138323000Y-66548750D01*
X138164250Y-66390000D01*
X137723691Y-66390000D01*
X137490302Y-66486673D01*
X137311673Y-66665301D01*
X137215000Y-66898690D01*
X134362402Y-66898690D01*
X129598712Y-62135000D01*
X139071288Y-62135000D01*
X144065000Y-67128711D01*
X144065000Y-67128711D01*
G37*
X144065000Y-67128711D02*
X144065000Y-80671289D01*
X142271288Y-82465000D01*
X141368620Y-82465000D01*
X141351890Y-82453569D01*
X141100000Y-82402560D01*
X139900000Y-82402560D01*
X139664683Y-82446838D01*
X139448559Y-82585910D01*
X139400866Y-82655711D01*
X139364090Y-82598559D01*
X139151890Y-82453569D01*
X139075000Y-82437998D01*
X139075000Y-81760716D01*
X140409992Y-80425724D01*
X140528110Y-80506431D01*
X140780000Y-80557440D01*
X141690000Y-80557440D01*
X141925317Y-80513162D01*
X142141441Y-80374090D01*
X142286431Y-80161890D01*
X142337440Y-79910000D01*
X142337440Y-78690000D01*
X142293162Y-78454683D01*
X142154090Y-78238559D01*
X141961752Y-78107140D01*
X141951007Y-78053121D01*
X141951007Y-78053120D01*
X141783008Y-77801692D01*
X141711044Y-77729728D01*
X141747440Y-77550000D01*
X141747440Y-76650000D01*
X141703162Y-76414683D01*
X141666327Y-76357440D01*
X141690000Y-76357440D01*
X141925317Y-76313162D01*
X142141441Y-76174090D01*
X142286431Y-75961890D01*
X142337440Y-75710000D01*
X142337440Y-74490000D01*
X142293162Y-74254683D01*
X142154090Y-74038559D01*
X141961752Y-73907140D01*
X141951067Y-73853421D01*
X141951007Y-73853120D01*
X141783008Y-73601692D01*
X141783005Y-73601690D01*
X141375000Y-73193684D01*
X141375000Y-72064511D01*
X141435317Y-72053162D01*
X141651441Y-71914090D01*
X141796431Y-71701890D01*
X141847440Y-71450000D01*
X141847440Y-70550000D01*
X141803162Y-70314683D01*
X141729380Y-70200022D01*
X141796431Y-70101890D01*
X141847440Y-69850000D01*
X141847440Y-68950000D01*
X141803162Y-68714683D01*
X141664090Y-68498559D01*
X141451890Y-68353569D01*
X141318687Y-68326595D01*
X141316007Y-68313120D01*
X141307103Y-68299795D01*
X141401441Y-68239090D01*
X141546431Y-68026890D01*
X141597440Y-67775000D01*
X141597440Y-67025000D01*
X141553162Y-66789683D01*
X141414090Y-66573559D01*
X141201890Y-66428569D01*
X140950000Y-66377560D01*
X139750000Y-66377560D01*
X139514683Y-66421838D01*
X139411354Y-66488329D01*
X139409698Y-66486673D01*
X139176309Y-66390000D01*
X138735750Y-66390000D01*
X138577000Y-66548750D01*
X138577000Y-67273000D01*
X138597000Y-67273000D01*
X138597000Y-67527000D01*
X138577000Y-67527000D01*
X138577000Y-68251250D01*
X138663250Y-68337500D01*
X138527000Y-68473750D01*
X138527000Y-69273000D01*
X138547000Y-69273000D01*
X138547000Y-69527000D01*
X138527000Y-69527000D01*
X138527000Y-69547000D01*
X138273000Y-69547000D01*
X138273000Y-69527000D01*
X137323750Y-69527000D01*
X137165000Y-69685750D01*
X137165000Y-69701289D01*
X136287402Y-68823690D01*
X137165000Y-68823690D01*
X137165000Y-69114250D01*
X137323750Y-69273000D01*
X138273000Y-69273000D01*
X138273000Y-68473750D01*
X138186750Y-68387500D01*
X138323000Y-68251250D01*
X138323000Y-67527000D01*
X137373750Y-67527000D01*
X137215000Y-67685750D01*
X137215000Y-67901310D01*
X137311673Y-68134699D01*
X137490302Y-68313327D01*
X137584016Y-68352145D01*
X137440302Y-68411673D01*
X137261673Y-68590301D01*
X137165000Y-68823690D01*
X136287402Y-68823690D01*
X134362402Y-66898690D01*
X137215000Y-66898690D01*
X137215000Y-67114250D01*
X137373750Y-67273000D01*
X138323000Y-67273000D01*
X138323000Y-66548750D01*
X138164250Y-66390000D01*
X137723691Y-66390000D01*
X137490302Y-66486673D01*
X137311673Y-66665301D01*
X137215000Y-66898690D01*
X134362402Y-66898690D01*
X129598712Y-62135000D01*
X139071288Y-62135000D01*
X144065000Y-67128711D01*
G36*
X136906838Y-75945317D02*
X137045910Y-76161441D01*
X137195459Y-76263624D01*
X137103569Y-76398110D01*
X137052560Y-76650000D01*
X137052560Y-77281576D01*
X136961692Y-77342292D01*
X136961690Y-77342295D01*
X133388684Y-80915300D01*
X129453000Y-80915300D01*
X129453000Y-80773000D01*
X129473000Y-80773000D01*
X129473000Y-80753000D01*
X129727000Y-80753000D01*
X129727000Y-80773000D01*
X130676250Y-80773000D01*
X130835000Y-80614250D01*
X130835000Y-80323690D01*
X130738327Y-80090301D01*
X130705466Y-80057440D01*
X130890000Y-80057440D01*
X131125317Y-80013162D01*
X131341441Y-79874090D01*
X131486431Y-79661890D01*
X131515515Y-79518268D01*
X131526880Y-79516007D01*
X131778308Y-79348008D01*
X131946307Y-79096580D01*
X132005300Y-78800000D01*
X132005300Y-77421016D01*
X133551316Y-75875000D01*
X136893607Y-75875000D01*
X136906838Y-75945317D01*
X136906838Y-75945317D01*
G37*
X136906838Y-75945317D02*
X137045910Y-76161441D01*
X137195459Y-76263624D01*
X137103569Y-76398110D01*
X137052560Y-76650000D01*
X137052560Y-77281576D01*
X136961692Y-77342292D01*
X136961690Y-77342295D01*
X133388684Y-80915300D01*
X129453000Y-80915300D01*
X129453000Y-80773000D01*
X129473000Y-80773000D01*
X129473000Y-80753000D01*
X129727000Y-80753000D01*
X129727000Y-80773000D01*
X130676250Y-80773000D01*
X130835000Y-80614250D01*
X130835000Y-80323690D01*
X130738327Y-80090301D01*
X130705466Y-80057440D01*
X130890000Y-80057440D01*
X131125317Y-80013162D01*
X131341441Y-79874090D01*
X131486431Y-79661890D01*
X131515515Y-79518268D01*
X131526880Y-79516007D01*
X131778308Y-79348008D01*
X131946307Y-79096580D01*
X132005300Y-78800000D01*
X132005300Y-77421016D01*
X133551316Y-75875000D01*
X136893607Y-75875000D01*
X136906838Y-75945317D01*
G36*
X126270620Y-73499978D02*
X126203569Y-73598110D01*
X126152560Y-73850000D01*
X126152560Y-74750000D01*
X126196838Y-74985317D01*
X126222502Y-75025200D01*
X125706589Y-75025200D01*
X125689427Y-75008008D01*
X125345899Y-74865362D01*
X124973933Y-74865038D01*
X124630157Y-75007083D01*
X124366908Y-75269873D01*
X124224262Y-75613401D01*
X124223938Y-75985367D01*
X124365983Y-76329143D01*
X124628773Y-76592392D01*
X124972301Y-76735038D01*
X125344267Y-76735362D01*
X125688043Y-76593317D01*
X125706192Y-76575200D01*
X126690100Y-76575200D01*
X126986680Y-76516207D01*
X127238108Y-76348208D01*
X127948008Y-75638308D01*
X128116007Y-75386880D01*
X128118336Y-75375174D01*
X128235317Y-75353162D01*
X128451441Y-75214090D01*
X128497969Y-75145994D01*
X128640302Y-75288327D01*
X128873691Y-75385000D01*
X129314250Y-75385000D01*
X129473000Y-75226250D01*
X129473000Y-74427000D01*
X129453000Y-74427000D01*
X129453000Y-74284600D01*
X129747000Y-74284600D01*
X129747000Y-74427000D01*
X129727000Y-74427000D01*
X129727000Y-75226250D01*
X129885750Y-75385000D01*
X130326309Y-75385000D01*
X130559698Y-75288327D01*
X130738327Y-75109699D01*
X130792002Y-74980117D01*
X131523084Y-75711200D01*
X130682292Y-76551992D01*
X130514293Y-76803420D01*
X130455300Y-77100000D01*
X130455300Y-77542560D01*
X129980000Y-77542560D01*
X129744683Y-77586838D01*
X129528559Y-77725910D01*
X129383569Y-77938110D01*
X129332560Y-78190000D01*
X129332560Y-79410000D01*
X129376838Y-79645317D01*
X129486026Y-79815000D01*
X129472998Y-79815000D01*
X129472998Y-79973748D01*
X129314250Y-79815000D01*
X128873691Y-79815000D01*
X128640302Y-79911673D01*
X128499064Y-80052910D01*
X128464090Y-79998559D01*
X128251890Y-79853569D01*
X128105691Y-79823963D01*
X128216431Y-79661890D01*
X128267440Y-79410000D01*
X128267440Y-78190000D01*
X128223162Y-77954683D01*
X128084090Y-77738559D01*
X127871890Y-77593569D01*
X127620000Y-77542560D01*
X126710000Y-77542560D01*
X126474683Y-77586838D01*
X126258559Y-77725910D01*
X126113569Y-77938110D01*
X126099193Y-78009100D01*
X121586916Y-78009100D01*
X126202265Y-73393751D01*
X126270620Y-73499978D01*
X126270620Y-73499978D01*
G37*
X126270620Y-73499978D02*
X126203569Y-73598110D01*
X126152560Y-73850000D01*
X126152560Y-74750000D01*
X126196838Y-74985317D01*
X126222502Y-75025200D01*
X125706589Y-75025200D01*
X125689427Y-75008008D01*
X125345899Y-74865362D01*
X124973933Y-74865038D01*
X124630157Y-75007083D01*
X124366908Y-75269873D01*
X124224262Y-75613401D01*
X124223938Y-75985367D01*
X124365983Y-76329143D01*
X124628773Y-76592392D01*
X124972301Y-76735038D01*
X125344267Y-76735362D01*
X125688043Y-76593317D01*
X125706192Y-76575200D01*
X126690100Y-76575200D01*
X126986680Y-76516207D01*
X127238108Y-76348208D01*
X127948008Y-75638308D01*
X128116007Y-75386880D01*
X128118336Y-75375174D01*
X128235317Y-75353162D01*
X128451441Y-75214090D01*
X128497969Y-75145994D01*
X128640302Y-75288327D01*
X128873691Y-75385000D01*
X129314250Y-75385000D01*
X129473000Y-75226250D01*
X129473000Y-74427000D01*
X129453000Y-74427000D01*
X129453000Y-74284600D01*
X129747000Y-74284600D01*
X129747000Y-74427000D01*
X129727000Y-74427000D01*
X129727000Y-75226250D01*
X129885750Y-75385000D01*
X130326309Y-75385000D01*
X130559698Y-75288327D01*
X130738327Y-75109699D01*
X130792002Y-74980117D01*
X131523084Y-75711200D01*
X130682292Y-76551992D01*
X130514293Y-76803420D01*
X130455300Y-77100000D01*
X130455300Y-77542560D01*
X129980000Y-77542560D01*
X129744683Y-77586838D01*
X129528559Y-77725910D01*
X129383569Y-77938110D01*
X129332560Y-78190000D01*
X129332560Y-79410000D01*
X129376838Y-79645317D01*
X129486026Y-79815000D01*
X129472998Y-79815000D01*
X129472998Y-79973748D01*
X129314250Y-79815000D01*
X128873691Y-79815000D01*
X128640302Y-79911673D01*
X128499064Y-80052910D01*
X128464090Y-79998559D01*
X128251890Y-79853569D01*
X128105691Y-79823963D01*
X128216431Y-79661890D01*
X128267440Y-79410000D01*
X128267440Y-78190000D01*
X128223162Y-77954683D01*
X128084090Y-77738559D01*
X127871890Y-77593569D01*
X127620000Y-77542560D01*
X126710000Y-77542560D01*
X126474683Y-77586838D01*
X126258559Y-77725910D01*
X126113569Y-77938110D01*
X126099193Y-78009100D01*
X121586916Y-78009100D01*
X126202265Y-73393751D01*
X126270620Y-73499978D01*
G36*
X86858984Y-78275000D02*
X82621016Y-78275000D01*
X82613308Y-78267292D01*
X82597440Y-78256689D01*
X82597440Y-77725000D01*
X82553162Y-77489683D01*
X82414090Y-77273559D01*
X82201890Y-77128569D01*
X82125000Y-77112998D01*
X82125000Y-76873920D01*
X82235317Y-76853162D01*
X82451441Y-76714090D01*
X82596431Y-76501890D01*
X82647440Y-76250000D01*
X82647440Y-75350000D01*
X82603162Y-75114683D01*
X82529380Y-75000022D01*
X82596431Y-74901890D01*
X82647440Y-74650000D01*
X82647440Y-74063456D01*
X86858984Y-78275000D01*
X86858984Y-78275000D01*
G37*
X86858984Y-78275000D02*
X82621016Y-78275000D01*
X82613308Y-78267292D01*
X82597440Y-78256689D01*
X82597440Y-77725000D01*
X82553162Y-77489683D01*
X82414090Y-77273559D01*
X82201890Y-77128569D01*
X82125000Y-77112998D01*
X82125000Y-76873920D01*
X82235317Y-76853162D01*
X82451441Y-76714090D01*
X82596431Y-76501890D01*
X82647440Y-76250000D01*
X82647440Y-75350000D01*
X82603162Y-75114683D01*
X82529380Y-75000022D01*
X82596431Y-74901890D01*
X82647440Y-74650000D01*
X82647440Y-74063456D01*
X86858984Y-78275000D01*
G36*
X127884600Y-68605700D02*
X127884600Y-70002560D01*
X126800000Y-70002560D01*
X126564683Y-70046838D01*
X126348559Y-70185910D01*
X126203569Y-70398110D01*
X126152560Y-70650000D01*
X126152560Y-71281576D01*
X126130105Y-71296580D01*
X126061692Y-71342292D01*
X119875184Y-77528800D01*
X118932516Y-77528800D01*
X127891797Y-68569519D01*
X127884600Y-68605700D01*
X127884600Y-68605700D01*
G37*
X127884600Y-68605700D02*
X127884600Y-70002560D01*
X126800000Y-70002560D01*
X126564683Y-70046838D01*
X126348559Y-70185910D01*
X126203569Y-70398110D01*
X126152560Y-70650000D01*
X126152560Y-71281576D01*
X126130105Y-71296580D01*
X126061692Y-71342292D01*
X119875184Y-77528800D01*
X118932516Y-77528800D01*
X127891797Y-68569519D01*
X127884600Y-68605700D01*
G36*
X88901288Y-65765000D02*
X88785750Y-65765000D01*
X88627000Y-65923750D01*
X88627000Y-66873000D01*
X88647000Y-66873000D01*
X88647000Y-67127000D01*
X88627000Y-67127000D01*
X88627000Y-67147000D01*
X88373000Y-67147000D01*
X88373000Y-67127000D01*
X87027000Y-67127000D01*
X87027000Y-67147000D01*
X86773000Y-67147000D01*
X86773000Y-67127000D01*
X85427000Y-67127000D01*
X85427000Y-67147000D01*
X85173000Y-67147000D01*
X85173000Y-67127000D01*
X84373750Y-67127000D01*
X84215000Y-67285750D01*
X84215000Y-67726309D01*
X84311673Y-67959698D01*
X84452910Y-68100936D01*
X84398559Y-68135910D01*
X84253569Y-68348110D01*
X84202560Y-68600000D01*
X84202560Y-69800000D01*
X84246838Y-70035317D01*
X84385910Y-70251441D01*
X84598110Y-70396431D01*
X84850000Y-70447440D01*
X85750000Y-70447440D01*
X85985317Y-70403162D01*
X86099978Y-70329380D01*
X86198110Y-70396431D01*
X86450000Y-70447440D01*
X86581324Y-70447440D01*
X93391592Y-77257708D01*
X93417471Y-77275000D01*
X88805716Y-77275000D01*
X82369783Y-70839067D01*
X82446431Y-70726890D01*
X82497440Y-70475000D01*
X82497440Y-69725000D01*
X82453162Y-69489683D01*
X82314090Y-69273559D01*
X82101890Y-69128569D01*
X81850000Y-69077560D01*
X80650000Y-69077560D01*
X80414683Y-69121838D01*
X80311354Y-69188329D01*
X80309698Y-69186673D01*
X80076309Y-69090000D01*
X79635750Y-69090000D01*
X79477000Y-69248750D01*
X79477000Y-69973000D01*
X79497000Y-69973000D01*
X79497000Y-70227000D01*
X79477000Y-70227000D01*
X79477000Y-70951250D01*
X79635750Y-71110000D01*
X80076309Y-71110000D01*
X80309698Y-71013327D01*
X80311068Y-71011957D01*
X80398110Y-71071431D01*
X80531313Y-71098405D01*
X80533993Y-71111880D01*
X80701992Y-71363308D01*
X80841244Y-71502560D01*
X80800000Y-71502560D01*
X80564683Y-71546838D01*
X80348559Y-71685910D01*
X80300866Y-71755711D01*
X80264090Y-71698559D01*
X80051890Y-71553569D01*
X79800000Y-71502560D01*
X78600000Y-71502560D01*
X78364683Y-71546838D01*
X78148559Y-71685910D01*
X78114082Y-71736369D01*
X78110127Y-71732408D01*
X77766599Y-71589762D01*
X77394633Y-71589438D01*
X77050857Y-71731483D01*
X76787608Y-71994273D01*
X76644962Y-72337801D01*
X76644751Y-72580040D01*
X74450462Y-70385750D01*
X78115000Y-70385750D01*
X78115000Y-70601310D01*
X78211673Y-70834699D01*
X78390302Y-71013327D01*
X78623691Y-71110000D01*
X79064250Y-71110000D01*
X79223000Y-70951250D01*
X79223000Y-70227000D01*
X78273750Y-70227000D01*
X78115000Y-70385750D01*
X74450462Y-70385750D01*
X73663402Y-69598690D01*
X78115000Y-69598690D01*
X78115000Y-69814250D01*
X78273750Y-69973000D01*
X79223000Y-69973000D01*
X79223000Y-69248750D01*
X79064250Y-69090000D01*
X78623691Y-69090000D01*
X78390302Y-69186673D01*
X78211673Y-69365301D01*
X78115000Y-69598690D01*
X73663402Y-69598690D01*
X71459212Y-67394500D01*
X76840495Y-67394500D01*
X76840500Y-67394501D01*
X77236577Y-67315715D01*
X77572356Y-67091356D01*
X78390020Y-66273691D01*
X84215000Y-66273691D01*
X84215000Y-66714250D01*
X84373750Y-66873000D01*
X85173000Y-66873000D01*
X85173000Y-65923750D01*
X85427000Y-65923750D01*
X85427000Y-66873000D01*
X86773000Y-66873000D01*
X86773000Y-65923750D01*
X87027000Y-65923750D01*
X87027000Y-66873000D01*
X88373000Y-66873000D01*
X88373000Y-65923750D01*
X88214250Y-65765000D01*
X87923690Y-65765000D01*
X87700000Y-65857656D01*
X87476310Y-65765000D01*
X87185750Y-65765000D01*
X87027000Y-65923750D01*
X86773000Y-65923750D01*
X86614250Y-65765000D01*
X86323690Y-65765000D01*
X86100000Y-65857656D01*
X85876310Y-65765000D01*
X85585750Y-65765000D01*
X85427000Y-65923750D01*
X85173000Y-65923750D01*
X85014250Y-65765000D01*
X84723690Y-65765000D01*
X84490301Y-65861673D01*
X84311673Y-66040302D01*
X84215000Y-66273691D01*
X78390020Y-66273691D01*
X79128711Y-65535000D01*
X88671288Y-65535000D01*
X88901288Y-65765000D01*
X88901288Y-65765000D01*
G37*
X88901288Y-65765000D02*
X88785750Y-65765000D01*
X88627000Y-65923750D01*
X88627000Y-66873000D01*
X88647000Y-66873000D01*
X88647000Y-67127000D01*
X88627000Y-67127000D01*
X88627000Y-67147000D01*
X88373000Y-67147000D01*
X88373000Y-67127000D01*
X87027000Y-67127000D01*
X87027000Y-67147000D01*
X86773000Y-67147000D01*
X86773000Y-67127000D01*
X85427000Y-67127000D01*
X85427000Y-67147000D01*
X85173000Y-67147000D01*
X85173000Y-67127000D01*
X84373750Y-67127000D01*
X84215000Y-67285750D01*
X84215000Y-67726309D01*
X84311673Y-67959698D01*
X84452910Y-68100936D01*
X84398559Y-68135910D01*
X84253569Y-68348110D01*
X84202560Y-68600000D01*
X84202560Y-69800000D01*
X84246838Y-70035317D01*
X84385910Y-70251441D01*
X84598110Y-70396431D01*
X84850000Y-70447440D01*
X85750000Y-70447440D01*
X85985317Y-70403162D01*
X86099978Y-70329380D01*
X86198110Y-70396431D01*
X86450000Y-70447440D01*
X86581324Y-70447440D01*
X93391592Y-77257708D01*
X93417471Y-77275000D01*
X88805716Y-77275000D01*
X82369783Y-70839067D01*
X82446431Y-70726890D01*
X82497440Y-70475000D01*
X82497440Y-69725000D01*
X82453162Y-69489683D01*
X82314090Y-69273559D01*
X82101890Y-69128569D01*
X81850000Y-69077560D01*
X80650000Y-69077560D01*
X80414683Y-69121838D01*
X80311354Y-69188329D01*
X80309698Y-69186673D01*
X80076309Y-69090000D01*
X79635750Y-69090000D01*
X79477000Y-69248750D01*
X79477000Y-69973000D01*
X79497000Y-69973000D01*
X79497000Y-70227000D01*
X79477000Y-70227000D01*
X79477000Y-70951250D01*
X79635750Y-71110000D01*
X80076309Y-71110000D01*
X80309698Y-71013327D01*
X80311068Y-71011957D01*
X80398110Y-71071431D01*
X80531313Y-71098405D01*
X80533993Y-71111880D01*
X80701992Y-71363308D01*
X80841244Y-71502560D01*
X80800000Y-71502560D01*
X80564683Y-71546838D01*
X80348559Y-71685910D01*
X80300866Y-71755711D01*
X80264090Y-71698559D01*
X80051890Y-71553569D01*
X79800000Y-71502560D01*
X78600000Y-71502560D01*
X78364683Y-71546838D01*
X78148559Y-71685910D01*
X78114082Y-71736369D01*
X78110127Y-71732408D01*
X77766599Y-71589762D01*
X77394633Y-71589438D01*
X77050857Y-71731483D01*
X76787608Y-71994273D01*
X76644962Y-72337801D01*
X76644751Y-72580040D01*
X74450462Y-70385750D01*
X78115000Y-70385750D01*
X78115000Y-70601310D01*
X78211673Y-70834699D01*
X78390302Y-71013327D01*
X78623691Y-71110000D01*
X79064250Y-71110000D01*
X79223000Y-70951250D01*
X79223000Y-70227000D01*
X78273750Y-70227000D01*
X78115000Y-70385750D01*
X74450462Y-70385750D01*
X73663402Y-69598690D01*
X78115000Y-69598690D01*
X78115000Y-69814250D01*
X78273750Y-69973000D01*
X79223000Y-69973000D01*
X79223000Y-69248750D01*
X79064250Y-69090000D01*
X78623691Y-69090000D01*
X78390302Y-69186673D01*
X78211673Y-69365301D01*
X78115000Y-69598690D01*
X73663402Y-69598690D01*
X71459212Y-67394500D01*
X76840495Y-67394500D01*
X76840500Y-67394501D01*
X77236577Y-67315715D01*
X77572356Y-67091356D01*
X78390020Y-66273691D01*
X84215000Y-66273691D01*
X84215000Y-66714250D01*
X84373750Y-66873000D01*
X85173000Y-66873000D01*
X85173000Y-65923750D01*
X85427000Y-65923750D01*
X85427000Y-66873000D01*
X86773000Y-66873000D01*
X86773000Y-65923750D01*
X87027000Y-65923750D01*
X87027000Y-66873000D01*
X88373000Y-66873000D01*
X88373000Y-65923750D01*
X88214250Y-65765000D01*
X87923690Y-65765000D01*
X87700000Y-65857656D01*
X87476310Y-65765000D01*
X87185750Y-65765000D01*
X87027000Y-65923750D01*
X86773000Y-65923750D01*
X86614250Y-65765000D01*
X86323690Y-65765000D01*
X86100000Y-65857656D01*
X85876310Y-65765000D01*
X85585750Y-65765000D01*
X85427000Y-65923750D01*
X85173000Y-65923750D01*
X85014250Y-65765000D01*
X84723690Y-65765000D01*
X84490301Y-65861673D01*
X84311673Y-66040302D01*
X84215000Y-66273691D01*
X78390020Y-66273691D01*
X79128711Y-65535000D01*
X88671288Y-65535000D01*
X88901288Y-65765000D01*
G36*
X112352560Y-63341049D02*
X112111692Y-63501992D01*
X112111690Y-63501995D01*
X111018984Y-64594700D01*
X110800000Y-64594700D01*
X110503420Y-64653693D01*
X110251992Y-64821692D01*
X110083993Y-65073120D01*
X110082053Y-65082872D01*
X109954683Y-65106838D01*
X109738559Y-65245910D01*
X109607140Y-65438248D01*
X109553120Y-65448993D01*
X109301692Y-65616992D01*
X109178021Y-65802078D01*
X108987057Y-65880983D01*
X108723808Y-66143773D01*
X108581162Y-66487301D01*
X108580838Y-66859267D01*
X108722883Y-67203043D01*
X108985673Y-67466292D01*
X109329201Y-67608938D01*
X109701167Y-67609262D01*
X110044943Y-67467217D01*
X110245069Y-67267440D01*
X111410000Y-67267440D01*
X111645317Y-67223162D01*
X111861441Y-67084090D01*
X112006431Y-66871890D01*
X112057440Y-66620000D01*
X112057440Y-66423691D01*
X118090000Y-66423691D01*
X118090000Y-66864250D01*
X118248750Y-67023000D01*
X118973000Y-67023000D01*
X118973000Y-66073750D01*
X118814250Y-65915000D01*
X118598690Y-65915000D01*
X118365301Y-66011673D01*
X118186673Y-66190302D01*
X118090000Y-66423691D01*
X112057440Y-66423691D01*
X112057440Y-65748276D01*
X112384733Y-65420983D01*
X112396838Y-65485317D01*
X112535910Y-65701441D01*
X112748110Y-65846431D01*
X113000000Y-65897440D01*
X117200000Y-65897440D01*
X117435317Y-65853162D01*
X117651441Y-65714090D01*
X117796431Y-65501890D01*
X117847440Y-65250000D01*
X117847440Y-63285000D01*
X127821288Y-63285000D01*
X136268142Y-71731853D01*
X136268144Y-71731856D01*
X136540878Y-71914090D01*
X136557206Y-71925000D01*
X130745453Y-71925000D01*
X130729380Y-71900022D01*
X130796431Y-71801890D01*
X130847440Y-71550000D01*
X130847440Y-70650000D01*
X130803162Y-70414683D01*
X130664090Y-70198559D01*
X130451890Y-70053569D01*
X130200000Y-70002560D01*
X129434600Y-70002560D01*
X129434600Y-68926716D01*
X129898008Y-68463308D01*
X130066007Y-68211880D01*
X130068336Y-68200174D01*
X130185317Y-68178162D01*
X130401441Y-68039090D01*
X130546431Y-67826890D01*
X130597440Y-67575000D01*
X130597440Y-66825000D01*
X130553162Y-66589683D01*
X130414090Y-66373559D01*
X130201890Y-66228569D01*
X129950000Y-66177560D01*
X128750000Y-66177560D01*
X128514683Y-66221838D01*
X128400022Y-66295620D01*
X128301890Y-66228569D01*
X128050000Y-66177560D01*
X126850000Y-66177560D01*
X126614683Y-66221838D01*
X126398559Y-66360910D01*
X126253569Y-66573110D01*
X126202560Y-66825000D01*
X126202560Y-67575000D01*
X126246838Y-67810317D01*
X126329894Y-67939390D01*
X117220784Y-77048500D01*
X104016800Y-77048500D01*
X103720220Y-77107493D01*
X103469528Y-77275000D01*
X103225000Y-77275000D01*
X103225000Y-76472300D01*
X103168155Y-76186519D01*
X103168162Y-76178633D01*
X103116500Y-76053601D01*
X103116500Y-70255218D01*
X103325000Y-70297440D01*
X104075000Y-70297440D01*
X104310317Y-70253162D01*
X104450727Y-70162810D01*
X104573110Y-70246431D01*
X104825000Y-70297440D01*
X105575000Y-70297440D01*
X105810317Y-70253162D01*
X105950727Y-70162810D01*
X106073110Y-70246431D01*
X106325000Y-70297440D01*
X107075000Y-70297440D01*
X107310317Y-70253162D01*
X107526441Y-70114090D01*
X107671431Y-69901890D01*
X107687002Y-69825000D01*
X109143684Y-69825000D01*
X109301692Y-69983008D01*
X109553120Y-70151007D01*
X109610745Y-70162469D01*
X109725910Y-70341441D01*
X109938110Y-70486431D01*
X110190000Y-70537440D01*
X111410000Y-70537440D01*
X111645317Y-70493162D01*
X111861441Y-70354090D01*
X112006431Y-70141890D01*
X112057440Y-69890000D01*
X112057440Y-69863428D01*
X112307201Y-69967138D01*
X112393432Y-69967213D01*
X112396838Y-69985317D01*
X112535910Y-70201441D01*
X112748110Y-70346431D01*
X113000000Y-70397440D01*
X117200000Y-70397440D01*
X117435317Y-70353162D01*
X117651441Y-70214090D01*
X117796431Y-70001890D01*
X117847440Y-69750000D01*
X117847440Y-69605190D01*
X118088120Y-69766007D01*
X118099826Y-69768336D01*
X118121838Y-69885317D01*
X118260910Y-70101441D01*
X118473110Y-70246431D01*
X118725000Y-70297440D01*
X119475000Y-70297440D01*
X119710317Y-70253162D01*
X119926441Y-70114090D01*
X120029328Y-69963510D01*
X120085910Y-70051441D01*
X120298110Y-70196431D01*
X120550000Y-70247440D01*
X121450000Y-70247440D01*
X121685317Y-70203162D01*
X121901441Y-70064090D01*
X122046431Y-69851890D01*
X122097440Y-69600000D01*
X122097440Y-68400000D01*
X122053162Y-68164683D01*
X121914090Y-67948559D01*
X121844289Y-67900866D01*
X121901441Y-67864090D01*
X122046431Y-67651890D01*
X122097440Y-67400000D01*
X122097440Y-66200000D01*
X122053162Y-65964683D01*
X121914090Y-65748559D01*
X121701890Y-65603569D01*
X121450000Y-65552560D01*
X120550000Y-65552560D01*
X120489285Y-65563984D01*
X120217099Y-65450962D01*
X119845133Y-65450638D01*
X119501357Y-65592683D01*
X119238108Y-65855473D01*
X119095462Y-66199001D01*
X119095138Y-66570967D01*
X119227000Y-66890098D01*
X119227000Y-67023000D01*
X119247000Y-67023000D01*
X119247000Y-67277000D01*
X119227000Y-67277000D01*
X119227000Y-67297000D01*
X118973000Y-67297000D01*
X118973000Y-67277000D01*
X118248750Y-67277000D01*
X118090000Y-67435750D01*
X118090000Y-67815836D01*
X117884700Y-67775000D01*
X117847440Y-67775000D01*
X117847440Y-67350000D01*
X117803162Y-67114683D01*
X117664090Y-66898559D01*
X117451890Y-66753569D01*
X117200000Y-66702560D01*
X113000000Y-66702560D01*
X112764683Y-66746838D01*
X112548559Y-66885910D01*
X112403569Y-67098110D01*
X112352560Y-67350000D01*
X112352560Y-67841049D01*
X112111692Y-68001992D01*
X111943693Y-68253420D01*
X111941933Y-68262266D01*
X111756002Y-68447873D01*
X111661890Y-68383569D01*
X111410000Y-68332560D01*
X110190000Y-68332560D01*
X109954683Y-68376838D01*
X109888825Y-68419216D01*
X109761280Y-68333993D01*
X109464700Y-68275000D01*
X107689511Y-68275000D01*
X107678162Y-68214683D01*
X107611671Y-68111354D01*
X107613327Y-68109698D01*
X107710000Y-67876309D01*
X107710000Y-67435750D01*
X107551250Y-67277000D01*
X106827000Y-67277000D01*
X106827000Y-67297000D01*
X106573000Y-67297000D01*
X106573000Y-67277000D01*
X105327000Y-67277000D01*
X105327000Y-67297000D01*
X105073000Y-67297000D01*
X105073000Y-67277000D01*
X103827000Y-67277000D01*
X103827000Y-67297000D01*
X103573000Y-67297000D01*
X103573000Y-67277000D01*
X102848750Y-67277000D01*
X102690000Y-67435750D01*
X102690000Y-67876309D01*
X102786673Y-68109698D01*
X102788043Y-68111068D01*
X102728569Y-68198110D01*
X102701595Y-68331313D01*
X102688120Y-68333993D01*
X102436692Y-68501992D01*
X101793492Y-69145192D01*
X101625493Y-69396620D01*
X101566500Y-69693200D01*
X101566500Y-75421214D01*
X101480399Y-75385462D01*
X101108433Y-75385138D01*
X100784704Y-75518900D01*
X100723617Y-75371057D01*
X100460827Y-75107808D01*
X100117299Y-74965162D01*
X99800200Y-74964886D01*
X99800200Y-70465500D01*
X99794367Y-70436174D01*
X99850000Y-70447440D01*
X100750000Y-70447440D01*
X100985317Y-70403162D01*
X101201441Y-70264090D01*
X101346431Y-70051890D01*
X101397440Y-69800000D01*
X101397440Y-68600000D01*
X101353162Y-68364683D01*
X101214090Y-68148559D01*
X101144289Y-68100866D01*
X101201441Y-68064090D01*
X101346431Y-67851890D01*
X101397440Y-67600000D01*
X101397440Y-66423691D01*
X102690000Y-66423691D01*
X102690000Y-66864250D01*
X102848750Y-67023000D01*
X103573000Y-67023000D01*
X103573000Y-66073750D01*
X103827000Y-66073750D01*
X103827000Y-67023000D01*
X105073000Y-67023000D01*
X105073000Y-66073750D01*
X105327000Y-66073750D01*
X105327000Y-67023000D01*
X106573000Y-67023000D01*
X106573000Y-66073750D01*
X106827000Y-66073750D01*
X106827000Y-67023000D01*
X107551250Y-67023000D01*
X107710000Y-66864250D01*
X107710000Y-66423691D01*
X107613327Y-66190302D01*
X107434699Y-66011673D01*
X107201310Y-65915000D01*
X106985750Y-65915000D01*
X106827000Y-66073750D01*
X106573000Y-66073750D01*
X106414250Y-65915000D01*
X106198690Y-65915000D01*
X105965301Y-66011673D01*
X105950000Y-66026974D01*
X105934699Y-66011673D01*
X105701310Y-65915000D01*
X105485750Y-65915000D01*
X105327000Y-66073750D01*
X105073000Y-66073750D01*
X104914250Y-65915000D01*
X104698690Y-65915000D01*
X104465301Y-66011673D01*
X104450000Y-66026974D01*
X104434699Y-66011673D01*
X104201310Y-65915000D01*
X103985750Y-65915000D01*
X103827000Y-66073750D01*
X103573000Y-66073750D01*
X103414250Y-65915000D01*
X103198690Y-65915000D01*
X102965301Y-66011673D01*
X102786673Y-66190302D01*
X102690000Y-66423691D01*
X101397440Y-66423691D01*
X101397440Y-66400000D01*
X101353162Y-66164683D01*
X101335000Y-66136458D01*
X101335000Y-64600000D01*
X101286508Y-64356215D01*
X101256215Y-64203922D01*
X101160691Y-64060960D01*
X101031856Y-63868144D01*
X101031853Y-63868142D01*
X100448711Y-63285000D01*
X112352560Y-63285000D01*
X112352560Y-63341049D01*
X112352560Y-63341049D01*
G37*
X112352560Y-63341049D02*
X112111692Y-63501992D01*
X112111690Y-63501995D01*
X111018984Y-64594700D01*
X110800000Y-64594700D01*
X110503420Y-64653693D01*
X110251992Y-64821692D01*
X110083993Y-65073120D01*
X110082053Y-65082872D01*
X109954683Y-65106838D01*
X109738559Y-65245910D01*
X109607140Y-65438248D01*
X109553120Y-65448993D01*
X109301692Y-65616992D01*
X109178021Y-65802078D01*
X108987057Y-65880983D01*
X108723808Y-66143773D01*
X108581162Y-66487301D01*
X108580838Y-66859267D01*
X108722883Y-67203043D01*
X108985673Y-67466292D01*
X109329201Y-67608938D01*
X109701167Y-67609262D01*
X110044943Y-67467217D01*
X110245069Y-67267440D01*
X111410000Y-67267440D01*
X111645317Y-67223162D01*
X111861441Y-67084090D01*
X112006431Y-66871890D01*
X112057440Y-66620000D01*
X112057440Y-66423691D01*
X118090000Y-66423691D01*
X118090000Y-66864250D01*
X118248750Y-67023000D01*
X118973000Y-67023000D01*
X118973000Y-66073750D01*
X118814250Y-65915000D01*
X118598690Y-65915000D01*
X118365301Y-66011673D01*
X118186673Y-66190302D01*
X118090000Y-66423691D01*
X112057440Y-66423691D01*
X112057440Y-65748276D01*
X112384733Y-65420983D01*
X112396838Y-65485317D01*
X112535910Y-65701441D01*
X112748110Y-65846431D01*
X113000000Y-65897440D01*
X117200000Y-65897440D01*
X117435317Y-65853162D01*
X117651441Y-65714090D01*
X117796431Y-65501890D01*
X117847440Y-65250000D01*
X117847440Y-63285000D01*
X127821288Y-63285000D01*
X136268142Y-71731853D01*
X136268144Y-71731856D01*
X136540878Y-71914090D01*
X136557206Y-71925000D01*
X130745453Y-71925000D01*
X130729380Y-71900022D01*
X130796431Y-71801890D01*
X130847440Y-71550000D01*
X130847440Y-70650000D01*
X130803162Y-70414683D01*
X130664090Y-70198559D01*
X130451890Y-70053569D01*
X130200000Y-70002560D01*
X129434600Y-70002560D01*
X129434600Y-68926716D01*
X129898008Y-68463308D01*
X130066007Y-68211880D01*
X130068336Y-68200174D01*
X130185317Y-68178162D01*
X130401441Y-68039090D01*
X130546431Y-67826890D01*
X130597440Y-67575000D01*
X130597440Y-66825000D01*
X130553162Y-66589683D01*
X130414090Y-66373559D01*
X130201890Y-66228569D01*
X129950000Y-66177560D01*
X128750000Y-66177560D01*
X128514683Y-66221838D01*
X128400022Y-66295620D01*
X128301890Y-66228569D01*
X128050000Y-66177560D01*
X126850000Y-66177560D01*
X126614683Y-66221838D01*
X126398559Y-66360910D01*
X126253569Y-66573110D01*
X126202560Y-66825000D01*
X126202560Y-67575000D01*
X126246838Y-67810317D01*
X126329894Y-67939390D01*
X117220784Y-77048500D01*
X104016800Y-77048500D01*
X103720220Y-77107493D01*
X103469528Y-77275000D01*
X103225000Y-77275000D01*
X103225000Y-76472300D01*
X103168155Y-76186519D01*
X103168162Y-76178633D01*
X103116500Y-76053601D01*
X103116500Y-70255218D01*
X103325000Y-70297440D01*
X104075000Y-70297440D01*
X104310317Y-70253162D01*
X104450727Y-70162810D01*
X104573110Y-70246431D01*
X104825000Y-70297440D01*
X105575000Y-70297440D01*
X105810317Y-70253162D01*
X105950727Y-70162810D01*
X106073110Y-70246431D01*
X106325000Y-70297440D01*
X107075000Y-70297440D01*
X107310317Y-70253162D01*
X107526441Y-70114090D01*
X107671431Y-69901890D01*
X107687002Y-69825000D01*
X109143684Y-69825000D01*
X109301692Y-69983008D01*
X109553120Y-70151007D01*
X109610745Y-70162469D01*
X109725910Y-70341441D01*
X109938110Y-70486431D01*
X110190000Y-70537440D01*
X111410000Y-70537440D01*
X111645317Y-70493162D01*
X111861441Y-70354090D01*
X112006431Y-70141890D01*
X112057440Y-69890000D01*
X112057440Y-69863428D01*
X112307201Y-69967138D01*
X112393432Y-69967213D01*
X112396838Y-69985317D01*
X112535910Y-70201441D01*
X112748110Y-70346431D01*
X113000000Y-70397440D01*
X117200000Y-70397440D01*
X117435317Y-70353162D01*
X117651441Y-70214090D01*
X117796431Y-70001890D01*
X117847440Y-69750000D01*
X117847440Y-69605190D01*
X118088120Y-69766007D01*
X118099826Y-69768336D01*
X118121838Y-69885317D01*
X118260910Y-70101441D01*
X118473110Y-70246431D01*
X118725000Y-70297440D01*
X119475000Y-70297440D01*
X119710317Y-70253162D01*
X119926441Y-70114090D01*
X120029328Y-69963510D01*
X120085910Y-70051441D01*
X120298110Y-70196431D01*
X120550000Y-70247440D01*
X121450000Y-70247440D01*
X121685317Y-70203162D01*
X121901441Y-70064090D01*
X122046431Y-69851890D01*
X122097440Y-69600000D01*
X122097440Y-68400000D01*
X122053162Y-68164683D01*
X121914090Y-67948559D01*
X121844289Y-67900866D01*
X121901441Y-67864090D01*
X122046431Y-67651890D01*
X122097440Y-67400000D01*
X122097440Y-66200000D01*
X122053162Y-65964683D01*
X121914090Y-65748559D01*
X121701890Y-65603569D01*
X121450000Y-65552560D01*
X120550000Y-65552560D01*
X120489285Y-65563984D01*
X120217099Y-65450962D01*
X119845133Y-65450638D01*
X119501357Y-65592683D01*
X119238108Y-65855473D01*
X119095462Y-66199001D01*
X119095138Y-66570967D01*
X119227000Y-66890098D01*
X119227000Y-67023000D01*
X119247000Y-67023000D01*
X119247000Y-67277000D01*
X119227000Y-67277000D01*
X119227000Y-67297000D01*
X118973000Y-67297000D01*
X118973000Y-67277000D01*
X118248750Y-67277000D01*
X118090000Y-67435750D01*
X118090000Y-67815836D01*
X117884700Y-67775000D01*
X117847440Y-67775000D01*
X117847440Y-67350000D01*
X117803162Y-67114683D01*
X117664090Y-66898559D01*
X117451890Y-66753569D01*
X117200000Y-66702560D01*
X113000000Y-66702560D01*
X112764683Y-66746838D01*
X112548559Y-66885910D01*
X112403569Y-67098110D01*
X112352560Y-67350000D01*
X112352560Y-67841049D01*
X112111692Y-68001992D01*
X111943693Y-68253420D01*
X111941933Y-68262266D01*
X111756002Y-68447873D01*
X111661890Y-68383569D01*
X111410000Y-68332560D01*
X110190000Y-68332560D01*
X109954683Y-68376838D01*
X109888825Y-68419216D01*
X109761280Y-68333993D01*
X109464700Y-68275000D01*
X107689511Y-68275000D01*
X107678162Y-68214683D01*
X107611671Y-68111354D01*
X107613327Y-68109698D01*
X107710000Y-67876309D01*
X107710000Y-67435750D01*
X107551250Y-67277000D01*
X106827000Y-67277000D01*
X106827000Y-67297000D01*
X106573000Y-67297000D01*
X106573000Y-67277000D01*
X105327000Y-67277000D01*
X105327000Y-67297000D01*
X105073000Y-67297000D01*
X105073000Y-67277000D01*
X103827000Y-67277000D01*
X103827000Y-67297000D01*
X103573000Y-67297000D01*
X103573000Y-67277000D01*
X102848750Y-67277000D01*
X102690000Y-67435750D01*
X102690000Y-67876309D01*
X102786673Y-68109698D01*
X102788043Y-68111068D01*
X102728569Y-68198110D01*
X102701595Y-68331313D01*
X102688120Y-68333993D01*
X102436692Y-68501992D01*
X101793492Y-69145192D01*
X101625493Y-69396620D01*
X101566500Y-69693200D01*
X101566500Y-75421214D01*
X101480399Y-75385462D01*
X101108433Y-75385138D01*
X100784704Y-75518900D01*
X100723617Y-75371057D01*
X100460827Y-75107808D01*
X100117299Y-74965162D01*
X99800200Y-74964886D01*
X99800200Y-70465500D01*
X99794367Y-70436174D01*
X99850000Y-70447440D01*
X100750000Y-70447440D01*
X100985317Y-70403162D01*
X101201441Y-70264090D01*
X101346431Y-70051890D01*
X101397440Y-69800000D01*
X101397440Y-68600000D01*
X101353162Y-68364683D01*
X101214090Y-68148559D01*
X101144289Y-68100866D01*
X101201441Y-68064090D01*
X101346431Y-67851890D01*
X101397440Y-67600000D01*
X101397440Y-66423691D01*
X102690000Y-66423691D01*
X102690000Y-66864250D01*
X102848750Y-67023000D01*
X103573000Y-67023000D01*
X103573000Y-66073750D01*
X103827000Y-66073750D01*
X103827000Y-67023000D01*
X105073000Y-67023000D01*
X105073000Y-66073750D01*
X105327000Y-66073750D01*
X105327000Y-67023000D01*
X106573000Y-67023000D01*
X106573000Y-66073750D01*
X106827000Y-66073750D01*
X106827000Y-67023000D01*
X107551250Y-67023000D01*
X107710000Y-66864250D01*
X107710000Y-66423691D01*
X107613327Y-66190302D01*
X107434699Y-66011673D01*
X107201310Y-65915000D01*
X106985750Y-65915000D01*
X106827000Y-66073750D01*
X106573000Y-66073750D01*
X106414250Y-65915000D01*
X106198690Y-65915000D01*
X105965301Y-66011673D01*
X105950000Y-66026974D01*
X105934699Y-66011673D01*
X105701310Y-65915000D01*
X105485750Y-65915000D01*
X105327000Y-66073750D01*
X105073000Y-66073750D01*
X104914250Y-65915000D01*
X104698690Y-65915000D01*
X104465301Y-66011673D01*
X104450000Y-66026974D01*
X104434699Y-66011673D01*
X104201310Y-65915000D01*
X103985750Y-65915000D01*
X103827000Y-66073750D01*
X103573000Y-66073750D01*
X103414250Y-65915000D01*
X103198690Y-65915000D01*
X102965301Y-66011673D01*
X102786673Y-66190302D01*
X102690000Y-66423691D01*
X101397440Y-66423691D01*
X101397440Y-66400000D01*
X101353162Y-66164683D01*
X101335000Y-66136458D01*
X101335000Y-64600000D01*
X101286508Y-64356215D01*
X101256215Y-64203922D01*
X101160691Y-64060960D01*
X101031856Y-63868144D01*
X101031853Y-63868142D01*
X100448711Y-63285000D01*
X112352560Y-63285000D01*
X112352560Y-63341049D01*
G36*
X139825000Y-73514700D02*
X139883993Y-73811280D01*
X140051992Y-74062708D01*
X140201358Y-74212074D01*
X140183569Y-74238110D01*
X140132560Y-74490000D01*
X140132560Y-75710000D01*
X140176838Y-75945317D01*
X140213673Y-76002560D01*
X139900000Y-76002560D01*
X139664683Y-76046838D01*
X139448559Y-76185910D01*
X139400866Y-76255711D01*
X139364090Y-76198559D01*
X139151890Y-76053569D01*
X138977868Y-76018329D01*
X139016431Y-75961890D01*
X139067440Y-75710000D01*
X139067440Y-74490000D01*
X139023162Y-74254683D01*
X138884090Y-74038559D01*
X138671890Y-73893569D01*
X138420000Y-73842560D01*
X137510000Y-73842560D01*
X137274683Y-73886838D01*
X137058559Y-74025910D01*
X136913569Y-74238110D01*
X136895973Y-74325000D01*
X133230300Y-74325000D01*
X132933720Y-74383993D01*
X132682292Y-74551992D01*
X132619100Y-74615184D01*
X131478916Y-73475000D01*
X139825000Y-73475000D01*
X139825000Y-73514700D01*
X139825000Y-73514700D01*
G37*
X139825000Y-73514700D02*
X139883993Y-73811280D01*
X140051992Y-74062708D01*
X140201358Y-74212074D01*
X140183569Y-74238110D01*
X140132560Y-74490000D01*
X140132560Y-75710000D01*
X140176838Y-75945317D01*
X140213673Y-76002560D01*
X139900000Y-76002560D01*
X139664683Y-76046838D01*
X139448559Y-76185910D01*
X139400866Y-76255711D01*
X139364090Y-76198559D01*
X139151890Y-76053569D01*
X138977868Y-76018329D01*
X139016431Y-75961890D01*
X139067440Y-75710000D01*
X139067440Y-74490000D01*
X139023162Y-74254683D01*
X138884090Y-74038559D01*
X138671890Y-73893569D01*
X138420000Y-73842560D01*
X137510000Y-73842560D01*
X137274683Y-73886838D01*
X137058559Y-74025910D01*
X136913569Y-74238110D01*
X136895973Y-74325000D01*
X133230300Y-74325000D01*
X132933720Y-74383993D01*
X132682292Y-74551992D01*
X132619100Y-74615184D01*
X131478916Y-73475000D01*
X139825000Y-73475000D01*
X139825000Y-73514700D01*
G36*
X89498110Y-70396431D02*
X89750000Y-70447440D01*
X90650000Y-70447440D01*
X90885317Y-70403162D01*
X91011651Y-70321869D01*
X92017800Y-71328018D01*
X92269228Y-71496017D01*
X92302122Y-71502560D01*
X92565808Y-71555011D01*
X92565813Y-71555010D01*
X94258994Y-71555010D01*
X97175000Y-74471015D01*
X97175000Y-75934700D01*
X94260616Y-75934700D01*
X88773356Y-70447440D01*
X88950000Y-70447440D01*
X89185317Y-70403162D01*
X89351477Y-70296241D01*
X89498110Y-70396431D01*
X89498110Y-70396431D01*
G37*
X89498110Y-70396431D02*
X89750000Y-70447440D01*
X90650000Y-70447440D01*
X90885317Y-70403162D01*
X91011651Y-70321869D01*
X92017800Y-71328018D01*
X92269228Y-71496017D01*
X92302122Y-71502560D01*
X92565808Y-71555011D01*
X92565813Y-71555010D01*
X94258994Y-71555010D01*
X97175000Y-74471015D01*
X97175000Y-75934700D01*
X94260616Y-75934700D01*
X88773356Y-70447440D01*
X88950000Y-70447440D01*
X89185317Y-70403162D01*
X89351477Y-70296241D01*
X89498110Y-70396431D01*
G36*
X97646838Y-70035317D02*
X97785910Y-70251441D01*
X97972461Y-70378906D01*
X97983993Y-70436880D01*
X98151992Y-70688308D01*
X98250200Y-70786516D01*
X98250200Y-72504185D01*
X95925232Y-70179216D01*
X96026441Y-70114090D01*
X96121477Y-69975000D01*
X97635489Y-69975000D01*
X97646838Y-70035317D01*
X97646838Y-70035317D01*
G37*
X97646838Y-70035317D02*
X97785910Y-70251441D01*
X97972461Y-70378906D01*
X97983993Y-70436880D01*
X98151992Y-70688308D01*
X98250200Y-70786516D01*
X98250200Y-72504185D01*
X95925232Y-70179216D01*
X96026441Y-70114090D01*
X96121477Y-69975000D01*
X97635489Y-69975000D01*
X97646838Y-70035317D01*
G36*
X99265000Y-65028711D02*
X99265000Y-65765000D01*
X98985750Y-65765000D01*
X98827000Y-65923750D01*
X98827000Y-66873000D01*
X98847000Y-66873000D01*
X98847000Y-67127000D01*
X98827000Y-67127000D01*
X98827000Y-67147000D01*
X98573000Y-67147000D01*
X98573000Y-67127000D01*
X97773750Y-67127000D01*
X97615000Y-67285750D01*
X97615000Y-67726309D01*
X97711673Y-67959698D01*
X97852910Y-68100936D01*
X97798559Y-68135910D01*
X97653569Y-68348110D01*
X97637998Y-68425000D01*
X96348081Y-68425000D01*
X96211880Y-68333993D01*
X96200174Y-68331664D01*
X96178162Y-68214683D01*
X96111671Y-68111354D01*
X96113327Y-68109698D01*
X96210000Y-67876309D01*
X96210000Y-67435750D01*
X96051250Y-67277000D01*
X95327000Y-67277000D01*
X95327000Y-67297000D01*
X95073000Y-67297000D01*
X95073000Y-67277000D01*
X93827000Y-67277000D01*
X93827000Y-67297000D01*
X93573000Y-67297000D01*
X93573000Y-67277000D01*
X92848750Y-67277000D01*
X92690000Y-67435750D01*
X92690000Y-67876309D01*
X92786673Y-68109698D01*
X92788043Y-68111068D01*
X92728569Y-68198110D01*
X92712998Y-68275000D01*
X92330489Y-68275000D01*
X92313327Y-68257808D01*
X91969799Y-68115162D01*
X91597833Y-68114838D01*
X91254057Y-68256883D01*
X91211276Y-68299590D01*
X91114090Y-68148559D01*
X91044289Y-68100866D01*
X91101441Y-68064090D01*
X91246431Y-67851890D01*
X91297440Y-67600000D01*
X91297440Y-66423691D01*
X92690000Y-66423691D01*
X92690000Y-66864250D01*
X92848750Y-67023000D01*
X93573000Y-67023000D01*
X93573000Y-66073750D01*
X93827000Y-66073750D01*
X93827000Y-67023000D01*
X95073000Y-67023000D01*
X95073000Y-66073750D01*
X95327000Y-66073750D01*
X95327000Y-67023000D01*
X96051250Y-67023000D01*
X96210000Y-66864250D01*
X96210000Y-66423691D01*
X96147868Y-66273691D01*
X97615000Y-66273691D01*
X97615000Y-66714250D01*
X97773750Y-66873000D01*
X98573000Y-66873000D01*
X98573000Y-65923750D01*
X98414250Y-65765000D01*
X98123690Y-65765000D01*
X97890301Y-65861673D01*
X97711673Y-66040302D01*
X97615000Y-66273691D01*
X96147868Y-66273691D01*
X96113327Y-66190302D01*
X95934699Y-66011673D01*
X95701310Y-65915000D01*
X95485750Y-65915000D01*
X95327000Y-66073750D01*
X95073000Y-66073750D01*
X94914250Y-65915000D01*
X94698690Y-65915000D01*
X94465301Y-66011673D01*
X94450000Y-66026974D01*
X94434699Y-66011673D01*
X94201310Y-65915000D01*
X93985750Y-65915000D01*
X93827000Y-66073750D01*
X93573000Y-66073750D01*
X93414250Y-65915000D01*
X93198690Y-65915000D01*
X92965301Y-66011673D01*
X92786673Y-66190302D01*
X92690000Y-66423691D01*
X91297440Y-66423691D01*
X91297440Y-66400000D01*
X91253162Y-66164683D01*
X91235000Y-66136458D01*
X91235000Y-65600005D01*
X91235001Y-65600000D01*
X91156215Y-65203923D01*
X91084104Y-65096001D01*
X90931856Y-64868144D01*
X90931853Y-64868142D01*
X90498711Y-64435000D01*
X98671288Y-64435000D01*
X99265000Y-65028711D01*
X99265000Y-65028711D01*
G37*
X99265000Y-65028711D02*
X99265000Y-65765000D01*
X98985750Y-65765000D01*
X98827000Y-65923750D01*
X98827000Y-66873000D01*
X98847000Y-66873000D01*
X98847000Y-67127000D01*
X98827000Y-67127000D01*
X98827000Y-67147000D01*
X98573000Y-67147000D01*
X98573000Y-67127000D01*
X97773750Y-67127000D01*
X97615000Y-67285750D01*
X97615000Y-67726309D01*
X97711673Y-67959698D01*
X97852910Y-68100936D01*
X97798559Y-68135910D01*
X97653569Y-68348110D01*
X97637998Y-68425000D01*
X96348081Y-68425000D01*
X96211880Y-68333993D01*
X96200174Y-68331664D01*
X96178162Y-68214683D01*
X96111671Y-68111354D01*
X96113327Y-68109698D01*
X96210000Y-67876309D01*
X96210000Y-67435750D01*
X96051250Y-67277000D01*
X95327000Y-67277000D01*
X95327000Y-67297000D01*
X95073000Y-67297000D01*
X95073000Y-67277000D01*
X93827000Y-67277000D01*
X93827000Y-67297000D01*
X93573000Y-67297000D01*
X93573000Y-67277000D01*
X92848750Y-67277000D01*
X92690000Y-67435750D01*
X92690000Y-67876309D01*
X92786673Y-68109698D01*
X92788043Y-68111068D01*
X92728569Y-68198110D01*
X92712998Y-68275000D01*
X92330489Y-68275000D01*
X92313327Y-68257808D01*
X91969799Y-68115162D01*
X91597833Y-68114838D01*
X91254057Y-68256883D01*
X91211276Y-68299590D01*
X91114090Y-68148559D01*
X91044289Y-68100866D01*
X91101441Y-68064090D01*
X91246431Y-67851890D01*
X91297440Y-67600000D01*
X91297440Y-66423691D01*
X92690000Y-66423691D01*
X92690000Y-66864250D01*
X92848750Y-67023000D01*
X93573000Y-67023000D01*
X93573000Y-66073750D01*
X93827000Y-66073750D01*
X93827000Y-67023000D01*
X95073000Y-67023000D01*
X95073000Y-66073750D01*
X95327000Y-66073750D01*
X95327000Y-67023000D01*
X96051250Y-67023000D01*
X96210000Y-66864250D01*
X96210000Y-66423691D01*
X96147868Y-66273691D01*
X97615000Y-66273691D01*
X97615000Y-66714250D01*
X97773750Y-66873000D01*
X98573000Y-66873000D01*
X98573000Y-65923750D01*
X98414250Y-65765000D01*
X98123690Y-65765000D01*
X97890301Y-65861673D01*
X97711673Y-66040302D01*
X97615000Y-66273691D01*
X96147868Y-66273691D01*
X96113327Y-66190302D01*
X95934699Y-66011673D01*
X95701310Y-65915000D01*
X95485750Y-65915000D01*
X95327000Y-66073750D01*
X95073000Y-66073750D01*
X94914250Y-65915000D01*
X94698690Y-65915000D01*
X94465301Y-66011673D01*
X94450000Y-66026974D01*
X94434699Y-66011673D01*
X94201310Y-65915000D01*
X93985750Y-65915000D01*
X93827000Y-66073750D01*
X93573000Y-66073750D01*
X93414250Y-65915000D01*
X93198690Y-65915000D01*
X92965301Y-66011673D01*
X92786673Y-66190302D01*
X92690000Y-66423691D01*
X91297440Y-66423691D01*
X91297440Y-66400000D01*
X91253162Y-66164683D01*
X91235000Y-66136458D01*
X91235000Y-65600005D01*
X91235001Y-65600000D01*
X91156215Y-65203923D01*
X91084104Y-65096001D01*
X90931856Y-64868144D01*
X90931853Y-64868142D01*
X90498711Y-64435000D01*
X98671288Y-64435000D01*
X99265000Y-65028711D01*
M02*
