G04 #@! TF.FileFunction,Copper,L2,Bot,Signal*
%FSLAX46Y46*%
G04 Gerber Fmt 4.6, Leading zero omitted, Abs format (unit mm)*
G04 Created by KiCad (PCBNEW 4.0.5+dfsg1-4) date Thu Mar  2 23:52:06 2017*
%MOMM*%
%LPD*%
G01*
G04 APERTURE LIST*
%ADD10C,0.100000*%
%ADD11O,1.250000X1.250000*%
%ADD12O,1.550000X1.800000*%
%ADD13C,1.397000*%
%ADD14R,1.397000X1.397000*%
%ADD15R,5.000000X5.000000*%
%ADD16C,0.600000*%
%ADD17C,0.280000*%
%ADD18C,0.254000*%
G04 APERTURE END LIST*
D10*
D11*
X53962540Y-79199100D03*
X53962540Y-84199100D03*
D12*
X51262540Y-78199100D03*
X51262540Y-85199100D03*
D13*
X69080000Y-64060960D03*
X66540000Y-63939040D03*
X64000000Y-64060960D03*
X61460000Y-63939040D03*
X58920000Y-64060960D03*
X71620000Y-63939040D03*
X56380000Y-63939040D03*
D14*
X74160000Y-64060960D03*
D13*
X53840000Y-64060960D03*
X61630000Y-94960960D03*
X64170000Y-94839040D03*
X59090000Y-94839040D03*
X66710000Y-94960960D03*
X56550000Y-94960960D03*
X69250000Y-94839040D03*
D14*
X54010000Y-94839040D03*
D13*
X71790000Y-94960960D03*
D14*
X66970000Y-73400000D03*
D13*
X64430000Y-73400000D03*
X64200000Y-70700000D03*
D15*
X99700000Y-80800000D03*
D16*
X67391000Y-83840300D03*
X120030300Y-66385800D03*
X134700000Y-73900000D03*
X118400000Y-87900000D03*
X93800000Y-89000000D03*
X136000000Y-82500000D03*
X123200000Y-73700000D03*
X63400000Y-97600000D03*
X93900000Y-73600000D03*
X88000000Y-83200000D03*
X83700000Y-77000000D03*
X97200000Y-70800000D03*
X77461000Y-93444800D03*
X99100400Y-75816600D03*
X104207200Y-94986800D03*
X91783000Y-69050000D03*
X99930500Y-75900000D03*
X102233000Y-76363800D03*
X103072700Y-84822700D03*
X95428000Y-82740800D03*
X112494000Y-69032300D03*
X101293600Y-76320300D03*
X109516000Y-66674100D03*
X75312800Y-92390100D03*
X77007600Y-82820300D03*
X73937000Y-74990400D03*
X77579800Y-72524600D03*
X121534900Y-79424400D03*
X125159100Y-75800200D03*
D17*
X119678200Y-66033700D02*
X120030300Y-66385800D01*
X95742200Y-66033700D02*
X119678200Y-66033700D01*
X92006900Y-69769000D02*
X95742200Y-66033700D01*
X81462300Y-69769000D02*
X92006900Y-69769000D01*
X67391000Y-83840300D02*
X81462300Y-69769000D01*
X134700000Y-73900000D02*
X123400000Y-73900000D01*
X136000000Y-75200000D02*
X134700000Y-73900000D01*
X118400000Y-87900000D02*
X130600000Y-87900000D01*
X93800000Y-90000000D02*
X101100000Y-97300000D01*
X101100000Y-97300000D02*
X109000000Y-97300000D01*
X109000000Y-97300000D02*
X118400000Y-87900000D01*
X93800000Y-89000000D02*
X93800000Y-90000000D01*
X130600000Y-87900000D02*
X136000000Y-82500000D01*
X136000000Y-82500000D02*
X136000000Y-75200000D01*
X123400000Y-73900000D02*
X123200000Y-73700000D01*
X93800000Y-89000000D02*
X88100000Y-89000000D01*
X88000000Y-83200000D02*
X93800000Y-89000000D01*
X79500000Y-97600000D02*
X63400000Y-97600000D01*
X88100000Y-89000000D02*
X79500000Y-97600000D01*
X93900000Y-73600000D02*
X94400000Y-73600000D01*
X90500000Y-77000000D02*
X93900000Y-73600000D01*
X88000000Y-83200000D02*
X88000000Y-81300000D01*
X88000000Y-81300000D02*
X83700000Y-77000000D01*
X83700000Y-77000000D02*
X90500000Y-77000000D01*
X94400000Y-73600000D02*
X97200000Y-70800000D01*
X52997200Y-78818500D02*
X52377800Y-78199100D01*
X52997200Y-79199100D02*
X52997200Y-78818500D01*
X51262500Y-78199100D02*
X52377800Y-78199100D01*
X53962500Y-79199100D02*
X52997200Y-79199100D01*
X53962500Y-84199100D02*
X53962500Y-79199100D01*
X75944800Y-94961000D02*
X77461000Y-93444800D01*
X71790000Y-94961000D02*
X75944800Y-94961000D01*
X94725200Y-80191800D02*
X99100400Y-75816600D01*
X94725200Y-85504800D02*
X94725200Y-80191800D01*
X104207200Y-94986800D02*
X94725200Y-85504800D01*
X66970000Y-73400000D02*
X68008800Y-73400000D01*
X72358800Y-69050000D02*
X91783000Y-69050000D01*
X68008800Y-73400000D02*
X72358800Y-69050000D01*
X101620600Y-76976200D02*
X102233000Y-76363800D01*
X101006700Y-76976200D02*
X101620600Y-76976200D01*
X99930500Y-75900000D02*
X101006700Y-76976200D01*
X112494000Y-74258700D02*
X103069600Y-83683100D01*
X112494000Y-69032300D02*
X112494000Y-74258700D01*
X103072700Y-83686200D02*
X103069600Y-83683100D01*
X103072700Y-84822700D02*
X103072700Y-83686200D01*
X96370300Y-83683100D02*
X95428000Y-82740800D01*
X103069600Y-83683100D02*
X96370300Y-83683100D01*
X101293600Y-74896500D02*
X109516000Y-66674100D01*
X101293600Y-76320300D02*
X101293600Y-74896500D01*
X64200900Y-92390100D02*
X75312800Y-92390100D01*
X61630000Y-94961000D02*
X64200900Y-92390100D01*
X71108700Y-82820300D02*
X59090000Y-94839000D01*
X77007600Y-82820300D02*
X71108700Y-82820300D01*
X56550000Y-92377400D02*
X73937000Y-74990400D01*
X56550000Y-94961000D02*
X56550000Y-92377400D01*
X75114000Y-74990400D02*
X77579800Y-72524600D01*
X73937000Y-74990400D02*
X75114000Y-74990400D01*
X125159100Y-75800200D02*
X121534900Y-79424400D01*
D18*
G36*
X149290000Y-99290000D02*
X50710000Y-99290000D01*
X50710000Y-94140540D01*
X52664060Y-94140540D01*
X52664060Y-95537540D01*
X52708338Y-95772857D01*
X52847410Y-95988981D01*
X53059610Y-96133971D01*
X53311500Y-96184980D01*
X54708500Y-96184980D01*
X54943817Y-96140702D01*
X55159941Y-96001630D01*
X55304931Y-95789430D01*
X55352470Y-95554677D01*
X55418854Y-95715340D01*
X55793647Y-96090787D01*
X56283587Y-96294228D01*
X56814086Y-96294691D01*
X57304380Y-96092106D01*
X57679827Y-95717313D01*
X57845344Y-95318704D01*
X57958854Y-95593420D01*
X58333647Y-95968867D01*
X58823587Y-96172308D01*
X59354086Y-96172771D01*
X59844380Y-95970186D01*
X60219827Y-95595393D01*
X60334843Y-95318403D01*
X60498854Y-95715340D01*
X60873647Y-96090787D01*
X61363587Y-96294228D01*
X61894086Y-96294691D01*
X62384380Y-96092106D01*
X62759827Y-95717313D01*
X62925344Y-95318704D01*
X63038854Y-95593420D01*
X63413647Y-95968867D01*
X63903587Y-96172308D01*
X64434086Y-96172771D01*
X64924380Y-95970186D01*
X65299827Y-95595393D01*
X65414843Y-95318403D01*
X65578854Y-95715340D01*
X65953647Y-96090787D01*
X66443587Y-96294228D01*
X66974086Y-96294691D01*
X67464380Y-96092106D01*
X67839827Y-95717313D01*
X68005344Y-95318704D01*
X68118854Y-95593420D01*
X68493647Y-95968867D01*
X68983587Y-96172308D01*
X69514086Y-96172771D01*
X70004380Y-95970186D01*
X70079548Y-95895148D01*
X71035417Y-95895148D01*
X71097071Y-96130760D01*
X71597480Y-96306887D01*
X72127199Y-96278108D01*
X72482929Y-96130760D01*
X72544583Y-95895148D01*
X71790000Y-95140565D01*
X71035417Y-95895148D01*
X70079548Y-95895148D01*
X70379827Y-95595393D01*
X70488032Y-95334807D01*
X70620200Y-95653889D01*
X70855812Y-95715543D01*
X71610395Y-94960960D01*
X71969605Y-94960960D01*
X72724188Y-95715543D01*
X72959800Y-95653889D01*
X73135927Y-95153480D01*
X73107148Y-94623761D01*
X72959800Y-94268031D01*
X72724188Y-94206377D01*
X71969605Y-94960960D01*
X71610395Y-94960960D01*
X70855812Y-94206377D01*
X70620200Y-94268031D01*
X70545089Y-94481434D01*
X70381146Y-94084660D01*
X70323359Y-94026772D01*
X71035417Y-94026772D01*
X71790000Y-94781355D01*
X72544583Y-94026772D01*
X72482929Y-93791160D01*
X71982520Y-93615033D01*
X71452801Y-93643812D01*
X71097071Y-93791160D01*
X71035417Y-94026772D01*
X70323359Y-94026772D01*
X70006353Y-93709213D01*
X69516413Y-93505772D01*
X68985914Y-93505309D01*
X68495620Y-93707894D01*
X68120173Y-94082687D01*
X67954656Y-94481296D01*
X67841146Y-94206580D01*
X67466353Y-93831133D01*
X66976413Y-93627692D01*
X66445914Y-93627229D01*
X65955620Y-93829814D01*
X65580173Y-94204607D01*
X65465157Y-94481597D01*
X65301146Y-94084660D01*
X64926353Y-93709213D01*
X64436413Y-93505772D01*
X64181467Y-93505549D01*
X64521916Y-93165100D01*
X74765311Y-93165100D01*
X74782473Y-93182292D01*
X75126001Y-93324938D01*
X75497967Y-93325262D01*
X75841743Y-93183217D01*
X76104992Y-92920427D01*
X76247638Y-92576899D01*
X76247962Y-92204933D01*
X76105917Y-91861157D01*
X75843127Y-91597908D01*
X75499599Y-91455262D01*
X75127633Y-91454938D01*
X74783857Y-91596983D01*
X74765708Y-91615100D01*
X64200905Y-91615100D01*
X64200900Y-91615099D01*
X63953526Y-91664305D01*
X63904320Y-91674093D01*
X63671899Y-91829392D01*
X63652892Y-91842092D01*
X61867317Y-93627667D01*
X61397759Y-93627257D01*
X71429715Y-83595300D01*
X76460111Y-83595300D01*
X76477273Y-83612492D01*
X76820801Y-83755138D01*
X77192767Y-83755462D01*
X77536543Y-83613417D01*
X77799792Y-83350627D01*
X77942438Y-83007099D01*
X77942762Y-82635133D01*
X77800717Y-82291357D01*
X77537927Y-82028108D01*
X77194399Y-81885462D01*
X76822433Y-81885138D01*
X76478657Y-82027183D01*
X76460508Y-82045300D01*
X71108705Y-82045300D01*
X71108700Y-82045299D01*
X70861326Y-82094505D01*
X70812120Y-82104293D01*
X70560692Y-82272292D01*
X70560690Y-82272295D01*
X59327238Y-93505747D01*
X58825914Y-93505309D01*
X58335620Y-93707894D01*
X57960173Y-94082687D01*
X57794656Y-94481296D01*
X57681146Y-94206580D01*
X57325000Y-93849813D01*
X57325000Y-92698416D01*
X66517406Y-83506010D01*
X66456162Y-83653501D01*
X66455838Y-84025467D01*
X66597883Y-84369243D01*
X66860673Y-84632492D01*
X67204201Y-84775138D01*
X67576167Y-84775462D01*
X67919943Y-84633417D01*
X68183192Y-84370627D01*
X68325838Y-84027099D01*
X68325860Y-84001456D01*
X81783316Y-70544000D01*
X92006900Y-70544000D01*
X92303480Y-70485007D01*
X92554908Y-70317008D01*
X96063216Y-66808700D01*
X108285385Y-66808700D01*
X100745592Y-74348492D01*
X100577593Y-74599920D01*
X100518600Y-74896500D01*
X100518600Y-75165682D01*
X100460827Y-75107808D01*
X100117299Y-74965162D01*
X99745333Y-74964838D01*
X99615981Y-75018285D01*
X99287199Y-74881762D01*
X98915233Y-74881438D01*
X98571457Y-75023483D01*
X98308208Y-75286273D01*
X98165562Y-75629801D01*
X98165540Y-75655444D01*
X94177192Y-79643792D01*
X94009193Y-79895220D01*
X93950200Y-80191800D01*
X93950200Y-85504800D01*
X94009193Y-85801380D01*
X94177192Y-86052808D01*
X103272059Y-95147675D01*
X103272038Y-95171967D01*
X103414083Y-95515743D01*
X103676873Y-95778992D01*
X104020401Y-95921638D01*
X104392367Y-95921962D01*
X104736143Y-95779917D01*
X104999392Y-95517127D01*
X105142038Y-95173599D01*
X105142362Y-94801633D01*
X105000317Y-94457857D01*
X104737527Y-94194608D01*
X104393999Y-94051962D01*
X104368356Y-94051940D01*
X95500200Y-85183784D01*
X95500200Y-83909015D01*
X95822290Y-84231105D01*
X95822292Y-84231108D01*
X96073720Y-84399107D01*
X96370300Y-84458100D01*
X102211692Y-84458100D01*
X102137862Y-84635901D01*
X102137538Y-85007867D01*
X102279583Y-85351643D01*
X102542373Y-85614892D01*
X102885901Y-85757538D01*
X103257867Y-85757862D01*
X103601643Y-85615817D01*
X103864892Y-85353027D01*
X104007538Y-85009499D01*
X104007862Y-84637533D01*
X103865817Y-84293757D01*
X103847700Y-84275608D01*
X103847700Y-84001016D01*
X108239149Y-79609567D01*
X120599738Y-79609567D01*
X120741783Y-79953343D01*
X121004573Y-80216592D01*
X121348101Y-80359238D01*
X121720067Y-80359562D01*
X122063843Y-80217517D01*
X122327092Y-79954727D01*
X122469738Y-79611199D01*
X122469760Y-79585556D01*
X125319975Y-76735341D01*
X125344267Y-76735362D01*
X125688043Y-76593317D01*
X125951292Y-76330527D01*
X126093938Y-75986999D01*
X126094262Y-75615033D01*
X125952217Y-75271257D01*
X125689427Y-75008008D01*
X125345899Y-74865362D01*
X124973933Y-74865038D01*
X124630157Y-75007083D01*
X124366908Y-75269873D01*
X124224262Y-75613401D01*
X124224240Y-75639044D01*
X121374025Y-78489259D01*
X121349733Y-78489238D01*
X121005957Y-78631283D01*
X120742708Y-78894073D01*
X120600062Y-79237601D01*
X120599738Y-79609567D01*
X108239149Y-79609567D01*
X113042008Y-74806708D01*
X113210007Y-74555280D01*
X113269000Y-74258700D01*
X113269000Y-69579789D01*
X113286192Y-69562627D01*
X113428838Y-69219099D01*
X113429162Y-68847133D01*
X113287117Y-68503357D01*
X113024327Y-68240108D01*
X112680799Y-68097462D01*
X112308833Y-68097138D01*
X111965057Y-68239183D01*
X111701808Y-68501973D01*
X111559162Y-68845501D01*
X111558838Y-69217467D01*
X111700883Y-69561243D01*
X111719000Y-69579392D01*
X111719000Y-73937684D01*
X102847440Y-82809244D01*
X102847440Y-78300000D01*
X102803162Y-78064683D01*
X102664090Y-77848559D01*
X102451890Y-77703569D01*
X102200000Y-77652560D01*
X101976516Y-77652560D01*
X102168608Y-77524208D01*
X102393875Y-77298941D01*
X102418167Y-77298962D01*
X102761943Y-77156917D01*
X103025192Y-76894127D01*
X103167838Y-76550599D01*
X103168162Y-76178633D01*
X103026117Y-75834857D01*
X102763327Y-75571608D01*
X102419799Y-75428962D01*
X102068600Y-75428656D01*
X102068600Y-75217516D01*
X109676874Y-67609241D01*
X109701167Y-67609262D01*
X110044943Y-67467217D01*
X110308192Y-67204427D01*
X110450838Y-66860899D01*
X110450883Y-66808700D01*
X119193367Y-66808700D01*
X119237183Y-66914743D01*
X119499973Y-67177992D01*
X119843501Y-67320638D01*
X120215467Y-67320962D01*
X120559243Y-67178917D01*
X120822492Y-66916127D01*
X120965138Y-66572599D01*
X120965462Y-66200633D01*
X120823417Y-65856857D01*
X120560627Y-65593608D01*
X120217099Y-65450962D01*
X120174175Y-65450925D01*
X119974780Y-65317693D01*
X119678200Y-65258700D01*
X95742200Y-65258700D01*
X95445620Y-65317693D01*
X95194192Y-65485692D01*
X92367654Y-68312230D01*
X92313327Y-68257808D01*
X91969799Y-68115162D01*
X91597833Y-68114838D01*
X91254057Y-68256883D01*
X91235908Y-68275000D01*
X72358800Y-68275000D01*
X72062220Y-68333993D01*
X71810792Y-68501992D01*
X68091084Y-72221700D01*
X67920390Y-72105069D01*
X67668500Y-72054060D01*
X66271500Y-72054060D01*
X66036183Y-72098338D01*
X65820059Y-72237410D01*
X65675069Y-72449610D01*
X65624060Y-72701500D01*
X65624060Y-72765640D01*
X65599800Y-72707071D01*
X65364188Y-72645417D01*
X64609605Y-73400000D01*
X65364188Y-74154583D01*
X65599800Y-74092929D01*
X65624060Y-74024002D01*
X65624060Y-74098500D01*
X65668338Y-74333817D01*
X65807410Y-74549941D01*
X66019610Y-74694931D01*
X66271500Y-74745940D01*
X67668500Y-74745940D01*
X67903817Y-74701662D01*
X68119941Y-74562590D01*
X68264931Y-74350390D01*
X68313492Y-74110586D01*
X68556808Y-73948008D01*
X72679816Y-69825000D01*
X80310284Y-69825000D01*
X78256374Y-71878910D01*
X78110127Y-71732408D01*
X77766599Y-71589762D01*
X77394633Y-71589438D01*
X77050857Y-71731483D01*
X76787608Y-71994273D01*
X76644962Y-72337801D01*
X76644940Y-72363444D01*
X74792984Y-74215400D01*
X74484489Y-74215400D01*
X74467327Y-74198208D01*
X74123799Y-74055562D01*
X73751833Y-74055238D01*
X73408057Y-74197283D01*
X73144808Y-74460073D01*
X73002162Y-74803601D01*
X73002140Y-74829244D01*
X56001992Y-91829392D01*
X55833993Y-92080820D01*
X55775000Y-92377400D01*
X55775000Y-93850398D01*
X55420173Y-94204607D01*
X55355940Y-94359297D01*
X55355940Y-94140540D01*
X55311662Y-93905223D01*
X55172590Y-93689099D01*
X54960390Y-93544109D01*
X54708500Y-93493100D01*
X53311500Y-93493100D01*
X53076183Y-93537378D01*
X52860059Y-93676450D01*
X52715069Y-93888650D01*
X52664060Y-94140540D01*
X50710000Y-94140540D01*
X50710000Y-86594256D01*
X50917428Y-86691213D01*
X51135540Y-86568888D01*
X51135540Y-85326100D01*
X51389540Y-85326100D01*
X51389540Y-86568888D01*
X51607652Y-86691213D01*
X52089646Y-86465917D01*
X52463641Y-86062481D01*
X52654779Y-85546634D01*
X52513700Y-85326100D01*
X51389540Y-85326100D01*
X51135540Y-85326100D01*
X51115540Y-85326100D01*
X51115540Y-85072100D01*
X51135540Y-85072100D01*
X51135540Y-83829312D01*
X51389540Y-83829312D01*
X51389540Y-85072100D01*
X52513700Y-85072100D01*
X52654779Y-84851566D01*
X52532161Y-84520640D01*
X52744258Y-84520640D01*
X52873712Y-84833199D01*
X53199253Y-85201608D01*
X53640998Y-85417394D01*
X53835540Y-85293945D01*
X53835540Y-84326100D01*
X54089540Y-84326100D01*
X54089540Y-85293945D01*
X54284082Y-85417394D01*
X54725827Y-85201608D01*
X55051368Y-84833199D01*
X55180822Y-84520640D01*
X55056442Y-84326100D01*
X54089540Y-84326100D01*
X53835540Y-84326100D01*
X52868638Y-84326100D01*
X52744258Y-84520640D01*
X52532161Y-84520640D01*
X52463641Y-84335719D01*
X52089646Y-83932283D01*
X51972573Y-83877560D01*
X52744258Y-83877560D01*
X52868638Y-84072100D01*
X53835540Y-84072100D01*
X53835540Y-83104255D01*
X54089540Y-83104255D01*
X54089540Y-84072100D01*
X55056442Y-84072100D01*
X55180822Y-83877560D01*
X55051368Y-83565001D01*
X54725827Y-83196592D01*
X54284082Y-82980806D01*
X54089540Y-83104255D01*
X53835540Y-83104255D01*
X53640998Y-82980806D01*
X53199253Y-83196592D01*
X52873712Y-83565001D01*
X52744258Y-83877560D01*
X51972573Y-83877560D01*
X51607652Y-83706987D01*
X51389540Y-83829312D01*
X51135540Y-83829312D01*
X50917428Y-83706987D01*
X50710000Y-83803944D01*
X50710000Y-79594256D01*
X50917428Y-79691213D01*
X51135540Y-79568888D01*
X51135540Y-78326100D01*
X51389540Y-78326100D01*
X51389540Y-79568888D01*
X51607652Y-79691213D01*
X51972572Y-79520640D01*
X52744258Y-79520640D01*
X52873712Y-79833199D01*
X53199253Y-80201608D01*
X53640998Y-80417394D01*
X53835540Y-80293945D01*
X53835540Y-79326100D01*
X54089540Y-79326100D01*
X54089540Y-80293945D01*
X54284082Y-80417394D01*
X54725827Y-80201608D01*
X55051368Y-79833199D01*
X55180822Y-79520640D01*
X55056442Y-79326100D01*
X54089540Y-79326100D01*
X53835540Y-79326100D01*
X52868638Y-79326100D01*
X52744258Y-79520640D01*
X51972572Y-79520640D01*
X52089646Y-79465917D01*
X52463641Y-79062481D01*
X52532160Y-78877560D01*
X52744258Y-78877560D01*
X52868638Y-79072100D01*
X53835540Y-79072100D01*
X53835540Y-78104255D01*
X54089540Y-78104255D01*
X54089540Y-79072100D01*
X55056442Y-79072100D01*
X55180822Y-78877560D01*
X55051368Y-78565001D01*
X54725827Y-78196592D01*
X54284082Y-77980806D01*
X54089540Y-78104255D01*
X53835540Y-78104255D01*
X53640998Y-77980806D01*
X53199253Y-78196592D01*
X52873712Y-78565001D01*
X52744258Y-78877560D01*
X52532160Y-78877560D01*
X52654779Y-78546634D01*
X52513700Y-78326100D01*
X51389540Y-78326100D01*
X51135540Y-78326100D01*
X51115540Y-78326100D01*
X51115540Y-78072100D01*
X51135540Y-78072100D01*
X51135540Y-76829312D01*
X51389540Y-76829312D01*
X51389540Y-78072100D01*
X52513700Y-78072100D01*
X52654779Y-77851566D01*
X52463641Y-77335719D01*
X52089646Y-76932283D01*
X51607652Y-76706987D01*
X51389540Y-76829312D01*
X51135540Y-76829312D01*
X50917428Y-76706987D01*
X50710000Y-76803944D01*
X50710000Y-74334188D01*
X63675417Y-74334188D01*
X63737071Y-74569800D01*
X64237480Y-74745927D01*
X64767199Y-74717148D01*
X65122929Y-74569800D01*
X65184583Y-74334188D01*
X64430000Y-73579605D01*
X63675417Y-74334188D01*
X50710000Y-74334188D01*
X50710000Y-73207480D01*
X63084073Y-73207480D01*
X63112852Y-73737199D01*
X63260200Y-74092929D01*
X63495812Y-74154583D01*
X64250395Y-73400000D01*
X63495812Y-72645417D01*
X63260200Y-72707071D01*
X63084073Y-73207480D01*
X50710000Y-73207480D01*
X50710000Y-72465812D01*
X63675417Y-72465812D01*
X64430000Y-73220395D01*
X65184583Y-72465812D01*
X65122929Y-72230200D01*
X64622520Y-72054073D01*
X64092801Y-72082852D01*
X63737071Y-72230200D01*
X63675417Y-72465812D01*
X50710000Y-72465812D01*
X50710000Y-70964086D01*
X62866269Y-70964086D01*
X63068854Y-71454380D01*
X63443647Y-71829827D01*
X63933587Y-72033268D01*
X64464086Y-72033731D01*
X64954380Y-71831146D01*
X65329827Y-71456353D01*
X65533268Y-70966413D01*
X65533731Y-70435914D01*
X65331146Y-69945620D01*
X64956353Y-69570173D01*
X64466413Y-69366732D01*
X63935914Y-69366269D01*
X63445620Y-69568854D01*
X63070173Y-69943647D01*
X62866732Y-70433587D01*
X62866269Y-70964086D01*
X50710000Y-70964086D01*
X50710000Y-64995148D01*
X53085417Y-64995148D01*
X53147071Y-65230760D01*
X53647480Y-65406887D01*
X54177199Y-65378108D01*
X54532929Y-65230760D01*
X54594583Y-64995148D01*
X54472663Y-64873228D01*
X55625417Y-64873228D01*
X55687071Y-65108840D01*
X56187480Y-65284967D01*
X56717199Y-65256188D01*
X57072929Y-65108840D01*
X57102679Y-64995148D01*
X58165417Y-64995148D01*
X58227071Y-65230760D01*
X58727480Y-65406887D01*
X59257199Y-65378108D01*
X59612929Y-65230760D01*
X59674583Y-64995148D01*
X58920000Y-64240565D01*
X58165417Y-64995148D01*
X57102679Y-64995148D01*
X57134583Y-64873228D01*
X56380000Y-64118645D01*
X55625417Y-64873228D01*
X54472663Y-64873228D01*
X53840000Y-64240565D01*
X53085417Y-64995148D01*
X50710000Y-64995148D01*
X50710000Y-63868440D01*
X52494073Y-63868440D01*
X52522852Y-64398159D01*
X52670200Y-64753889D01*
X52905812Y-64815543D01*
X53660395Y-64060960D01*
X54019605Y-64060960D01*
X54774188Y-64815543D01*
X55009800Y-64753889D01*
X55125058Y-64426419D01*
X55210200Y-64631969D01*
X55445812Y-64693623D01*
X56200395Y-63939040D01*
X56559605Y-63939040D01*
X57314188Y-64693623D01*
X57549800Y-64631969D01*
X57618660Y-64436324D01*
X57750200Y-64753889D01*
X57985812Y-64815543D01*
X58740395Y-64060960D01*
X59099605Y-64060960D01*
X59854188Y-64815543D01*
X60089800Y-64753889D01*
X60211256Y-64408810D01*
X60328854Y-64693420D01*
X60703647Y-65068867D01*
X61193587Y-65272308D01*
X61724086Y-65272771D01*
X62214380Y-65070186D01*
X62589827Y-64695393D01*
X62704843Y-64418403D01*
X62868854Y-64815340D01*
X63243647Y-65190787D01*
X63733587Y-65394228D01*
X64264086Y-65394691D01*
X64754380Y-65192106D01*
X65129827Y-64817313D01*
X65295344Y-64418704D01*
X65408854Y-64693420D01*
X65783647Y-65068867D01*
X66273587Y-65272308D01*
X66804086Y-65272771D01*
X67294380Y-65070186D01*
X67669827Y-64695393D01*
X67784843Y-64418403D01*
X67948854Y-64815340D01*
X68323647Y-65190787D01*
X68813587Y-65394228D01*
X69344086Y-65394691D01*
X69834380Y-65192106D01*
X70209827Y-64817313D01*
X70375344Y-64418704D01*
X70488854Y-64693420D01*
X70863647Y-65068867D01*
X71353587Y-65272308D01*
X71884086Y-65272771D01*
X72374380Y-65070186D01*
X72749827Y-64695393D01*
X72814060Y-64540703D01*
X72814060Y-64759460D01*
X72858338Y-64994777D01*
X72997410Y-65210901D01*
X73209610Y-65355891D01*
X73461500Y-65406900D01*
X74858500Y-65406900D01*
X75093817Y-65362622D01*
X75309941Y-65223550D01*
X75454931Y-65011350D01*
X75505940Y-64759460D01*
X75505940Y-63362460D01*
X75461662Y-63127143D01*
X75322590Y-62911019D01*
X75110390Y-62766029D01*
X74858500Y-62715020D01*
X73461500Y-62715020D01*
X73226183Y-62759298D01*
X73010059Y-62898370D01*
X72865069Y-63110570D01*
X72817530Y-63345323D01*
X72751146Y-63184660D01*
X72376353Y-62809213D01*
X71886413Y-62605772D01*
X71355914Y-62605309D01*
X70865620Y-62807894D01*
X70490173Y-63182687D01*
X70324656Y-63581296D01*
X70211146Y-63306580D01*
X69836353Y-62931133D01*
X69346413Y-62727692D01*
X68815914Y-62727229D01*
X68325620Y-62929814D01*
X67950173Y-63304607D01*
X67835157Y-63581597D01*
X67671146Y-63184660D01*
X67296353Y-62809213D01*
X66806413Y-62605772D01*
X66275914Y-62605309D01*
X65785620Y-62807894D01*
X65410173Y-63182687D01*
X65244656Y-63581296D01*
X65131146Y-63306580D01*
X64756353Y-62931133D01*
X64266413Y-62727692D01*
X63735914Y-62727229D01*
X63245620Y-62929814D01*
X62870173Y-63304607D01*
X62755157Y-63581597D01*
X62591146Y-63184660D01*
X62216353Y-62809213D01*
X61726413Y-62605772D01*
X61195914Y-62605309D01*
X60705620Y-62807894D01*
X60330173Y-63182687D01*
X60171405Y-63565043D01*
X60089800Y-63368031D01*
X59854188Y-63306377D01*
X59099605Y-64060960D01*
X58740395Y-64060960D01*
X57985812Y-63306377D01*
X57750200Y-63368031D01*
X57681340Y-63563676D01*
X57549800Y-63246111D01*
X57314188Y-63184457D01*
X56559605Y-63939040D01*
X56200395Y-63939040D01*
X55445812Y-63184457D01*
X55210200Y-63246111D01*
X55094942Y-63573581D01*
X55009800Y-63368031D01*
X54774188Y-63306377D01*
X54019605Y-64060960D01*
X53660395Y-64060960D01*
X52905812Y-63306377D01*
X52670200Y-63368031D01*
X52494073Y-63868440D01*
X50710000Y-63868440D01*
X50710000Y-63126772D01*
X53085417Y-63126772D01*
X53840000Y-63881355D01*
X54594583Y-63126772D01*
X54562680Y-63004852D01*
X55625417Y-63004852D01*
X56380000Y-63759435D01*
X57012663Y-63126772D01*
X58165417Y-63126772D01*
X58920000Y-63881355D01*
X59674583Y-63126772D01*
X59612929Y-62891160D01*
X59112520Y-62715033D01*
X58582801Y-62743812D01*
X58227071Y-62891160D01*
X58165417Y-63126772D01*
X57012663Y-63126772D01*
X57134583Y-63004852D01*
X57072929Y-62769240D01*
X56572520Y-62593113D01*
X56042801Y-62621892D01*
X55687071Y-62769240D01*
X55625417Y-63004852D01*
X54562680Y-63004852D01*
X54532929Y-62891160D01*
X54032520Y-62715033D01*
X53502801Y-62743812D01*
X53147071Y-62891160D01*
X53085417Y-63126772D01*
X50710000Y-63126772D01*
X50710000Y-60710000D01*
X149290000Y-60710000D01*
X149290000Y-99290000D01*
X149290000Y-99290000D01*
G37*
X149290000Y-99290000D02*
X50710000Y-99290000D01*
X50710000Y-94140540D01*
X52664060Y-94140540D01*
X52664060Y-95537540D01*
X52708338Y-95772857D01*
X52847410Y-95988981D01*
X53059610Y-96133971D01*
X53311500Y-96184980D01*
X54708500Y-96184980D01*
X54943817Y-96140702D01*
X55159941Y-96001630D01*
X55304931Y-95789430D01*
X55352470Y-95554677D01*
X55418854Y-95715340D01*
X55793647Y-96090787D01*
X56283587Y-96294228D01*
X56814086Y-96294691D01*
X57304380Y-96092106D01*
X57679827Y-95717313D01*
X57845344Y-95318704D01*
X57958854Y-95593420D01*
X58333647Y-95968867D01*
X58823587Y-96172308D01*
X59354086Y-96172771D01*
X59844380Y-95970186D01*
X60219827Y-95595393D01*
X60334843Y-95318403D01*
X60498854Y-95715340D01*
X60873647Y-96090787D01*
X61363587Y-96294228D01*
X61894086Y-96294691D01*
X62384380Y-96092106D01*
X62759827Y-95717313D01*
X62925344Y-95318704D01*
X63038854Y-95593420D01*
X63413647Y-95968867D01*
X63903587Y-96172308D01*
X64434086Y-96172771D01*
X64924380Y-95970186D01*
X65299827Y-95595393D01*
X65414843Y-95318403D01*
X65578854Y-95715340D01*
X65953647Y-96090787D01*
X66443587Y-96294228D01*
X66974086Y-96294691D01*
X67464380Y-96092106D01*
X67839827Y-95717313D01*
X68005344Y-95318704D01*
X68118854Y-95593420D01*
X68493647Y-95968867D01*
X68983587Y-96172308D01*
X69514086Y-96172771D01*
X70004380Y-95970186D01*
X70079548Y-95895148D01*
X71035417Y-95895148D01*
X71097071Y-96130760D01*
X71597480Y-96306887D01*
X72127199Y-96278108D01*
X72482929Y-96130760D01*
X72544583Y-95895148D01*
X71790000Y-95140565D01*
X71035417Y-95895148D01*
X70079548Y-95895148D01*
X70379827Y-95595393D01*
X70488032Y-95334807D01*
X70620200Y-95653889D01*
X70855812Y-95715543D01*
X71610395Y-94960960D01*
X71969605Y-94960960D01*
X72724188Y-95715543D01*
X72959800Y-95653889D01*
X73135927Y-95153480D01*
X73107148Y-94623761D01*
X72959800Y-94268031D01*
X72724188Y-94206377D01*
X71969605Y-94960960D01*
X71610395Y-94960960D01*
X70855812Y-94206377D01*
X70620200Y-94268031D01*
X70545089Y-94481434D01*
X70381146Y-94084660D01*
X70323359Y-94026772D01*
X71035417Y-94026772D01*
X71790000Y-94781355D01*
X72544583Y-94026772D01*
X72482929Y-93791160D01*
X71982520Y-93615033D01*
X71452801Y-93643812D01*
X71097071Y-93791160D01*
X71035417Y-94026772D01*
X70323359Y-94026772D01*
X70006353Y-93709213D01*
X69516413Y-93505772D01*
X68985914Y-93505309D01*
X68495620Y-93707894D01*
X68120173Y-94082687D01*
X67954656Y-94481296D01*
X67841146Y-94206580D01*
X67466353Y-93831133D01*
X66976413Y-93627692D01*
X66445914Y-93627229D01*
X65955620Y-93829814D01*
X65580173Y-94204607D01*
X65465157Y-94481597D01*
X65301146Y-94084660D01*
X64926353Y-93709213D01*
X64436413Y-93505772D01*
X64181467Y-93505549D01*
X64521916Y-93165100D01*
X74765311Y-93165100D01*
X74782473Y-93182292D01*
X75126001Y-93324938D01*
X75497967Y-93325262D01*
X75841743Y-93183217D01*
X76104992Y-92920427D01*
X76247638Y-92576899D01*
X76247962Y-92204933D01*
X76105917Y-91861157D01*
X75843127Y-91597908D01*
X75499599Y-91455262D01*
X75127633Y-91454938D01*
X74783857Y-91596983D01*
X74765708Y-91615100D01*
X64200905Y-91615100D01*
X64200900Y-91615099D01*
X63953526Y-91664305D01*
X63904320Y-91674093D01*
X63671899Y-91829392D01*
X63652892Y-91842092D01*
X61867317Y-93627667D01*
X61397759Y-93627257D01*
X71429715Y-83595300D01*
X76460111Y-83595300D01*
X76477273Y-83612492D01*
X76820801Y-83755138D01*
X77192767Y-83755462D01*
X77536543Y-83613417D01*
X77799792Y-83350627D01*
X77942438Y-83007099D01*
X77942762Y-82635133D01*
X77800717Y-82291357D01*
X77537927Y-82028108D01*
X77194399Y-81885462D01*
X76822433Y-81885138D01*
X76478657Y-82027183D01*
X76460508Y-82045300D01*
X71108705Y-82045300D01*
X71108700Y-82045299D01*
X70861326Y-82094505D01*
X70812120Y-82104293D01*
X70560692Y-82272292D01*
X70560690Y-82272295D01*
X59327238Y-93505747D01*
X58825914Y-93505309D01*
X58335620Y-93707894D01*
X57960173Y-94082687D01*
X57794656Y-94481296D01*
X57681146Y-94206580D01*
X57325000Y-93849813D01*
X57325000Y-92698416D01*
X66517406Y-83506010D01*
X66456162Y-83653501D01*
X66455838Y-84025467D01*
X66597883Y-84369243D01*
X66860673Y-84632492D01*
X67204201Y-84775138D01*
X67576167Y-84775462D01*
X67919943Y-84633417D01*
X68183192Y-84370627D01*
X68325838Y-84027099D01*
X68325860Y-84001456D01*
X81783316Y-70544000D01*
X92006900Y-70544000D01*
X92303480Y-70485007D01*
X92554908Y-70317008D01*
X96063216Y-66808700D01*
X108285385Y-66808700D01*
X100745592Y-74348492D01*
X100577593Y-74599920D01*
X100518600Y-74896500D01*
X100518600Y-75165682D01*
X100460827Y-75107808D01*
X100117299Y-74965162D01*
X99745333Y-74964838D01*
X99615981Y-75018285D01*
X99287199Y-74881762D01*
X98915233Y-74881438D01*
X98571457Y-75023483D01*
X98308208Y-75286273D01*
X98165562Y-75629801D01*
X98165540Y-75655444D01*
X94177192Y-79643792D01*
X94009193Y-79895220D01*
X93950200Y-80191800D01*
X93950200Y-85504800D01*
X94009193Y-85801380D01*
X94177192Y-86052808D01*
X103272059Y-95147675D01*
X103272038Y-95171967D01*
X103414083Y-95515743D01*
X103676873Y-95778992D01*
X104020401Y-95921638D01*
X104392367Y-95921962D01*
X104736143Y-95779917D01*
X104999392Y-95517127D01*
X105142038Y-95173599D01*
X105142362Y-94801633D01*
X105000317Y-94457857D01*
X104737527Y-94194608D01*
X104393999Y-94051962D01*
X104368356Y-94051940D01*
X95500200Y-85183784D01*
X95500200Y-83909015D01*
X95822290Y-84231105D01*
X95822292Y-84231108D01*
X96073720Y-84399107D01*
X96370300Y-84458100D01*
X102211692Y-84458100D01*
X102137862Y-84635901D01*
X102137538Y-85007867D01*
X102279583Y-85351643D01*
X102542373Y-85614892D01*
X102885901Y-85757538D01*
X103257867Y-85757862D01*
X103601643Y-85615817D01*
X103864892Y-85353027D01*
X104007538Y-85009499D01*
X104007862Y-84637533D01*
X103865817Y-84293757D01*
X103847700Y-84275608D01*
X103847700Y-84001016D01*
X108239149Y-79609567D01*
X120599738Y-79609567D01*
X120741783Y-79953343D01*
X121004573Y-80216592D01*
X121348101Y-80359238D01*
X121720067Y-80359562D01*
X122063843Y-80217517D01*
X122327092Y-79954727D01*
X122469738Y-79611199D01*
X122469760Y-79585556D01*
X125319975Y-76735341D01*
X125344267Y-76735362D01*
X125688043Y-76593317D01*
X125951292Y-76330527D01*
X126093938Y-75986999D01*
X126094262Y-75615033D01*
X125952217Y-75271257D01*
X125689427Y-75008008D01*
X125345899Y-74865362D01*
X124973933Y-74865038D01*
X124630157Y-75007083D01*
X124366908Y-75269873D01*
X124224262Y-75613401D01*
X124224240Y-75639044D01*
X121374025Y-78489259D01*
X121349733Y-78489238D01*
X121005957Y-78631283D01*
X120742708Y-78894073D01*
X120600062Y-79237601D01*
X120599738Y-79609567D01*
X108239149Y-79609567D01*
X113042008Y-74806708D01*
X113210007Y-74555280D01*
X113269000Y-74258700D01*
X113269000Y-69579789D01*
X113286192Y-69562627D01*
X113428838Y-69219099D01*
X113429162Y-68847133D01*
X113287117Y-68503357D01*
X113024327Y-68240108D01*
X112680799Y-68097462D01*
X112308833Y-68097138D01*
X111965057Y-68239183D01*
X111701808Y-68501973D01*
X111559162Y-68845501D01*
X111558838Y-69217467D01*
X111700883Y-69561243D01*
X111719000Y-69579392D01*
X111719000Y-73937684D01*
X102847440Y-82809244D01*
X102847440Y-78300000D01*
X102803162Y-78064683D01*
X102664090Y-77848559D01*
X102451890Y-77703569D01*
X102200000Y-77652560D01*
X101976516Y-77652560D01*
X102168608Y-77524208D01*
X102393875Y-77298941D01*
X102418167Y-77298962D01*
X102761943Y-77156917D01*
X103025192Y-76894127D01*
X103167838Y-76550599D01*
X103168162Y-76178633D01*
X103026117Y-75834857D01*
X102763327Y-75571608D01*
X102419799Y-75428962D01*
X102068600Y-75428656D01*
X102068600Y-75217516D01*
X109676874Y-67609241D01*
X109701167Y-67609262D01*
X110044943Y-67467217D01*
X110308192Y-67204427D01*
X110450838Y-66860899D01*
X110450883Y-66808700D01*
X119193367Y-66808700D01*
X119237183Y-66914743D01*
X119499973Y-67177992D01*
X119843501Y-67320638D01*
X120215467Y-67320962D01*
X120559243Y-67178917D01*
X120822492Y-66916127D01*
X120965138Y-66572599D01*
X120965462Y-66200633D01*
X120823417Y-65856857D01*
X120560627Y-65593608D01*
X120217099Y-65450962D01*
X120174175Y-65450925D01*
X119974780Y-65317693D01*
X119678200Y-65258700D01*
X95742200Y-65258700D01*
X95445620Y-65317693D01*
X95194192Y-65485692D01*
X92367654Y-68312230D01*
X92313327Y-68257808D01*
X91969799Y-68115162D01*
X91597833Y-68114838D01*
X91254057Y-68256883D01*
X91235908Y-68275000D01*
X72358800Y-68275000D01*
X72062220Y-68333993D01*
X71810792Y-68501992D01*
X68091084Y-72221700D01*
X67920390Y-72105069D01*
X67668500Y-72054060D01*
X66271500Y-72054060D01*
X66036183Y-72098338D01*
X65820059Y-72237410D01*
X65675069Y-72449610D01*
X65624060Y-72701500D01*
X65624060Y-72765640D01*
X65599800Y-72707071D01*
X65364188Y-72645417D01*
X64609605Y-73400000D01*
X65364188Y-74154583D01*
X65599800Y-74092929D01*
X65624060Y-74024002D01*
X65624060Y-74098500D01*
X65668338Y-74333817D01*
X65807410Y-74549941D01*
X66019610Y-74694931D01*
X66271500Y-74745940D01*
X67668500Y-74745940D01*
X67903817Y-74701662D01*
X68119941Y-74562590D01*
X68264931Y-74350390D01*
X68313492Y-74110586D01*
X68556808Y-73948008D01*
X72679816Y-69825000D01*
X80310284Y-69825000D01*
X78256374Y-71878910D01*
X78110127Y-71732408D01*
X77766599Y-71589762D01*
X77394633Y-71589438D01*
X77050857Y-71731483D01*
X76787608Y-71994273D01*
X76644962Y-72337801D01*
X76644940Y-72363444D01*
X74792984Y-74215400D01*
X74484489Y-74215400D01*
X74467327Y-74198208D01*
X74123799Y-74055562D01*
X73751833Y-74055238D01*
X73408057Y-74197283D01*
X73144808Y-74460073D01*
X73002162Y-74803601D01*
X73002140Y-74829244D01*
X56001992Y-91829392D01*
X55833993Y-92080820D01*
X55775000Y-92377400D01*
X55775000Y-93850398D01*
X55420173Y-94204607D01*
X55355940Y-94359297D01*
X55355940Y-94140540D01*
X55311662Y-93905223D01*
X55172590Y-93689099D01*
X54960390Y-93544109D01*
X54708500Y-93493100D01*
X53311500Y-93493100D01*
X53076183Y-93537378D01*
X52860059Y-93676450D01*
X52715069Y-93888650D01*
X52664060Y-94140540D01*
X50710000Y-94140540D01*
X50710000Y-86594256D01*
X50917428Y-86691213D01*
X51135540Y-86568888D01*
X51135540Y-85326100D01*
X51389540Y-85326100D01*
X51389540Y-86568888D01*
X51607652Y-86691213D01*
X52089646Y-86465917D01*
X52463641Y-86062481D01*
X52654779Y-85546634D01*
X52513700Y-85326100D01*
X51389540Y-85326100D01*
X51135540Y-85326100D01*
X51115540Y-85326100D01*
X51115540Y-85072100D01*
X51135540Y-85072100D01*
X51135540Y-83829312D01*
X51389540Y-83829312D01*
X51389540Y-85072100D01*
X52513700Y-85072100D01*
X52654779Y-84851566D01*
X52532161Y-84520640D01*
X52744258Y-84520640D01*
X52873712Y-84833199D01*
X53199253Y-85201608D01*
X53640998Y-85417394D01*
X53835540Y-85293945D01*
X53835540Y-84326100D01*
X54089540Y-84326100D01*
X54089540Y-85293945D01*
X54284082Y-85417394D01*
X54725827Y-85201608D01*
X55051368Y-84833199D01*
X55180822Y-84520640D01*
X55056442Y-84326100D01*
X54089540Y-84326100D01*
X53835540Y-84326100D01*
X52868638Y-84326100D01*
X52744258Y-84520640D01*
X52532161Y-84520640D01*
X52463641Y-84335719D01*
X52089646Y-83932283D01*
X51972573Y-83877560D01*
X52744258Y-83877560D01*
X52868638Y-84072100D01*
X53835540Y-84072100D01*
X53835540Y-83104255D01*
X54089540Y-83104255D01*
X54089540Y-84072100D01*
X55056442Y-84072100D01*
X55180822Y-83877560D01*
X55051368Y-83565001D01*
X54725827Y-83196592D01*
X54284082Y-82980806D01*
X54089540Y-83104255D01*
X53835540Y-83104255D01*
X53640998Y-82980806D01*
X53199253Y-83196592D01*
X52873712Y-83565001D01*
X52744258Y-83877560D01*
X51972573Y-83877560D01*
X51607652Y-83706987D01*
X51389540Y-83829312D01*
X51135540Y-83829312D01*
X50917428Y-83706987D01*
X50710000Y-83803944D01*
X50710000Y-79594256D01*
X50917428Y-79691213D01*
X51135540Y-79568888D01*
X51135540Y-78326100D01*
X51389540Y-78326100D01*
X51389540Y-79568888D01*
X51607652Y-79691213D01*
X51972572Y-79520640D01*
X52744258Y-79520640D01*
X52873712Y-79833199D01*
X53199253Y-80201608D01*
X53640998Y-80417394D01*
X53835540Y-80293945D01*
X53835540Y-79326100D01*
X54089540Y-79326100D01*
X54089540Y-80293945D01*
X54284082Y-80417394D01*
X54725827Y-80201608D01*
X55051368Y-79833199D01*
X55180822Y-79520640D01*
X55056442Y-79326100D01*
X54089540Y-79326100D01*
X53835540Y-79326100D01*
X52868638Y-79326100D01*
X52744258Y-79520640D01*
X51972572Y-79520640D01*
X52089646Y-79465917D01*
X52463641Y-79062481D01*
X52532160Y-78877560D01*
X52744258Y-78877560D01*
X52868638Y-79072100D01*
X53835540Y-79072100D01*
X53835540Y-78104255D01*
X54089540Y-78104255D01*
X54089540Y-79072100D01*
X55056442Y-79072100D01*
X55180822Y-78877560D01*
X55051368Y-78565001D01*
X54725827Y-78196592D01*
X54284082Y-77980806D01*
X54089540Y-78104255D01*
X53835540Y-78104255D01*
X53640998Y-77980806D01*
X53199253Y-78196592D01*
X52873712Y-78565001D01*
X52744258Y-78877560D01*
X52532160Y-78877560D01*
X52654779Y-78546634D01*
X52513700Y-78326100D01*
X51389540Y-78326100D01*
X51135540Y-78326100D01*
X51115540Y-78326100D01*
X51115540Y-78072100D01*
X51135540Y-78072100D01*
X51135540Y-76829312D01*
X51389540Y-76829312D01*
X51389540Y-78072100D01*
X52513700Y-78072100D01*
X52654779Y-77851566D01*
X52463641Y-77335719D01*
X52089646Y-76932283D01*
X51607652Y-76706987D01*
X51389540Y-76829312D01*
X51135540Y-76829312D01*
X50917428Y-76706987D01*
X50710000Y-76803944D01*
X50710000Y-74334188D01*
X63675417Y-74334188D01*
X63737071Y-74569800D01*
X64237480Y-74745927D01*
X64767199Y-74717148D01*
X65122929Y-74569800D01*
X65184583Y-74334188D01*
X64430000Y-73579605D01*
X63675417Y-74334188D01*
X50710000Y-74334188D01*
X50710000Y-73207480D01*
X63084073Y-73207480D01*
X63112852Y-73737199D01*
X63260200Y-74092929D01*
X63495812Y-74154583D01*
X64250395Y-73400000D01*
X63495812Y-72645417D01*
X63260200Y-72707071D01*
X63084073Y-73207480D01*
X50710000Y-73207480D01*
X50710000Y-72465812D01*
X63675417Y-72465812D01*
X64430000Y-73220395D01*
X65184583Y-72465812D01*
X65122929Y-72230200D01*
X64622520Y-72054073D01*
X64092801Y-72082852D01*
X63737071Y-72230200D01*
X63675417Y-72465812D01*
X50710000Y-72465812D01*
X50710000Y-70964086D01*
X62866269Y-70964086D01*
X63068854Y-71454380D01*
X63443647Y-71829827D01*
X63933587Y-72033268D01*
X64464086Y-72033731D01*
X64954380Y-71831146D01*
X65329827Y-71456353D01*
X65533268Y-70966413D01*
X65533731Y-70435914D01*
X65331146Y-69945620D01*
X64956353Y-69570173D01*
X64466413Y-69366732D01*
X63935914Y-69366269D01*
X63445620Y-69568854D01*
X63070173Y-69943647D01*
X62866732Y-70433587D01*
X62866269Y-70964086D01*
X50710000Y-70964086D01*
X50710000Y-64995148D01*
X53085417Y-64995148D01*
X53147071Y-65230760D01*
X53647480Y-65406887D01*
X54177199Y-65378108D01*
X54532929Y-65230760D01*
X54594583Y-64995148D01*
X54472663Y-64873228D01*
X55625417Y-64873228D01*
X55687071Y-65108840D01*
X56187480Y-65284967D01*
X56717199Y-65256188D01*
X57072929Y-65108840D01*
X57102679Y-64995148D01*
X58165417Y-64995148D01*
X58227071Y-65230760D01*
X58727480Y-65406887D01*
X59257199Y-65378108D01*
X59612929Y-65230760D01*
X59674583Y-64995148D01*
X58920000Y-64240565D01*
X58165417Y-64995148D01*
X57102679Y-64995148D01*
X57134583Y-64873228D01*
X56380000Y-64118645D01*
X55625417Y-64873228D01*
X54472663Y-64873228D01*
X53840000Y-64240565D01*
X53085417Y-64995148D01*
X50710000Y-64995148D01*
X50710000Y-63868440D01*
X52494073Y-63868440D01*
X52522852Y-64398159D01*
X52670200Y-64753889D01*
X52905812Y-64815543D01*
X53660395Y-64060960D01*
X54019605Y-64060960D01*
X54774188Y-64815543D01*
X55009800Y-64753889D01*
X55125058Y-64426419D01*
X55210200Y-64631969D01*
X55445812Y-64693623D01*
X56200395Y-63939040D01*
X56559605Y-63939040D01*
X57314188Y-64693623D01*
X57549800Y-64631969D01*
X57618660Y-64436324D01*
X57750200Y-64753889D01*
X57985812Y-64815543D01*
X58740395Y-64060960D01*
X59099605Y-64060960D01*
X59854188Y-64815543D01*
X60089800Y-64753889D01*
X60211256Y-64408810D01*
X60328854Y-64693420D01*
X60703647Y-65068867D01*
X61193587Y-65272308D01*
X61724086Y-65272771D01*
X62214380Y-65070186D01*
X62589827Y-64695393D01*
X62704843Y-64418403D01*
X62868854Y-64815340D01*
X63243647Y-65190787D01*
X63733587Y-65394228D01*
X64264086Y-65394691D01*
X64754380Y-65192106D01*
X65129827Y-64817313D01*
X65295344Y-64418704D01*
X65408854Y-64693420D01*
X65783647Y-65068867D01*
X66273587Y-65272308D01*
X66804086Y-65272771D01*
X67294380Y-65070186D01*
X67669827Y-64695393D01*
X67784843Y-64418403D01*
X67948854Y-64815340D01*
X68323647Y-65190787D01*
X68813587Y-65394228D01*
X69344086Y-65394691D01*
X69834380Y-65192106D01*
X70209827Y-64817313D01*
X70375344Y-64418704D01*
X70488854Y-64693420D01*
X70863647Y-65068867D01*
X71353587Y-65272308D01*
X71884086Y-65272771D01*
X72374380Y-65070186D01*
X72749827Y-64695393D01*
X72814060Y-64540703D01*
X72814060Y-64759460D01*
X72858338Y-64994777D01*
X72997410Y-65210901D01*
X73209610Y-65355891D01*
X73461500Y-65406900D01*
X74858500Y-65406900D01*
X75093817Y-65362622D01*
X75309941Y-65223550D01*
X75454931Y-65011350D01*
X75505940Y-64759460D01*
X75505940Y-63362460D01*
X75461662Y-63127143D01*
X75322590Y-62911019D01*
X75110390Y-62766029D01*
X74858500Y-62715020D01*
X73461500Y-62715020D01*
X73226183Y-62759298D01*
X73010059Y-62898370D01*
X72865069Y-63110570D01*
X72817530Y-63345323D01*
X72751146Y-63184660D01*
X72376353Y-62809213D01*
X71886413Y-62605772D01*
X71355914Y-62605309D01*
X70865620Y-62807894D01*
X70490173Y-63182687D01*
X70324656Y-63581296D01*
X70211146Y-63306580D01*
X69836353Y-62931133D01*
X69346413Y-62727692D01*
X68815914Y-62727229D01*
X68325620Y-62929814D01*
X67950173Y-63304607D01*
X67835157Y-63581597D01*
X67671146Y-63184660D01*
X67296353Y-62809213D01*
X66806413Y-62605772D01*
X66275914Y-62605309D01*
X65785620Y-62807894D01*
X65410173Y-63182687D01*
X65244656Y-63581296D01*
X65131146Y-63306580D01*
X64756353Y-62931133D01*
X64266413Y-62727692D01*
X63735914Y-62727229D01*
X63245620Y-62929814D01*
X62870173Y-63304607D01*
X62755157Y-63581597D01*
X62591146Y-63184660D01*
X62216353Y-62809213D01*
X61726413Y-62605772D01*
X61195914Y-62605309D01*
X60705620Y-62807894D01*
X60330173Y-63182687D01*
X60171405Y-63565043D01*
X60089800Y-63368031D01*
X59854188Y-63306377D01*
X59099605Y-64060960D01*
X58740395Y-64060960D01*
X57985812Y-63306377D01*
X57750200Y-63368031D01*
X57681340Y-63563676D01*
X57549800Y-63246111D01*
X57314188Y-63184457D01*
X56559605Y-63939040D01*
X56200395Y-63939040D01*
X55445812Y-63184457D01*
X55210200Y-63246111D01*
X55094942Y-63573581D01*
X55009800Y-63368031D01*
X54774188Y-63306377D01*
X54019605Y-64060960D01*
X53660395Y-64060960D01*
X52905812Y-63306377D01*
X52670200Y-63368031D01*
X52494073Y-63868440D01*
X50710000Y-63868440D01*
X50710000Y-63126772D01*
X53085417Y-63126772D01*
X53840000Y-63881355D01*
X54594583Y-63126772D01*
X54562680Y-63004852D01*
X55625417Y-63004852D01*
X56380000Y-63759435D01*
X57012663Y-63126772D01*
X58165417Y-63126772D01*
X58920000Y-63881355D01*
X59674583Y-63126772D01*
X59612929Y-62891160D01*
X59112520Y-62715033D01*
X58582801Y-62743812D01*
X58227071Y-62891160D01*
X58165417Y-63126772D01*
X57012663Y-63126772D01*
X57134583Y-63004852D01*
X57072929Y-62769240D01*
X56572520Y-62593113D01*
X56042801Y-62621892D01*
X55687071Y-62769240D01*
X55625417Y-63004852D01*
X54562680Y-63004852D01*
X54532929Y-62891160D01*
X54032520Y-62715033D01*
X53502801Y-62743812D01*
X53147071Y-62891160D01*
X53085417Y-63126772D01*
X50710000Y-63126772D01*
X50710000Y-60710000D01*
X149290000Y-60710000D01*
X149290000Y-99290000D01*
M02*
