M48
;DRILL file {KiCad 4.0.5+dfsg1-4} date Sat Mar  4 17:37:23 2017
;FORMAT={-:-/ absolute / inch / decimal}
FMAT,2
INCH,TZ
T1C0.016
T2C0.020
T3C0.022
T4C0.032
%
G90
G05
M72
T1
X2.378Y-3.815
X2.5741Y-3.3386
X2.6693Y-2.6417
X2.6772Y-2.4567
X2.7441Y-3.4213
X2.7953Y-2.7717
X2.8691Y-2.9859
X2.9139Y-3.5866
X3.0621Y-3.2479
X3.2323Y-3.126
X3.2795Y-3.0079
X3.4449Y-2.8307
X3.5394Y-3.248
X3.5906Y-2.8228
X3.6181Y-3.0866
X3.6181Y-3.4094
X3.6401Y-2.7425
X3.6614Y-3.2339
X3.6772Y-3.1772
X3.7598Y-2.9985
X3.7697Y-3.3421
X3.7717Y-2.8189
X3.8492Y-3.1558
X3.8492Y-3.2064
X3.8573Y-3.4547
X3.8573Y-2.9576
X3.8965Y-3.1488
X3.8965Y-3.2134
X3.8999Y-3.1051
X3.8999Y-3.2571
X3.9394Y-3.4057
X3.9506Y-3.1051
X3.9506Y-3.2571
X3.9519Y-3.1545
X3.9519Y-3.2077
X3.9578Y-2.9965
X4.0012Y-3.1558
X4.0012Y-3.2064
X4.0472Y-3.4547
X4.0709Y-3.4232
X4.0729Y-3.3141
X4.1181Y-3.3504
X4.1181Y-3.5118
X4.1295Y-3.1455
X4.1457Y-2.8189
X4.1903Y-3.1319
X4.1948Y-3.3543
X4.2202Y-3.1899
X4.2548Y-3.0618
X4.3093Y-3.4546
X4.3179Y-3.3543
X4.6063Y-2.7717
X4.7321Y-2.5812
X5.0512Y-3.3622
X5.1581Y-2.6475
X5.189Y-2.9724
X5.2795Y-3.0591
X5.2795Y-3.3937
X5.2898Y-2.9567
X5.5157Y-3.4134
T4
X2.1197Y-2.5221
X2.1264Y-3.7338
X2.2197Y-2.5173
X2.2264Y-3.7386
X2.3197Y-2.5221
X2.3264Y-3.7338
X2.4197Y-2.5173
X2.4264Y-3.7386
X2.5197Y-2.5221
X2.5264Y-3.7338
X2.5276Y-2.7835
X2.5366Y-2.8898
X2.6197Y-2.5173
X2.6264Y-3.7386
X2.6366Y-2.8898
X2.7197Y-2.5221
X2.7264Y-3.7338
X2.8197Y-2.5173
X2.8264Y-3.7386
X2.9197Y-2.5221
T2
X2.0054Y-3.0787G85X2.031Y-3.0787
G05
X2.0054Y-3.3543G85X2.031Y-3.3543
G05
T3
X2.1245Y-3.1122G85X2.1245Y-3.124
G05
X2.1245Y-3.309G85X2.1245Y-3.3208
G05
T0
M30
