M48
;DRILL file {KiCad 4.0.5+dfsg1-4} date Thu Mar  2 23:52:08 2017
;FORMAT={-:-/ absolute / inch / decimal}
FMAT,2
INCH,TZ
T1C0.016
T2C0.020
T3C0.022
T4C0.032
%
G90
G05
M72
T1
X2.4961Y-3.8425
X2.6532Y-3.3008
X2.9109Y-2.9524
X2.9651Y-3.6374
X3.0318Y-3.2606
X3.0496Y-3.6789
X3.0543Y-2.8553
X3.2953Y-3.0315
X3.4646Y-3.2756
X3.6135Y-2.7185
X3.6929Y-3.5039
X3.6969Y-2.8976
X3.757Y-3.2575
X3.8268Y-2.7874
X3.9016Y-2.9849
X3.9343Y-2.9882
X3.9879Y-3.0047
X4.0249Y-3.0064
X4.058Y-3.3395
X4.1026Y-3.7396
X4.3117Y-2.625
X4.4289Y-2.7178
X4.6614Y-3.4606
X4.7256Y-2.6136
X4.7848Y-3.1269
X4.8504Y-2.9016
X4.9275Y-2.9843
X5.3031Y-2.9094
X5.3543Y-3.248
T4
X2.1197Y-2.5221
X2.1264Y-3.7338
X2.2197Y-2.5173
X2.2264Y-3.7386
X2.3197Y-2.5221
X2.3264Y-3.7338
X2.4197Y-2.5173
X2.4264Y-3.7386
X2.5197Y-2.5221
X2.5264Y-3.7338
X2.5276Y-2.7835
X2.5366Y-2.8898
X2.6197Y-2.5173
X2.6264Y-3.7386
X2.6366Y-2.8898
X2.7197Y-2.5221
X2.7264Y-3.7338
X2.8197Y-2.5173
X2.8264Y-3.7386
X2.9197Y-2.5221
T2
X2.0054Y-3.0787G85X2.031Y-3.0787
G05
X2.0054Y-3.3543G85X2.031Y-3.3543
G05
T3
X2.1245Y-3.1122G85X2.1245Y-3.124
G05
X2.1245Y-3.309G85X2.1245Y-3.3208
G05
T0
M30
