G04 #@! TF.FileFunction,Legend,Bot*
%FSLAX46Y46*%
G04 Gerber Fmt 4.6, Leading zero omitted, Abs format (unit mm)*
G04 Created by KiCad (PCBNEW 4.0.5+dfsg1-4) date Thu Mar  2 23:52:06 2017*
%MOMM*%
%LPD*%
G01*
G04 APERTURE LIST*
%ADD10C,0.100000*%
%ADD11C,0.150000*%
G04 APERTURE END LIST*
D10*
D11*
X98433333Y-77852381D02*
X98766667Y-77376190D01*
X99004762Y-77852381D02*
X99004762Y-76852381D01*
X98623809Y-76852381D01*
X98528571Y-76900000D01*
X98480952Y-76947619D01*
X98433333Y-77042857D01*
X98433333Y-77185714D01*
X98480952Y-77280952D01*
X98528571Y-77328571D01*
X98623809Y-77376190D01*
X99004762Y-77376190D01*
X98004762Y-77328571D02*
X97671428Y-77328571D01*
X97528571Y-77852381D02*
X98004762Y-77852381D01*
X98004762Y-76852381D01*
X97528571Y-76852381D01*
X96766666Y-77328571D02*
X97100000Y-77328571D01*
X97100000Y-77852381D02*
X97100000Y-76852381D01*
X96623809Y-76852381D01*
X96100000Y-76852381D02*
X96100000Y-77090476D01*
X96338095Y-76995238D02*
X96100000Y-77090476D01*
X95861904Y-76995238D01*
X96242857Y-77280952D02*
X96100000Y-77090476D01*
X95957142Y-77280952D01*
X95338095Y-76852381D02*
X95338095Y-77090476D01*
X95576190Y-76995238D02*
X95338095Y-77090476D01*
X95099999Y-76995238D01*
X95480952Y-77280952D02*
X95338095Y-77090476D01*
X95195237Y-77280952D01*
M02*
