G04 #@! TF.FileFunction,Copper,L1,Top,Signal*
%FSLAX46Y46*%
G04 Gerber Fmt 4.6, Leading zero omitted, Abs format (unit mm)*
G04 Created by KiCad (PCBNEW 4.0.5+dfsg1-4) date Sat Mar  4 17:48:48 2017*
%MOMM*%
%LPD*%
G01*
G04 APERTURE LIST*
%ADD10C,0.100000*%
%ADD11R,3.200000X2.500000*%
%ADD12R,0.750000X1.200000*%
%ADD13R,1.200000X0.750000*%
%ADD14R,1.220000X0.910000*%
%ADD15R,0.910000X1.220000*%
%ADD16R,2.400000X4.200000*%
%ADD17R,1.350000X0.400000*%
%ADD18O,1.250000X1.250000*%
%ADD19O,1.550000X1.800000*%
%ADD20C,1.397000*%
%ADD21R,1.397000X1.397000*%
%ADD22R,0.900000X1.200000*%
%ADD23R,1.200000X0.900000*%
%ADD24R,0.700000X0.250000*%
%ADD25R,0.250000X0.700000*%
%ADD26R,1.287500X1.287500*%
%ADD27R,2.000000X3.800000*%
%ADD28R,2.000000X1.500000*%
%ADD29C,0.600000*%
%ADD30C,0.399800*%
%ADD31C,0.600000*%
%ADD32C,0.280000*%
%ADD33C,0.250000*%
%ADD34C,0.800000*%
%ADD35C,0.249800*%
%ADD36C,0.254000*%
G04 APERTURE END LIST*
D10*
D11*
X62450000Y-86900000D03*
X66750000Y-86900000D03*
D12*
X61300000Y-70750000D03*
X61300000Y-72650000D03*
X95200000Y-69050000D03*
X95200000Y-67150000D03*
X93700000Y-69050000D03*
X93700000Y-67150000D03*
X103700000Y-69050000D03*
X103700000Y-67150000D03*
X105200000Y-69050000D03*
X105200000Y-67150000D03*
X120400000Y-69050000D03*
X120400000Y-67150000D03*
D13*
X127450000Y-67200000D03*
X129350000Y-67200000D03*
X106450000Y-75500000D03*
X108350000Y-75500000D03*
X140350000Y-67400000D03*
X138450000Y-67400000D03*
X81250000Y-70100000D03*
X79350000Y-70100000D03*
X81350000Y-78100000D03*
X79450000Y-78100000D03*
X91950000Y-79500000D03*
X90050000Y-79500000D03*
X129250000Y-88200000D03*
X127350000Y-88200000D03*
X138350000Y-88600000D03*
X140250000Y-88600000D03*
X108650000Y-86100000D03*
X110550000Y-86100000D03*
X108650000Y-84300000D03*
X110550000Y-84300000D03*
X104650000Y-86100000D03*
X106550000Y-86100000D03*
X81350000Y-86400000D03*
X79450000Y-86400000D03*
X91950000Y-85500000D03*
X90050000Y-85500000D03*
D12*
X94100000Y-91750000D03*
X94100000Y-93650000D03*
X101900000Y-87750000D03*
X101900000Y-89650000D03*
X97000000Y-87750000D03*
X97000000Y-89650000D03*
D14*
X108700000Y-69335000D03*
X108700000Y-66065000D03*
D15*
X130435000Y-78800000D03*
X127165000Y-78800000D03*
X141235000Y-75100000D03*
X137965000Y-75100000D03*
X127165000Y-83000000D03*
X130435000Y-83000000D03*
X137965000Y-79300000D03*
X141235000Y-79300000D03*
X111735000Y-89000000D03*
X108465000Y-89000000D03*
D16*
X116950000Y-67300000D03*
X112450000Y-67300000D03*
X143450000Y-93500000D03*
X138950000Y-93500000D03*
D17*
X53962540Y-80399100D03*
X53962540Y-81049100D03*
X53962540Y-81699100D03*
X53962540Y-82349100D03*
X53962540Y-82999100D03*
D18*
X53962540Y-79199100D03*
X53962540Y-84199100D03*
D19*
X51262540Y-78199100D03*
X51262540Y-85199100D03*
D20*
X69080000Y-64060960D03*
X66540000Y-63939040D03*
X64000000Y-64060960D03*
X61460000Y-63939040D03*
X58920000Y-64060960D03*
X71620000Y-63939040D03*
X56380000Y-63939040D03*
D21*
X74160000Y-64060960D03*
D20*
X53840000Y-64060960D03*
X61630000Y-94960960D03*
X64170000Y-94839040D03*
X59090000Y-94839040D03*
X66710000Y-94960960D03*
X56550000Y-94960960D03*
X69250000Y-94839040D03*
D21*
X54010000Y-94839040D03*
D20*
X71790000Y-94960960D03*
D21*
X66970000Y-73400000D03*
D20*
X64430000Y-73400000D03*
X66900000Y-70700000D03*
D22*
X100300000Y-69200000D03*
X100300000Y-67000000D03*
X98700000Y-69200000D03*
X98700000Y-67000000D03*
X90200000Y-67000000D03*
X90200000Y-69200000D03*
X122500000Y-66800000D03*
X122500000Y-69000000D03*
X88500000Y-69200000D03*
X88500000Y-67000000D03*
X86900000Y-69200000D03*
X86900000Y-67000000D03*
D23*
X138400000Y-71000000D03*
X140600000Y-71000000D03*
X79200000Y-74200000D03*
X81400000Y-74200000D03*
X81400000Y-72600000D03*
X79200000Y-72600000D03*
X129600000Y-72700000D03*
X127400000Y-72700000D03*
X140600000Y-69400000D03*
X138400000Y-69400000D03*
X129600000Y-74300000D03*
X127400000Y-74300000D03*
D22*
X72600000Y-72500000D03*
X72600000Y-74700000D03*
D23*
X127400000Y-80900000D03*
X129600000Y-80900000D03*
X140500000Y-77100000D03*
X138300000Y-77100000D03*
X81400000Y-75800000D03*
X79200000Y-75800000D03*
X140500000Y-83500000D03*
X138300000Y-83500000D03*
X81400000Y-82100000D03*
X79200000Y-82100000D03*
X81400000Y-83700000D03*
X79200000Y-83700000D03*
X138300000Y-85100000D03*
X140500000Y-85100000D03*
X81600000Y-91100000D03*
X79400000Y-91100000D03*
X81600000Y-93000000D03*
X79400000Y-93000000D03*
D22*
X104700000Y-92700000D03*
X104700000Y-90500000D03*
X89000000Y-93700000D03*
X89000000Y-91500000D03*
X90600000Y-91500000D03*
X90600000Y-93700000D03*
X101300000Y-93900000D03*
X101300000Y-91700000D03*
X99700000Y-93900000D03*
X99700000Y-91700000D03*
X98100000Y-93900000D03*
X98100000Y-91700000D03*
X85300000Y-69200000D03*
X85300000Y-67000000D03*
D24*
X96300000Y-78050000D03*
X96300000Y-78550000D03*
X96300000Y-79050000D03*
X96300000Y-79550000D03*
X96300000Y-80050000D03*
X96300000Y-80550000D03*
X96300000Y-81050000D03*
X96300000Y-81550000D03*
X96300000Y-82050000D03*
X96300000Y-82550000D03*
X96300000Y-83050000D03*
X96300000Y-83550000D03*
D25*
X96950000Y-84200000D03*
X97450000Y-84200000D03*
X97950000Y-84200000D03*
X98450000Y-84200000D03*
X98950000Y-84200000D03*
X99450000Y-84200000D03*
X99950000Y-84200000D03*
X100450000Y-84200000D03*
X100950000Y-84200000D03*
X101450000Y-84200000D03*
X101950000Y-84200000D03*
X102450000Y-84200000D03*
D24*
X103100000Y-83550000D03*
X103100000Y-83050000D03*
X103100000Y-82550000D03*
X103100000Y-82050000D03*
X103100000Y-81550000D03*
X103100000Y-81050000D03*
X103100000Y-80550000D03*
X103100000Y-80050000D03*
X103100000Y-79550000D03*
X103100000Y-79050000D03*
X103100000Y-78550000D03*
X103100000Y-78050000D03*
D25*
X102450000Y-77400000D03*
X101950000Y-77400000D03*
X101450000Y-77400000D03*
X100950000Y-77400000D03*
X100450000Y-77400000D03*
X99950000Y-77400000D03*
X99450000Y-77400000D03*
X98950000Y-77400000D03*
X98450000Y-77400000D03*
X97950000Y-77400000D03*
X97450000Y-77400000D03*
X96950000Y-77400000D03*
D26*
X101631250Y-82731250D03*
X101631250Y-81443750D03*
X101631250Y-80156250D03*
X101631250Y-78868750D03*
X100343750Y-82731250D03*
X100343750Y-81443750D03*
X100343750Y-80156250D03*
X100343750Y-78868750D03*
X99056250Y-82731250D03*
X99056250Y-81443750D03*
X99056250Y-80156250D03*
X99056250Y-78868750D03*
X97768750Y-82731250D03*
X97768750Y-81443750D03*
X97768750Y-80156250D03*
X97768750Y-78868750D03*
D27*
X67850000Y-80000000D03*
D28*
X61550000Y-80000000D03*
X61550000Y-82300000D03*
X61550000Y-77700000D03*
D29*
X65382700Y-84800000D03*
X120194400Y-65563700D03*
X60400000Y-96900000D03*
X68000000Y-62400000D03*
X67800000Y-67100000D03*
X134100000Y-86200000D03*
X128300000Y-85400000D03*
X134100000Y-77700000D03*
X131800000Y-75500000D03*
X140100000Y-86700000D03*
X95800000Y-71600000D03*
X87500000Y-71900000D03*
X91200000Y-71700000D03*
X105300000Y-71600000D03*
X82100000Y-79400000D03*
X89900000Y-82500000D03*
X83300000Y-76400000D03*
X69700000Y-86900000D03*
X93000000Y-82140000D03*
X93400000Y-80700000D03*
X95750400Y-84890400D03*
X95499700Y-76162200D03*
X104888400Y-79896000D03*
X100527400Y-76111700D03*
X106549000Y-85200000D03*
X107192500Y-81023600D03*
X109675000Y-85200000D03*
X97975900Y-75124300D03*
X100059500Y-86505700D03*
X71000000Y-70400000D03*
X92459000Y-69659800D03*
X91900000Y-86600000D03*
X117000000Y-70400000D03*
X104600000Y-85100000D03*
X134359700Y-75100000D03*
X131016600Y-67245600D03*
X91900000Y-78400000D03*
X100377000Y-81476800D03*
X97768800Y-81443800D03*
X101631000Y-80156200D03*
X98971600Y-79978800D03*
X101631000Y-81443800D03*
X97768800Y-80156200D03*
X98971600Y-81621200D03*
X100344000Y-82731200D03*
X99056200Y-82731200D03*
X99056200Y-78868800D03*
X100344000Y-78868800D03*
X100377000Y-80123200D03*
X102800000Y-87750000D03*
X97975000Y-87750000D03*
X103451100Y-84177200D03*
X109455700Y-87747900D03*
X74011800Y-91100000D03*
X77777200Y-82496000D03*
X72875100Y-75841000D03*
X106432600Y-79550000D03*
X108072600Y-77769000D03*
X104600000Y-89200000D03*
X103400000Y-86950000D03*
D30*
X54012900Y-80348700D02*
X53962500Y-80399100D01*
D31*
X58098400Y-80348700D02*
X54012900Y-80348700D01*
X60049700Y-82300000D02*
X58098400Y-80348700D01*
X62450000Y-86900000D02*
X62450000Y-85149700D01*
X61550000Y-82300000D02*
X60049700Y-82300000D01*
X61550000Y-82300000D02*
X61550000Y-83550300D01*
X62450000Y-85149700D02*
X62450000Y-84800000D01*
X62450000Y-84450300D02*
X61550000Y-83550300D01*
X62450000Y-84800000D02*
X62450000Y-84450300D01*
X121263700Y-65563700D02*
X120194400Y-65563700D01*
X122500000Y-66800000D02*
X121263700Y-65563700D01*
X62450000Y-84800000D02*
X65382700Y-84800000D01*
D32*
X140500000Y-85100000D02*
X140500000Y-86300000D01*
X140500000Y-86300000D02*
X140100000Y-86700000D01*
X87485483Y-71885483D02*
X87500000Y-71900000D01*
X87485483Y-71885483D02*
X86414517Y-71885483D01*
X66750000Y-86900000D02*
X69700000Y-86900000D01*
X61300000Y-72650000D02*
X60645000Y-72650000D01*
X60645000Y-72650000D02*
X58920000Y-70925000D01*
X58920000Y-65048788D02*
X58920000Y-64060960D01*
X58920000Y-70925000D02*
X58920000Y-65048788D01*
X88500000Y-67000000D02*
X88500000Y-67150000D01*
X88500000Y-67150000D02*
X89290400Y-67940400D01*
X89290400Y-67940400D02*
X92194300Y-67940400D01*
X92194300Y-67940400D02*
X92984700Y-67150000D01*
X92984700Y-67150000D02*
X93700000Y-67150000D01*
X98700000Y-67000000D02*
X99640400Y-67940400D01*
X117770100Y-64337900D02*
X118900000Y-65467800D01*
X120400000Y-67150000D02*
X119745000Y-67150000D01*
X119745000Y-67150000D02*
X118900000Y-66305000D01*
X118900000Y-66305000D02*
X118900000Y-65467800D01*
X140500000Y-85100000D02*
X140350000Y-85100000D01*
X140350000Y-85100000D02*
X139559600Y-84309600D01*
X142036800Y-80201300D02*
X142036800Y-67624000D01*
X139559600Y-84309600D02*
X139559600Y-82678500D01*
X139559600Y-82678500D02*
X142036800Y-80201300D01*
X142036800Y-67624000D02*
X141097500Y-66684700D01*
X141097500Y-66684700D02*
X138450000Y-66684700D01*
X138450000Y-66684700D02*
X138450000Y-67400000D01*
X143500000Y-89600000D02*
X142500000Y-88600000D01*
X142500000Y-88600000D02*
X140250000Y-88600000D01*
X143500000Y-92550000D02*
X143500000Y-89600000D01*
X143450000Y-93500000D02*
X143450000Y-92600000D01*
X143450000Y-92600000D02*
X143500000Y-92550000D01*
X93586000Y-82140000D02*
X93000000Y-82140000D01*
X94176000Y-81550000D02*
X93586000Y-82140000D01*
X96300000Y-81550000D02*
X94176000Y-81550000D01*
X93550000Y-80550000D02*
X93400000Y-80700000D01*
X96300000Y-80550000D02*
X93550000Y-80550000D01*
X94100000Y-93650000D02*
X94815300Y-93650000D01*
X101900000Y-89650000D02*
X101900000Y-90590300D01*
X101954600Y-92648600D02*
X97000000Y-92648600D01*
X102108800Y-92494400D02*
X101954600Y-92648600D01*
X102108800Y-90799100D02*
X102108800Y-92494400D01*
X101900000Y-90590300D02*
X102108800Y-90799100D01*
X97000000Y-89650000D02*
X97000000Y-92648600D01*
X95998600Y-93650000D02*
X94815300Y-93650000D01*
X97000000Y-92648600D02*
X95998600Y-93650000D01*
X138400000Y-69400000D02*
X138400000Y-68609700D01*
X56502000Y-64061000D02*
X56380000Y-63939000D01*
X58920000Y-64061000D02*
X56502000Y-64061000D01*
X56258000Y-64061000D02*
X56380000Y-63939000D01*
X53840000Y-64061000D02*
X56258000Y-64061000D01*
X102194300Y-67940400D02*
X99640400Y-67940400D01*
X102984700Y-67150000D02*
X102194300Y-67940400D01*
X103700000Y-67150000D02*
X102984700Y-67150000D01*
X90600000Y-93700000D02*
X90600000Y-94640300D01*
X79450000Y-84740300D02*
X79200000Y-84490300D01*
X79450000Y-86400000D02*
X79450000Y-84740300D01*
X79400000Y-93000000D02*
X79400000Y-93197500D01*
X94100000Y-93650000D02*
X93384700Y-93650000D01*
X79350000Y-70100000D02*
X79350000Y-69384700D01*
X85300000Y-67000000D02*
X84509700Y-67000000D01*
X82125000Y-69384700D02*
X83019400Y-68490300D01*
X79350000Y-69384700D02*
X82125000Y-69384700D01*
X83019400Y-68490300D02*
X84509700Y-67000000D01*
X93700000Y-67150000D02*
X95200000Y-67150000D01*
X97759700Y-67150000D02*
X97909700Y-67000000D01*
X95200000Y-67150000D02*
X97759700Y-67150000D01*
X98700000Y-67000000D02*
X97909700Y-67000000D01*
X85300000Y-67000000D02*
X86900000Y-67000000D01*
X129600000Y-74300000D02*
X128797800Y-74300000D01*
X138400000Y-69400000D02*
X138400000Y-70190300D01*
X128645000Y-74147200D02*
X128645000Y-71825000D01*
X128797800Y-74300000D02*
X128645000Y-74147200D01*
X139190300Y-70190300D02*
X138400000Y-70190300D01*
X139340400Y-70340400D02*
X139190300Y-70190300D01*
X139340400Y-71623100D02*
X139340400Y-70340400D01*
X139138500Y-71825000D02*
X139340400Y-71623100D01*
X128645000Y-71825000D02*
X139138500Y-71825000D01*
X93334700Y-93700000D02*
X93384700Y-93650000D01*
X90600000Y-93700000D02*
X93334700Y-93700000D01*
X90600000Y-93700000D02*
X89809700Y-93700000D01*
X97270500Y-84890400D02*
X95750400Y-84890400D01*
X97450000Y-84710900D02*
X97270500Y-84890400D01*
X97450000Y-84200000D02*
X97450000Y-84710900D01*
X88193500Y-90760500D02*
X88193500Y-92759600D01*
X88394300Y-90559700D02*
X88193500Y-90760500D01*
X90081100Y-90559700D02*
X88394300Y-90559700D01*
X95750400Y-84890400D02*
X90081100Y-90559700D01*
X89659600Y-92759600D02*
X88193500Y-92759600D01*
X89809700Y-92909700D02*
X89659600Y-92759600D01*
X89809700Y-93700000D02*
X89809700Y-92909700D01*
X79400000Y-93197500D02*
X80340200Y-93197500D01*
X87162700Y-93790400D02*
X88193500Y-92759600D01*
X80820100Y-93790400D02*
X87162700Y-93790400D01*
X80340200Y-93310500D02*
X80820100Y-93790400D01*
X80340200Y-93197500D02*
X80340200Y-93310500D01*
X90050000Y-85500000D02*
X90050000Y-86215300D01*
X79450000Y-86400000D02*
X79450000Y-87115300D01*
X90534700Y-80700000D02*
X90050000Y-80215300D01*
X93400000Y-80700000D02*
X90534700Y-80700000D01*
X90050000Y-79500000D02*
X90050000Y-80215300D01*
X81012200Y-88677400D02*
X79450000Y-87115300D01*
X80340400Y-89349200D02*
X81012200Y-88677400D01*
X80340400Y-93197300D02*
X80340400Y-89349200D01*
X80340200Y-93197500D02*
X80340400Y-93197300D01*
X87618400Y-88646900D02*
X90050000Y-86215300D01*
X81042700Y-88646900D02*
X87618400Y-88646900D01*
X81012200Y-88677400D02*
X81042700Y-88646900D01*
X95712200Y-76162200D02*
X96950000Y-77400000D01*
X95499700Y-76162200D02*
X95712200Y-76162200D01*
X88191700Y-73662700D02*
X86414517Y-71885483D01*
X86414517Y-71885483D02*
X83019400Y-68490300D01*
X93000200Y-73662700D02*
X88191700Y-73662700D01*
X95499700Y-76162200D02*
X93000200Y-73662700D01*
X79200000Y-83700000D02*
X79200000Y-84095100D01*
X79200000Y-84095100D02*
X79200000Y-84490300D01*
X78395900Y-84095100D02*
X79200000Y-84095100D01*
X77117000Y-82816200D02*
X78395900Y-84095100D01*
X77117000Y-81148300D02*
X77117000Y-82816200D01*
X79450000Y-78815300D02*
X77117000Y-81148300D01*
X79200000Y-77134700D02*
X79200000Y-75800000D01*
X79450000Y-77384700D02*
X79200000Y-77134700D01*
X79450000Y-78100000D02*
X79450000Y-77384700D01*
X79450000Y-78100000D02*
X79450000Y-78815300D01*
X86900000Y-67000000D02*
X88500000Y-67000000D01*
X61550000Y-77700000D02*
X61550000Y-76609700D01*
X53962500Y-84199100D02*
X53479900Y-84199100D01*
X53962500Y-82999100D02*
X52947200Y-82999100D01*
X66750000Y-86900000D02*
X66750000Y-85309700D01*
X66750000Y-85195300D02*
X66750000Y-85309700D01*
X62645100Y-81090400D02*
X66750000Y-85195300D01*
X60349100Y-81090400D02*
X62645100Y-81090400D01*
X60050900Y-80792200D02*
X60349100Y-81090400D01*
X60050900Y-79199100D02*
X60050900Y-80792200D01*
X53962500Y-79199100D02*
X60050900Y-79199100D01*
X60050900Y-79199100D02*
X61550000Y-77700000D01*
X105200000Y-67150000D02*
X103700000Y-67150000D01*
X108012100Y-64337900D02*
X117770100Y-64337900D01*
X105200000Y-67150000D02*
X108012100Y-64337900D01*
X120400000Y-67150000D02*
X121115300Y-67150000D01*
X121770000Y-67804700D02*
X121115300Y-67150000D01*
X124835700Y-67804700D02*
X121770000Y-67804700D01*
X126155800Y-66484600D02*
X124835700Y-67804700D01*
X128191800Y-66484600D02*
X126155800Y-66484600D01*
X128390400Y-66683200D02*
X128191800Y-66484600D01*
X128390400Y-71589600D02*
X128390400Y-66683200D01*
X126380200Y-71589600D02*
X128390400Y-71589600D01*
X122469800Y-75500000D02*
X126380200Y-71589600D01*
X108350000Y-75500000D02*
X122469800Y-75500000D01*
X128409600Y-71589600D02*
X128645000Y-71825000D01*
X128390400Y-71589600D02*
X128409600Y-71589600D01*
X140500000Y-87634700D02*
X140250000Y-87884700D01*
X140500000Y-85100000D02*
X140500000Y-87634700D01*
X140250000Y-88600000D02*
X140250000Y-87884700D01*
X62765300Y-75394400D02*
X61550000Y-76609700D01*
X62765300Y-73400000D02*
X62765300Y-75394400D01*
X64430000Y-73400000D02*
X62765300Y-73400000D01*
X62765300Y-73400000D02*
X62015300Y-72650000D01*
X61300000Y-72650000D02*
X62015300Y-72650000D01*
X66750000Y-86900000D02*
X66750000Y-88490300D01*
X73174400Y-96345400D02*
X71790000Y-94961000D01*
X88894900Y-96345400D02*
X73174400Y-96345400D01*
X90600000Y-94640300D02*
X88894900Y-96345400D01*
X71790000Y-93530300D02*
X66750000Y-88490300D01*
X71790000Y-94961000D02*
X71790000Y-93530300D01*
X104734400Y-80050000D02*
X103100000Y-80050000D01*
X104888400Y-79896000D02*
X104734400Y-80050000D01*
X51262500Y-85199100D02*
X52377800Y-85199100D01*
X53428900Y-84148000D02*
X52377800Y-85199100D01*
X53479900Y-84199100D02*
X53428900Y-84148000D01*
X52947200Y-83666300D02*
X52947200Y-82999100D01*
X53213600Y-83932700D02*
X52947200Y-83666300D01*
X53213600Y-83932800D02*
X53213600Y-83932700D01*
X53428900Y-84148000D02*
X53213600Y-83932800D01*
X100450000Y-76189100D02*
X100450000Y-77400000D01*
X100527400Y-76111700D02*
X100450000Y-76189100D01*
X106550000Y-85201000D02*
X106549000Y-85200000D01*
X106550000Y-86100000D02*
X106550000Y-85201000D01*
X129600000Y-80900000D02*
X129600000Y-81690300D01*
X138450000Y-68559700D02*
X138450000Y-67400000D01*
X138400000Y-68609700D02*
X138450000Y-68559700D01*
X110550000Y-84300000D02*
X110550000Y-85015300D01*
X110550000Y-86100000D02*
X110550000Y-85384700D01*
X109675000Y-85200000D02*
X110550000Y-85200000D01*
X110550000Y-85384700D02*
X110550000Y-85200000D01*
X110550000Y-85200000D02*
X110550000Y-85015300D01*
X124398200Y-81690300D02*
X129600000Y-81690300D01*
X123731500Y-81023600D02*
X124398200Y-81690300D01*
X107192500Y-81023600D02*
X123731500Y-81023600D01*
X66900000Y-70700000D02*
X65912172Y-70700000D01*
X65912172Y-70700000D02*
X65862172Y-70750000D01*
X65862172Y-70750000D02*
X64200000Y-70750000D01*
X61300000Y-70750000D02*
X62015300Y-70750000D01*
X64200000Y-70750000D02*
X62015300Y-70750000D01*
X62640300Y-78909700D02*
X61550000Y-78909700D01*
X65487300Y-76062700D02*
X62640300Y-78909700D01*
X65487300Y-72037300D02*
X65487300Y-76062700D01*
X64200000Y-70750000D02*
X65487300Y-72037300D01*
X61550000Y-80000000D02*
X61550000Y-78909700D01*
X100300000Y-69200000D02*
X99509700Y-69200000D01*
X98700000Y-69200000D02*
X99509700Y-69200000D01*
X95200000Y-69050000D02*
X95915300Y-69050000D01*
X98700000Y-69200000D02*
X97909700Y-69200000D01*
X97909700Y-69200000D02*
X96987500Y-70122200D01*
X96987500Y-70122200D02*
X95915300Y-69050000D01*
X99950000Y-86396200D02*
X100059500Y-86505700D01*
X99950000Y-84200000D02*
X99950000Y-86396200D01*
X97975900Y-71110600D02*
X97975900Y-75124300D01*
X96987500Y-70122200D02*
X97975900Y-71110600D01*
X98950000Y-76098400D02*
X97975900Y-75124300D01*
X98950000Y-77400000D02*
X98950000Y-76098400D01*
X72600000Y-72500000D02*
X72600000Y-72000000D01*
X72600000Y-72000000D02*
X71000000Y-70400000D01*
X93700000Y-69050000D02*
X92984700Y-69050000D01*
X92459000Y-70539300D02*
X92459000Y-69659800D01*
X98450000Y-76530300D02*
X92459000Y-70539300D01*
X98450000Y-77400000D02*
X98450000Y-76530300D01*
X92459000Y-69575700D02*
X92984700Y-69050000D01*
X92459000Y-69659800D02*
X92459000Y-69575700D01*
D31*
X103700000Y-69050000D02*
X105200000Y-69050000D01*
D32*
X99450000Y-76450000D02*
X99450000Y-77400000D01*
X99700000Y-76200000D02*
X99450000Y-76450000D01*
D31*
X103000000Y-75500000D02*
X102500000Y-76000000D01*
X106450000Y-75500000D02*
X103000000Y-75500000D01*
D32*
X102450000Y-76050000D02*
X102500000Y-76000000D01*
X102450000Y-77400000D02*
X102450000Y-76050000D01*
X99950000Y-76450000D02*
X99700000Y-76200000D01*
X99950000Y-77400000D02*
X99950000Y-76450000D01*
D31*
X103700000Y-70800000D02*
X103700000Y-69050000D01*
X99700000Y-74800000D02*
X103700000Y-70800000D01*
X99700000Y-76200000D02*
X99700000Y-74800000D01*
X105200000Y-69050000D02*
X106112600Y-69050000D01*
X106835000Y-69335000D02*
X108700000Y-69335000D01*
X106550000Y-69050000D02*
X106835000Y-69335000D01*
X106112600Y-69050000D02*
X106550000Y-69050000D01*
D32*
X111494300Y-69740400D02*
X106450000Y-74784700D01*
X113792100Y-69740400D02*
X111494300Y-69740400D01*
X113990400Y-69542100D02*
X113792100Y-69740400D01*
X113990400Y-65004600D02*
X113990400Y-69542100D01*
X113845400Y-64859600D02*
X113990400Y-65004600D01*
X108319200Y-64859600D02*
X113845400Y-64859600D01*
X106112600Y-67066200D02*
X108319200Y-64859600D01*
X106112600Y-69050000D02*
X106112600Y-67066200D01*
X106450000Y-75500000D02*
X106450000Y-74784700D01*
X94950000Y-82550000D02*
X96300000Y-82550000D01*
X94700000Y-82800000D02*
X94950000Y-82550000D01*
D31*
X94100000Y-83400000D02*
X94700000Y-82800000D01*
X94100000Y-84600000D02*
X94100000Y-83400000D01*
X93200000Y-85500000D02*
X94100000Y-84600000D01*
X91950000Y-85500000D02*
X93200000Y-85500000D01*
D32*
X102450000Y-85100000D02*
X102450000Y-84200000D01*
X102900000Y-85550000D02*
X102450000Y-85100000D01*
D31*
X103450000Y-86100000D02*
X102900000Y-85550000D01*
X104650000Y-86100000D02*
X103450000Y-86100000D01*
X91950000Y-86550000D02*
X91900000Y-86600000D01*
X91950000Y-85500000D02*
X91950000Y-86550000D01*
X117000000Y-67350000D02*
X116950000Y-67300000D01*
X117000000Y-70400000D02*
X117000000Y-67350000D01*
X104650000Y-85150000D02*
X104600000Y-85100000D01*
X104650000Y-86100000D02*
X104650000Y-85150000D01*
X118700000Y-69050000D02*
X116950000Y-67300000D01*
X120400000Y-69050000D02*
X118700000Y-69050000D01*
X120450000Y-69000000D02*
X120400000Y-69050000D01*
X122500000Y-69000000D02*
X120450000Y-69000000D01*
D32*
X127450000Y-67200000D02*
X127450000Y-67915300D01*
X103100000Y-78050000D02*
X103790300Y-78050000D01*
X104371600Y-77468700D02*
X103790300Y-78050000D01*
X105973600Y-77468700D02*
X104371600Y-77468700D01*
X107390400Y-76051900D02*
X105973600Y-77468700D01*
X107390400Y-74943100D02*
X107390400Y-76051900D01*
X110423800Y-71909700D02*
X107390400Y-74943100D01*
X123455700Y-71909700D02*
X110423800Y-71909700D01*
X123455700Y-71909600D02*
X123455700Y-71909700D01*
X127450000Y-67915300D02*
X123455700Y-71909600D01*
X137965000Y-75100000D02*
X137169700Y-75100000D01*
X130435000Y-78800000D02*
X131230300Y-78800000D01*
X131230300Y-78229400D02*
X134359700Y-75100000D01*
X131230300Y-78800000D02*
X131230300Y-78229400D01*
X134359700Y-75100000D02*
X137169700Y-75100000D01*
X130335900Y-67245600D02*
X130290300Y-67200000D01*
X131016600Y-67245600D02*
X130335900Y-67245600D01*
X129350000Y-67200000D02*
X130290300Y-67200000D01*
X140600000Y-73640400D02*
X140759600Y-73800000D01*
X141235000Y-75100000D02*
X141235000Y-74210000D01*
X141235000Y-74210000D02*
X140825000Y-73800000D01*
X140825000Y-73800000D02*
X140759600Y-73800000D01*
X129600000Y-72700000D02*
X129600000Y-73490300D01*
X140600000Y-71000000D02*
X140600000Y-71790300D01*
X140600000Y-71790300D02*
X140600000Y-73640400D01*
X130540400Y-73640400D02*
X140600000Y-73640400D01*
X140600000Y-69400000D02*
X140600000Y-71000000D01*
X140350000Y-68359700D02*
X140350000Y-67400000D01*
X140600000Y-68609700D02*
X140350000Y-68359700D01*
X140600000Y-69400000D02*
X140600000Y-68609700D01*
X130390300Y-73490300D02*
X129600000Y-73490300D01*
X130540400Y-73640400D02*
X130390300Y-73490300D01*
X103970300Y-78550000D02*
X103100000Y-78550000D01*
X104276500Y-78243800D02*
X103970300Y-78550000D01*
X105603000Y-78243800D02*
X104276500Y-78243800D01*
X105788300Y-78429100D02*
X105603000Y-78243800D01*
X125850800Y-78429100D02*
X105788300Y-78429100D01*
X128235300Y-76044600D02*
X125850800Y-78429100D01*
X129387800Y-76044600D02*
X128235300Y-76044600D01*
X130540400Y-74892000D02*
X129387800Y-76044600D01*
X130540400Y-73640400D02*
X130540400Y-74892000D01*
X81250000Y-70100000D02*
X81250000Y-70815300D01*
X85470800Y-75036100D02*
X81250000Y-70815300D01*
X93286100Y-75036100D02*
X85470800Y-75036100D01*
X96300000Y-78050000D02*
X93286100Y-75036100D01*
X81400000Y-74200000D02*
X81400000Y-75800000D01*
X82648100Y-77742200D02*
X82290300Y-78100000D01*
X94257400Y-77742200D02*
X82648100Y-77742200D01*
X95565200Y-79050000D02*
X94257400Y-77742200D01*
X96300000Y-79050000D02*
X95565200Y-79050000D01*
X81350000Y-78100000D02*
X82290300Y-78100000D01*
X81400000Y-77334700D02*
X81400000Y-75800000D01*
X81350000Y-77384700D02*
X81400000Y-77334700D01*
X81350000Y-78100000D02*
X81350000Y-77384700D01*
X80409600Y-79755700D02*
X81350000Y-78815300D01*
X80409600Y-86966600D02*
X80409600Y-79755700D01*
X80558400Y-87115400D02*
X80409600Y-86966600D01*
X84457400Y-87115400D02*
X80558400Y-87115400D01*
X88190300Y-83382500D02*
X84457400Y-87115400D01*
X93211900Y-83382500D02*
X88190300Y-83382500D01*
X94544400Y-82050000D02*
X93211900Y-83382500D01*
X96300000Y-82050000D02*
X94544400Y-82050000D01*
X81350000Y-78100000D02*
X81350000Y-78815300D01*
D31*
X91900000Y-78400000D02*
X94000000Y-78400000D01*
D32*
X95150000Y-79550000D02*
X94000000Y-78400000D01*
X96300000Y-79550000D02*
X95150000Y-79550000D01*
D31*
X91950000Y-78450000D02*
X91900000Y-78400000D01*
X91950000Y-79500000D02*
X91950000Y-78450000D01*
D32*
X97000000Y-86700000D02*
X97000000Y-87750000D01*
X97500000Y-86200000D02*
X97000000Y-86700000D01*
X97900000Y-86200000D02*
X97500000Y-86200000D01*
X98450000Y-85650000D02*
X97900000Y-86200000D01*
X98450000Y-84200000D02*
X98450000Y-85650000D01*
D31*
X101900000Y-87750000D02*
X101900000Y-87525000D01*
D32*
X100344000Y-81443800D02*
X100377000Y-81476800D01*
X98648000Y-79978800D02*
X98971600Y-79978800D01*
X98110000Y-80516800D02*
X98648000Y-79978800D01*
X98110000Y-79815000D02*
X98110000Y-80516800D01*
X99056200Y-78868800D02*
X98110000Y-79815000D01*
X99056200Y-82731200D02*
X98110000Y-81785000D01*
X98648000Y-81621200D02*
X98971600Y-81621200D01*
X98110000Y-81083200D02*
X98648000Y-81621200D01*
X98110000Y-81785000D02*
X98110000Y-81083200D01*
X100377000Y-78901800D02*
X100344000Y-78868800D01*
X100377000Y-80123200D02*
X100377000Y-78901800D01*
X100344000Y-80156200D02*
X100377000Y-80123200D01*
D31*
X101900000Y-87750000D02*
X102800000Y-87750000D01*
X97000000Y-87750000D02*
X97975000Y-87750000D01*
X106150000Y-89000000D02*
X108465000Y-89000000D01*
X104900000Y-87750000D02*
X106150000Y-89000000D01*
X102800000Y-87750000D02*
X104900000Y-87750000D01*
X108650000Y-88815000D02*
X108465000Y-89000000D01*
X108650000Y-86100000D02*
X108650000Y-88815000D01*
X108650000Y-84300000D02*
X108650000Y-86100000D01*
X105480000Y-84300000D02*
X108650000Y-84300000D01*
X103980000Y-82800000D02*
X105480000Y-84300000D01*
D32*
X103730000Y-83050000D02*
X103100000Y-83050000D01*
X103980000Y-82800000D02*
X103730000Y-83050000D01*
D33*
X100344000Y-81443800D02*
X101631000Y-81443800D01*
X99056200Y-81443800D02*
X99056200Y-82731200D01*
X100344000Y-78868800D02*
X100344000Y-80156200D01*
X97768800Y-78868800D02*
X99056200Y-78868800D01*
X99056200Y-81443800D02*
X97768800Y-81443800D01*
X100344000Y-81443800D02*
X100344000Y-82731200D01*
X97768800Y-82731200D02*
X97843800Y-82731200D01*
X99056200Y-78868800D02*
X99056200Y-80156200D01*
X97768800Y-80156200D02*
X99056200Y-80156200D01*
D32*
X97768800Y-80156200D02*
X97768800Y-78868800D01*
D33*
X100344000Y-80156200D02*
X101631000Y-80156200D01*
X99056200Y-80156200D02*
X99056300Y-80156200D01*
X101631000Y-82731200D02*
X100344000Y-82731200D01*
X101631000Y-82731200D02*
X100344000Y-82731200D01*
X99056300Y-82731200D02*
X99056200Y-82731200D01*
X97768800Y-81443800D02*
X99056200Y-81443800D01*
D32*
X97768800Y-78868700D02*
X97768800Y-78868800D01*
X99056300Y-78868700D02*
X99056200Y-78868800D01*
X101631000Y-78868700D02*
X101631000Y-78868800D01*
X101631000Y-81122200D02*
X101631000Y-81443700D01*
X101631000Y-81121900D02*
X101631000Y-81122200D01*
D33*
X101631000Y-81443800D02*
X101631000Y-82087500D01*
X101631000Y-81443800D02*
X101631000Y-82087500D01*
D32*
X100344000Y-78868800D02*
X100344000Y-78868700D01*
X101631000Y-80638700D02*
X101631000Y-80156200D01*
X101631000Y-80639000D02*
X101631000Y-80638700D01*
X100344000Y-81443800D02*
X100344000Y-81443700D01*
X99056300Y-80800100D02*
X99056300Y-81443700D01*
X99056200Y-80800000D02*
X99056300Y-80800100D01*
D33*
X97768800Y-82731200D02*
X97768800Y-81443800D01*
D32*
X99056200Y-82731200D02*
X98110000Y-81785000D01*
X98110000Y-81785000D02*
X97768800Y-81443800D01*
X97768800Y-81443800D02*
X97768800Y-81443700D01*
X97768800Y-81443700D02*
X97768800Y-80156200D01*
D33*
X101631000Y-80156200D02*
X101631000Y-80638700D01*
X100344000Y-78868800D02*
X101631000Y-78868800D01*
X101631000Y-78868800D02*
X101631000Y-80156200D01*
X101631000Y-81121900D02*
X101631000Y-81122200D01*
X101631000Y-81122200D02*
X101631000Y-81443700D01*
X101631000Y-81443700D02*
X101631000Y-81443800D01*
X97768800Y-81443800D02*
X97768800Y-81443700D01*
X97768800Y-81443700D02*
X97768800Y-80156200D01*
D32*
X99056200Y-82731200D02*
X99056300Y-82731200D01*
D33*
X100344000Y-82731200D02*
X100343800Y-82731200D01*
X100343800Y-82731200D02*
X99056300Y-82731200D01*
X97768800Y-82731200D02*
X97843800Y-82731200D01*
D32*
X99056300Y-82731200D02*
X100343800Y-82731200D01*
X100343800Y-82731200D02*
X100344000Y-82731200D01*
D33*
X101631000Y-80638700D02*
X101631000Y-80639000D01*
X101631000Y-80639000D02*
X101631000Y-81121900D01*
X99056200Y-80156200D02*
X99056200Y-80800000D01*
X99056200Y-80800000D02*
X99056200Y-81443800D01*
X100344000Y-81443800D02*
X100344000Y-81443700D01*
X99056300Y-80156200D02*
X100343800Y-80156200D01*
X100343800Y-80156200D02*
X100344000Y-80156200D01*
D32*
X101900000Y-87750000D02*
X101900000Y-87525000D01*
X101470000Y-84220000D02*
X101450000Y-84200000D01*
X101470000Y-85703900D02*
X101470000Y-84220000D01*
X101900000Y-86133900D02*
X101470000Y-85703900D01*
X101900000Y-87525000D02*
X101900000Y-86133900D01*
X103730000Y-82550000D02*
X103980000Y-82800000D01*
X103100000Y-82550000D02*
X103730000Y-82550000D01*
X102796600Y-82550000D02*
X102615400Y-82731200D01*
X103100000Y-82550000D02*
X102796600Y-82550000D01*
X101631300Y-82731200D02*
X102615400Y-82731200D01*
D33*
X100344000Y-81443700D02*
X100344000Y-80156200D01*
X101631000Y-82087500D02*
X101631000Y-82503100D01*
X101631000Y-82503100D02*
X101631000Y-82515200D01*
X101631000Y-82087500D02*
X101631000Y-82503100D01*
X101631000Y-82503100D02*
X101631000Y-82515200D01*
X101631000Y-82515200D02*
X101631000Y-82515400D01*
X101631000Y-82515200D02*
X101631000Y-82515400D01*
D32*
X101631300Y-78868700D02*
X101631000Y-78868700D01*
X101631300Y-80156200D02*
X101631000Y-80156200D01*
X101631300Y-81443700D02*
X101631000Y-81443700D01*
D33*
X101631000Y-82515400D02*
X101631000Y-82623300D01*
X101631000Y-82515400D02*
X101631000Y-82623300D01*
X99056200Y-81443800D02*
X100343700Y-81443800D01*
X100343700Y-81443800D02*
X100344000Y-81443800D01*
D32*
X100343700Y-81443800D02*
X100343800Y-81443700D01*
D33*
X99056200Y-78868800D02*
X99700100Y-78868800D01*
D32*
X99700100Y-78868800D02*
X99056200Y-78868800D01*
D33*
X99700100Y-78868800D02*
X100343700Y-78868800D01*
X100343700Y-78868800D02*
X100344000Y-78868800D01*
D32*
X100344000Y-78868800D02*
X100343700Y-78868800D01*
X100343700Y-78868800D02*
X99700100Y-78868800D01*
X100343700Y-78868800D02*
X100343800Y-78868700D01*
D33*
X101631000Y-82623300D02*
X101631000Y-82677200D01*
X101631000Y-82623300D02*
X101631000Y-82677200D01*
X101631000Y-82677200D02*
X101631000Y-82704200D01*
X101631000Y-82677200D02*
X101631000Y-82704200D01*
D32*
X98450000Y-82731200D02*
X98450000Y-84200000D01*
D33*
X97843800Y-82731200D02*
X98450000Y-82731200D01*
X98450000Y-82731200D02*
X99056200Y-82731200D01*
X101631000Y-82704200D02*
X101631000Y-82717700D01*
X101631000Y-82704200D02*
X101631000Y-82717700D01*
X101631000Y-82717700D02*
X101631000Y-82724400D01*
X101631000Y-82717700D02*
X101631000Y-82724400D01*
X101631000Y-82724400D02*
X101631000Y-82727800D01*
X101631000Y-82724400D02*
X101631000Y-82727800D01*
X101631000Y-82727800D02*
X101631000Y-82729500D01*
X101631000Y-82727800D02*
X101631000Y-82729500D01*
X101631000Y-82729500D02*
X101631000Y-82730300D01*
X101631000Y-82729500D02*
X101631000Y-82730300D01*
X101631000Y-82730300D02*
X101631000Y-82730700D01*
X101631000Y-82730300D02*
X101631000Y-82730700D01*
X101631000Y-82730700D02*
X101631000Y-82730900D01*
X101631000Y-82730700D02*
X101631000Y-82730900D01*
X101631000Y-82730900D02*
X101631000Y-82731000D01*
X101631000Y-82730900D02*
X101631000Y-82731000D01*
X101631000Y-82731000D02*
X101631000Y-82731100D01*
X101631000Y-82731100D02*
X101631000Y-82731200D01*
X101631000Y-82731000D02*
X101631000Y-82731100D01*
X101631000Y-82731100D02*
X101631000Y-82731200D01*
D32*
X101631200Y-82731100D02*
X101631300Y-82731200D01*
X101631000Y-82731100D02*
X101631200Y-82731100D01*
X130435000Y-86299700D02*
X129250000Y-87484700D01*
X130435000Y-83000000D02*
X130435000Y-86299700D01*
X129250000Y-88200000D02*
X129250000Y-87484700D01*
X133469700Y-83000000D02*
X130435000Y-83000000D01*
X137169700Y-79300000D02*
X133469700Y-83000000D01*
X137965000Y-79300000D02*
X137169700Y-79300000D01*
X127350000Y-88200000D02*
X127350000Y-87484700D01*
X123290400Y-83425100D02*
X127350000Y-87484700D01*
X106698900Y-83425100D02*
X123290400Y-83425100D01*
X105323800Y-82050000D02*
X106698900Y-83425100D01*
X103100000Y-82050000D02*
X105323800Y-82050000D01*
X140500000Y-77100000D02*
X140500000Y-77600000D01*
X141235000Y-79300000D02*
X141235000Y-79145000D01*
X141235000Y-79145000D02*
X140500000Y-78410000D01*
X140500000Y-78410000D02*
X140500000Y-77600000D01*
X138300000Y-82709700D02*
X139509700Y-81500000D01*
X141235000Y-79300000D02*
X141235000Y-80190000D01*
X141235000Y-80190000D02*
X139925000Y-81500000D01*
X139925000Y-81500000D02*
X139509700Y-81500000D01*
X138300000Y-87834700D02*
X138350000Y-87884700D01*
X138300000Y-85100000D02*
X138300000Y-87834700D01*
X138350000Y-88600000D02*
X138350000Y-87884700D01*
X138300000Y-85100000D02*
X138300000Y-83500000D01*
X138300000Y-83500000D02*
X138300000Y-82709700D01*
X138350000Y-88600000D02*
X137409700Y-88600000D01*
X137094300Y-88915400D02*
X137409700Y-88600000D01*
X128452600Y-88915400D02*
X137094300Y-88915400D01*
X128290400Y-88753200D02*
X128452600Y-88915400D01*
X128290400Y-87617400D02*
X128290400Y-88753200D01*
X123137500Y-82464500D02*
X128290400Y-87617400D01*
X106417600Y-82464500D02*
X123137500Y-82464500D01*
X105503100Y-81550000D02*
X106417600Y-82464500D01*
X103100000Y-81550000D02*
X105503100Y-81550000D01*
X83200000Y-86400000D02*
X81350000Y-86400000D01*
X88100000Y-81500000D02*
X83200000Y-86400000D01*
X93547200Y-81500000D02*
X88100000Y-81500000D01*
X93997200Y-81050000D02*
X93547200Y-81500000D01*
X96300000Y-81050000D02*
X93997200Y-81050000D01*
X97950000Y-84200000D02*
X97950000Y-84890300D01*
X90600000Y-91500000D02*
X89000000Y-91500000D01*
X94100000Y-91750000D02*
X93384700Y-91750000D01*
X90600000Y-91500000D02*
X91390300Y-91500000D01*
X93134700Y-91500000D02*
X91390300Y-91500000D01*
X93134700Y-89705600D02*
X93134700Y-91500000D01*
X97950000Y-84890300D02*
X93134700Y-89705600D01*
X93134700Y-91500000D02*
X93384700Y-91750000D01*
D31*
X108700000Y-66065000D02*
X109957500Y-66065000D01*
X111215000Y-66065000D02*
X112450000Y-67300000D01*
X109957500Y-66065000D02*
X111215000Y-66065000D01*
D32*
X100950000Y-76628600D02*
X100950000Y-77400000D01*
X103758900Y-73819700D02*
X100950000Y-76628600D01*
X105772600Y-73819700D02*
X103758900Y-73819700D01*
X109957500Y-69634800D02*
X105772600Y-73819700D01*
X109957500Y-66065000D02*
X109957500Y-69634800D01*
X127165000Y-78800000D02*
X126369700Y-78800000D01*
X103100000Y-79050000D02*
X103790300Y-79050000D01*
X104149600Y-79050000D02*
X103790300Y-79050000D01*
X104475500Y-78724100D02*
X104149600Y-79050000D01*
X105404000Y-78724100D02*
X104475500Y-78724100D01*
X105589500Y-78909600D02*
X105404000Y-78724100D01*
X126260100Y-78909600D02*
X105589500Y-78909600D01*
X126369700Y-78800000D02*
X126260100Y-78909600D01*
X124352400Y-83000000D02*
X127165000Y-83000000D01*
X123336600Y-81984200D02*
X124352400Y-83000000D01*
X106956300Y-81984200D02*
X123336600Y-81984200D01*
X106022100Y-81050000D02*
X106956300Y-81984200D01*
X103100000Y-81050000D02*
X106022100Y-81050000D01*
X138950000Y-93500000D02*
X137409700Y-93500000D01*
X117030300Y-93500000D02*
X137409700Y-93500000D01*
X112530300Y-89000000D02*
X117030300Y-93500000D01*
X111735000Y-89000000D02*
X112530300Y-89000000D01*
X111735000Y-89000000D02*
X110939700Y-89000000D01*
X109687600Y-87747900D02*
X109455700Y-87747900D01*
X110939700Y-89000000D02*
X109687600Y-87747900D01*
X103100000Y-83550000D02*
X103790300Y-83550000D01*
X103790300Y-83838000D02*
X103451100Y-84177200D01*
X103790300Y-83550000D02*
X103790300Y-83838000D01*
D34*
X90200000Y-65600000D02*
X90200000Y-67000000D01*
X89100000Y-64500000D02*
X90200000Y-65600000D01*
X78700000Y-64500000D02*
X89100000Y-64500000D01*
X76840500Y-66359500D02*
X78700000Y-64500000D01*
X71378500Y-66359500D02*
X76840500Y-66359500D01*
X69080000Y-64061000D02*
X71378500Y-66359500D01*
X89000000Y-93700000D02*
X89000000Y-94230000D01*
X89000000Y-95100000D02*
X89000000Y-94230000D01*
X88500000Y-95600000D02*
X89000000Y-95100000D01*
X77200000Y-95600000D02*
X88500000Y-95600000D01*
X71550000Y-89950000D02*
X77200000Y-95600000D01*
X71550000Y-72598800D02*
X71550000Y-89950000D01*
X64000000Y-65048800D02*
X71550000Y-72598800D01*
X64000000Y-64061000D02*
X64000000Y-65048800D01*
X89000000Y-94230000D02*
X89000000Y-93700000D01*
X76801000Y-74200000D02*
X79200000Y-74200000D01*
X66540000Y-63939000D02*
X76801000Y-74200000D01*
X142700000Y-83500000D02*
X140500000Y-83500000D01*
X145100000Y-81100000D02*
X142700000Y-83500000D01*
X145100000Y-66700000D02*
X145100000Y-81100000D01*
X139500000Y-61100000D02*
X145100000Y-66700000D01*
X64299000Y-61100000D02*
X139500000Y-61100000D01*
X61460000Y-63939000D02*
X64299000Y-61100000D01*
X100300000Y-64600000D02*
X100300000Y-67000000D01*
X99100000Y-63400000D02*
X100300000Y-64600000D01*
X78000000Y-63400000D02*
X99100000Y-63400000D01*
X76040500Y-65359500D02*
X78000000Y-63400000D01*
X72052600Y-65359500D02*
X76040500Y-65359500D01*
X71620000Y-64926900D02*
X72052600Y-65359500D01*
X71620000Y-63939000D02*
X71620000Y-64926900D01*
X137000000Y-71000000D02*
X138400000Y-71000000D01*
X128250000Y-62250000D02*
X137000000Y-71000000D01*
X77469500Y-62250000D02*
X128250000Y-62250000D01*
X75658500Y-64061000D02*
X77469500Y-62250000D01*
X74160000Y-64061000D02*
X75658500Y-64061000D01*
D32*
X79400000Y-91100000D02*
X74011800Y-91100000D01*
X104700000Y-92700000D02*
X103909700Y-92700000D01*
X103909700Y-92897600D02*
X103909700Y-92700000D01*
X99021000Y-97786300D02*
X103909700Y-92897600D01*
X67117300Y-97786300D02*
X99021000Y-97786300D01*
X64170000Y-94839000D02*
X67117300Y-97786300D01*
X79200000Y-82100000D02*
X78259700Y-82100000D01*
X77863700Y-82496000D02*
X77777200Y-82496000D01*
X78259700Y-82100000D02*
X77863700Y-82496000D01*
X99700000Y-93900000D02*
X99700000Y-94780000D01*
X99700000Y-94780000D02*
X97174000Y-97306000D01*
X97174000Y-97306000D02*
X69055000Y-97306000D01*
X69055000Y-97306000D02*
X66710000Y-94961000D01*
X79990300Y-73390300D02*
X79200000Y-73390300D01*
X80140400Y-73540400D02*
X79990300Y-73390300D01*
X80140400Y-74822900D02*
X80140400Y-73540400D01*
X79972900Y-74990400D02*
X80140400Y-74822900D01*
X73680700Y-74990400D02*
X79972900Y-74990400D01*
X73390300Y-74700000D02*
X73680700Y-74990400D01*
X79200000Y-72600000D02*
X79200000Y-73390300D01*
X72600000Y-74700000D02*
X72875100Y-74700000D01*
X72875100Y-74700000D02*
X73390300Y-74700000D01*
X72875100Y-74700000D02*
X72875100Y-75841000D01*
X98100000Y-93900000D02*
X98100000Y-94780000D01*
X98100000Y-94780000D02*
X96054300Y-96825700D01*
X96054300Y-96825700D02*
X71236700Y-96825700D01*
X71236700Y-96825700D02*
X69250000Y-94839000D01*
X101300000Y-93900000D02*
X102090300Y-93900000D01*
X54010000Y-94839000D02*
X55048800Y-94839000D01*
X102090300Y-93739600D02*
X102090300Y-93900000D01*
X104070300Y-91759600D02*
X102090300Y-93739600D01*
X105292900Y-91759600D02*
X104070300Y-91759600D01*
X105490400Y-91957100D02*
X105292900Y-91759600D01*
X105490400Y-93472900D02*
X105490400Y-91957100D01*
X100688700Y-98274600D02*
X105490400Y-93472900D01*
X58354600Y-98274600D02*
X100688700Y-98274600D01*
X55048800Y-94968800D02*
X58354600Y-98274600D01*
X55048800Y-94839000D02*
X55048800Y-94968800D01*
X97950000Y-77400000D02*
X97950000Y-76709700D01*
X88500000Y-69200000D02*
X89290300Y-69200000D01*
X90200000Y-69200000D02*
X89290300Y-69200000D01*
X90200000Y-69200000D02*
X90200000Y-70140300D01*
X91380600Y-70140300D02*
X97950000Y-76709700D01*
X90200000Y-70140300D02*
X91380600Y-70140300D01*
X86900000Y-69200000D02*
X90686800Y-72986800D01*
X97450000Y-76889100D02*
X97450000Y-77400000D01*
X90686800Y-72986800D02*
X93547700Y-72986800D01*
X93547700Y-72986800D02*
X97450000Y-76889100D01*
X85300000Y-69200000D02*
X86900000Y-69200000D01*
X95744600Y-78550000D02*
X96300000Y-78550000D01*
X93418300Y-76223700D02*
X95744600Y-78550000D01*
X85023700Y-76223700D02*
X93418300Y-76223700D01*
X82190300Y-73390300D02*
X85023700Y-76223700D01*
X81400000Y-73390300D02*
X82190300Y-73390300D01*
X81400000Y-72600000D02*
X81400000Y-73390300D01*
X127400000Y-74300000D02*
X127400000Y-72700000D01*
X127400000Y-74300000D02*
X127400000Y-75090300D01*
X124721300Y-77769000D02*
X108072600Y-77769000D01*
X127400000Y-75090300D02*
X124721300Y-77769000D01*
X104328900Y-79550000D02*
X103100000Y-79550000D01*
X104674500Y-79204400D02*
X104328900Y-79550000D01*
X105205000Y-79204400D02*
X104674500Y-79204400D01*
X105550600Y-79550000D02*
X105205000Y-79204400D01*
X106432600Y-79550000D02*
X105550600Y-79550000D01*
X135290300Y-80109700D02*
X127400000Y-80109700D01*
X137509700Y-77890300D02*
X135290300Y-80109700D01*
X138300000Y-77890300D02*
X137509700Y-77890300D01*
X138300000Y-77100000D02*
X138300000Y-77890300D01*
X127400000Y-80900000D02*
X127400000Y-80109700D01*
X125939200Y-80379500D02*
X126459700Y-80900000D01*
X106885700Y-80379500D02*
X125939200Y-80379500D01*
X106715200Y-80550000D02*
X106885700Y-80379500D01*
X103100000Y-80550000D02*
X106715200Y-80550000D01*
X127400000Y-80900000D02*
X126459700Y-80900000D01*
X81400000Y-83700000D02*
X81400000Y-82100000D01*
X92911200Y-80050000D02*
X96300000Y-80050000D01*
X92745800Y-80215400D02*
X92911200Y-80050000D01*
X91150600Y-80215400D02*
X92745800Y-80215400D01*
X90990400Y-80055200D02*
X91150600Y-80215400D01*
X90990400Y-78933400D02*
X90990400Y-80055200D01*
X90841600Y-78784600D02*
X90990400Y-78933400D01*
X83925100Y-78784600D02*
X90841600Y-78784600D01*
X81400000Y-81309700D02*
X83925100Y-78784600D01*
X81400000Y-82100000D02*
X81400000Y-81309700D01*
X96300000Y-83550000D02*
X95609700Y-83550000D01*
X81600000Y-91100000D02*
X81600000Y-90309700D01*
X81600000Y-93000000D02*
X81600000Y-91100000D01*
X82080300Y-89829400D02*
X81600000Y-90309700D01*
X89795600Y-89829400D02*
X82080300Y-89829400D01*
X95609700Y-84015300D02*
X89795600Y-89829400D01*
X95609700Y-83550000D02*
X95609700Y-84015300D01*
X104600000Y-90400000D02*
X104700000Y-90500000D01*
X104600000Y-89200000D02*
X104600000Y-90400000D01*
X103395000Y-86950000D02*
X103400000Y-86950000D01*
X101950000Y-85505100D02*
X103395000Y-86950000D01*
X101950000Y-84200000D02*
X101950000Y-85505100D01*
D35*
X100915400Y-84234600D02*
X100950000Y-84200000D01*
X100915400Y-84344600D02*
X100915400Y-84234600D01*
D32*
X101300000Y-91700000D02*
X101300000Y-90759700D01*
X100915400Y-90375100D02*
X100915400Y-84344600D01*
X101300000Y-90759700D02*
X100915400Y-90375100D01*
X99700000Y-91700000D02*
X99700000Y-90759700D01*
X99450000Y-86165600D02*
X99450000Y-84200000D01*
X99375300Y-86240300D02*
X99450000Y-86165600D01*
X99375300Y-90435000D02*
X99375300Y-86240300D01*
X99700000Y-90759700D02*
X99375300Y-90435000D01*
X98950000Y-85986200D02*
X98950000Y-84200000D01*
X98808100Y-86128100D02*
X98950000Y-85986200D01*
X98808100Y-90051600D02*
X98808100Y-86128100D01*
X98100000Y-90759700D02*
X98808100Y-90051600D01*
X98100000Y-91700000D02*
X98100000Y-90759700D01*
D36*
G36*
X61329862Y-62605426D02*
X61195914Y-62605309D01*
X60705620Y-62807894D01*
X60330173Y-63182687D01*
X60171405Y-63565043D01*
X60089800Y-63368031D01*
X59854188Y-63306377D01*
X59099605Y-64060960D01*
X59854188Y-64815543D01*
X60089800Y-64753889D01*
X60211256Y-64408810D01*
X60328854Y-64693420D01*
X60703647Y-65068867D01*
X61193587Y-65272308D01*
X61724086Y-65272771D01*
X62214380Y-65070186D01*
X62589827Y-64695393D01*
X62704843Y-64418403D01*
X62868854Y-64815340D01*
X62965000Y-64911654D01*
X62965000Y-65048795D01*
X62964999Y-65048800D01*
X63043785Y-65444877D01*
X63268144Y-65780656D01*
X66853948Y-69366459D01*
X66635914Y-69366269D01*
X66145620Y-69568854D01*
X65770173Y-69943647D01*
X65765829Y-69954109D01*
X65670858Y-69973000D01*
X65660803Y-69975000D01*
X62289511Y-69975000D01*
X62278162Y-69914683D01*
X62139090Y-69698559D01*
X61926890Y-69553569D01*
X61675000Y-69502560D01*
X60925000Y-69502560D01*
X60689683Y-69546838D01*
X60473559Y-69685910D01*
X60328569Y-69898110D01*
X60277560Y-70150000D01*
X60277560Y-71350000D01*
X60321838Y-71585317D01*
X60388329Y-71688646D01*
X60386673Y-71690302D01*
X60290000Y-71923691D01*
X60290000Y-72364250D01*
X60448750Y-72523000D01*
X61173000Y-72523000D01*
X61173000Y-72503000D01*
X61427000Y-72503000D01*
X61427000Y-72523000D01*
X62151250Y-72523000D01*
X62310000Y-72364250D01*
X62310000Y-71923691D01*
X62213327Y-71690302D01*
X62211957Y-71688932D01*
X62271431Y-71601890D01*
X62287002Y-71525000D01*
X63878984Y-71525000D01*
X64419108Y-72065124D01*
X64092801Y-72082852D01*
X63737071Y-72230200D01*
X63675417Y-72465812D01*
X64430000Y-73220395D01*
X64444143Y-73206253D01*
X64623748Y-73385858D01*
X64609605Y-73400000D01*
X64623748Y-73414143D01*
X64444143Y-73593748D01*
X64430000Y-73579605D01*
X63675417Y-74334188D01*
X63737071Y-74569800D01*
X64237480Y-74745927D01*
X64712300Y-74720131D01*
X64712300Y-75741684D01*
X63185000Y-77268984D01*
X63185000Y-76823690D01*
X63088327Y-76590301D01*
X62909698Y-76411673D01*
X62676309Y-76315000D01*
X61835750Y-76315000D01*
X61677000Y-76473750D01*
X61677000Y-77573000D01*
X61697000Y-77573000D01*
X61697000Y-77827000D01*
X61677000Y-77827000D01*
X61677000Y-77847000D01*
X61423000Y-77847000D01*
X61423000Y-77827000D01*
X60073750Y-77827000D01*
X59915000Y-77985750D01*
X59915000Y-78576310D01*
X60011673Y-78809699D01*
X60053634Y-78851660D01*
X59953569Y-78998110D01*
X59902560Y-79250000D01*
X59902560Y-80750000D01*
X59921234Y-80849244D01*
X58759545Y-79687555D01*
X58456209Y-79484873D01*
X58098400Y-79413700D01*
X55112449Y-79413700D01*
X55056442Y-79326100D01*
X54089540Y-79326100D01*
X54089540Y-79346100D01*
X53835540Y-79346100D01*
X53835540Y-79326100D01*
X52868638Y-79326100D01*
X52744258Y-79520640D01*
X52834197Y-79737793D01*
X52691109Y-79947210D01*
X52640100Y-80199100D01*
X52640100Y-80599100D01*
X52664484Y-80728689D01*
X52640100Y-80849100D01*
X52640100Y-81249100D01*
X52664484Y-81378689D01*
X52640100Y-81499100D01*
X52640100Y-81899100D01*
X52664484Y-82028689D01*
X52640100Y-82149100D01*
X52640100Y-82549100D01*
X52659990Y-82654805D01*
X52652540Y-82672790D01*
X52652540Y-82740350D01*
X52681544Y-82769354D01*
X52684378Y-82784417D01*
X52823450Y-83000541D01*
X52967696Y-83099100D01*
X52811290Y-83099100D01*
X52652540Y-83257850D01*
X52652540Y-83325410D01*
X52749213Y-83558799D01*
X52839066Y-83648652D01*
X52744258Y-83877560D01*
X52868638Y-84072100D01*
X53835540Y-84072100D01*
X53835540Y-84052100D01*
X54089540Y-84052100D01*
X54089540Y-84072100D01*
X55056442Y-84072100D01*
X55180822Y-83877560D01*
X55086014Y-83648652D01*
X55175867Y-83558799D01*
X55272540Y-83325410D01*
X55272540Y-83257850D01*
X55113790Y-83099100D01*
X54955473Y-83099100D01*
X55088981Y-83013190D01*
X55233971Y-82800990D01*
X55239575Y-82773315D01*
X55272540Y-82740350D01*
X55272540Y-82672790D01*
X55264072Y-82652347D01*
X55284980Y-82549100D01*
X55284980Y-82149100D01*
X55260596Y-82019511D01*
X55284980Y-81899100D01*
X55284980Y-81499100D01*
X55260596Y-81369511D01*
X55277973Y-81283700D01*
X57711110Y-81283700D01*
X59388555Y-82961145D01*
X59691891Y-83163827D01*
X59933002Y-83211787D01*
X59946838Y-83285317D01*
X60085910Y-83501441D01*
X60298110Y-83646431D01*
X60550000Y-83697440D01*
X60644268Y-83697440D01*
X60686173Y-83908109D01*
X60888855Y-84211445D01*
X61515000Y-84837590D01*
X61515000Y-85002560D01*
X60850000Y-85002560D01*
X60614683Y-85046838D01*
X60398559Y-85185910D01*
X60253569Y-85398110D01*
X60202560Y-85650000D01*
X60202560Y-88150000D01*
X60246838Y-88385317D01*
X60385910Y-88601441D01*
X60598110Y-88746431D01*
X60850000Y-88797440D01*
X64050000Y-88797440D01*
X64285317Y-88753162D01*
X64501441Y-88614090D01*
X64596990Y-88474250D01*
X64611673Y-88509699D01*
X64790302Y-88688327D01*
X65023691Y-88785000D01*
X66464250Y-88785000D01*
X66623000Y-88626250D01*
X66623000Y-87027000D01*
X66877000Y-87027000D01*
X66877000Y-88626250D01*
X67035750Y-88785000D01*
X68476309Y-88785000D01*
X68709698Y-88688327D01*
X68888327Y-88509699D01*
X68985000Y-88276310D01*
X68985000Y-87185750D01*
X68826250Y-87027000D01*
X66877000Y-87027000D01*
X66623000Y-87027000D01*
X66603000Y-87027000D01*
X66603000Y-86773000D01*
X66623000Y-86773000D01*
X66623000Y-85173750D01*
X66877000Y-85173750D01*
X66877000Y-86773000D01*
X68826250Y-86773000D01*
X68985000Y-86614250D01*
X68985000Y-85523690D01*
X68888327Y-85290301D01*
X68709698Y-85111673D01*
X68476309Y-85015000D01*
X67035750Y-85015000D01*
X66877000Y-85173750D01*
X66623000Y-85173750D01*
X66464250Y-85015000D01*
X66305828Y-85015000D01*
X66317538Y-84986799D01*
X66317862Y-84614833D01*
X66175817Y-84271057D01*
X65913027Y-84007808D01*
X65569499Y-83865162D01*
X65197533Y-83864838D01*
X65197141Y-83865000D01*
X63161823Y-83865000D01*
X63111145Y-83789155D01*
X62900825Y-83578835D01*
X63001441Y-83514090D01*
X63146431Y-83301890D01*
X63197440Y-83050000D01*
X63197440Y-81550000D01*
X63153162Y-81314683D01*
X63046241Y-81148523D01*
X63146431Y-81001890D01*
X63197440Y-80750000D01*
X63197440Y-79448576D01*
X64546016Y-78100000D01*
X66202560Y-78100000D01*
X66202560Y-81900000D01*
X66246838Y-82135317D01*
X66385910Y-82351441D01*
X66598110Y-82496431D01*
X66850000Y-82547440D01*
X68850000Y-82547440D01*
X69085317Y-82503162D01*
X69301441Y-82364090D01*
X69446431Y-82151890D01*
X69497440Y-81900000D01*
X69497440Y-78100000D01*
X69453162Y-77864683D01*
X69314090Y-77648559D01*
X69101890Y-77503569D01*
X68850000Y-77452560D01*
X66850000Y-77452560D01*
X66614683Y-77496838D01*
X66398559Y-77635910D01*
X66253569Y-77848110D01*
X66202560Y-78100000D01*
X64546016Y-78100000D01*
X66035308Y-76610708D01*
X66203307Y-76359280D01*
X66262300Y-76062700D01*
X66262300Y-74744077D01*
X66271500Y-74745940D01*
X67668500Y-74745940D01*
X67903817Y-74701662D01*
X68119941Y-74562590D01*
X68264931Y-74350390D01*
X68315940Y-74098500D01*
X68315940Y-72701500D01*
X68271662Y-72466183D01*
X68132590Y-72250059D01*
X67920390Y-72105069D01*
X67668500Y-72054060D01*
X66271500Y-72054060D01*
X66262300Y-72055791D01*
X66262300Y-72037300D01*
X66227998Y-71864853D01*
X66633587Y-72033268D01*
X67164086Y-72033731D01*
X67654380Y-71831146D01*
X68029827Y-71456353D01*
X68233268Y-70966413D01*
X68233460Y-70745972D01*
X70515000Y-73027511D01*
X70515000Y-89949995D01*
X70514999Y-89950000D01*
X70593785Y-90346077D01*
X70818144Y-90681856D01*
X76186989Y-96050700D01*
X72503879Y-96050700D01*
X72544583Y-95895148D01*
X71790000Y-95140565D01*
X71775858Y-95154708D01*
X71596253Y-94975103D01*
X71610395Y-94960960D01*
X71969605Y-94960960D01*
X72724188Y-95715543D01*
X72959800Y-95653889D01*
X73135927Y-95153480D01*
X73107148Y-94623761D01*
X72959800Y-94268031D01*
X72724188Y-94206377D01*
X71969605Y-94960960D01*
X71610395Y-94960960D01*
X70855812Y-94206377D01*
X70620200Y-94268031D01*
X70545089Y-94481434D01*
X70381146Y-94084660D01*
X70323359Y-94026772D01*
X71035417Y-94026772D01*
X71790000Y-94781355D01*
X72544583Y-94026772D01*
X72482929Y-93791160D01*
X71982520Y-93615033D01*
X71452801Y-93643812D01*
X71097071Y-93791160D01*
X71035417Y-94026772D01*
X70323359Y-94026772D01*
X70006353Y-93709213D01*
X69516413Y-93505772D01*
X68985914Y-93505309D01*
X68495620Y-93707894D01*
X68120173Y-94082687D01*
X67954656Y-94481296D01*
X67841146Y-94206580D01*
X67466353Y-93831133D01*
X66976413Y-93627692D01*
X66445914Y-93627229D01*
X65955620Y-93829814D01*
X65580173Y-94204607D01*
X65465157Y-94481597D01*
X65301146Y-94084660D01*
X64926353Y-93709213D01*
X64436413Y-93505772D01*
X63905914Y-93505309D01*
X63415620Y-93707894D01*
X63040173Y-94082687D01*
X62874656Y-94481296D01*
X62761146Y-94206580D01*
X62386353Y-93831133D01*
X61896413Y-93627692D01*
X61365914Y-93627229D01*
X60875620Y-93829814D01*
X60500173Y-94204607D01*
X60385157Y-94481597D01*
X60221146Y-94084660D01*
X59846353Y-93709213D01*
X59356413Y-93505772D01*
X58825914Y-93505309D01*
X58335620Y-93707894D01*
X57960173Y-94082687D01*
X57794656Y-94481296D01*
X57681146Y-94206580D01*
X57306353Y-93831133D01*
X56816413Y-93627692D01*
X56285914Y-93627229D01*
X55795620Y-93829814D01*
X55439159Y-94185654D01*
X55353682Y-94128540D01*
X55311662Y-93905223D01*
X55172590Y-93689099D01*
X54960390Y-93544109D01*
X54708500Y-93493100D01*
X53311500Y-93493100D01*
X53076183Y-93537378D01*
X52860059Y-93676450D01*
X52715069Y-93888650D01*
X52664060Y-94140540D01*
X52664060Y-95537540D01*
X52708338Y-95772857D01*
X52847410Y-95988981D01*
X53059610Y-96133971D01*
X53311500Y-96184980D01*
X54708500Y-96184980D01*
X54943817Y-96140702D01*
X55053869Y-96069885D01*
X57806592Y-98822608D01*
X58058020Y-98990607D01*
X58354600Y-99049600D01*
X100688700Y-99049600D01*
X100985280Y-98990607D01*
X101236708Y-98822608D01*
X106038408Y-94020908D01*
X106206407Y-93769480D01*
X106265400Y-93472900D01*
X106265400Y-91957100D01*
X106206407Y-91660520D01*
X106038408Y-91409092D01*
X105840908Y-91211592D01*
X105782716Y-91172709D01*
X105797440Y-91100000D01*
X105797440Y-89900000D01*
X105790410Y-89862637D01*
X105792191Y-89863827D01*
X106150000Y-89935000D01*
X107464547Y-89935000D01*
X107545910Y-90061441D01*
X107758110Y-90206431D01*
X108010000Y-90257440D01*
X108920000Y-90257440D01*
X109155317Y-90213162D01*
X109371441Y-90074090D01*
X109516431Y-89861890D01*
X109567440Y-89610000D01*
X109567440Y-88903283D01*
X109585001Y-88815000D01*
X109585000Y-88814995D01*
X109585000Y-88741316D01*
X110391692Y-89548008D01*
X110643120Y-89716007D01*
X110652872Y-89717947D01*
X110676838Y-89845317D01*
X110815910Y-90061441D01*
X111028110Y-90206431D01*
X111280000Y-90257440D01*
X112190000Y-90257440D01*
X112425317Y-90213162D01*
X112560475Y-90126191D01*
X116482292Y-94048008D01*
X116733720Y-94216007D01*
X117030300Y-94275000D01*
X137102560Y-94275000D01*
X137102560Y-95600000D01*
X137146838Y-95835317D01*
X137285910Y-96051441D01*
X137498110Y-96196431D01*
X137750000Y-96247440D01*
X140150000Y-96247440D01*
X140385317Y-96203162D01*
X140601441Y-96064090D01*
X140746431Y-95851890D01*
X140797440Y-95600000D01*
X140797440Y-93785750D01*
X141615000Y-93785750D01*
X141615000Y-95726310D01*
X141711673Y-95959699D01*
X141890302Y-96138327D01*
X142123691Y-96235000D01*
X143164250Y-96235000D01*
X143323000Y-96076250D01*
X143323000Y-93627000D01*
X143577000Y-93627000D01*
X143577000Y-96076250D01*
X143735750Y-96235000D01*
X144776309Y-96235000D01*
X145009698Y-96138327D01*
X145188327Y-95959699D01*
X145285000Y-95726310D01*
X145285000Y-93785750D01*
X145126250Y-93627000D01*
X143577000Y-93627000D01*
X143323000Y-93627000D01*
X141773750Y-93627000D01*
X141615000Y-93785750D01*
X140797440Y-93785750D01*
X140797440Y-91400000D01*
X140773674Y-91273690D01*
X141615000Y-91273690D01*
X141615000Y-93214250D01*
X141773750Y-93373000D01*
X143323000Y-93373000D01*
X143323000Y-90923750D01*
X143577000Y-90923750D01*
X143577000Y-93373000D01*
X145126250Y-93373000D01*
X145285000Y-93214250D01*
X145285000Y-91273690D01*
X145188327Y-91040301D01*
X145009698Y-90861673D01*
X144776309Y-90765000D01*
X143735750Y-90765000D01*
X143577000Y-90923750D01*
X143323000Y-90923750D01*
X143164250Y-90765000D01*
X142123691Y-90765000D01*
X141890302Y-90861673D01*
X141711673Y-91040301D01*
X141615000Y-91273690D01*
X140773674Y-91273690D01*
X140753162Y-91164683D01*
X140614090Y-90948559D01*
X140401890Y-90803569D01*
X140150000Y-90752560D01*
X137750000Y-90752560D01*
X137514683Y-90796838D01*
X137298559Y-90935910D01*
X137153569Y-91148110D01*
X137102560Y-91400000D01*
X137102560Y-92725000D01*
X117351316Y-92725000D01*
X113078308Y-88451992D01*
X112826880Y-88283993D01*
X112817128Y-88282053D01*
X112793162Y-88154683D01*
X112654090Y-87938559D01*
X112441890Y-87793569D01*
X112190000Y-87742560D01*
X111280000Y-87742560D01*
X111044683Y-87786838D01*
X110909525Y-87873809D01*
X110235608Y-87199892D01*
X110218121Y-87188208D01*
X110140050Y-87110000D01*
X110264250Y-87110000D01*
X110423000Y-86951250D01*
X110423000Y-86227000D01*
X110677000Y-86227000D01*
X110677000Y-86951250D01*
X110835750Y-87110000D01*
X111276309Y-87110000D01*
X111509698Y-87013327D01*
X111688327Y-86834699D01*
X111785000Y-86601310D01*
X111785000Y-86385750D01*
X111626250Y-86227000D01*
X110677000Y-86227000D01*
X110423000Y-86227000D01*
X110403000Y-86227000D01*
X110403000Y-85973000D01*
X110423000Y-85973000D01*
X110423000Y-85248750D01*
X110374250Y-85200000D01*
X110423000Y-85151250D01*
X110423000Y-84427000D01*
X110677000Y-84427000D01*
X110677000Y-85151250D01*
X110725750Y-85200000D01*
X110677000Y-85248750D01*
X110677000Y-85973000D01*
X111626250Y-85973000D01*
X111785000Y-85814250D01*
X111785000Y-85598690D01*
X111688327Y-85365301D01*
X111523025Y-85200000D01*
X111688327Y-85034699D01*
X111785000Y-84801310D01*
X111785000Y-84585750D01*
X111626250Y-84427000D01*
X110677000Y-84427000D01*
X110423000Y-84427000D01*
X110403000Y-84427000D01*
X110403000Y-84200100D01*
X122969384Y-84200100D01*
X126230217Y-87460932D01*
X126153569Y-87573110D01*
X126102560Y-87825000D01*
X126102560Y-88575000D01*
X126146838Y-88810317D01*
X126285910Y-89026441D01*
X126498110Y-89171431D01*
X126750000Y-89222440D01*
X127689761Y-89222440D01*
X127742392Y-89301208D01*
X127904590Y-89463405D01*
X127904592Y-89463408D01*
X128099577Y-89593693D01*
X128156020Y-89631407D01*
X128452600Y-89690400D01*
X137094300Y-89690400D01*
X137390880Y-89631407D01*
X137489473Y-89565529D01*
X137498110Y-89571431D01*
X137750000Y-89622440D01*
X138950000Y-89622440D01*
X139185317Y-89578162D01*
X139288646Y-89511671D01*
X139290302Y-89513327D01*
X139523691Y-89610000D01*
X139964250Y-89610000D01*
X140123000Y-89451250D01*
X140123000Y-88727000D01*
X140377000Y-88727000D01*
X140377000Y-89451250D01*
X140535750Y-89610000D01*
X140976309Y-89610000D01*
X141209698Y-89513327D01*
X141388327Y-89334699D01*
X141485000Y-89101310D01*
X141485000Y-88885750D01*
X141326250Y-88727000D01*
X140377000Y-88727000D01*
X140123000Y-88727000D01*
X140103000Y-88727000D01*
X140103000Y-88473000D01*
X140123000Y-88473000D01*
X140123000Y-87748750D01*
X140377000Y-87748750D01*
X140377000Y-88473000D01*
X141326250Y-88473000D01*
X141485000Y-88314250D01*
X141485000Y-88098690D01*
X141388327Y-87865301D01*
X141209698Y-87686673D01*
X140976309Y-87590000D01*
X140535750Y-87590000D01*
X140377000Y-87748750D01*
X140123000Y-87748750D01*
X139964250Y-87590000D01*
X139523691Y-87590000D01*
X139290302Y-87686673D01*
X139288932Y-87688043D01*
X139201890Y-87628569D01*
X139075000Y-87602873D01*
X139075000Y-86164511D01*
X139135317Y-86153162D01*
X139351441Y-86014090D01*
X139397969Y-85945994D01*
X139540302Y-86088327D01*
X139773691Y-86185000D01*
X140214250Y-86185000D01*
X140373000Y-86026250D01*
X140373000Y-85227000D01*
X140627000Y-85227000D01*
X140627000Y-86026250D01*
X140785750Y-86185000D01*
X141226309Y-86185000D01*
X141459698Y-86088327D01*
X141638327Y-85909699D01*
X141735000Y-85676310D01*
X141735000Y-85385750D01*
X141576250Y-85227000D01*
X140627000Y-85227000D01*
X140373000Y-85227000D01*
X140353000Y-85227000D01*
X140353000Y-84973000D01*
X140373000Y-84973000D01*
X140373000Y-84953000D01*
X140627000Y-84953000D01*
X140627000Y-84973000D01*
X141576250Y-84973000D01*
X141735000Y-84814250D01*
X141735000Y-84535000D01*
X142699995Y-84535000D01*
X142700000Y-84535001D01*
X143096077Y-84456215D01*
X143431856Y-84231856D01*
X145831853Y-81831858D01*
X145831856Y-81831856D01*
X146056215Y-81496077D01*
X146058550Y-81484338D01*
X146135001Y-81100000D01*
X146135000Y-81099995D01*
X146135000Y-66700005D01*
X146135001Y-66700000D01*
X146056215Y-66303923D01*
X145963178Y-66164683D01*
X145831856Y-65968144D01*
X145831853Y-65968142D01*
X140573712Y-60710000D01*
X149290000Y-60710000D01*
X149290000Y-99290000D01*
X50710000Y-99290000D01*
X50710000Y-86594256D01*
X50917428Y-86691213D01*
X51135540Y-86568888D01*
X51135540Y-85326100D01*
X51389540Y-85326100D01*
X51389540Y-86568888D01*
X51607652Y-86691213D01*
X52089646Y-86465917D01*
X52463641Y-86062481D01*
X52654779Y-85546634D01*
X52513700Y-85326100D01*
X51389540Y-85326100D01*
X51135540Y-85326100D01*
X51115540Y-85326100D01*
X51115540Y-85072100D01*
X51135540Y-85072100D01*
X51135540Y-83829312D01*
X51389540Y-83829312D01*
X51389540Y-85072100D01*
X52513700Y-85072100D01*
X52654779Y-84851566D01*
X52532161Y-84520640D01*
X52744258Y-84520640D01*
X52873712Y-84833199D01*
X53199253Y-85201608D01*
X53640998Y-85417394D01*
X53835540Y-85293945D01*
X53835540Y-84326100D01*
X54089540Y-84326100D01*
X54089540Y-85293945D01*
X54284082Y-85417394D01*
X54725827Y-85201608D01*
X55051368Y-84833199D01*
X55180822Y-84520640D01*
X55056442Y-84326100D01*
X54089540Y-84326100D01*
X53835540Y-84326100D01*
X52868638Y-84326100D01*
X52744258Y-84520640D01*
X52532161Y-84520640D01*
X52463641Y-84335719D01*
X52089646Y-83932283D01*
X51607652Y-83706987D01*
X51389540Y-83829312D01*
X51135540Y-83829312D01*
X50917428Y-83706987D01*
X50710000Y-83803944D01*
X50710000Y-79594256D01*
X50917428Y-79691213D01*
X51135540Y-79568888D01*
X51135540Y-78326100D01*
X51389540Y-78326100D01*
X51389540Y-79568888D01*
X51607652Y-79691213D01*
X52089646Y-79465917D01*
X52463641Y-79062481D01*
X52532160Y-78877560D01*
X52744258Y-78877560D01*
X52868638Y-79072100D01*
X53835540Y-79072100D01*
X53835540Y-78104255D01*
X54089540Y-78104255D01*
X54089540Y-79072100D01*
X55056442Y-79072100D01*
X55180822Y-78877560D01*
X55051368Y-78565001D01*
X54725827Y-78196592D01*
X54284082Y-77980806D01*
X54089540Y-78104255D01*
X53835540Y-78104255D01*
X53640998Y-77980806D01*
X53199253Y-78196592D01*
X52873712Y-78565001D01*
X52744258Y-78877560D01*
X52532160Y-78877560D01*
X52654779Y-78546634D01*
X52513700Y-78326100D01*
X51389540Y-78326100D01*
X51135540Y-78326100D01*
X51115540Y-78326100D01*
X51115540Y-78072100D01*
X51135540Y-78072100D01*
X51135540Y-76829312D01*
X51389540Y-76829312D01*
X51389540Y-78072100D01*
X52513700Y-78072100D01*
X52654779Y-77851566D01*
X52463641Y-77335719D01*
X52089646Y-76932283D01*
X51857325Y-76823690D01*
X59915000Y-76823690D01*
X59915000Y-77414250D01*
X60073750Y-77573000D01*
X61423000Y-77573000D01*
X61423000Y-76473750D01*
X61264250Y-76315000D01*
X60423691Y-76315000D01*
X60190302Y-76411673D01*
X60011673Y-76590301D01*
X59915000Y-76823690D01*
X51857325Y-76823690D01*
X51607652Y-76706987D01*
X51389540Y-76829312D01*
X51135540Y-76829312D01*
X50917428Y-76706987D01*
X50710000Y-76803944D01*
X50710000Y-72935750D01*
X60290000Y-72935750D01*
X60290000Y-73376309D01*
X60386673Y-73609698D01*
X60565301Y-73788327D01*
X60798690Y-73885000D01*
X61014250Y-73885000D01*
X61173000Y-73726250D01*
X61173000Y-72777000D01*
X61427000Y-72777000D01*
X61427000Y-73726250D01*
X61585750Y-73885000D01*
X61801310Y-73885000D01*
X62034699Y-73788327D01*
X62213327Y-73609698D01*
X62310000Y-73376309D01*
X62310000Y-73207480D01*
X63084073Y-73207480D01*
X63112852Y-73737199D01*
X63260200Y-74092929D01*
X63495812Y-74154583D01*
X64250395Y-73400000D01*
X63495812Y-72645417D01*
X63260200Y-72707071D01*
X63084073Y-73207480D01*
X62310000Y-73207480D01*
X62310000Y-72935750D01*
X62151250Y-72777000D01*
X61427000Y-72777000D01*
X61173000Y-72777000D01*
X60448750Y-72777000D01*
X60290000Y-72935750D01*
X50710000Y-72935750D01*
X50710000Y-64995148D01*
X53085417Y-64995148D01*
X53147071Y-65230760D01*
X53647480Y-65406887D01*
X54177199Y-65378108D01*
X54532929Y-65230760D01*
X54594583Y-64995148D01*
X54472663Y-64873228D01*
X55625417Y-64873228D01*
X55687071Y-65108840D01*
X56187480Y-65284967D01*
X56717199Y-65256188D01*
X57072929Y-65108840D01*
X57102679Y-64995148D01*
X58165417Y-64995148D01*
X58227071Y-65230760D01*
X58727480Y-65406887D01*
X59257199Y-65378108D01*
X59612929Y-65230760D01*
X59674583Y-64995148D01*
X58920000Y-64240565D01*
X58165417Y-64995148D01*
X57102679Y-64995148D01*
X57134583Y-64873228D01*
X56380000Y-64118645D01*
X55625417Y-64873228D01*
X54472663Y-64873228D01*
X53840000Y-64240565D01*
X53085417Y-64995148D01*
X50710000Y-64995148D01*
X50710000Y-63868440D01*
X52494073Y-63868440D01*
X52522852Y-64398159D01*
X52670200Y-64753889D01*
X52905812Y-64815543D01*
X53660395Y-64060960D01*
X54019605Y-64060960D01*
X54774188Y-64815543D01*
X55009800Y-64753889D01*
X55125058Y-64426419D01*
X55210200Y-64631969D01*
X55445812Y-64693623D01*
X56200395Y-63939040D01*
X56559605Y-63939040D01*
X57314188Y-64693623D01*
X57549800Y-64631969D01*
X57618660Y-64436324D01*
X57750200Y-64753889D01*
X57985812Y-64815543D01*
X58740395Y-64060960D01*
X57985812Y-63306377D01*
X57750200Y-63368031D01*
X57681340Y-63563676D01*
X57549800Y-63246111D01*
X57314188Y-63184457D01*
X56559605Y-63939040D01*
X56200395Y-63939040D01*
X55445812Y-63184457D01*
X55210200Y-63246111D01*
X55094942Y-63573581D01*
X55009800Y-63368031D01*
X54774188Y-63306377D01*
X54019605Y-64060960D01*
X53660395Y-64060960D01*
X52905812Y-63306377D01*
X52670200Y-63368031D01*
X52494073Y-63868440D01*
X50710000Y-63868440D01*
X50710000Y-63126772D01*
X53085417Y-63126772D01*
X53840000Y-63881355D01*
X54594583Y-63126772D01*
X54562680Y-63004852D01*
X55625417Y-63004852D01*
X56380000Y-63759435D01*
X57012663Y-63126772D01*
X58165417Y-63126772D01*
X58920000Y-63881355D01*
X59674583Y-63126772D01*
X59612929Y-62891160D01*
X59112520Y-62715033D01*
X58582801Y-62743812D01*
X58227071Y-62891160D01*
X58165417Y-63126772D01*
X57012663Y-63126772D01*
X57134583Y-63004852D01*
X57072929Y-62769240D01*
X56572520Y-62593113D01*
X56042801Y-62621892D01*
X55687071Y-62769240D01*
X55625417Y-63004852D01*
X54562680Y-63004852D01*
X54532929Y-62891160D01*
X54032520Y-62715033D01*
X53502801Y-62743812D01*
X53147071Y-62891160D01*
X53085417Y-63126772D01*
X50710000Y-63126772D01*
X50710000Y-60710000D01*
X63225289Y-60710000D01*
X61329862Y-62605426D01*
X61329862Y-62605426D01*
G37*
X61329862Y-62605426D02*
X61195914Y-62605309D01*
X60705620Y-62807894D01*
X60330173Y-63182687D01*
X60171405Y-63565043D01*
X60089800Y-63368031D01*
X59854188Y-63306377D01*
X59099605Y-64060960D01*
X59854188Y-64815543D01*
X60089800Y-64753889D01*
X60211256Y-64408810D01*
X60328854Y-64693420D01*
X60703647Y-65068867D01*
X61193587Y-65272308D01*
X61724086Y-65272771D01*
X62214380Y-65070186D01*
X62589827Y-64695393D01*
X62704843Y-64418403D01*
X62868854Y-64815340D01*
X62965000Y-64911654D01*
X62965000Y-65048795D01*
X62964999Y-65048800D01*
X63043785Y-65444877D01*
X63268144Y-65780656D01*
X66853948Y-69366459D01*
X66635914Y-69366269D01*
X66145620Y-69568854D01*
X65770173Y-69943647D01*
X65765829Y-69954109D01*
X65670858Y-69973000D01*
X65660803Y-69975000D01*
X62289511Y-69975000D01*
X62278162Y-69914683D01*
X62139090Y-69698559D01*
X61926890Y-69553569D01*
X61675000Y-69502560D01*
X60925000Y-69502560D01*
X60689683Y-69546838D01*
X60473559Y-69685910D01*
X60328569Y-69898110D01*
X60277560Y-70150000D01*
X60277560Y-71350000D01*
X60321838Y-71585317D01*
X60388329Y-71688646D01*
X60386673Y-71690302D01*
X60290000Y-71923691D01*
X60290000Y-72364250D01*
X60448750Y-72523000D01*
X61173000Y-72523000D01*
X61173000Y-72503000D01*
X61427000Y-72503000D01*
X61427000Y-72523000D01*
X62151250Y-72523000D01*
X62310000Y-72364250D01*
X62310000Y-71923691D01*
X62213327Y-71690302D01*
X62211957Y-71688932D01*
X62271431Y-71601890D01*
X62287002Y-71525000D01*
X63878984Y-71525000D01*
X64419108Y-72065124D01*
X64092801Y-72082852D01*
X63737071Y-72230200D01*
X63675417Y-72465812D01*
X64430000Y-73220395D01*
X64444143Y-73206253D01*
X64623748Y-73385858D01*
X64609605Y-73400000D01*
X64623748Y-73414143D01*
X64444143Y-73593748D01*
X64430000Y-73579605D01*
X63675417Y-74334188D01*
X63737071Y-74569800D01*
X64237480Y-74745927D01*
X64712300Y-74720131D01*
X64712300Y-75741684D01*
X63185000Y-77268984D01*
X63185000Y-76823690D01*
X63088327Y-76590301D01*
X62909698Y-76411673D01*
X62676309Y-76315000D01*
X61835750Y-76315000D01*
X61677000Y-76473750D01*
X61677000Y-77573000D01*
X61697000Y-77573000D01*
X61697000Y-77827000D01*
X61677000Y-77827000D01*
X61677000Y-77847000D01*
X61423000Y-77847000D01*
X61423000Y-77827000D01*
X60073750Y-77827000D01*
X59915000Y-77985750D01*
X59915000Y-78576310D01*
X60011673Y-78809699D01*
X60053634Y-78851660D01*
X59953569Y-78998110D01*
X59902560Y-79250000D01*
X59902560Y-80750000D01*
X59921234Y-80849244D01*
X58759545Y-79687555D01*
X58456209Y-79484873D01*
X58098400Y-79413700D01*
X55112449Y-79413700D01*
X55056442Y-79326100D01*
X54089540Y-79326100D01*
X54089540Y-79346100D01*
X53835540Y-79346100D01*
X53835540Y-79326100D01*
X52868638Y-79326100D01*
X52744258Y-79520640D01*
X52834197Y-79737793D01*
X52691109Y-79947210D01*
X52640100Y-80199100D01*
X52640100Y-80599100D01*
X52664484Y-80728689D01*
X52640100Y-80849100D01*
X52640100Y-81249100D01*
X52664484Y-81378689D01*
X52640100Y-81499100D01*
X52640100Y-81899100D01*
X52664484Y-82028689D01*
X52640100Y-82149100D01*
X52640100Y-82549100D01*
X52659990Y-82654805D01*
X52652540Y-82672790D01*
X52652540Y-82740350D01*
X52681544Y-82769354D01*
X52684378Y-82784417D01*
X52823450Y-83000541D01*
X52967696Y-83099100D01*
X52811290Y-83099100D01*
X52652540Y-83257850D01*
X52652540Y-83325410D01*
X52749213Y-83558799D01*
X52839066Y-83648652D01*
X52744258Y-83877560D01*
X52868638Y-84072100D01*
X53835540Y-84072100D01*
X53835540Y-84052100D01*
X54089540Y-84052100D01*
X54089540Y-84072100D01*
X55056442Y-84072100D01*
X55180822Y-83877560D01*
X55086014Y-83648652D01*
X55175867Y-83558799D01*
X55272540Y-83325410D01*
X55272540Y-83257850D01*
X55113790Y-83099100D01*
X54955473Y-83099100D01*
X55088981Y-83013190D01*
X55233971Y-82800990D01*
X55239575Y-82773315D01*
X55272540Y-82740350D01*
X55272540Y-82672790D01*
X55264072Y-82652347D01*
X55284980Y-82549100D01*
X55284980Y-82149100D01*
X55260596Y-82019511D01*
X55284980Y-81899100D01*
X55284980Y-81499100D01*
X55260596Y-81369511D01*
X55277973Y-81283700D01*
X57711110Y-81283700D01*
X59388555Y-82961145D01*
X59691891Y-83163827D01*
X59933002Y-83211787D01*
X59946838Y-83285317D01*
X60085910Y-83501441D01*
X60298110Y-83646431D01*
X60550000Y-83697440D01*
X60644268Y-83697440D01*
X60686173Y-83908109D01*
X60888855Y-84211445D01*
X61515000Y-84837590D01*
X61515000Y-85002560D01*
X60850000Y-85002560D01*
X60614683Y-85046838D01*
X60398559Y-85185910D01*
X60253569Y-85398110D01*
X60202560Y-85650000D01*
X60202560Y-88150000D01*
X60246838Y-88385317D01*
X60385910Y-88601441D01*
X60598110Y-88746431D01*
X60850000Y-88797440D01*
X64050000Y-88797440D01*
X64285317Y-88753162D01*
X64501441Y-88614090D01*
X64596990Y-88474250D01*
X64611673Y-88509699D01*
X64790302Y-88688327D01*
X65023691Y-88785000D01*
X66464250Y-88785000D01*
X66623000Y-88626250D01*
X66623000Y-87027000D01*
X66877000Y-87027000D01*
X66877000Y-88626250D01*
X67035750Y-88785000D01*
X68476309Y-88785000D01*
X68709698Y-88688327D01*
X68888327Y-88509699D01*
X68985000Y-88276310D01*
X68985000Y-87185750D01*
X68826250Y-87027000D01*
X66877000Y-87027000D01*
X66623000Y-87027000D01*
X66603000Y-87027000D01*
X66603000Y-86773000D01*
X66623000Y-86773000D01*
X66623000Y-85173750D01*
X66877000Y-85173750D01*
X66877000Y-86773000D01*
X68826250Y-86773000D01*
X68985000Y-86614250D01*
X68985000Y-85523690D01*
X68888327Y-85290301D01*
X68709698Y-85111673D01*
X68476309Y-85015000D01*
X67035750Y-85015000D01*
X66877000Y-85173750D01*
X66623000Y-85173750D01*
X66464250Y-85015000D01*
X66305828Y-85015000D01*
X66317538Y-84986799D01*
X66317862Y-84614833D01*
X66175817Y-84271057D01*
X65913027Y-84007808D01*
X65569499Y-83865162D01*
X65197533Y-83864838D01*
X65197141Y-83865000D01*
X63161823Y-83865000D01*
X63111145Y-83789155D01*
X62900825Y-83578835D01*
X63001441Y-83514090D01*
X63146431Y-83301890D01*
X63197440Y-83050000D01*
X63197440Y-81550000D01*
X63153162Y-81314683D01*
X63046241Y-81148523D01*
X63146431Y-81001890D01*
X63197440Y-80750000D01*
X63197440Y-79448576D01*
X64546016Y-78100000D01*
X66202560Y-78100000D01*
X66202560Y-81900000D01*
X66246838Y-82135317D01*
X66385910Y-82351441D01*
X66598110Y-82496431D01*
X66850000Y-82547440D01*
X68850000Y-82547440D01*
X69085317Y-82503162D01*
X69301441Y-82364090D01*
X69446431Y-82151890D01*
X69497440Y-81900000D01*
X69497440Y-78100000D01*
X69453162Y-77864683D01*
X69314090Y-77648559D01*
X69101890Y-77503569D01*
X68850000Y-77452560D01*
X66850000Y-77452560D01*
X66614683Y-77496838D01*
X66398559Y-77635910D01*
X66253569Y-77848110D01*
X66202560Y-78100000D01*
X64546016Y-78100000D01*
X66035308Y-76610708D01*
X66203307Y-76359280D01*
X66262300Y-76062700D01*
X66262300Y-74744077D01*
X66271500Y-74745940D01*
X67668500Y-74745940D01*
X67903817Y-74701662D01*
X68119941Y-74562590D01*
X68264931Y-74350390D01*
X68315940Y-74098500D01*
X68315940Y-72701500D01*
X68271662Y-72466183D01*
X68132590Y-72250059D01*
X67920390Y-72105069D01*
X67668500Y-72054060D01*
X66271500Y-72054060D01*
X66262300Y-72055791D01*
X66262300Y-72037300D01*
X66227998Y-71864853D01*
X66633587Y-72033268D01*
X67164086Y-72033731D01*
X67654380Y-71831146D01*
X68029827Y-71456353D01*
X68233268Y-70966413D01*
X68233460Y-70745972D01*
X70515000Y-73027511D01*
X70515000Y-89949995D01*
X70514999Y-89950000D01*
X70593785Y-90346077D01*
X70818144Y-90681856D01*
X76186989Y-96050700D01*
X72503879Y-96050700D01*
X72544583Y-95895148D01*
X71790000Y-95140565D01*
X71775858Y-95154708D01*
X71596253Y-94975103D01*
X71610395Y-94960960D01*
X71969605Y-94960960D01*
X72724188Y-95715543D01*
X72959800Y-95653889D01*
X73135927Y-95153480D01*
X73107148Y-94623761D01*
X72959800Y-94268031D01*
X72724188Y-94206377D01*
X71969605Y-94960960D01*
X71610395Y-94960960D01*
X70855812Y-94206377D01*
X70620200Y-94268031D01*
X70545089Y-94481434D01*
X70381146Y-94084660D01*
X70323359Y-94026772D01*
X71035417Y-94026772D01*
X71790000Y-94781355D01*
X72544583Y-94026772D01*
X72482929Y-93791160D01*
X71982520Y-93615033D01*
X71452801Y-93643812D01*
X71097071Y-93791160D01*
X71035417Y-94026772D01*
X70323359Y-94026772D01*
X70006353Y-93709213D01*
X69516413Y-93505772D01*
X68985914Y-93505309D01*
X68495620Y-93707894D01*
X68120173Y-94082687D01*
X67954656Y-94481296D01*
X67841146Y-94206580D01*
X67466353Y-93831133D01*
X66976413Y-93627692D01*
X66445914Y-93627229D01*
X65955620Y-93829814D01*
X65580173Y-94204607D01*
X65465157Y-94481597D01*
X65301146Y-94084660D01*
X64926353Y-93709213D01*
X64436413Y-93505772D01*
X63905914Y-93505309D01*
X63415620Y-93707894D01*
X63040173Y-94082687D01*
X62874656Y-94481296D01*
X62761146Y-94206580D01*
X62386353Y-93831133D01*
X61896413Y-93627692D01*
X61365914Y-93627229D01*
X60875620Y-93829814D01*
X60500173Y-94204607D01*
X60385157Y-94481597D01*
X60221146Y-94084660D01*
X59846353Y-93709213D01*
X59356413Y-93505772D01*
X58825914Y-93505309D01*
X58335620Y-93707894D01*
X57960173Y-94082687D01*
X57794656Y-94481296D01*
X57681146Y-94206580D01*
X57306353Y-93831133D01*
X56816413Y-93627692D01*
X56285914Y-93627229D01*
X55795620Y-93829814D01*
X55439159Y-94185654D01*
X55353682Y-94128540D01*
X55311662Y-93905223D01*
X55172590Y-93689099D01*
X54960390Y-93544109D01*
X54708500Y-93493100D01*
X53311500Y-93493100D01*
X53076183Y-93537378D01*
X52860059Y-93676450D01*
X52715069Y-93888650D01*
X52664060Y-94140540D01*
X52664060Y-95537540D01*
X52708338Y-95772857D01*
X52847410Y-95988981D01*
X53059610Y-96133971D01*
X53311500Y-96184980D01*
X54708500Y-96184980D01*
X54943817Y-96140702D01*
X55053869Y-96069885D01*
X57806592Y-98822608D01*
X58058020Y-98990607D01*
X58354600Y-99049600D01*
X100688700Y-99049600D01*
X100985280Y-98990607D01*
X101236708Y-98822608D01*
X106038408Y-94020908D01*
X106206407Y-93769480D01*
X106265400Y-93472900D01*
X106265400Y-91957100D01*
X106206407Y-91660520D01*
X106038408Y-91409092D01*
X105840908Y-91211592D01*
X105782716Y-91172709D01*
X105797440Y-91100000D01*
X105797440Y-89900000D01*
X105790410Y-89862637D01*
X105792191Y-89863827D01*
X106150000Y-89935000D01*
X107464547Y-89935000D01*
X107545910Y-90061441D01*
X107758110Y-90206431D01*
X108010000Y-90257440D01*
X108920000Y-90257440D01*
X109155317Y-90213162D01*
X109371441Y-90074090D01*
X109516431Y-89861890D01*
X109567440Y-89610000D01*
X109567440Y-88903283D01*
X109585001Y-88815000D01*
X109585000Y-88814995D01*
X109585000Y-88741316D01*
X110391692Y-89548008D01*
X110643120Y-89716007D01*
X110652872Y-89717947D01*
X110676838Y-89845317D01*
X110815910Y-90061441D01*
X111028110Y-90206431D01*
X111280000Y-90257440D01*
X112190000Y-90257440D01*
X112425317Y-90213162D01*
X112560475Y-90126191D01*
X116482292Y-94048008D01*
X116733720Y-94216007D01*
X117030300Y-94275000D01*
X137102560Y-94275000D01*
X137102560Y-95600000D01*
X137146838Y-95835317D01*
X137285910Y-96051441D01*
X137498110Y-96196431D01*
X137750000Y-96247440D01*
X140150000Y-96247440D01*
X140385317Y-96203162D01*
X140601441Y-96064090D01*
X140746431Y-95851890D01*
X140797440Y-95600000D01*
X140797440Y-93785750D01*
X141615000Y-93785750D01*
X141615000Y-95726310D01*
X141711673Y-95959699D01*
X141890302Y-96138327D01*
X142123691Y-96235000D01*
X143164250Y-96235000D01*
X143323000Y-96076250D01*
X143323000Y-93627000D01*
X143577000Y-93627000D01*
X143577000Y-96076250D01*
X143735750Y-96235000D01*
X144776309Y-96235000D01*
X145009698Y-96138327D01*
X145188327Y-95959699D01*
X145285000Y-95726310D01*
X145285000Y-93785750D01*
X145126250Y-93627000D01*
X143577000Y-93627000D01*
X143323000Y-93627000D01*
X141773750Y-93627000D01*
X141615000Y-93785750D01*
X140797440Y-93785750D01*
X140797440Y-91400000D01*
X140773674Y-91273690D01*
X141615000Y-91273690D01*
X141615000Y-93214250D01*
X141773750Y-93373000D01*
X143323000Y-93373000D01*
X143323000Y-90923750D01*
X143577000Y-90923750D01*
X143577000Y-93373000D01*
X145126250Y-93373000D01*
X145285000Y-93214250D01*
X145285000Y-91273690D01*
X145188327Y-91040301D01*
X145009698Y-90861673D01*
X144776309Y-90765000D01*
X143735750Y-90765000D01*
X143577000Y-90923750D01*
X143323000Y-90923750D01*
X143164250Y-90765000D01*
X142123691Y-90765000D01*
X141890302Y-90861673D01*
X141711673Y-91040301D01*
X141615000Y-91273690D01*
X140773674Y-91273690D01*
X140753162Y-91164683D01*
X140614090Y-90948559D01*
X140401890Y-90803569D01*
X140150000Y-90752560D01*
X137750000Y-90752560D01*
X137514683Y-90796838D01*
X137298559Y-90935910D01*
X137153569Y-91148110D01*
X137102560Y-91400000D01*
X137102560Y-92725000D01*
X117351316Y-92725000D01*
X113078308Y-88451992D01*
X112826880Y-88283993D01*
X112817128Y-88282053D01*
X112793162Y-88154683D01*
X112654090Y-87938559D01*
X112441890Y-87793569D01*
X112190000Y-87742560D01*
X111280000Y-87742560D01*
X111044683Y-87786838D01*
X110909525Y-87873809D01*
X110235608Y-87199892D01*
X110218121Y-87188208D01*
X110140050Y-87110000D01*
X110264250Y-87110000D01*
X110423000Y-86951250D01*
X110423000Y-86227000D01*
X110677000Y-86227000D01*
X110677000Y-86951250D01*
X110835750Y-87110000D01*
X111276309Y-87110000D01*
X111509698Y-87013327D01*
X111688327Y-86834699D01*
X111785000Y-86601310D01*
X111785000Y-86385750D01*
X111626250Y-86227000D01*
X110677000Y-86227000D01*
X110423000Y-86227000D01*
X110403000Y-86227000D01*
X110403000Y-85973000D01*
X110423000Y-85973000D01*
X110423000Y-85248750D01*
X110374250Y-85200000D01*
X110423000Y-85151250D01*
X110423000Y-84427000D01*
X110677000Y-84427000D01*
X110677000Y-85151250D01*
X110725750Y-85200000D01*
X110677000Y-85248750D01*
X110677000Y-85973000D01*
X111626250Y-85973000D01*
X111785000Y-85814250D01*
X111785000Y-85598690D01*
X111688327Y-85365301D01*
X111523025Y-85200000D01*
X111688327Y-85034699D01*
X111785000Y-84801310D01*
X111785000Y-84585750D01*
X111626250Y-84427000D01*
X110677000Y-84427000D01*
X110423000Y-84427000D01*
X110403000Y-84427000D01*
X110403000Y-84200100D01*
X122969384Y-84200100D01*
X126230217Y-87460932D01*
X126153569Y-87573110D01*
X126102560Y-87825000D01*
X126102560Y-88575000D01*
X126146838Y-88810317D01*
X126285910Y-89026441D01*
X126498110Y-89171431D01*
X126750000Y-89222440D01*
X127689761Y-89222440D01*
X127742392Y-89301208D01*
X127904590Y-89463405D01*
X127904592Y-89463408D01*
X128099577Y-89593693D01*
X128156020Y-89631407D01*
X128452600Y-89690400D01*
X137094300Y-89690400D01*
X137390880Y-89631407D01*
X137489473Y-89565529D01*
X137498110Y-89571431D01*
X137750000Y-89622440D01*
X138950000Y-89622440D01*
X139185317Y-89578162D01*
X139288646Y-89511671D01*
X139290302Y-89513327D01*
X139523691Y-89610000D01*
X139964250Y-89610000D01*
X140123000Y-89451250D01*
X140123000Y-88727000D01*
X140377000Y-88727000D01*
X140377000Y-89451250D01*
X140535750Y-89610000D01*
X140976309Y-89610000D01*
X141209698Y-89513327D01*
X141388327Y-89334699D01*
X141485000Y-89101310D01*
X141485000Y-88885750D01*
X141326250Y-88727000D01*
X140377000Y-88727000D01*
X140123000Y-88727000D01*
X140103000Y-88727000D01*
X140103000Y-88473000D01*
X140123000Y-88473000D01*
X140123000Y-87748750D01*
X140377000Y-87748750D01*
X140377000Y-88473000D01*
X141326250Y-88473000D01*
X141485000Y-88314250D01*
X141485000Y-88098690D01*
X141388327Y-87865301D01*
X141209698Y-87686673D01*
X140976309Y-87590000D01*
X140535750Y-87590000D01*
X140377000Y-87748750D01*
X140123000Y-87748750D01*
X139964250Y-87590000D01*
X139523691Y-87590000D01*
X139290302Y-87686673D01*
X139288932Y-87688043D01*
X139201890Y-87628569D01*
X139075000Y-87602873D01*
X139075000Y-86164511D01*
X139135317Y-86153162D01*
X139351441Y-86014090D01*
X139397969Y-85945994D01*
X139540302Y-86088327D01*
X139773691Y-86185000D01*
X140214250Y-86185000D01*
X140373000Y-86026250D01*
X140373000Y-85227000D01*
X140627000Y-85227000D01*
X140627000Y-86026250D01*
X140785750Y-86185000D01*
X141226309Y-86185000D01*
X141459698Y-86088327D01*
X141638327Y-85909699D01*
X141735000Y-85676310D01*
X141735000Y-85385750D01*
X141576250Y-85227000D01*
X140627000Y-85227000D01*
X140373000Y-85227000D01*
X140353000Y-85227000D01*
X140353000Y-84973000D01*
X140373000Y-84973000D01*
X140373000Y-84953000D01*
X140627000Y-84953000D01*
X140627000Y-84973000D01*
X141576250Y-84973000D01*
X141735000Y-84814250D01*
X141735000Y-84535000D01*
X142699995Y-84535000D01*
X142700000Y-84535001D01*
X143096077Y-84456215D01*
X143431856Y-84231856D01*
X145831853Y-81831858D01*
X145831856Y-81831856D01*
X146056215Y-81496077D01*
X146058550Y-81484338D01*
X146135001Y-81100000D01*
X146135000Y-81099995D01*
X146135000Y-66700005D01*
X146135001Y-66700000D01*
X146056215Y-66303923D01*
X145963178Y-66164683D01*
X145831856Y-65968144D01*
X145831853Y-65968142D01*
X140573712Y-60710000D01*
X149290000Y-60710000D01*
X149290000Y-99290000D01*
X50710000Y-99290000D01*
X50710000Y-86594256D01*
X50917428Y-86691213D01*
X51135540Y-86568888D01*
X51135540Y-85326100D01*
X51389540Y-85326100D01*
X51389540Y-86568888D01*
X51607652Y-86691213D01*
X52089646Y-86465917D01*
X52463641Y-86062481D01*
X52654779Y-85546634D01*
X52513700Y-85326100D01*
X51389540Y-85326100D01*
X51135540Y-85326100D01*
X51115540Y-85326100D01*
X51115540Y-85072100D01*
X51135540Y-85072100D01*
X51135540Y-83829312D01*
X51389540Y-83829312D01*
X51389540Y-85072100D01*
X52513700Y-85072100D01*
X52654779Y-84851566D01*
X52532161Y-84520640D01*
X52744258Y-84520640D01*
X52873712Y-84833199D01*
X53199253Y-85201608D01*
X53640998Y-85417394D01*
X53835540Y-85293945D01*
X53835540Y-84326100D01*
X54089540Y-84326100D01*
X54089540Y-85293945D01*
X54284082Y-85417394D01*
X54725827Y-85201608D01*
X55051368Y-84833199D01*
X55180822Y-84520640D01*
X55056442Y-84326100D01*
X54089540Y-84326100D01*
X53835540Y-84326100D01*
X52868638Y-84326100D01*
X52744258Y-84520640D01*
X52532161Y-84520640D01*
X52463641Y-84335719D01*
X52089646Y-83932283D01*
X51607652Y-83706987D01*
X51389540Y-83829312D01*
X51135540Y-83829312D01*
X50917428Y-83706987D01*
X50710000Y-83803944D01*
X50710000Y-79594256D01*
X50917428Y-79691213D01*
X51135540Y-79568888D01*
X51135540Y-78326100D01*
X51389540Y-78326100D01*
X51389540Y-79568888D01*
X51607652Y-79691213D01*
X52089646Y-79465917D01*
X52463641Y-79062481D01*
X52532160Y-78877560D01*
X52744258Y-78877560D01*
X52868638Y-79072100D01*
X53835540Y-79072100D01*
X53835540Y-78104255D01*
X54089540Y-78104255D01*
X54089540Y-79072100D01*
X55056442Y-79072100D01*
X55180822Y-78877560D01*
X55051368Y-78565001D01*
X54725827Y-78196592D01*
X54284082Y-77980806D01*
X54089540Y-78104255D01*
X53835540Y-78104255D01*
X53640998Y-77980806D01*
X53199253Y-78196592D01*
X52873712Y-78565001D01*
X52744258Y-78877560D01*
X52532160Y-78877560D01*
X52654779Y-78546634D01*
X52513700Y-78326100D01*
X51389540Y-78326100D01*
X51135540Y-78326100D01*
X51115540Y-78326100D01*
X51115540Y-78072100D01*
X51135540Y-78072100D01*
X51135540Y-76829312D01*
X51389540Y-76829312D01*
X51389540Y-78072100D01*
X52513700Y-78072100D01*
X52654779Y-77851566D01*
X52463641Y-77335719D01*
X52089646Y-76932283D01*
X51857325Y-76823690D01*
X59915000Y-76823690D01*
X59915000Y-77414250D01*
X60073750Y-77573000D01*
X61423000Y-77573000D01*
X61423000Y-76473750D01*
X61264250Y-76315000D01*
X60423691Y-76315000D01*
X60190302Y-76411673D01*
X60011673Y-76590301D01*
X59915000Y-76823690D01*
X51857325Y-76823690D01*
X51607652Y-76706987D01*
X51389540Y-76829312D01*
X51135540Y-76829312D01*
X50917428Y-76706987D01*
X50710000Y-76803944D01*
X50710000Y-72935750D01*
X60290000Y-72935750D01*
X60290000Y-73376309D01*
X60386673Y-73609698D01*
X60565301Y-73788327D01*
X60798690Y-73885000D01*
X61014250Y-73885000D01*
X61173000Y-73726250D01*
X61173000Y-72777000D01*
X61427000Y-72777000D01*
X61427000Y-73726250D01*
X61585750Y-73885000D01*
X61801310Y-73885000D01*
X62034699Y-73788327D01*
X62213327Y-73609698D01*
X62310000Y-73376309D01*
X62310000Y-73207480D01*
X63084073Y-73207480D01*
X63112852Y-73737199D01*
X63260200Y-74092929D01*
X63495812Y-74154583D01*
X64250395Y-73400000D01*
X63495812Y-72645417D01*
X63260200Y-72707071D01*
X63084073Y-73207480D01*
X62310000Y-73207480D01*
X62310000Y-72935750D01*
X62151250Y-72777000D01*
X61427000Y-72777000D01*
X61173000Y-72777000D01*
X60448750Y-72777000D01*
X60290000Y-72935750D01*
X50710000Y-72935750D01*
X50710000Y-64995148D01*
X53085417Y-64995148D01*
X53147071Y-65230760D01*
X53647480Y-65406887D01*
X54177199Y-65378108D01*
X54532929Y-65230760D01*
X54594583Y-64995148D01*
X54472663Y-64873228D01*
X55625417Y-64873228D01*
X55687071Y-65108840D01*
X56187480Y-65284967D01*
X56717199Y-65256188D01*
X57072929Y-65108840D01*
X57102679Y-64995148D01*
X58165417Y-64995148D01*
X58227071Y-65230760D01*
X58727480Y-65406887D01*
X59257199Y-65378108D01*
X59612929Y-65230760D01*
X59674583Y-64995148D01*
X58920000Y-64240565D01*
X58165417Y-64995148D01*
X57102679Y-64995148D01*
X57134583Y-64873228D01*
X56380000Y-64118645D01*
X55625417Y-64873228D01*
X54472663Y-64873228D01*
X53840000Y-64240565D01*
X53085417Y-64995148D01*
X50710000Y-64995148D01*
X50710000Y-63868440D01*
X52494073Y-63868440D01*
X52522852Y-64398159D01*
X52670200Y-64753889D01*
X52905812Y-64815543D01*
X53660395Y-64060960D01*
X54019605Y-64060960D01*
X54774188Y-64815543D01*
X55009800Y-64753889D01*
X55125058Y-64426419D01*
X55210200Y-64631969D01*
X55445812Y-64693623D01*
X56200395Y-63939040D01*
X56559605Y-63939040D01*
X57314188Y-64693623D01*
X57549800Y-64631969D01*
X57618660Y-64436324D01*
X57750200Y-64753889D01*
X57985812Y-64815543D01*
X58740395Y-64060960D01*
X57985812Y-63306377D01*
X57750200Y-63368031D01*
X57681340Y-63563676D01*
X57549800Y-63246111D01*
X57314188Y-63184457D01*
X56559605Y-63939040D01*
X56200395Y-63939040D01*
X55445812Y-63184457D01*
X55210200Y-63246111D01*
X55094942Y-63573581D01*
X55009800Y-63368031D01*
X54774188Y-63306377D01*
X54019605Y-64060960D01*
X53660395Y-64060960D01*
X52905812Y-63306377D01*
X52670200Y-63368031D01*
X52494073Y-63868440D01*
X50710000Y-63868440D01*
X50710000Y-63126772D01*
X53085417Y-63126772D01*
X53840000Y-63881355D01*
X54594583Y-63126772D01*
X54562680Y-63004852D01*
X55625417Y-63004852D01*
X56380000Y-63759435D01*
X57012663Y-63126772D01*
X58165417Y-63126772D01*
X58920000Y-63881355D01*
X59674583Y-63126772D01*
X59612929Y-62891160D01*
X59112520Y-62715033D01*
X58582801Y-62743812D01*
X58227071Y-62891160D01*
X58165417Y-63126772D01*
X57012663Y-63126772D01*
X57134583Y-63004852D01*
X57072929Y-62769240D01*
X56572520Y-62593113D01*
X56042801Y-62621892D01*
X55687071Y-62769240D01*
X55625417Y-63004852D01*
X54562680Y-63004852D01*
X54532929Y-62891160D01*
X54032520Y-62715033D01*
X53502801Y-62743812D01*
X53147071Y-62891160D01*
X53085417Y-63126772D01*
X50710000Y-63126772D01*
X50710000Y-60710000D01*
X63225289Y-60710000D01*
X61329862Y-62605426D01*
G36*
X60498854Y-95715340D02*
X60873647Y-96090787D01*
X61363587Y-96294228D01*
X61894086Y-96294691D01*
X62384380Y-96092106D01*
X62759827Y-95717313D01*
X62925344Y-95318704D01*
X63038854Y-95593420D01*
X63413647Y-95968867D01*
X63903587Y-96172308D01*
X64407732Y-96172748D01*
X65734585Y-97499600D01*
X58675616Y-97499600D01*
X57278723Y-96102707D01*
X57304380Y-96092106D01*
X57679827Y-95717313D01*
X57845344Y-95318704D01*
X57958854Y-95593420D01*
X58333647Y-95968867D01*
X58823587Y-96172308D01*
X59354086Y-96172771D01*
X59844380Y-95970186D01*
X60219827Y-95595393D01*
X60334843Y-95318403D01*
X60498854Y-95715340D01*
X60498854Y-95715340D01*
G37*
X60498854Y-95715340D02*
X60873647Y-96090787D01*
X61363587Y-96294228D01*
X61894086Y-96294691D01*
X62384380Y-96092106D01*
X62759827Y-95717313D01*
X62925344Y-95318704D01*
X63038854Y-95593420D01*
X63413647Y-95968867D01*
X63903587Y-96172308D01*
X64407732Y-96172748D01*
X65734585Y-97499600D01*
X58675616Y-97499600D01*
X57278723Y-96102707D01*
X57304380Y-96092106D01*
X57679827Y-95717313D01*
X57845344Y-95318704D01*
X57958854Y-95593420D01*
X58333647Y-95968867D01*
X58823587Y-96172308D01*
X59354086Y-96172771D01*
X59844380Y-95970186D01*
X60219827Y-95595393D01*
X60334843Y-95318403D01*
X60498854Y-95715340D01*
G36*
X95977560Y-88350000D02*
X96021838Y-88585317D01*
X96088329Y-88688646D01*
X96086673Y-88690302D01*
X95990000Y-88923691D01*
X95990000Y-89364250D01*
X96148750Y-89523000D01*
X96873000Y-89523000D01*
X96873000Y-89503000D01*
X97127000Y-89503000D01*
X97127000Y-89523000D01*
X97851250Y-89523000D01*
X98010000Y-89364250D01*
X98010000Y-88923691D01*
X97913327Y-88690302D01*
X97911957Y-88688932D01*
X97914644Y-88685000D01*
X97974184Y-88685000D01*
X98033100Y-88685051D01*
X98033100Y-89730585D01*
X97918967Y-89844717D01*
X97851250Y-89777000D01*
X97127000Y-89777000D01*
X97127000Y-90726250D01*
X97132841Y-90732091D01*
X97053569Y-90848110D01*
X97002560Y-91100000D01*
X97002560Y-92300000D01*
X97046838Y-92535317D01*
X97185910Y-92751441D01*
X97255711Y-92799134D01*
X97198559Y-92835910D01*
X97053569Y-93048110D01*
X97002560Y-93300000D01*
X97002560Y-94500000D01*
X97046838Y-94735317D01*
X97047554Y-94736430D01*
X95733284Y-96050700D01*
X89513011Y-96050700D01*
X89731853Y-95831858D01*
X89731856Y-95831856D01*
X89956215Y-95496077D01*
X89956229Y-95496007D01*
X90035001Y-95100000D01*
X90035000Y-95099995D01*
X90035000Y-94935000D01*
X90314250Y-94935000D01*
X90473000Y-94776250D01*
X90473000Y-93827000D01*
X90727000Y-93827000D01*
X90727000Y-94776250D01*
X90885750Y-94935000D01*
X91176310Y-94935000D01*
X91409699Y-94838327D01*
X91588327Y-94659698D01*
X91685000Y-94426309D01*
X91685000Y-93985750D01*
X91635000Y-93935750D01*
X93090000Y-93935750D01*
X93090000Y-94376309D01*
X93186673Y-94609698D01*
X93365301Y-94788327D01*
X93598690Y-94885000D01*
X93814250Y-94885000D01*
X93973000Y-94726250D01*
X93973000Y-93777000D01*
X94227000Y-93777000D01*
X94227000Y-94726250D01*
X94385750Y-94885000D01*
X94601310Y-94885000D01*
X94834699Y-94788327D01*
X95013327Y-94609698D01*
X95110000Y-94376309D01*
X95110000Y-93935750D01*
X94951250Y-93777000D01*
X94227000Y-93777000D01*
X93973000Y-93777000D01*
X93248750Y-93777000D01*
X93090000Y-93935750D01*
X91635000Y-93935750D01*
X91526250Y-93827000D01*
X90727000Y-93827000D01*
X90473000Y-93827000D01*
X90453000Y-93827000D01*
X90453000Y-93573000D01*
X90473000Y-93573000D01*
X90473000Y-93553000D01*
X90727000Y-93553000D01*
X90727000Y-93573000D01*
X91526250Y-93573000D01*
X91685000Y-93414250D01*
X91685000Y-92973691D01*
X91588327Y-92740302D01*
X91447090Y-92599064D01*
X91501441Y-92564090D01*
X91646431Y-92351890D01*
X91662002Y-92275000D01*
X92813685Y-92275000D01*
X92836690Y-92298005D01*
X92836692Y-92298008D01*
X93088120Y-92466007D01*
X93099826Y-92468336D01*
X93121838Y-92585317D01*
X93188329Y-92688646D01*
X93186673Y-92690302D01*
X93090000Y-92923691D01*
X93090000Y-93364250D01*
X93248750Y-93523000D01*
X93973000Y-93523000D01*
X93973000Y-93503000D01*
X94227000Y-93503000D01*
X94227000Y-93523000D01*
X94951250Y-93523000D01*
X95110000Y-93364250D01*
X95110000Y-92923691D01*
X95013327Y-92690302D01*
X95011957Y-92688932D01*
X95071431Y-92601890D01*
X95122440Y-92350000D01*
X95122440Y-91150000D01*
X95078162Y-90914683D01*
X94939090Y-90698559D01*
X94726890Y-90553569D01*
X94475000Y-90502560D01*
X93909700Y-90502560D01*
X93909700Y-90026616D01*
X94000566Y-89935750D01*
X95990000Y-89935750D01*
X95990000Y-90376309D01*
X96086673Y-90609698D01*
X96265301Y-90788327D01*
X96498690Y-90885000D01*
X96714250Y-90885000D01*
X96873000Y-90726250D01*
X96873000Y-89777000D01*
X96148750Y-89777000D01*
X95990000Y-89935750D01*
X94000566Y-89935750D01*
X95977560Y-87958756D01*
X95977560Y-88350000D01*
X95977560Y-88350000D01*
G37*
X95977560Y-88350000D02*
X96021838Y-88585317D01*
X96088329Y-88688646D01*
X96086673Y-88690302D01*
X95990000Y-88923691D01*
X95990000Y-89364250D01*
X96148750Y-89523000D01*
X96873000Y-89523000D01*
X96873000Y-89503000D01*
X97127000Y-89503000D01*
X97127000Y-89523000D01*
X97851250Y-89523000D01*
X98010000Y-89364250D01*
X98010000Y-88923691D01*
X97913327Y-88690302D01*
X97911957Y-88688932D01*
X97914644Y-88685000D01*
X97974184Y-88685000D01*
X98033100Y-88685051D01*
X98033100Y-89730585D01*
X97918967Y-89844717D01*
X97851250Y-89777000D01*
X97127000Y-89777000D01*
X97127000Y-90726250D01*
X97132841Y-90732091D01*
X97053569Y-90848110D01*
X97002560Y-91100000D01*
X97002560Y-92300000D01*
X97046838Y-92535317D01*
X97185910Y-92751441D01*
X97255711Y-92799134D01*
X97198559Y-92835910D01*
X97053569Y-93048110D01*
X97002560Y-93300000D01*
X97002560Y-94500000D01*
X97046838Y-94735317D01*
X97047554Y-94736430D01*
X95733284Y-96050700D01*
X89513011Y-96050700D01*
X89731853Y-95831858D01*
X89731856Y-95831856D01*
X89956215Y-95496077D01*
X89956229Y-95496007D01*
X90035001Y-95100000D01*
X90035000Y-95099995D01*
X90035000Y-94935000D01*
X90314250Y-94935000D01*
X90473000Y-94776250D01*
X90473000Y-93827000D01*
X90727000Y-93827000D01*
X90727000Y-94776250D01*
X90885750Y-94935000D01*
X91176310Y-94935000D01*
X91409699Y-94838327D01*
X91588327Y-94659698D01*
X91685000Y-94426309D01*
X91685000Y-93985750D01*
X91635000Y-93935750D01*
X93090000Y-93935750D01*
X93090000Y-94376309D01*
X93186673Y-94609698D01*
X93365301Y-94788327D01*
X93598690Y-94885000D01*
X93814250Y-94885000D01*
X93973000Y-94726250D01*
X93973000Y-93777000D01*
X94227000Y-93777000D01*
X94227000Y-94726250D01*
X94385750Y-94885000D01*
X94601310Y-94885000D01*
X94834699Y-94788327D01*
X95013327Y-94609698D01*
X95110000Y-94376309D01*
X95110000Y-93935750D01*
X94951250Y-93777000D01*
X94227000Y-93777000D01*
X93973000Y-93777000D01*
X93248750Y-93777000D01*
X93090000Y-93935750D01*
X91635000Y-93935750D01*
X91526250Y-93827000D01*
X90727000Y-93827000D01*
X90473000Y-93827000D01*
X90453000Y-93827000D01*
X90453000Y-93573000D01*
X90473000Y-93573000D01*
X90473000Y-93553000D01*
X90727000Y-93553000D01*
X90727000Y-93573000D01*
X91526250Y-93573000D01*
X91685000Y-93414250D01*
X91685000Y-92973691D01*
X91588327Y-92740302D01*
X91447090Y-92599064D01*
X91501441Y-92564090D01*
X91646431Y-92351890D01*
X91662002Y-92275000D01*
X92813685Y-92275000D01*
X92836690Y-92298005D01*
X92836692Y-92298008D01*
X93088120Y-92466007D01*
X93099826Y-92468336D01*
X93121838Y-92585317D01*
X93188329Y-92688646D01*
X93186673Y-92690302D01*
X93090000Y-92923691D01*
X93090000Y-93364250D01*
X93248750Y-93523000D01*
X93973000Y-93523000D01*
X93973000Y-93503000D01*
X94227000Y-93503000D01*
X94227000Y-93523000D01*
X94951250Y-93523000D01*
X95110000Y-93364250D01*
X95110000Y-92923691D01*
X95013327Y-92690302D01*
X95011957Y-92688932D01*
X95071431Y-92601890D01*
X95122440Y-92350000D01*
X95122440Y-91150000D01*
X95078162Y-90914683D01*
X94939090Y-90698559D01*
X94726890Y-90553569D01*
X94475000Y-90502560D01*
X93909700Y-90502560D01*
X93909700Y-90026616D01*
X94000566Y-89935750D01*
X95990000Y-89935750D01*
X95990000Y-90376309D01*
X96086673Y-90609698D01*
X96265301Y-90788327D01*
X96498690Y-90885000D01*
X96714250Y-90885000D01*
X96873000Y-90726250D01*
X96873000Y-89777000D01*
X96148750Y-89777000D01*
X95990000Y-89935750D01*
X94000566Y-89935750D01*
X95977560Y-87958756D01*
X95977560Y-88350000D01*
G36*
X87953569Y-90648110D02*
X87902560Y-90900000D01*
X87902560Y-92100000D01*
X87946838Y-92335317D01*
X88085910Y-92551441D01*
X88155711Y-92599134D01*
X88098559Y-92635910D01*
X87953569Y-92848110D01*
X87902560Y-93100000D01*
X87902560Y-94300000D01*
X87946838Y-94535317D01*
X87965000Y-94563542D01*
X87965000Y-94565000D01*
X77628711Y-94565000D01*
X76349462Y-93285750D01*
X78165000Y-93285750D01*
X78165000Y-93576310D01*
X78261673Y-93809699D01*
X78440302Y-93988327D01*
X78673691Y-94085000D01*
X79114250Y-94085000D01*
X79273000Y-93926250D01*
X79273000Y-93127000D01*
X78323750Y-93127000D01*
X78165000Y-93285750D01*
X76349462Y-93285750D01*
X74938712Y-91875000D01*
X78254547Y-91875000D01*
X78335910Y-92001441D01*
X78404006Y-92047969D01*
X78261673Y-92190301D01*
X78165000Y-92423690D01*
X78165000Y-92714250D01*
X78323750Y-92873000D01*
X79273000Y-92873000D01*
X79273000Y-92853000D01*
X79527000Y-92853000D01*
X79527000Y-92873000D01*
X79547000Y-92873000D01*
X79547000Y-93127000D01*
X79527000Y-93127000D01*
X79527000Y-93926250D01*
X79685750Y-94085000D01*
X80126309Y-94085000D01*
X80359698Y-93988327D01*
X80500936Y-93847090D01*
X80535910Y-93901441D01*
X80748110Y-94046431D01*
X81000000Y-94097440D01*
X82200000Y-94097440D01*
X82435317Y-94053162D01*
X82651441Y-93914090D01*
X82796431Y-93701890D01*
X82847440Y-93450000D01*
X82847440Y-92550000D01*
X82803162Y-92314683D01*
X82664090Y-92098559D01*
X82594289Y-92050866D01*
X82651441Y-92014090D01*
X82796431Y-91801890D01*
X82847440Y-91550000D01*
X82847440Y-90650000D01*
X82838860Y-90604400D01*
X87983435Y-90604400D01*
X87953569Y-90648110D01*
X87953569Y-90648110D01*
G37*
X87953569Y-90648110D02*
X87902560Y-90900000D01*
X87902560Y-92100000D01*
X87946838Y-92335317D01*
X88085910Y-92551441D01*
X88155711Y-92599134D01*
X88098559Y-92635910D01*
X87953569Y-92848110D01*
X87902560Y-93100000D01*
X87902560Y-94300000D01*
X87946838Y-94535317D01*
X87965000Y-94563542D01*
X87965000Y-94565000D01*
X77628711Y-94565000D01*
X76349462Y-93285750D01*
X78165000Y-93285750D01*
X78165000Y-93576310D01*
X78261673Y-93809699D01*
X78440302Y-93988327D01*
X78673691Y-94085000D01*
X79114250Y-94085000D01*
X79273000Y-93926250D01*
X79273000Y-93127000D01*
X78323750Y-93127000D01*
X78165000Y-93285750D01*
X76349462Y-93285750D01*
X74938712Y-91875000D01*
X78254547Y-91875000D01*
X78335910Y-92001441D01*
X78404006Y-92047969D01*
X78261673Y-92190301D01*
X78165000Y-92423690D01*
X78165000Y-92714250D01*
X78323750Y-92873000D01*
X79273000Y-92873000D01*
X79273000Y-92853000D01*
X79527000Y-92853000D01*
X79527000Y-92873000D01*
X79547000Y-92873000D01*
X79547000Y-93127000D01*
X79527000Y-93127000D01*
X79527000Y-93926250D01*
X79685750Y-94085000D01*
X80126309Y-94085000D01*
X80359698Y-93988327D01*
X80500936Y-93847090D01*
X80535910Y-93901441D01*
X80748110Y-94046431D01*
X81000000Y-94097440D01*
X82200000Y-94097440D01*
X82435317Y-94053162D01*
X82651441Y-93914090D01*
X82796431Y-93701890D01*
X82847440Y-93450000D01*
X82847440Y-92550000D01*
X82803162Y-92314683D01*
X82664090Y-92098559D01*
X82594289Y-92050866D01*
X82651441Y-92014090D01*
X82796431Y-91801890D01*
X82847440Y-91550000D01*
X82847440Y-90650000D01*
X82838860Y-90604400D01*
X87983435Y-90604400D01*
X87953569Y-90648110D01*
G36*
X103665162Y-89013201D02*
X103664838Y-89385167D01*
X103728295Y-89538745D01*
X103653569Y-89648110D01*
X103602560Y-89900000D01*
X103602560Y-91100000D01*
X103612248Y-91151485D01*
X103522292Y-91211592D01*
X102388186Y-92345698D01*
X102397440Y-92300000D01*
X102397440Y-91100000D01*
X102356985Y-90885000D01*
X102401310Y-90885000D01*
X102634699Y-90788327D01*
X102813327Y-90609698D01*
X102910000Y-90376309D01*
X102910000Y-89935750D01*
X102751250Y-89777000D01*
X102027000Y-89777000D01*
X102027000Y-89797000D01*
X101773000Y-89797000D01*
X101773000Y-89777000D01*
X101753000Y-89777000D01*
X101753000Y-89523000D01*
X101773000Y-89523000D01*
X101773000Y-89503000D01*
X102027000Y-89503000D01*
X102027000Y-89523000D01*
X102751250Y-89523000D01*
X102910000Y-89364250D01*
X102910000Y-88923691D01*
X102813327Y-88690302D01*
X102811957Y-88688932D01*
X102814635Y-88685013D01*
X102985167Y-88685162D01*
X102985559Y-88685000D01*
X103801444Y-88685000D01*
X103665162Y-89013201D01*
X103665162Y-89013201D01*
G37*
X103665162Y-89013201D02*
X103664838Y-89385167D01*
X103728295Y-89538745D01*
X103653569Y-89648110D01*
X103602560Y-89900000D01*
X103602560Y-91100000D01*
X103612248Y-91151485D01*
X103522292Y-91211592D01*
X102388186Y-92345698D01*
X102397440Y-92300000D01*
X102397440Y-91100000D01*
X102356985Y-90885000D01*
X102401310Y-90885000D01*
X102634699Y-90788327D01*
X102813327Y-90609698D01*
X102910000Y-90376309D01*
X102910000Y-89935750D01*
X102751250Y-89777000D01*
X102027000Y-89777000D01*
X102027000Y-89797000D01*
X101773000Y-89797000D01*
X101773000Y-89777000D01*
X101753000Y-89777000D01*
X101753000Y-89523000D01*
X101773000Y-89523000D01*
X101773000Y-89503000D01*
X102027000Y-89503000D01*
X102027000Y-89523000D01*
X102751250Y-89523000D01*
X102910000Y-89364250D01*
X102910000Y-88923691D01*
X102813327Y-88690302D01*
X102811957Y-88688932D01*
X102814635Y-88685013D01*
X102985167Y-88685162D01*
X102985559Y-88685000D01*
X103801444Y-88685000D01*
X103665162Y-89013201D01*
G36*
X79347000Y-75927000D02*
X79327000Y-75927000D01*
X79327000Y-76726250D01*
X79485750Y-76885000D01*
X79926309Y-76885000D01*
X80159698Y-76788327D01*
X80300936Y-76647090D01*
X80335910Y-76701441D01*
X80548110Y-76846431D01*
X80625000Y-76862002D01*
X80625000Y-77101080D01*
X80514683Y-77121838D01*
X80411354Y-77188329D01*
X80409698Y-77186673D01*
X80176309Y-77090000D01*
X79735750Y-77090000D01*
X79577000Y-77248750D01*
X79577000Y-77973000D01*
X79597000Y-77973000D01*
X79597000Y-78227000D01*
X79577000Y-78227000D01*
X79577000Y-78951250D01*
X79735750Y-79110000D01*
X79959284Y-79110000D01*
X79861592Y-79207692D01*
X79693593Y-79459120D01*
X79634600Y-79755700D01*
X79634600Y-81002560D01*
X78600000Y-81002560D01*
X78364683Y-81046838D01*
X78148559Y-81185910D01*
X78021094Y-81372461D01*
X78012326Y-81374205D01*
X77963120Y-81383993D01*
X77711692Y-81551992D01*
X77711690Y-81551995D01*
X77702751Y-81560934D01*
X77592033Y-81560838D01*
X77248257Y-81702883D01*
X76985008Y-81965673D01*
X76842362Y-82309201D01*
X76842038Y-82681167D01*
X76984083Y-83024943D01*
X77246873Y-83288192D01*
X77590401Y-83430838D01*
X77962367Y-83431162D01*
X77976197Y-83425447D01*
X78123750Y-83573000D01*
X79073000Y-83573000D01*
X79073000Y-83553000D01*
X79327000Y-83553000D01*
X79327000Y-83573000D01*
X79347000Y-83573000D01*
X79347000Y-83827000D01*
X79327000Y-83827000D01*
X79327000Y-84626250D01*
X79485750Y-84785000D01*
X79634600Y-84785000D01*
X79634600Y-85491150D01*
X79577000Y-85548750D01*
X79577000Y-86273000D01*
X79597000Y-86273000D01*
X79597000Y-86527000D01*
X79577000Y-86527000D01*
X79577000Y-87251250D01*
X79735750Y-87410000D01*
X79791695Y-87410000D01*
X79861592Y-87514608D01*
X80010392Y-87663408D01*
X80261820Y-87831407D01*
X80558400Y-87890400D01*
X84457400Y-87890400D01*
X84753980Y-87831407D01*
X85005408Y-87663408D01*
X86883066Y-85785750D01*
X88815000Y-85785750D01*
X88815000Y-86001310D01*
X88911673Y-86234699D01*
X89090302Y-86413327D01*
X89323691Y-86510000D01*
X89764250Y-86510000D01*
X89923000Y-86351250D01*
X89923000Y-85627000D01*
X88973750Y-85627000D01*
X88815000Y-85785750D01*
X86883066Y-85785750D01*
X87670126Y-84998690D01*
X88815000Y-84998690D01*
X88815000Y-85214250D01*
X88973750Y-85373000D01*
X89923000Y-85373000D01*
X89923000Y-84648750D01*
X89764250Y-84490000D01*
X89323691Y-84490000D01*
X89090302Y-84586673D01*
X88911673Y-84765301D01*
X88815000Y-84998690D01*
X87670126Y-84998690D01*
X88511316Y-84157500D01*
X93165000Y-84157500D01*
X93165000Y-84212710D01*
X92829961Y-84547749D01*
X92801890Y-84528569D01*
X92550000Y-84477560D01*
X91350000Y-84477560D01*
X91114683Y-84521838D01*
X91011354Y-84588329D01*
X91009698Y-84586673D01*
X90776309Y-84490000D01*
X90335750Y-84490000D01*
X90177000Y-84648750D01*
X90177000Y-85373000D01*
X90197000Y-85373000D01*
X90197000Y-85627000D01*
X90177000Y-85627000D01*
X90177000Y-86351250D01*
X90335750Y-86510000D01*
X90776309Y-86510000D01*
X90965146Y-86431781D01*
X90964838Y-86785167D01*
X91106883Y-87128943D01*
X91253334Y-87275650D01*
X89474584Y-89054400D01*
X82080305Y-89054400D01*
X82080300Y-89054399D01*
X81783720Y-89113393D01*
X81532292Y-89281392D01*
X81051992Y-89761692D01*
X80883993Y-90013120D01*
X80881664Y-90024826D01*
X80764683Y-90046838D01*
X80548559Y-90185910D01*
X80500866Y-90255711D01*
X80464090Y-90198559D01*
X80251890Y-90053569D01*
X80000000Y-90002560D01*
X78800000Y-90002560D01*
X78564683Y-90046838D01*
X78348559Y-90185910D01*
X78253523Y-90325000D01*
X74559289Y-90325000D01*
X74542127Y-90307808D01*
X74198599Y-90165162D01*
X73826633Y-90164838D01*
X73482857Y-90306883D01*
X73426677Y-90362965D01*
X72585000Y-89521288D01*
X72585000Y-86685750D01*
X78215000Y-86685750D01*
X78215000Y-86901310D01*
X78311673Y-87134699D01*
X78490302Y-87313327D01*
X78723691Y-87410000D01*
X79164250Y-87410000D01*
X79323000Y-87251250D01*
X79323000Y-86527000D01*
X78373750Y-86527000D01*
X78215000Y-86685750D01*
X72585000Y-86685750D01*
X72585000Y-85898690D01*
X78215000Y-85898690D01*
X78215000Y-86114250D01*
X78373750Y-86273000D01*
X79323000Y-86273000D01*
X79323000Y-85548750D01*
X79164250Y-85390000D01*
X78723691Y-85390000D01*
X78490302Y-85486673D01*
X78311673Y-85665301D01*
X78215000Y-85898690D01*
X72585000Y-85898690D01*
X72585000Y-83985750D01*
X77965000Y-83985750D01*
X77965000Y-84276310D01*
X78061673Y-84509699D01*
X78240302Y-84688327D01*
X78473691Y-84785000D01*
X78914250Y-84785000D01*
X79073000Y-84626250D01*
X79073000Y-83827000D01*
X78123750Y-83827000D01*
X77965000Y-83985750D01*
X72585000Y-83985750D01*
X72585000Y-78385750D01*
X78215000Y-78385750D01*
X78215000Y-78601310D01*
X78311673Y-78834699D01*
X78490302Y-79013327D01*
X78723691Y-79110000D01*
X79164250Y-79110000D01*
X79323000Y-78951250D01*
X79323000Y-78227000D01*
X78373750Y-78227000D01*
X78215000Y-78385750D01*
X72585000Y-78385750D01*
X72585000Y-77598690D01*
X78215000Y-77598690D01*
X78215000Y-77814250D01*
X78373750Y-77973000D01*
X79323000Y-77973000D01*
X79323000Y-77248750D01*
X79164250Y-77090000D01*
X78723691Y-77090000D01*
X78490302Y-77186673D01*
X78311673Y-77365301D01*
X78215000Y-77598690D01*
X72585000Y-77598690D01*
X72585000Y-76732943D01*
X72688301Y-76775838D01*
X73060267Y-76776162D01*
X73404043Y-76634117D01*
X73667292Y-76371327D01*
X73785874Y-76085750D01*
X77965000Y-76085750D01*
X77965000Y-76376310D01*
X78061673Y-76609699D01*
X78240302Y-76788327D01*
X78473691Y-76885000D01*
X78914250Y-76885000D01*
X79073000Y-76726250D01*
X79073000Y-75927000D01*
X78123750Y-75927000D01*
X77965000Y-76085750D01*
X73785874Y-76085750D01*
X73809938Y-76027799D01*
X73810167Y-75765400D01*
X79347000Y-75765400D01*
X79347000Y-75927000D01*
X79347000Y-75927000D01*
G37*
X79347000Y-75927000D02*
X79327000Y-75927000D01*
X79327000Y-76726250D01*
X79485750Y-76885000D01*
X79926309Y-76885000D01*
X80159698Y-76788327D01*
X80300936Y-76647090D01*
X80335910Y-76701441D01*
X80548110Y-76846431D01*
X80625000Y-76862002D01*
X80625000Y-77101080D01*
X80514683Y-77121838D01*
X80411354Y-77188329D01*
X80409698Y-77186673D01*
X80176309Y-77090000D01*
X79735750Y-77090000D01*
X79577000Y-77248750D01*
X79577000Y-77973000D01*
X79597000Y-77973000D01*
X79597000Y-78227000D01*
X79577000Y-78227000D01*
X79577000Y-78951250D01*
X79735750Y-79110000D01*
X79959284Y-79110000D01*
X79861592Y-79207692D01*
X79693593Y-79459120D01*
X79634600Y-79755700D01*
X79634600Y-81002560D01*
X78600000Y-81002560D01*
X78364683Y-81046838D01*
X78148559Y-81185910D01*
X78021094Y-81372461D01*
X78012326Y-81374205D01*
X77963120Y-81383993D01*
X77711692Y-81551992D01*
X77711690Y-81551995D01*
X77702751Y-81560934D01*
X77592033Y-81560838D01*
X77248257Y-81702883D01*
X76985008Y-81965673D01*
X76842362Y-82309201D01*
X76842038Y-82681167D01*
X76984083Y-83024943D01*
X77246873Y-83288192D01*
X77590401Y-83430838D01*
X77962367Y-83431162D01*
X77976197Y-83425447D01*
X78123750Y-83573000D01*
X79073000Y-83573000D01*
X79073000Y-83553000D01*
X79327000Y-83553000D01*
X79327000Y-83573000D01*
X79347000Y-83573000D01*
X79347000Y-83827000D01*
X79327000Y-83827000D01*
X79327000Y-84626250D01*
X79485750Y-84785000D01*
X79634600Y-84785000D01*
X79634600Y-85491150D01*
X79577000Y-85548750D01*
X79577000Y-86273000D01*
X79597000Y-86273000D01*
X79597000Y-86527000D01*
X79577000Y-86527000D01*
X79577000Y-87251250D01*
X79735750Y-87410000D01*
X79791695Y-87410000D01*
X79861592Y-87514608D01*
X80010392Y-87663408D01*
X80261820Y-87831407D01*
X80558400Y-87890400D01*
X84457400Y-87890400D01*
X84753980Y-87831407D01*
X85005408Y-87663408D01*
X86883066Y-85785750D01*
X88815000Y-85785750D01*
X88815000Y-86001310D01*
X88911673Y-86234699D01*
X89090302Y-86413327D01*
X89323691Y-86510000D01*
X89764250Y-86510000D01*
X89923000Y-86351250D01*
X89923000Y-85627000D01*
X88973750Y-85627000D01*
X88815000Y-85785750D01*
X86883066Y-85785750D01*
X87670126Y-84998690D01*
X88815000Y-84998690D01*
X88815000Y-85214250D01*
X88973750Y-85373000D01*
X89923000Y-85373000D01*
X89923000Y-84648750D01*
X89764250Y-84490000D01*
X89323691Y-84490000D01*
X89090302Y-84586673D01*
X88911673Y-84765301D01*
X88815000Y-84998690D01*
X87670126Y-84998690D01*
X88511316Y-84157500D01*
X93165000Y-84157500D01*
X93165000Y-84212710D01*
X92829961Y-84547749D01*
X92801890Y-84528569D01*
X92550000Y-84477560D01*
X91350000Y-84477560D01*
X91114683Y-84521838D01*
X91011354Y-84588329D01*
X91009698Y-84586673D01*
X90776309Y-84490000D01*
X90335750Y-84490000D01*
X90177000Y-84648750D01*
X90177000Y-85373000D01*
X90197000Y-85373000D01*
X90197000Y-85627000D01*
X90177000Y-85627000D01*
X90177000Y-86351250D01*
X90335750Y-86510000D01*
X90776309Y-86510000D01*
X90965146Y-86431781D01*
X90964838Y-86785167D01*
X91106883Y-87128943D01*
X91253334Y-87275650D01*
X89474584Y-89054400D01*
X82080305Y-89054400D01*
X82080300Y-89054399D01*
X81783720Y-89113393D01*
X81532292Y-89281392D01*
X81051992Y-89761692D01*
X80883993Y-90013120D01*
X80881664Y-90024826D01*
X80764683Y-90046838D01*
X80548559Y-90185910D01*
X80500866Y-90255711D01*
X80464090Y-90198559D01*
X80251890Y-90053569D01*
X80000000Y-90002560D01*
X78800000Y-90002560D01*
X78564683Y-90046838D01*
X78348559Y-90185910D01*
X78253523Y-90325000D01*
X74559289Y-90325000D01*
X74542127Y-90307808D01*
X74198599Y-90165162D01*
X73826633Y-90164838D01*
X73482857Y-90306883D01*
X73426677Y-90362965D01*
X72585000Y-89521288D01*
X72585000Y-86685750D01*
X78215000Y-86685750D01*
X78215000Y-86901310D01*
X78311673Y-87134699D01*
X78490302Y-87313327D01*
X78723691Y-87410000D01*
X79164250Y-87410000D01*
X79323000Y-87251250D01*
X79323000Y-86527000D01*
X78373750Y-86527000D01*
X78215000Y-86685750D01*
X72585000Y-86685750D01*
X72585000Y-85898690D01*
X78215000Y-85898690D01*
X78215000Y-86114250D01*
X78373750Y-86273000D01*
X79323000Y-86273000D01*
X79323000Y-85548750D01*
X79164250Y-85390000D01*
X78723691Y-85390000D01*
X78490302Y-85486673D01*
X78311673Y-85665301D01*
X78215000Y-85898690D01*
X72585000Y-85898690D01*
X72585000Y-83985750D01*
X77965000Y-83985750D01*
X77965000Y-84276310D01*
X78061673Y-84509699D01*
X78240302Y-84688327D01*
X78473691Y-84785000D01*
X78914250Y-84785000D01*
X79073000Y-84626250D01*
X79073000Y-83827000D01*
X78123750Y-83827000D01*
X77965000Y-83985750D01*
X72585000Y-83985750D01*
X72585000Y-78385750D01*
X78215000Y-78385750D01*
X78215000Y-78601310D01*
X78311673Y-78834699D01*
X78490302Y-79013327D01*
X78723691Y-79110000D01*
X79164250Y-79110000D01*
X79323000Y-78951250D01*
X79323000Y-78227000D01*
X78373750Y-78227000D01*
X78215000Y-78385750D01*
X72585000Y-78385750D01*
X72585000Y-77598690D01*
X78215000Y-77598690D01*
X78215000Y-77814250D01*
X78373750Y-77973000D01*
X79323000Y-77973000D01*
X79323000Y-77248750D01*
X79164250Y-77090000D01*
X78723691Y-77090000D01*
X78490302Y-77186673D01*
X78311673Y-77365301D01*
X78215000Y-77598690D01*
X72585000Y-77598690D01*
X72585000Y-76732943D01*
X72688301Y-76775838D01*
X73060267Y-76776162D01*
X73404043Y-76634117D01*
X73667292Y-76371327D01*
X73785874Y-76085750D01*
X77965000Y-76085750D01*
X77965000Y-76376310D01*
X78061673Y-76609699D01*
X78240302Y-76788327D01*
X78473691Y-76885000D01*
X78914250Y-76885000D01*
X79073000Y-76726250D01*
X79073000Y-75927000D01*
X78123750Y-75927000D01*
X77965000Y-76085750D01*
X73785874Y-76085750D01*
X73809938Y-76027799D01*
X73810167Y-75765400D01*
X79347000Y-75765400D01*
X79347000Y-75927000D01*
G36*
X139435910Y-78001441D02*
X139648110Y-78146431D01*
X139725000Y-78162002D01*
X139725000Y-78410000D01*
X139783993Y-78706580D01*
X139951992Y-78958008D01*
X140132560Y-79138576D01*
X140132560Y-79910000D01*
X140176838Y-80145317D01*
X140179512Y-80149472D01*
X139603984Y-80725000D01*
X139509700Y-80725000D01*
X139213120Y-80783993D01*
X138961692Y-80951992D01*
X137751992Y-82161692D01*
X137583993Y-82413120D01*
X137581664Y-82424826D01*
X137464683Y-82446838D01*
X137248559Y-82585910D01*
X137103569Y-82798110D01*
X137052560Y-83050000D01*
X137052560Y-83950000D01*
X137096838Y-84185317D01*
X137170620Y-84299978D01*
X137103569Y-84398110D01*
X137052560Y-84650000D01*
X137052560Y-85550000D01*
X137096838Y-85785317D01*
X137235910Y-86001441D01*
X137448110Y-86146431D01*
X137525000Y-86162002D01*
X137525000Y-87619897D01*
X137514683Y-87621838D01*
X137298559Y-87760910D01*
X137230399Y-87860665D01*
X137113120Y-87883993D01*
X136861692Y-88051992D01*
X136773284Y-88140400D01*
X130497440Y-88140400D01*
X130497440Y-87825000D01*
X130453162Y-87589683D01*
X130370106Y-87460610D01*
X130983008Y-86847708D01*
X131151007Y-86596280D01*
X131210000Y-86299700D01*
X131210000Y-84158670D01*
X131341441Y-84074090D01*
X131486431Y-83861890D01*
X131504027Y-83775000D01*
X133469700Y-83775000D01*
X133766280Y-83716007D01*
X134017708Y-83548008D01*
X137139992Y-80425724D01*
X137258110Y-80506431D01*
X137510000Y-80557440D01*
X138420000Y-80557440D01*
X138655317Y-80513162D01*
X138871441Y-80374090D01*
X139016431Y-80161890D01*
X139067440Y-79910000D01*
X139067440Y-78690000D01*
X139023162Y-78454683D01*
X138931866Y-78312805D01*
X139016007Y-78186880D01*
X139018336Y-78175174D01*
X139135317Y-78153162D01*
X139351441Y-78014090D01*
X139399134Y-77944289D01*
X139435910Y-78001441D01*
X139435910Y-78001441D01*
G37*
X139435910Y-78001441D02*
X139648110Y-78146431D01*
X139725000Y-78162002D01*
X139725000Y-78410000D01*
X139783993Y-78706580D01*
X139951992Y-78958008D01*
X140132560Y-79138576D01*
X140132560Y-79910000D01*
X140176838Y-80145317D01*
X140179512Y-80149472D01*
X139603984Y-80725000D01*
X139509700Y-80725000D01*
X139213120Y-80783993D01*
X138961692Y-80951992D01*
X137751992Y-82161692D01*
X137583993Y-82413120D01*
X137581664Y-82424826D01*
X137464683Y-82446838D01*
X137248559Y-82585910D01*
X137103569Y-82798110D01*
X137052560Y-83050000D01*
X137052560Y-83950000D01*
X137096838Y-84185317D01*
X137170620Y-84299978D01*
X137103569Y-84398110D01*
X137052560Y-84650000D01*
X137052560Y-85550000D01*
X137096838Y-85785317D01*
X137235910Y-86001441D01*
X137448110Y-86146431D01*
X137525000Y-86162002D01*
X137525000Y-87619897D01*
X137514683Y-87621838D01*
X137298559Y-87760910D01*
X137230399Y-87860665D01*
X137113120Y-87883993D01*
X136861692Y-88051992D01*
X136773284Y-88140400D01*
X130497440Y-88140400D01*
X130497440Y-87825000D01*
X130453162Y-87589683D01*
X130370106Y-87460610D01*
X130983008Y-86847708D01*
X131151007Y-86596280D01*
X131210000Y-86299700D01*
X131210000Y-84158670D01*
X131341441Y-84074090D01*
X131486431Y-83861890D01*
X131504027Y-83775000D01*
X133469700Y-83775000D01*
X133766280Y-83716007D01*
X134017708Y-83548008D01*
X137139992Y-80425724D01*
X137258110Y-80506431D01*
X137510000Y-80557440D01*
X138420000Y-80557440D01*
X138655317Y-80513162D01*
X138871441Y-80374090D01*
X139016431Y-80161890D01*
X139067440Y-79910000D01*
X139067440Y-78690000D01*
X139023162Y-78454683D01*
X138931866Y-78312805D01*
X139016007Y-78186880D01*
X139018336Y-78175174D01*
X139135317Y-78153162D01*
X139351441Y-78014090D01*
X139399134Y-77944289D01*
X139435910Y-78001441D01*
G36*
X106677000Y-85973000D02*
X106697000Y-85973000D01*
X106697000Y-86227000D01*
X106677000Y-86227000D01*
X106677000Y-86951250D01*
X106835750Y-87110000D01*
X107276309Y-87110000D01*
X107509698Y-87013327D01*
X107592252Y-86930774D01*
X107715000Y-87014644D01*
X107715000Y-87825243D01*
X107558559Y-87925910D01*
X107463523Y-88065000D01*
X106537290Y-88065000D01*
X105561145Y-87088855D01*
X105515793Y-87058552D01*
X105588646Y-87011671D01*
X105590302Y-87013327D01*
X105823691Y-87110000D01*
X106264250Y-87110000D01*
X106423000Y-86951250D01*
X106423000Y-86227000D01*
X106403000Y-86227000D01*
X106403000Y-85973000D01*
X106423000Y-85973000D01*
X106423000Y-85953000D01*
X106677000Y-85953000D01*
X106677000Y-85973000D01*
X106677000Y-85973000D01*
G37*
X106677000Y-85973000D02*
X106697000Y-85973000D01*
X106697000Y-86227000D01*
X106677000Y-86227000D01*
X106677000Y-86951250D01*
X106835750Y-87110000D01*
X107276309Y-87110000D01*
X107509698Y-87013327D01*
X107592252Y-86930774D01*
X107715000Y-87014644D01*
X107715000Y-87825243D01*
X107558559Y-87925910D01*
X107463523Y-88065000D01*
X106537290Y-88065000D01*
X105561145Y-87088855D01*
X105515793Y-87058552D01*
X105588646Y-87011671D01*
X105590302Y-87013327D01*
X105823691Y-87110000D01*
X106264250Y-87110000D01*
X106423000Y-86951250D01*
X106423000Y-86227000D01*
X106403000Y-86227000D01*
X106403000Y-85973000D01*
X106423000Y-85973000D01*
X106423000Y-85953000D01*
X106677000Y-85953000D01*
X106677000Y-85973000D01*
G36*
X128640302Y-81888327D02*
X128873691Y-81985000D01*
X129314250Y-81985000D01*
X129472998Y-81826252D01*
X129472998Y-81985000D01*
X129488185Y-81985000D01*
X129383569Y-82138110D01*
X129332560Y-82390000D01*
X129332560Y-83610000D01*
X129376838Y-83845317D01*
X129515910Y-84061441D01*
X129660000Y-84159893D01*
X129660000Y-85978684D01*
X128703850Y-86934834D01*
X125544016Y-83775000D01*
X126093607Y-83775000D01*
X126106838Y-83845317D01*
X126245910Y-84061441D01*
X126458110Y-84206431D01*
X126710000Y-84257440D01*
X127620000Y-84257440D01*
X127855317Y-84213162D01*
X128071441Y-84074090D01*
X128216431Y-83861890D01*
X128267440Y-83610000D01*
X128267440Y-82390000D01*
X128223162Y-82154683D01*
X128108805Y-81976967D01*
X128235317Y-81953162D01*
X128451441Y-81814090D01*
X128497969Y-81745994D01*
X128640302Y-81888327D01*
X128640302Y-81888327D01*
G37*
X128640302Y-81888327D02*
X128873691Y-81985000D01*
X129314250Y-81985000D01*
X129472998Y-81826252D01*
X129472998Y-81985000D01*
X129488185Y-81985000D01*
X129383569Y-82138110D01*
X129332560Y-82390000D01*
X129332560Y-83610000D01*
X129376838Y-83845317D01*
X129515910Y-84061441D01*
X129660000Y-84159893D01*
X129660000Y-85978684D01*
X128703850Y-86934834D01*
X125544016Y-83775000D01*
X126093607Y-83775000D01*
X126106838Y-83845317D01*
X126245910Y-84061441D01*
X126458110Y-84206431D01*
X126710000Y-84257440D01*
X127620000Y-84257440D01*
X127855317Y-84213162D01*
X128071441Y-84074090D01*
X128216431Y-83861890D01*
X128267440Y-83610000D01*
X128267440Y-82390000D01*
X128223162Y-82154683D01*
X128108805Y-81976967D01*
X128235317Y-81953162D01*
X128451441Y-81814090D01*
X128497969Y-81745994D01*
X128640302Y-81888327D01*
G36*
X88815000Y-79627002D02*
X88973748Y-79627002D01*
X88815000Y-79785750D01*
X88815000Y-80001310D01*
X88911673Y-80234699D01*
X89090302Y-80413327D01*
X89323691Y-80510000D01*
X89764250Y-80510000D01*
X89923000Y-80351250D01*
X89923000Y-79627000D01*
X89903000Y-79627000D01*
X89903000Y-79559600D01*
X90197000Y-79559600D01*
X90197000Y-79627000D01*
X90177000Y-79627000D01*
X90177000Y-80351250D01*
X90335750Y-80510000D01*
X90380112Y-80510000D01*
X90442392Y-80603208D01*
X90564184Y-80725000D01*
X88100000Y-80725000D01*
X87803420Y-80783993D01*
X87551992Y-80951992D01*
X87551990Y-80951995D01*
X82878984Y-85625000D01*
X82447191Y-85625000D01*
X82414090Y-85573559D01*
X82201890Y-85428569D01*
X81950000Y-85377560D01*
X81184600Y-85377560D01*
X81184600Y-84797440D01*
X82000000Y-84797440D01*
X82235317Y-84753162D01*
X82451441Y-84614090D01*
X82596431Y-84401890D01*
X82647440Y-84150000D01*
X82647440Y-83250000D01*
X82603162Y-83014683D01*
X82529380Y-82900022D01*
X82596431Y-82801890D01*
X82647440Y-82550000D01*
X82647440Y-81650000D01*
X82603162Y-81414683D01*
X82520106Y-81285610D01*
X84246116Y-79559600D01*
X88815000Y-79559600D01*
X88815000Y-79627002D01*
X88815000Y-79627002D01*
G37*
X88815000Y-79627002D02*
X88973748Y-79627002D01*
X88815000Y-79785750D01*
X88815000Y-80001310D01*
X88911673Y-80234699D01*
X89090302Y-80413327D01*
X89323691Y-80510000D01*
X89764250Y-80510000D01*
X89923000Y-80351250D01*
X89923000Y-79627000D01*
X89903000Y-79627000D01*
X89903000Y-79559600D01*
X90197000Y-79559600D01*
X90197000Y-79627000D01*
X90177000Y-79627000D01*
X90177000Y-80351250D01*
X90335750Y-80510000D01*
X90380112Y-80510000D01*
X90442392Y-80603208D01*
X90564184Y-80725000D01*
X88100000Y-80725000D01*
X87803420Y-80783993D01*
X87551992Y-80951992D01*
X87551990Y-80951995D01*
X82878984Y-85625000D01*
X82447191Y-85625000D01*
X82414090Y-85573559D01*
X82201890Y-85428569D01*
X81950000Y-85377560D01*
X81184600Y-85377560D01*
X81184600Y-84797440D01*
X82000000Y-84797440D01*
X82235317Y-84753162D01*
X82451441Y-84614090D01*
X82596431Y-84401890D01*
X82647440Y-84150000D01*
X82647440Y-83250000D01*
X82603162Y-83014683D01*
X82529380Y-82900022D01*
X82596431Y-82801890D01*
X82647440Y-82550000D01*
X82647440Y-81650000D01*
X82603162Y-81414683D01*
X82520106Y-81285610D01*
X84246116Y-79559600D01*
X88815000Y-79559600D01*
X88815000Y-79627002D01*
G36*
X92890884Y-82607500D02*
X88190300Y-82607500D01*
X88063242Y-82632773D01*
X88421015Y-82275000D01*
X93223384Y-82275000D01*
X92890884Y-82607500D01*
X92890884Y-82607500D01*
G37*
X92890884Y-82607500D02*
X88190300Y-82607500D01*
X88063242Y-82632773D01*
X88421015Y-82275000D01*
X93223384Y-82275000D01*
X92890884Y-82607500D01*
G36*
X144065000Y-67128711D02*
X144065000Y-80671289D01*
X142271288Y-82465000D01*
X141368620Y-82465000D01*
X141351890Y-82453569D01*
X141100000Y-82402560D01*
X139900000Y-82402560D01*
X139664683Y-82446838D01*
X139648400Y-82457316D01*
X139830716Y-82275000D01*
X139925000Y-82275000D01*
X140221580Y-82216007D01*
X140473008Y-82048008D01*
X141783008Y-80738008D01*
X141939226Y-80504212D01*
X142141441Y-80374090D01*
X142286431Y-80161890D01*
X142337440Y-79910000D01*
X142337440Y-78690000D01*
X142293162Y-78454683D01*
X142154090Y-78238559D01*
X141941890Y-78093569D01*
X141690000Y-78042560D01*
X141507197Y-78042560D01*
X141551441Y-78014090D01*
X141696431Y-77801890D01*
X141747440Y-77550000D01*
X141747440Y-76650000D01*
X141703162Y-76414683D01*
X141666327Y-76357440D01*
X141690000Y-76357440D01*
X141925317Y-76313162D01*
X142141441Y-76174090D01*
X142286431Y-75961890D01*
X142337440Y-75710000D01*
X142337440Y-74490000D01*
X142293162Y-74254683D01*
X142154090Y-74038559D01*
X141941890Y-73893569D01*
X141937094Y-73892598D01*
X141783008Y-73661992D01*
X141783005Y-73661990D01*
X141375000Y-73253984D01*
X141375000Y-72064511D01*
X141435317Y-72053162D01*
X141651441Y-71914090D01*
X141796431Y-71701890D01*
X141847440Y-71450000D01*
X141847440Y-70550000D01*
X141803162Y-70314683D01*
X141729380Y-70200022D01*
X141796431Y-70101890D01*
X141847440Y-69850000D01*
X141847440Y-68950000D01*
X141803162Y-68714683D01*
X141664090Y-68498559D01*
X141451890Y-68353569D01*
X141318687Y-68326595D01*
X141316007Y-68313120D01*
X141307103Y-68299795D01*
X141401441Y-68239090D01*
X141546431Y-68026890D01*
X141597440Y-67775000D01*
X141597440Y-67025000D01*
X141553162Y-66789683D01*
X141414090Y-66573559D01*
X141201890Y-66428569D01*
X140950000Y-66377560D01*
X139750000Y-66377560D01*
X139514683Y-66421838D01*
X139411354Y-66488329D01*
X139409698Y-66486673D01*
X139176309Y-66390000D01*
X138735750Y-66390000D01*
X138577000Y-66548750D01*
X138577000Y-67273000D01*
X138597000Y-67273000D01*
X138597000Y-67527000D01*
X138577000Y-67527000D01*
X138577000Y-68251250D01*
X138663250Y-68337500D01*
X138527000Y-68473750D01*
X138527000Y-69273000D01*
X138547000Y-69273000D01*
X138547000Y-69527000D01*
X138527000Y-69527000D01*
X138527000Y-69547000D01*
X138273000Y-69547000D01*
X138273000Y-69527000D01*
X137323750Y-69527000D01*
X137165000Y-69685750D01*
X137165000Y-69701289D01*
X136287402Y-68823690D01*
X137165000Y-68823690D01*
X137165000Y-69114250D01*
X137323750Y-69273000D01*
X138273000Y-69273000D01*
X138273000Y-68473750D01*
X138186750Y-68387500D01*
X138323000Y-68251250D01*
X138323000Y-67527000D01*
X137373750Y-67527000D01*
X137215000Y-67685750D01*
X137215000Y-67901310D01*
X137311673Y-68134699D01*
X137490302Y-68313327D01*
X137584016Y-68352145D01*
X137440302Y-68411673D01*
X137261673Y-68590301D01*
X137165000Y-68823690D01*
X136287402Y-68823690D01*
X134362402Y-66898690D01*
X137215000Y-66898690D01*
X137215000Y-67114250D01*
X137373750Y-67273000D01*
X138323000Y-67273000D01*
X138323000Y-66548750D01*
X138164250Y-66390000D01*
X137723691Y-66390000D01*
X137490302Y-66486673D01*
X137311673Y-66665301D01*
X137215000Y-66898690D01*
X134362402Y-66898690D01*
X129598712Y-62135000D01*
X139071288Y-62135000D01*
X144065000Y-67128711D01*
X144065000Y-67128711D01*
G37*
X144065000Y-67128711D02*
X144065000Y-80671289D01*
X142271288Y-82465000D01*
X141368620Y-82465000D01*
X141351890Y-82453569D01*
X141100000Y-82402560D01*
X139900000Y-82402560D01*
X139664683Y-82446838D01*
X139648400Y-82457316D01*
X139830716Y-82275000D01*
X139925000Y-82275000D01*
X140221580Y-82216007D01*
X140473008Y-82048008D01*
X141783008Y-80738008D01*
X141939226Y-80504212D01*
X142141441Y-80374090D01*
X142286431Y-80161890D01*
X142337440Y-79910000D01*
X142337440Y-78690000D01*
X142293162Y-78454683D01*
X142154090Y-78238559D01*
X141941890Y-78093569D01*
X141690000Y-78042560D01*
X141507197Y-78042560D01*
X141551441Y-78014090D01*
X141696431Y-77801890D01*
X141747440Y-77550000D01*
X141747440Y-76650000D01*
X141703162Y-76414683D01*
X141666327Y-76357440D01*
X141690000Y-76357440D01*
X141925317Y-76313162D01*
X142141441Y-76174090D01*
X142286431Y-75961890D01*
X142337440Y-75710000D01*
X142337440Y-74490000D01*
X142293162Y-74254683D01*
X142154090Y-74038559D01*
X141941890Y-73893569D01*
X141937094Y-73892598D01*
X141783008Y-73661992D01*
X141783005Y-73661990D01*
X141375000Y-73253984D01*
X141375000Y-72064511D01*
X141435317Y-72053162D01*
X141651441Y-71914090D01*
X141796431Y-71701890D01*
X141847440Y-71450000D01*
X141847440Y-70550000D01*
X141803162Y-70314683D01*
X141729380Y-70200022D01*
X141796431Y-70101890D01*
X141847440Y-69850000D01*
X141847440Y-68950000D01*
X141803162Y-68714683D01*
X141664090Y-68498559D01*
X141451890Y-68353569D01*
X141318687Y-68326595D01*
X141316007Y-68313120D01*
X141307103Y-68299795D01*
X141401441Y-68239090D01*
X141546431Y-68026890D01*
X141597440Y-67775000D01*
X141597440Y-67025000D01*
X141553162Y-66789683D01*
X141414090Y-66573559D01*
X141201890Y-66428569D01*
X140950000Y-66377560D01*
X139750000Y-66377560D01*
X139514683Y-66421838D01*
X139411354Y-66488329D01*
X139409698Y-66486673D01*
X139176309Y-66390000D01*
X138735750Y-66390000D01*
X138577000Y-66548750D01*
X138577000Y-67273000D01*
X138597000Y-67273000D01*
X138597000Y-67527000D01*
X138577000Y-67527000D01*
X138577000Y-68251250D01*
X138663250Y-68337500D01*
X138527000Y-68473750D01*
X138527000Y-69273000D01*
X138547000Y-69273000D01*
X138547000Y-69527000D01*
X138527000Y-69527000D01*
X138527000Y-69547000D01*
X138273000Y-69547000D01*
X138273000Y-69527000D01*
X137323750Y-69527000D01*
X137165000Y-69685750D01*
X137165000Y-69701289D01*
X136287402Y-68823690D01*
X137165000Y-68823690D01*
X137165000Y-69114250D01*
X137323750Y-69273000D01*
X138273000Y-69273000D01*
X138273000Y-68473750D01*
X138186750Y-68387500D01*
X138323000Y-68251250D01*
X138323000Y-67527000D01*
X137373750Y-67527000D01*
X137215000Y-67685750D01*
X137215000Y-67901310D01*
X137311673Y-68134699D01*
X137490302Y-68313327D01*
X137584016Y-68352145D01*
X137440302Y-68411673D01*
X137261673Y-68590301D01*
X137165000Y-68823690D01*
X136287402Y-68823690D01*
X134362402Y-66898690D01*
X137215000Y-66898690D01*
X137215000Y-67114250D01*
X137373750Y-67273000D01*
X138323000Y-67273000D01*
X138323000Y-66548750D01*
X138164250Y-66390000D01*
X137723691Y-66390000D01*
X137490302Y-66486673D01*
X137311673Y-66665301D01*
X137215000Y-66898690D01*
X134362402Y-66898690D01*
X129598712Y-62135000D01*
X139071288Y-62135000D01*
X144065000Y-67128711D01*
G36*
X133148684Y-82225000D02*
X131506393Y-82225000D01*
X131493162Y-82154683D01*
X131354090Y-81938559D01*
X131141890Y-81793569D01*
X130890000Y-81742560D01*
X130705466Y-81742560D01*
X130738327Y-81709699D01*
X130835000Y-81476310D01*
X130835000Y-81185750D01*
X130676250Y-81027000D01*
X129727000Y-81027000D01*
X129727000Y-81047000D01*
X129473000Y-81047000D01*
X129473000Y-81027000D01*
X129453000Y-81027000D01*
X129453000Y-80884700D01*
X134488984Y-80884700D01*
X133148684Y-82225000D01*
X133148684Y-82225000D01*
G37*
X133148684Y-82225000D02*
X131506393Y-82225000D01*
X131493162Y-82154683D01*
X131354090Y-81938559D01*
X131141890Y-81793569D01*
X130890000Y-81742560D01*
X130705466Y-81742560D01*
X130738327Y-81709699D01*
X130835000Y-81476310D01*
X130835000Y-81185750D01*
X130676250Y-81027000D01*
X129727000Y-81027000D01*
X129727000Y-81047000D01*
X129473000Y-81047000D01*
X129473000Y-81027000D01*
X129453000Y-81027000D01*
X129453000Y-80884700D01*
X134488984Y-80884700D01*
X133148684Y-82225000D01*
G36*
X125911692Y-81448008D02*
X126163120Y-81616007D01*
X126224434Y-81628203D01*
X126335910Y-81801441D01*
X126392209Y-81839909D01*
X126258559Y-81925910D01*
X126113569Y-82138110D01*
X126095973Y-82225000D01*
X124673416Y-82225000D01*
X123884608Y-81436192D01*
X123633180Y-81268193D01*
X123336600Y-81209200D01*
X107277316Y-81209200D01*
X107222616Y-81154500D01*
X125618184Y-81154500D01*
X125911692Y-81448008D01*
X125911692Y-81448008D01*
G37*
X125911692Y-81448008D02*
X126163120Y-81616007D01*
X126224434Y-81628203D01*
X126335910Y-81801441D01*
X126392209Y-81839909D01*
X126258559Y-81925910D01*
X126113569Y-82138110D01*
X126095973Y-82225000D01*
X124673416Y-82225000D01*
X123884608Y-81436192D01*
X123633180Y-81268193D01*
X123336600Y-81209200D01*
X107277316Y-81209200D01*
X107222616Y-81154500D01*
X125618184Y-81154500D01*
X125911692Y-81448008D01*
G36*
X81184600Y-80429084D02*
X81184600Y-80076716D01*
X81898005Y-79363310D01*
X81898008Y-79363308D01*
X82066007Y-79111880D01*
X82068336Y-79100174D01*
X82185317Y-79078162D01*
X82401441Y-78939090D01*
X82469601Y-78839335D01*
X82586880Y-78816007D01*
X82838308Y-78648008D01*
X82969116Y-78517200D01*
X83096484Y-78517200D01*
X81184600Y-80429084D01*
X81184600Y-80429084D01*
G37*
X81184600Y-80429084D02*
X81184600Y-80076716D01*
X81898005Y-79363310D01*
X81898008Y-79363308D01*
X82066007Y-79111880D01*
X82068336Y-79100174D01*
X82185317Y-79078162D01*
X82401441Y-78939090D01*
X82469601Y-78839335D01*
X82586880Y-78816007D01*
X82838308Y-78648008D01*
X82969116Y-78517200D01*
X83096484Y-78517200D01*
X81184600Y-80429084D01*
G36*
X133567508Y-74569673D02*
X133424862Y-74913201D01*
X133424840Y-74938844D01*
X130821124Y-77542560D01*
X129980000Y-77542560D01*
X129744683Y-77586838D01*
X129528559Y-77725910D01*
X129383569Y-77938110D01*
X129332560Y-78190000D01*
X129332560Y-79334700D01*
X128267440Y-79334700D01*
X128267440Y-78190000D01*
X128223162Y-77954683D01*
X128084090Y-77738559D01*
X127871890Y-77593569D01*
X127797426Y-77578490D01*
X128556316Y-76819600D01*
X129387800Y-76819600D01*
X129684380Y-76760607D01*
X129935808Y-76592608D01*
X131088405Y-75440010D01*
X131088408Y-75440008D01*
X131256407Y-75188580D01*
X131274027Y-75100000D01*
X131315401Y-74892000D01*
X131315400Y-74891995D01*
X131315400Y-74415400D01*
X133722050Y-74415400D01*
X133567508Y-74569673D01*
X133567508Y-74569673D01*
G37*
X133567508Y-74569673D02*
X133424862Y-74913201D01*
X133424840Y-74938844D01*
X130821124Y-77542560D01*
X129980000Y-77542560D01*
X129744683Y-77586838D01*
X129528559Y-77725910D01*
X129383569Y-77938110D01*
X129332560Y-78190000D01*
X129332560Y-79334700D01*
X128267440Y-79334700D01*
X128267440Y-78190000D01*
X128223162Y-77954683D01*
X128084090Y-77738559D01*
X127871890Y-77593569D01*
X127797426Y-77578490D01*
X128556316Y-76819600D01*
X129387800Y-76819600D01*
X129684380Y-76760607D01*
X129935808Y-76592608D01*
X131088405Y-75440010D01*
X131088408Y-75440008D01*
X131256407Y-75188580D01*
X131274027Y-75100000D01*
X131315401Y-74892000D01*
X131315400Y-74891995D01*
X131315400Y-74415400D01*
X133722050Y-74415400D01*
X133567508Y-74569673D01*
G36*
X136906838Y-75945317D02*
X137045910Y-76161441D01*
X137195459Y-76263624D01*
X137103569Y-76398110D01*
X137052560Y-76650000D01*
X137052560Y-77281576D01*
X136961692Y-77342292D01*
X136961690Y-77342295D01*
X134969284Y-79334700D01*
X131787200Y-79334700D01*
X131946307Y-79096580D01*
X132005300Y-78800000D01*
X132005300Y-78550416D01*
X134520575Y-76035141D01*
X134544867Y-76035162D01*
X134888643Y-75893117D01*
X134906792Y-75875000D01*
X136893607Y-75875000D01*
X136906838Y-75945317D01*
X136906838Y-75945317D01*
G37*
X136906838Y-75945317D02*
X137045910Y-76161441D01*
X137195459Y-76263624D01*
X137103569Y-76398110D01*
X137052560Y-76650000D01*
X137052560Y-77281576D01*
X136961692Y-77342292D01*
X136961690Y-77342295D01*
X134969284Y-79334700D01*
X131787200Y-79334700D01*
X131946307Y-79096580D01*
X132005300Y-78800000D01*
X132005300Y-78550416D01*
X134520575Y-76035141D01*
X134544867Y-76035162D01*
X134888643Y-75893117D01*
X134906792Y-75875000D01*
X136893607Y-75875000D01*
X136906838Y-75945317D01*
G36*
X84475692Y-76771708D02*
X84727120Y-76939707D01*
X84776326Y-76949495D01*
X84865336Y-76967200D01*
X82648105Y-76967200D01*
X82648100Y-76967199D01*
X82400726Y-77016405D01*
X82351520Y-77026193D01*
X82199138Y-77128012D01*
X82175000Y-77123124D01*
X82175000Y-76864511D01*
X82235317Y-76853162D01*
X82451441Y-76714090D01*
X82596431Y-76501890D01*
X82647440Y-76250000D01*
X82647440Y-75350000D01*
X82603162Y-75114683D01*
X82529380Y-75000022D01*
X82596431Y-74901890D01*
X82598021Y-74894037D01*
X84475692Y-76771708D01*
X84475692Y-76771708D01*
G37*
X84475692Y-76771708D02*
X84727120Y-76939707D01*
X84776326Y-76949495D01*
X84865336Y-76967200D01*
X82648105Y-76967200D01*
X82648100Y-76967199D01*
X82400726Y-77016405D01*
X82351520Y-77026193D01*
X82199138Y-77128012D01*
X82175000Y-77123124D01*
X82175000Y-76864511D01*
X82235317Y-76853162D01*
X82451441Y-76714090D01*
X82596431Y-76501890D01*
X82647440Y-76250000D01*
X82647440Y-75350000D01*
X82603162Y-75114683D01*
X82529380Y-75000022D01*
X82596431Y-74901890D01*
X82598021Y-74894037D01*
X84475692Y-76771708D01*
G36*
X136268142Y-71731853D02*
X136268144Y-71731856D01*
X136534308Y-71909700D01*
X136603923Y-71956215D01*
X137000000Y-72035001D01*
X137000005Y-72035000D01*
X137531380Y-72035000D01*
X137548110Y-72046431D01*
X137800000Y-72097440D01*
X139000000Y-72097440D01*
X139235317Y-72053162D01*
X139451441Y-71914090D01*
X139499134Y-71844289D01*
X139535910Y-71901441D01*
X139748110Y-72046431D01*
X139825000Y-72062002D01*
X139825000Y-72865400D01*
X130847440Y-72865400D01*
X130847440Y-72250000D01*
X130803162Y-72014683D01*
X130664090Y-71798559D01*
X130451890Y-71653569D01*
X130200000Y-71602560D01*
X129000000Y-71602560D01*
X128764683Y-71646838D01*
X128548559Y-71785910D01*
X128500866Y-71855711D01*
X128464090Y-71798559D01*
X128251890Y-71653569D01*
X128000000Y-71602560D01*
X126800000Y-71602560D01*
X126564683Y-71646838D01*
X126348559Y-71785910D01*
X126203569Y-71998110D01*
X126152560Y-72250000D01*
X126152560Y-73150000D01*
X126196838Y-73385317D01*
X126270620Y-73499978D01*
X126203569Y-73598110D01*
X126152560Y-73850000D01*
X126152560Y-74750000D01*
X126196838Y-74985317D01*
X126279894Y-75114390D01*
X124400284Y-76994000D01*
X108620089Y-76994000D01*
X108602927Y-76976808D01*
X108259399Y-76834162D01*
X107887433Y-76833838D01*
X107575654Y-76962662D01*
X107938408Y-76599908D01*
X107998483Y-76510000D01*
X108064250Y-76510000D01*
X108223000Y-76351250D01*
X108223000Y-75627000D01*
X108477000Y-75627000D01*
X108477000Y-76351250D01*
X108635750Y-76510000D01*
X109076309Y-76510000D01*
X109309698Y-76413327D01*
X109488327Y-76234699D01*
X109585000Y-76001310D01*
X109585000Y-75785750D01*
X109426250Y-75627000D01*
X108477000Y-75627000D01*
X108223000Y-75627000D01*
X108203000Y-75627000D01*
X108203000Y-75373000D01*
X108223000Y-75373000D01*
X108223000Y-75353000D01*
X108477000Y-75353000D01*
X108477000Y-75373000D01*
X109426250Y-75373000D01*
X109585000Y-75214250D01*
X109585000Y-74998690D01*
X109488327Y-74765301D01*
X109309698Y-74586673D01*
X109076309Y-74490000D01*
X108939516Y-74490000D01*
X110744815Y-72684700D01*
X123455700Y-72684700D01*
X123752280Y-72625707D01*
X124003708Y-72457708D01*
X124003909Y-72457407D01*
X127998008Y-68463308D01*
X128166007Y-68211880D01*
X128168336Y-68200174D01*
X128285317Y-68178162D01*
X128399978Y-68104380D01*
X128498110Y-68171431D01*
X128750000Y-68222440D01*
X129950000Y-68222440D01*
X130185317Y-68178162D01*
X130401441Y-68039090D01*
X130414075Y-68020600D01*
X130469111Y-68020600D01*
X130486273Y-68037792D01*
X130829801Y-68180438D01*
X131201767Y-68180762D01*
X131545543Y-68038717D01*
X131808792Y-67775927D01*
X131951438Y-67432399D01*
X131951453Y-67415165D01*
X136268142Y-71731853D01*
X136268142Y-71731853D01*
G37*
X136268142Y-71731853D02*
X136268144Y-71731856D01*
X136534308Y-71909700D01*
X136603923Y-71956215D01*
X137000000Y-72035001D01*
X137000005Y-72035000D01*
X137531380Y-72035000D01*
X137548110Y-72046431D01*
X137800000Y-72097440D01*
X139000000Y-72097440D01*
X139235317Y-72053162D01*
X139451441Y-71914090D01*
X139499134Y-71844289D01*
X139535910Y-71901441D01*
X139748110Y-72046431D01*
X139825000Y-72062002D01*
X139825000Y-72865400D01*
X130847440Y-72865400D01*
X130847440Y-72250000D01*
X130803162Y-72014683D01*
X130664090Y-71798559D01*
X130451890Y-71653569D01*
X130200000Y-71602560D01*
X129000000Y-71602560D01*
X128764683Y-71646838D01*
X128548559Y-71785910D01*
X128500866Y-71855711D01*
X128464090Y-71798559D01*
X128251890Y-71653569D01*
X128000000Y-71602560D01*
X126800000Y-71602560D01*
X126564683Y-71646838D01*
X126348559Y-71785910D01*
X126203569Y-71998110D01*
X126152560Y-72250000D01*
X126152560Y-73150000D01*
X126196838Y-73385317D01*
X126270620Y-73499978D01*
X126203569Y-73598110D01*
X126152560Y-73850000D01*
X126152560Y-74750000D01*
X126196838Y-74985317D01*
X126279894Y-75114390D01*
X124400284Y-76994000D01*
X108620089Y-76994000D01*
X108602927Y-76976808D01*
X108259399Y-76834162D01*
X107887433Y-76833838D01*
X107575654Y-76962662D01*
X107938408Y-76599908D01*
X107998483Y-76510000D01*
X108064250Y-76510000D01*
X108223000Y-76351250D01*
X108223000Y-75627000D01*
X108477000Y-75627000D01*
X108477000Y-76351250D01*
X108635750Y-76510000D01*
X109076309Y-76510000D01*
X109309698Y-76413327D01*
X109488327Y-76234699D01*
X109585000Y-76001310D01*
X109585000Y-75785750D01*
X109426250Y-75627000D01*
X108477000Y-75627000D01*
X108223000Y-75627000D01*
X108203000Y-75627000D01*
X108203000Y-75373000D01*
X108223000Y-75373000D01*
X108223000Y-75353000D01*
X108477000Y-75353000D01*
X108477000Y-75373000D01*
X109426250Y-75373000D01*
X109585000Y-75214250D01*
X109585000Y-74998690D01*
X109488327Y-74765301D01*
X109309698Y-74586673D01*
X109076309Y-74490000D01*
X108939516Y-74490000D01*
X110744815Y-72684700D01*
X123455700Y-72684700D01*
X123752280Y-72625707D01*
X124003708Y-72457708D01*
X124003909Y-72457407D01*
X127998008Y-68463308D01*
X128166007Y-68211880D01*
X128168336Y-68200174D01*
X128285317Y-68178162D01*
X128399978Y-68104380D01*
X128498110Y-68171431D01*
X128750000Y-68222440D01*
X129950000Y-68222440D01*
X130185317Y-68178162D01*
X130401441Y-68039090D01*
X130414075Y-68020600D01*
X130469111Y-68020600D01*
X130486273Y-68037792D01*
X130829801Y-68180438D01*
X131201767Y-68180762D01*
X131545543Y-68038717D01*
X131808792Y-67775927D01*
X131951438Y-67432399D01*
X131951453Y-67415165D01*
X136268142Y-71731853D01*
G36*
X88901288Y-65765000D02*
X88785750Y-65765000D01*
X88627000Y-65923750D01*
X88627000Y-66873000D01*
X88647000Y-66873000D01*
X88647000Y-67127000D01*
X88627000Y-67127000D01*
X88627000Y-67147000D01*
X88373000Y-67147000D01*
X88373000Y-67127000D01*
X87027000Y-67127000D01*
X87027000Y-67147000D01*
X86773000Y-67147000D01*
X86773000Y-67127000D01*
X85427000Y-67127000D01*
X85427000Y-67147000D01*
X85173000Y-67147000D01*
X85173000Y-67127000D01*
X84373750Y-67127000D01*
X84215000Y-67285750D01*
X84215000Y-67726309D01*
X84311673Y-67959698D01*
X84452910Y-68100936D01*
X84398559Y-68135910D01*
X84253569Y-68348110D01*
X84202560Y-68600000D01*
X84202560Y-69800000D01*
X84246838Y-70035317D01*
X84385910Y-70251441D01*
X84598110Y-70396431D01*
X84850000Y-70447440D01*
X85750000Y-70447440D01*
X85985317Y-70403162D01*
X86099978Y-70329380D01*
X86198110Y-70396431D01*
X86450000Y-70447440D01*
X87051424Y-70447440D01*
X90138792Y-73534808D01*
X90390220Y-73702807D01*
X90686800Y-73761800D01*
X93226684Y-73761800D01*
X96248162Y-76783277D01*
X96213346Y-76867330D01*
X93834108Y-74488092D01*
X93582680Y-74320093D01*
X93286100Y-74261100D01*
X85791815Y-74261100D01*
X82369783Y-70839068D01*
X82446431Y-70726890D01*
X82497440Y-70475000D01*
X82497440Y-69725000D01*
X82453162Y-69489683D01*
X82314090Y-69273559D01*
X82101890Y-69128569D01*
X81850000Y-69077560D01*
X80650000Y-69077560D01*
X80414683Y-69121838D01*
X80311354Y-69188329D01*
X80309698Y-69186673D01*
X80076309Y-69090000D01*
X79635750Y-69090000D01*
X79477000Y-69248750D01*
X79477000Y-69973000D01*
X79497000Y-69973000D01*
X79497000Y-70227000D01*
X79477000Y-70227000D01*
X79477000Y-70951250D01*
X79635750Y-71110000D01*
X80076309Y-71110000D01*
X80309698Y-71013327D01*
X80311068Y-71011957D01*
X80398110Y-71071431D01*
X80531313Y-71098405D01*
X80533993Y-71111880D01*
X80701992Y-71363308D01*
X80841244Y-71502560D01*
X80800000Y-71502560D01*
X80564683Y-71546838D01*
X80348559Y-71685910D01*
X80300866Y-71755711D01*
X80264090Y-71698559D01*
X80051890Y-71553569D01*
X79800000Y-71502560D01*
X78600000Y-71502560D01*
X78364683Y-71546838D01*
X78148559Y-71685910D01*
X78003569Y-71898110D01*
X77952560Y-72150000D01*
X77952560Y-73050000D01*
X77974199Y-73165000D01*
X77229711Y-73165000D01*
X74450462Y-70385750D01*
X78115000Y-70385750D01*
X78115000Y-70601310D01*
X78211673Y-70834699D01*
X78390302Y-71013327D01*
X78623691Y-71110000D01*
X79064250Y-71110000D01*
X79223000Y-70951250D01*
X79223000Y-70227000D01*
X78273750Y-70227000D01*
X78115000Y-70385750D01*
X74450462Y-70385750D01*
X73663402Y-69598690D01*
X78115000Y-69598690D01*
X78115000Y-69814250D01*
X78273750Y-69973000D01*
X79223000Y-69973000D01*
X79223000Y-69248750D01*
X79064250Y-69090000D01*
X78623691Y-69090000D01*
X78390302Y-69186673D01*
X78211673Y-69365301D01*
X78115000Y-69598690D01*
X73663402Y-69598690D01*
X71459212Y-67394500D01*
X76840495Y-67394500D01*
X76840500Y-67394501D01*
X77236577Y-67315715D01*
X77572356Y-67091356D01*
X78390020Y-66273691D01*
X84215000Y-66273691D01*
X84215000Y-66714250D01*
X84373750Y-66873000D01*
X85173000Y-66873000D01*
X85173000Y-65923750D01*
X85427000Y-65923750D01*
X85427000Y-66873000D01*
X86773000Y-66873000D01*
X86773000Y-65923750D01*
X87027000Y-65923750D01*
X87027000Y-66873000D01*
X88373000Y-66873000D01*
X88373000Y-65923750D01*
X88214250Y-65765000D01*
X87923690Y-65765000D01*
X87700000Y-65857656D01*
X87476310Y-65765000D01*
X87185750Y-65765000D01*
X87027000Y-65923750D01*
X86773000Y-65923750D01*
X86614250Y-65765000D01*
X86323690Y-65765000D01*
X86100000Y-65857656D01*
X85876310Y-65765000D01*
X85585750Y-65765000D01*
X85427000Y-65923750D01*
X85173000Y-65923750D01*
X85014250Y-65765000D01*
X84723690Y-65765000D01*
X84490301Y-65861673D01*
X84311673Y-66040302D01*
X84215000Y-66273691D01*
X78390020Y-66273691D01*
X79128711Y-65535000D01*
X88671288Y-65535000D01*
X88901288Y-65765000D01*
X88901288Y-65765000D01*
G37*
X88901288Y-65765000D02*
X88785750Y-65765000D01*
X88627000Y-65923750D01*
X88627000Y-66873000D01*
X88647000Y-66873000D01*
X88647000Y-67127000D01*
X88627000Y-67127000D01*
X88627000Y-67147000D01*
X88373000Y-67147000D01*
X88373000Y-67127000D01*
X87027000Y-67127000D01*
X87027000Y-67147000D01*
X86773000Y-67147000D01*
X86773000Y-67127000D01*
X85427000Y-67127000D01*
X85427000Y-67147000D01*
X85173000Y-67147000D01*
X85173000Y-67127000D01*
X84373750Y-67127000D01*
X84215000Y-67285750D01*
X84215000Y-67726309D01*
X84311673Y-67959698D01*
X84452910Y-68100936D01*
X84398559Y-68135910D01*
X84253569Y-68348110D01*
X84202560Y-68600000D01*
X84202560Y-69800000D01*
X84246838Y-70035317D01*
X84385910Y-70251441D01*
X84598110Y-70396431D01*
X84850000Y-70447440D01*
X85750000Y-70447440D01*
X85985317Y-70403162D01*
X86099978Y-70329380D01*
X86198110Y-70396431D01*
X86450000Y-70447440D01*
X87051424Y-70447440D01*
X90138792Y-73534808D01*
X90390220Y-73702807D01*
X90686800Y-73761800D01*
X93226684Y-73761800D01*
X96248162Y-76783277D01*
X96213346Y-76867330D01*
X93834108Y-74488092D01*
X93582680Y-74320093D01*
X93286100Y-74261100D01*
X85791815Y-74261100D01*
X82369783Y-70839068D01*
X82446431Y-70726890D01*
X82497440Y-70475000D01*
X82497440Y-69725000D01*
X82453162Y-69489683D01*
X82314090Y-69273559D01*
X82101890Y-69128569D01*
X81850000Y-69077560D01*
X80650000Y-69077560D01*
X80414683Y-69121838D01*
X80311354Y-69188329D01*
X80309698Y-69186673D01*
X80076309Y-69090000D01*
X79635750Y-69090000D01*
X79477000Y-69248750D01*
X79477000Y-69973000D01*
X79497000Y-69973000D01*
X79497000Y-70227000D01*
X79477000Y-70227000D01*
X79477000Y-70951250D01*
X79635750Y-71110000D01*
X80076309Y-71110000D01*
X80309698Y-71013327D01*
X80311068Y-71011957D01*
X80398110Y-71071431D01*
X80531313Y-71098405D01*
X80533993Y-71111880D01*
X80701992Y-71363308D01*
X80841244Y-71502560D01*
X80800000Y-71502560D01*
X80564683Y-71546838D01*
X80348559Y-71685910D01*
X80300866Y-71755711D01*
X80264090Y-71698559D01*
X80051890Y-71553569D01*
X79800000Y-71502560D01*
X78600000Y-71502560D01*
X78364683Y-71546838D01*
X78148559Y-71685910D01*
X78003569Y-71898110D01*
X77952560Y-72150000D01*
X77952560Y-73050000D01*
X77974199Y-73165000D01*
X77229711Y-73165000D01*
X74450462Y-70385750D01*
X78115000Y-70385750D01*
X78115000Y-70601310D01*
X78211673Y-70834699D01*
X78390302Y-71013327D01*
X78623691Y-71110000D01*
X79064250Y-71110000D01*
X79223000Y-70951250D01*
X79223000Y-70227000D01*
X78273750Y-70227000D01*
X78115000Y-70385750D01*
X74450462Y-70385750D01*
X73663402Y-69598690D01*
X78115000Y-69598690D01*
X78115000Y-69814250D01*
X78273750Y-69973000D01*
X79223000Y-69973000D01*
X79223000Y-69248750D01*
X79064250Y-69090000D01*
X78623691Y-69090000D01*
X78390302Y-69186673D01*
X78211673Y-69365301D01*
X78115000Y-69598690D01*
X73663402Y-69598690D01*
X71459212Y-67394500D01*
X76840495Y-67394500D01*
X76840500Y-67394501D01*
X77236577Y-67315715D01*
X77572356Y-67091356D01*
X78390020Y-66273691D01*
X84215000Y-66273691D01*
X84215000Y-66714250D01*
X84373750Y-66873000D01*
X85173000Y-66873000D01*
X85173000Y-65923750D01*
X85427000Y-65923750D01*
X85427000Y-66873000D01*
X86773000Y-66873000D01*
X86773000Y-65923750D01*
X87027000Y-65923750D01*
X87027000Y-66873000D01*
X88373000Y-66873000D01*
X88373000Y-65923750D01*
X88214250Y-65765000D01*
X87923690Y-65765000D01*
X87700000Y-65857656D01*
X87476310Y-65765000D01*
X87185750Y-65765000D01*
X87027000Y-65923750D01*
X86773000Y-65923750D01*
X86614250Y-65765000D01*
X86323690Y-65765000D01*
X86100000Y-65857656D01*
X85876310Y-65765000D01*
X85585750Y-65765000D01*
X85427000Y-65923750D01*
X85173000Y-65923750D01*
X85014250Y-65765000D01*
X84723690Y-65765000D01*
X84490301Y-65861673D01*
X84311673Y-66040302D01*
X84215000Y-66273691D01*
X78390020Y-66273691D01*
X79128711Y-65535000D01*
X88671288Y-65535000D01*
X88901288Y-65765000D01*
G36*
X106173855Y-69996145D02*
X106477191Y-70198827D01*
X106835000Y-70270000D01*
X107667708Y-70270000D01*
X107838110Y-70386431D01*
X108064091Y-70432193D01*
X105451584Y-73044700D01*
X103758900Y-73044700D01*
X103462320Y-73103693D01*
X103210892Y-73271692D01*
X103210890Y-73271695D01*
X100635000Y-75847584D01*
X100635000Y-75187290D01*
X104361145Y-71461145D01*
X104563827Y-71157809D01*
X104635000Y-70800000D01*
X104635000Y-70258964D01*
X104825000Y-70297440D01*
X105575000Y-70297440D01*
X105810317Y-70253162D01*
X106026441Y-70114090D01*
X106114644Y-69985000D01*
X106162710Y-69985000D01*
X106173855Y-69996145D01*
X106173855Y-69996145D01*
G37*
X106173855Y-69996145D02*
X106477191Y-70198827D01*
X106835000Y-70270000D01*
X107667708Y-70270000D01*
X107838110Y-70386431D01*
X108064091Y-70432193D01*
X105451584Y-73044700D01*
X103758900Y-73044700D01*
X103462320Y-73103693D01*
X103210892Y-73271692D01*
X103210890Y-73271695D01*
X100635000Y-75847584D01*
X100635000Y-75187290D01*
X104361145Y-71461145D01*
X104563827Y-71157809D01*
X104635000Y-70800000D01*
X104635000Y-70258964D01*
X104825000Y-70297440D01*
X105575000Y-70297440D01*
X105810317Y-70253162D01*
X106026441Y-70114090D01*
X106114644Y-69985000D01*
X106162710Y-69985000D01*
X106173855Y-69996145D01*
G36*
X130846740Y-66310451D02*
X130831433Y-66310438D01*
X130487657Y-66452483D01*
X130477823Y-66462300D01*
X130470220Y-66460788D01*
X130414090Y-66373559D01*
X130201890Y-66228569D01*
X129950000Y-66177560D01*
X128750000Y-66177560D01*
X128514683Y-66221838D01*
X128400022Y-66295620D01*
X128301890Y-66228569D01*
X128050000Y-66177560D01*
X126850000Y-66177560D01*
X126614683Y-66221838D01*
X126398559Y-66360910D01*
X126253569Y-66573110D01*
X126202560Y-66825000D01*
X126202560Y-67575000D01*
X126246838Y-67810317D01*
X126329894Y-67939390D01*
X123134584Y-71134700D01*
X117587462Y-71134700D01*
X117792192Y-70930327D01*
X117934838Y-70586799D01*
X117935162Y-70214833D01*
X117935000Y-70214441D01*
X117935000Y-70047440D01*
X118150000Y-70047440D01*
X118385317Y-70003162D01*
X118481182Y-69941474D01*
X118700000Y-69985000D01*
X119485982Y-69985000D01*
X119560910Y-70101441D01*
X119773110Y-70246431D01*
X120025000Y-70297440D01*
X120775000Y-70297440D01*
X121010317Y-70253162D01*
X121226441Y-70114090D01*
X121348808Y-69935000D01*
X121510982Y-69935000D01*
X121585910Y-70051441D01*
X121798110Y-70196431D01*
X122050000Y-70247440D01*
X122950000Y-70247440D01*
X123185317Y-70203162D01*
X123401441Y-70064090D01*
X123546431Y-69851890D01*
X123597440Y-69600000D01*
X123597440Y-68400000D01*
X123553162Y-68164683D01*
X123414090Y-67948559D01*
X123344289Y-67900866D01*
X123401441Y-67864090D01*
X123546431Y-67651890D01*
X123597440Y-67400000D01*
X123597440Y-66200000D01*
X123553162Y-65964683D01*
X123414090Y-65748559D01*
X123201890Y-65603569D01*
X122950000Y-65552560D01*
X122574850Y-65552560D01*
X121924845Y-64902555D01*
X121621509Y-64699873D01*
X121263700Y-64628700D01*
X120195216Y-64628700D01*
X120009233Y-64628538D01*
X119665457Y-64770583D01*
X119402208Y-65033373D01*
X119259562Y-65376901D01*
X119259238Y-65748867D01*
X119401283Y-66092643D01*
X119492728Y-66184247D01*
X119486673Y-66190302D01*
X119390000Y-66423691D01*
X119390000Y-66864250D01*
X119548750Y-67023000D01*
X120273000Y-67023000D01*
X120273000Y-67003000D01*
X120527000Y-67003000D01*
X120527000Y-67023000D01*
X120547000Y-67023000D01*
X120547000Y-67277000D01*
X120527000Y-67277000D01*
X120527000Y-67297000D01*
X120273000Y-67297000D01*
X120273000Y-67277000D01*
X119548750Y-67277000D01*
X119390000Y-67435750D01*
X119390000Y-67876309D01*
X119486673Y-68109698D01*
X119488043Y-68111068D01*
X119485356Y-68115000D01*
X119087290Y-68115000D01*
X118797440Y-67825150D01*
X118797440Y-65200000D01*
X118753162Y-64964683D01*
X118614090Y-64748559D01*
X118401890Y-64603569D01*
X118150000Y-64552560D01*
X115750000Y-64552560D01*
X115514683Y-64596838D01*
X115298559Y-64735910D01*
X115153569Y-64948110D01*
X115102560Y-65200000D01*
X115102560Y-69400000D01*
X115146838Y-69635317D01*
X115285910Y-69851441D01*
X115498110Y-69996431D01*
X115750000Y-70047440D01*
X116065000Y-70047440D01*
X116065000Y-70399184D01*
X116064838Y-70585167D01*
X116206883Y-70928943D01*
X116412281Y-71134700D01*
X111196015Y-71134700D01*
X111815315Y-70515400D01*
X113792100Y-70515400D01*
X114088680Y-70456407D01*
X114340108Y-70288408D01*
X114538405Y-70090110D01*
X114538408Y-70090108D01*
X114706407Y-69838680D01*
X114716195Y-69789474D01*
X114765401Y-69542100D01*
X114765400Y-69542095D01*
X114765400Y-65004600D01*
X114706407Y-64708020D01*
X114538408Y-64456592D01*
X114393408Y-64311592D01*
X114141980Y-64143593D01*
X113845400Y-64084600D01*
X108319205Y-64084600D01*
X108319200Y-64084599D01*
X108083114Y-64131560D01*
X108022620Y-64143593D01*
X107771192Y-64311592D01*
X106002905Y-66079879D01*
X105934699Y-66011673D01*
X105701310Y-65915000D01*
X105485750Y-65915000D01*
X105327000Y-66073750D01*
X105327000Y-67023000D01*
X105346193Y-67023000D01*
X105337600Y-67066200D01*
X105337600Y-67277000D01*
X105327000Y-67277000D01*
X105327000Y-67297000D01*
X105073000Y-67297000D01*
X105073000Y-67277000D01*
X103827000Y-67277000D01*
X103827000Y-67297000D01*
X103573000Y-67297000D01*
X103573000Y-67277000D01*
X102848750Y-67277000D01*
X102690000Y-67435750D01*
X102690000Y-67876309D01*
X102786673Y-68109698D01*
X102788043Y-68111068D01*
X102728569Y-68198110D01*
X102677560Y-68450000D01*
X102677560Y-69650000D01*
X102721838Y-69885317D01*
X102765000Y-69952393D01*
X102765000Y-70412710D01*
X99038855Y-74138855D01*
X98836173Y-74442191D01*
X98793783Y-74655297D01*
X98769017Y-74595357D01*
X98750900Y-74577208D01*
X98750900Y-71110605D01*
X98750901Y-71110600D01*
X98696020Y-70834699D01*
X98691907Y-70814020D01*
X98523908Y-70562592D01*
X98408756Y-70447440D01*
X99150000Y-70447440D01*
X99385317Y-70403162D01*
X99499978Y-70329380D01*
X99598110Y-70396431D01*
X99850000Y-70447440D01*
X100750000Y-70447440D01*
X100985317Y-70403162D01*
X101201441Y-70264090D01*
X101346431Y-70051890D01*
X101397440Y-69800000D01*
X101397440Y-68600000D01*
X101353162Y-68364683D01*
X101214090Y-68148559D01*
X101144289Y-68100866D01*
X101201441Y-68064090D01*
X101346431Y-67851890D01*
X101397440Y-67600000D01*
X101397440Y-66423691D01*
X102690000Y-66423691D01*
X102690000Y-66864250D01*
X102848750Y-67023000D01*
X103573000Y-67023000D01*
X103573000Y-66073750D01*
X103827000Y-66073750D01*
X103827000Y-67023000D01*
X105073000Y-67023000D01*
X105073000Y-66073750D01*
X104914250Y-65915000D01*
X104698690Y-65915000D01*
X104465301Y-66011673D01*
X104450000Y-66026974D01*
X104434699Y-66011673D01*
X104201310Y-65915000D01*
X103985750Y-65915000D01*
X103827000Y-66073750D01*
X103573000Y-66073750D01*
X103414250Y-65915000D01*
X103198690Y-65915000D01*
X102965301Y-66011673D01*
X102786673Y-66190302D01*
X102690000Y-66423691D01*
X101397440Y-66423691D01*
X101397440Y-66400000D01*
X101353162Y-66164683D01*
X101335000Y-66136458D01*
X101335000Y-64600000D01*
X101280308Y-64325046D01*
X101256215Y-64203922D01*
X101100371Y-63970685D01*
X101031856Y-63868144D01*
X101031853Y-63868142D01*
X100448711Y-63285000D01*
X127821288Y-63285000D01*
X130846740Y-66310451D01*
X130846740Y-66310451D01*
G37*
X130846740Y-66310451D02*
X130831433Y-66310438D01*
X130487657Y-66452483D01*
X130477823Y-66462300D01*
X130470220Y-66460788D01*
X130414090Y-66373559D01*
X130201890Y-66228569D01*
X129950000Y-66177560D01*
X128750000Y-66177560D01*
X128514683Y-66221838D01*
X128400022Y-66295620D01*
X128301890Y-66228569D01*
X128050000Y-66177560D01*
X126850000Y-66177560D01*
X126614683Y-66221838D01*
X126398559Y-66360910D01*
X126253569Y-66573110D01*
X126202560Y-66825000D01*
X126202560Y-67575000D01*
X126246838Y-67810317D01*
X126329894Y-67939390D01*
X123134584Y-71134700D01*
X117587462Y-71134700D01*
X117792192Y-70930327D01*
X117934838Y-70586799D01*
X117935162Y-70214833D01*
X117935000Y-70214441D01*
X117935000Y-70047440D01*
X118150000Y-70047440D01*
X118385317Y-70003162D01*
X118481182Y-69941474D01*
X118700000Y-69985000D01*
X119485982Y-69985000D01*
X119560910Y-70101441D01*
X119773110Y-70246431D01*
X120025000Y-70297440D01*
X120775000Y-70297440D01*
X121010317Y-70253162D01*
X121226441Y-70114090D01*
X121348808Y-69935000D01*
X121510982Y-69935000D01*
X121585910Y-70051441D01*
X121798110Y-70196431D01*
X122050000Y-70247440D01*
X122950000Y-70247440D01*
X123185317Y-70203162D01*
X123401441Y-70064090D01*
X123546431Y-69851890D01*
X123597440Y-69600000D01*
X123597440Y-68400000D01*
X123553162Y-68164683D01*
X123414090Y-67948559D01*
X123344289Y-67900866D01*
X123401441Y-67864090D01*
X123546431Y-67651890D01*
X123597440Y-67400000D01*
X123597440Y-66200000D01*
X123553162Y-65964683D01*
X123414090Y-65748559D01*
X123201890Y-65603569D01*
X122950000Y-65552560D01*
X122574850Y-65552560D01*
X121924845Y-64902555D01*
X121621509Y-64699873D01*
X121263700Y-64628700D01*
X120195216Y-64628700D01*
X120009233Y-64628538D01*
X119665457Y-64770583D01*
X119402208Y-65033373D01*
X119259562Y-65376901D01*
X119259238Y-65748867D01*
X119401283Y-66092643D01*
X119492728Y-66184247D01*
X119486673Y-66190302D01*
X119390000Y-66423691D01*
X119390000Y-66864250D01*
X119548750Y-67023000D01*
X120273000Y-67023000D01*
X120273000Y-67003000D01*
X120527000Y-67003000D01*
X120527000Y-67023000D01*
X120547000Y-67023000D01*
X120547000Y-67277000D01*
X120527000Y-67277000D01*
X120527000Y-67297000D01*
X120273000Y-67297000D01*
X120273000Y-67277000D01*
X119548750Y-67277000D01*
X119390000Y-67435750D01*
X119390000Y-67876309D01*
X119486673Y-68109698D01*
X119488043Y-68111068D01*
X119485356Y-68115000D01*
X119087290Y-68115000D01*
X118797440Y-67825150D01*
X118797440Y-65200000D01*
X118753162Y-64964683D01*
X118614090Y-64748559D01*
X118401890Y-64603569D01*
X118150000Y-64552560D01*
X115750000Y-64552560D01*
X115514683Y-64596838D01*
X115298559Y-64735910D01*
X115153569Y-64948110D01*
X115102560Y-65200000D01*
X115102560Y-69400000D01*
X115146838Y-69635317D01*
X115285910Y-69851441D01*
X115498110Y-69996431D01*
X115750000Y-70047440D01*
X116065000Y-70047440D01*
X116065000Y-70399184D01*
X116064838Y-70585167D01*
X116206883Y-70928943D01*
X116412281Y-71134700D01*
X111196015Y-71134700D01*
X111815315Y-70515400D01*
X113792100Y-70515400D01*
X114088680Y-70456407D01*
X114340108Y-70288408D01*
X114538405Y-70090110D01*
X114538408Y-70090108D01*
X114706407Y-69838680D01*
X114716195Y-69789474D01*
X114765401Y-69542100D01*
X114765400Y-69542095D01*
X114765400Y-65004600D01*
X114706407Y-64708020D01*
X114538408Y-64456592D01*
X114393408Y-64311592D01*
X114141980Y-64143593D01*
X113845400Y-64084600D01*
X108319205Y-64084600D01*
X108319200Y-64084599D01*
X108083114Y-64131560D01*
X108022620Y-64143593D01*
X107771192Y-64311592D01*
X106002905Y-66079879D01*
X105934699Y-66011673D01*
X105701310Y-65915000D01*
X105485750Y-65915000D01*
X105327000Y-66073750D01*
X105327000Y-67023000D01*
X105346193Y-67023000D01*
X105337600Y-67066200D01*
X105337600Y-67277000D01*
X105327000Y-67277000D01*
X105327000Y-67297000D01*
X105073000Y-67297000D01*
X105073000Y-67277000D01*
X103827000Y-67277000D01*
X103827000Y-67297000D01*
X103573000Y-67297000D01*
X103573000Y-67277000D01*
X102848750Y-67277000D01*
X102690000Y-67435750D01*
X102690000Y-67876309D01*
X102786673Y-68109698D01*
X102788043Y-68111068D01*
X102728569Y-68198110D01*
X102677560Y-68450000D01*
X102677560Y-69650000D01*
X102721838Y-69885317D01*
X102765000Y-69952393D01*
X102765000Y-70412710D01*
X99038855Y-74138855D01*
X98836173Y-74442191D01*
X98793783Y-74655297D01*
X98769017Y-74595357D01*
X98750900Y-74577208D01*
X98750900Y-71110605D01*
X98750901Y-71110600D01*
X98696020Y-70834699D01*
X98691907Y-70814020D01*
X98523908Y-70562592D01*
X98408756Y-70447440D01*
X99150000Y-70447440D01*
X99385317Y-70403162D01*
X99499978Y-70329380D01*
X99598110Y-70396431D01*
X99850000Y-70447440D01*
X100750000Y-70447440D01*
X100985317Y-70403162D01*
X101201441Y-70264090D01*
X101346431Y-70051890D01*
X101397440Y-69800000D01*
X101397440Y-68600000D01*
X101353162Y-68364683D01*
X101214090Y-68148559D01*
X101144289Y-68100866D01*
X101201441Y-68064090D01*
X101346431Y-67851890D01*
X101397440Y-67600000D01*
X101397440Y-66423691D01*
X102690000Y-66423691D01*
X102690000Y-66864250D01*
X102848750Y-67023000D01*
X103573000Y-67023000D01*
X103573000Y-66073750D01*
X103827000Y-66073750D01*
X103827000Y-67023000D01*
X105073000Y-67023000D01*
X105073000Y-66073750D01*
X104914250Y-65915000D01*
X104698690Y-65915000D01*
X104465301Y-66011673D01*
X104450000Y-66026974D01*
X104434699Y-66011673D01*
X104201310Y-65915000D01*
X103985750Y-65915000D01*
X103827000Y-66073750D01*
X103573000Y-66073750D01*
X103414250Y-65915000D01*
X103198690Y-65915000D01*
X102965301Y-66011673D01*
X102786673Y-66190302D01*
X102690000Y-66423691D01*
X101397440Y-66423691D01*
X101397440Y-66400000D01*
X101353162Y-66164683D01*
X101335000Y-66136458D01*
X101335000Y-64600000D01*
X101280308Y-64325046D01*
X101256215Y-64203922D01*
X101100371Y-63970685D01*
X101031856Y-63868144D01*
X101031853Y-63868142D01*
X100448711Y-63285000D01*
X127821288Y-63285000D01*
X130846740Y-66310451D01*
G36*
X129600000Y-74265300D02*
X129747000Y-74265300D01*
X129747000Y-74427000D01*
X129727000Y-74427000D01*
X129727000Y-74447000D01*
X129473000Y-74447000D01*
X129473000Y-74427000D01*
X129453000Y-74427000D01*
X129453000Y-74236060D01*
X129600000Y-74265300D01*
X129600000Y-74265300D01*
G37*
X129600000Y-74265300D02*
X129747000Y-74265300D01*
X129747000Y-74427000D01*
X129727000Y-74427000D01*
X129727000Y-74447000D01*
X129473000Y-74447000D01*
X129473000Y-74427000D01*
X129453000Y-74427000D01*
X129453000Y-74236060D01*
X129600000Y-74265300D01*
G36*
X94573110Y-70246431D02*
X94825000Y-70297440D01*
X95575000Y-70297440D01*
X95810317Y-70253162D01*
X95939390Y-70170106D01*
X97200900Y-71431616D01*
X97200900Y-74185185D01*
X93310148Y-70294432D01*
X93325000Y-70297440D01*
X94075000Y-70297440D01*
X94310317Y-70253162D01*
X94450727Y-70162810D01*
X94573110Y-70246431D01*
X94573110Y-70246431D01*
G37*
X94573110Y-70246431D02*
X94825000Y-70297440D01*
X95575000Y-70297440D01*
X95810317Y-70253162D01*
X95939390Y-70170106D01*
X97200900Y-71431616D01*
X97200900Y-74185185D01*
X93310148Y-70294432D01*
X93325000Y-70297440D01*
X94075000Y-70297440D01*
X94310317Y-70253162D01*
X94450727Y-70162810D01*
X94573110Y-70246431D01*
G36*
X89472461Y-70378906D02*
X89483993Y-70436880D01*
X89651992Y-70688308D01*
X89903420Y-70856307D01*
X90200000Y-70915300D01*
X91059584Y-70915300D01*
X92356084Y-72211800D01*
X91007816Y-72211800D01*
X89193751Y-70397735D01*
X89351477Y-70296241D01*
X89472461Y-70378906D01*
X89472461Y-70378906D01*
G37*
X89472461Y-70378906D02*
X89483993Y-70436880D01*
X89651992Y-70688308D01*
X89903420Y-70856307D01*
X90200000Y-70915300D01*
X91059584Y-70915300D01*
X92356084Y-72211800D01*
X91007816Y-72211800D01*
X89193751Y-70397735D01*
X89351477Y-70296241D01*
X89472461Y-70378906D01*
G36*
X65408854Y-64693420D02*
X65783647Y-65068867D01*
X66273587Y-65272308D01*
X66409715Y-65272427D01*
X70664318Y-69527029D01*
X70471057Y-69606883D01*
X70246230Y-69831318D01*
X65159871Y-64744959D01*
X65295344Y-64418704D01*
X65408854Y-64693420D01*
X65408854Y-64693420D01*
G37*
X65408854Y-64693420D02*
X65783647Y-65068867D01*
X66273587Y-65272308D01*
X66409715Y-65272427D01*
X70664318Y-69527029D01*
X70471057Y-69606883D01*
X70246230Y-69831318D01*
X65159871Y-64744959D01*
X65295344Y-64418704D01*
X65408854Y-64693420D01*
G36*
X99265000Y-65028711D02*
X99265000Y-65765000D01*
X98985750Y-65765000D01*
X98827000Y-65923750D01*
X98827000Y-66873000D01*
X98847000Y-66873000D01*
X98847000Y-67127000D01*
X98827000Y-67127000D01*
X98827000Y-67147000D01*
X98573000Y-67147000D01*
X98573000Y-67127000D01*
X97773750Y-67127000D01*
X97615000Y-67285750D01*
X97615000Y-67726309D01*
X97711673Y-67959698D01*
X97852910Y-68100936D01*
X97798559Y-68135910D01*
X97653569Y-68348110D01*
X97626595Y-68481313D01*
X97613120Y-68483993D01*
X97402088Y-68625000D01*
X97361692Y-68651992D01*
X96987500Y-69026184D01*
X96463308Y-68501992D01*
X96211880Y-68333993D01*
X96200174Y-68331664D01*
X96178162Y-68214683D01*
X96111671Y-68111354D01*
X96113327Y-68109698D01*
X96210000Y-67876309D01*
X96210000Y-67435750D01*
X96051250Y-67277000D01*
X95327000Y-67277000D01*
X95327000Y-67297000D01*
X95073000Y-67297000D01*
X95073000Y-67277000D01*
X93827000Y-67277000D01*
X93827000Y-67297000D01*
X93573000Y-67297000D01*
X93573000Y-67277000D01*
X92848750Y-67277000D01*
X92690000Y-67435750D01*
X92690000Y-67876309D01*
X92786673Y-68109698D01*
X92788043Y-68111068D01*
X92728569Y-68198110D01*
X92701595Y-68331313D01*
X92688120Y-68333993D01*
X92436692Y-68501992D01*
X92171948Y-68766736D01*
X91930057Y-68866683D01*
X91666808Y-69129473D01*
X91554519Y-69399894D01*
X91380600Y-69365300D01*
X91297440Y-69365300D01*
X91297440Y-68600000D01*
X91253162Y-68364683D01*
X91114090Y-68148559D01*
X91044289Y-68100866D01*
X91101441Y-68064090D01*
X91246431Y-67851890D01*
X91297440Y-67600000D01*
X91297440Y-66423691D01*
X92690000Y-66423691D01*
X92690000Y-66864250D01*
X92848750Y-67023000D01*
X93573000Y-67023000D01*
X93573000Y-66073750D01*
X93827000Y-66073750D01*
X93827000Y-67023000D01*
X95073000Y-67023000D01*
X95073000Y-66073750D01*
X95327000Y-66073750D01*
X95327000Y-67023000D01*
X96051250Y-67023000D01*
X96210000Y-66864250D01*
X96210000Y-66423691D01*
X96147868Y-66273691D01*
X97615000Y-66273691D01*
X97615000Y-66714250D01*
X97773750Y-66873000D01*
X98573000Y-66873000D01*
X98573000Y-65923750D01*
X98414250Y-65765000D01*
X98123690Y-65765000D01*
X97890301Y-65861673D01*
X97711673Y-66040302D01*
X97615000Y-66273691D01*
X96147868Y-66273691D01*
X96113327Y-66190302D01*
X95934699Y-66011673D01*
X95701310Y-65915000D01*
X95485750Y-65915000D01*
X95327000Y-66073750D01*
X95073000Y-66073750D01*
X94914250Y-65915000D01*
X94698690Y-65915000D01*
X94465301Y-66011673D01*
X94450000Y-66026974D01*
X94434699Y-66011673D01*
X94201310Y-65915000D01*
X93985750Y-65915000D01*
X93827000Y-66073750D01*
X93573000Y-66073750D01*
X93414250Y-65915000D01*
X93198690Y-65915000D01*
X92965301Y-66011673D01*
X92786673Y-66190302D01*
X92690000Y-66423691D01*
X91297440Y-66423691D01*
X91297440Y-66400000D01*
X91253162Y-66164683D01*
X91235000Y-66136458D01*
X91235000Y-65600005D01*
X91235001Y-65600000D01*
X91156215Y-65203923D01*
X91117452Y-65145910D01*
X90931856Y-64868144D01*
X90931853Y-64868142D01*
X90498711Y-64435000D01*
X98671288Y-64435000D01*
X99265000Y-65028711D01*
X99265000Y-65028711D01*
G37*
X99265000Y-65028711D02*
X99265000Y-65765000D01*
X98985750Y-65765000D01*
X98827000Y-65923750D01*
X98827000Y-66873000D01*
X98847000Y-66873000D01*
X98847000Y-67127000D01*
X98827000Y-67127000D01*
X98827000Y-67147000D01*
X98573000Y-67147000D01*
X98573000Y-67127000D01*
X97773750Y-67127000D01*
X97615000Y-67285750D01*
X97615000Y-67726309D01*
X97711673Y-67959698D01*
X97852910Y-68100936D01*
X97798559Y-68135910D01*
X97653569Y-68348110D01*
X97626595Y-68481313D01*
X97613120Y-68483993D01*
X97402088Y-68625000D01*
X97361692Y-68651992D01*
X96987500Y-69026184D01*
X96463308Y-68501992D01*
X96211880Y-68333993D01*
X96200174Y-68331664D01*
X96178162Y-68214683D01*
X96111671Y-68111354D01*
X96113327Y-68109698D01*
X96210000Y-67876309D01*
X96210000Y-67435750D01*
X96051250Y-67277000D01*
X95327000Y-67277000D01*
X95327000Y-67297000D01*
X95073000Y-67297000D01*
X95073000Y-67277000D01*
X93827000Y-67277000D01*
X93827000Y-67297000D01*
X93573000Y-67297000D01*
X93573000Y-67277000D01*
X92848750Y-67277000D01*
X92690000Y-67435750D01*
X92690000Y-67876309D01*
X92786673Y-68109698D01*
X92788043Y-68111068D01*
X92728569Y-68198110D01*
X92701595Y-68331313D01*
X92688120Y-68333993D01*
X92436692Y-68501992D01*
X92171948Y-68766736D01*
X91930057Y-68866683D01*
X91666808Y-69129473D01*
X91554519Y-69399894D01*
X91380600Y-69365300D01*
X91297440Y-69365300D01*
X91297440Y-68600000D01*
X91253162Y-68364683D01*
X91114090Y-68148559D01*
X91044289Y-68100866D01*
X91101441Y-68064090D01*
X91246431Y-67851890D01*
X91297440Y-67600000D01*
X91297440Y-66423691D01*
X92690000Y-66423691D01*
X92690000Y-66864250D01*
X92848750Y-67023000D01*
X93573000Y-67023000D01*
X93573000Y-66073750D01*
X93827000Y-66073750D01*
X93827000Y-67023000D01*
X95073000Y-67023000D01*
X95073000Y-66073750D01*
X95327000Y-66073750D01*
X95327000Y-67023000D01*
X96051250Y-67023000D01*
X96210000Y-66864250D01*
X96210000Y-66423691D01*
X96147868Y-66273691D01*
X97615000Y-66273691D01*
X97615000Y-66714250D01*
X97773750Y-66873000D01*
X98573000Y-66873000D01*
X98573000Y-65923750D01*
X98414250Y-65765000D01*
X98123690Y-65765000D01*
X97890301Y-65861673D01*
X97711673Y-66040302D01*
X97615000Y-66273691D01*
X96147868Y-66273691D01*
X96113327Y-66190302D01*
X95934699Y-66011673D01*
X95701310Y-65915000D01*
X95485750Y-65915000D01*
X95327000Y-66073750D01*
X95073000Y-66073750D01*
X94914250Y-65915000D01*
X94698690Y-65915000D01*
X94465301Y-66011673D01*
X94450000Y-66026974D01*
X94434699Y-66011673D01*
X94201310Y-65915000D01*
X93985750Y-65915000D01*
X93827000Y-66073750D01*
X93573000Y-66073750D01*
X93414250Y-65915000D01*
X93198690Y-65915000D01*
X92965301Y-66011673D01*
X92786673Y-66190302D01*
X92690000Y-66423691D01*
X91297440Y-66423691D01*
X91297440Y-66400000D01*
X91253162Y-66164683D01*
X91235000Y-66136458D01*
X91235000Y-65600005D01*
X91235001Y-65600000D01*
X91156215Y-65203923D01*
X91117452Y-65145910D01*
X90931856Y-64868144D01*
X90931853Y-64868142D01*
X90498711Y-64435000D01*
X98671288Y-64435000D01*
X99265000Y-65028711D01*
G36*
X75331274Y-62924514D02*
X75322590Y-62911019D01*
X75110390Y-62766029D01*
X74858500Y-62715020D01*
X73461500Y-62715020D01*
X73226183Y-62759298D01*
X73010059Y-62898370D01*
X72865069Y-63110570D01*
X72817530Y-63345323D01*
X72751146Y-63184660D01*
X72376353Y-62809213D01*
X71886413Y-62605772D01*
X71355914Y-62605309D01*
X70865620Y-62807894D01*
X70490173Y-63182687D01*
X70324656Y-63581296D01*
X70211146Y-63306580D01*
X69836353Y-62931133D01*
X69346413Y-62727692D01*
X68815914Y-62727229D01*
X68325620Y-62929814D01*
X67950173Y-63304607D01*
X67835157Y-63581597D01*
X67671146Y-63184660D01*
X67296353Y-62809213D01*
X66806413Y-62605772D01*
X66275914Y-62605309D01*
X65785620Y-62807894D01*
X65410173Y-63182687D01*
X65244656Y-63581296D01*
X65131146Y-63306580D01*
X64756353Y-62931133D01*
X64266413Y-62727692D01*
X64135134Y-62727577D01*
X64727711Y-62135000D01*
X76120789Y-62135000D01*
X75331274Y-62924514D01*
X75331274Y-62924514D01*
G37*
X75331274Y-62924514D02*
X75322590Y-62911019D01*
X75110390Y-62766029D01*
X74858500Y-62715020D01*
X73461500Y-62715020D01*
X73226183Y-62759298D01*
X73010059Y-62898370D01*
X72865069Y-63110570D01*
X72817530Y-63345323D01*
X72751146Y-63184660D01*
X72376353Y-62809213D01*
X71886413Y-62605772D01*
X71355914Y-62605309D01*
X70865620Y-62807894D01*
X70490173Y-63182687D01*
X70324656Y-63581296D01*
X70211146Y-63306580D01*
X69836353Y-62931133D01*
X69346413Y-62727692D01*
X68815914Y-62727229D01*
X68325620Y-62929814D01*
X67950173Y-63304607D01*
X67835157Y-63581597D01*
X67671146Y-63184660D01*
X67296353Y-62809213D01*
X66806413Y-62605772D01*
X66275914Y-62605309D01*
X65785620Y-62807894D01*
X65410173Y-63182687D01*
X65244656Y-63581296D01*
X65131146Y-63306580D01*
X64756353Y-62931133D01*
X64266413Y-62727692D01*
X64135134Y-62727577D01*
X64727711Y-62135000D01*
X76120789Y-62135000D01*
X75331274Y-62924514D01*
M02*
